<?xml version="1.0" encoding="UTF-8" standalone="no"?><!DOCTYPE svg PUBLIC "-//W3C//DTD SVG 1.1//EN" "http://www.w3.org/Graphics/SVG/1.1/DTD/svg11.dtd"><svg width="100%" height="100%" viewBox="0 0 3334 1667" version="1.1" xmlns="http://www.w3.org/2000/svg" xmlns:xlink="http://www.w3.org/1999/xlink" xml:space="preserve" xmlns:serif="http://www.serif.com/" style="fill-rule:evenodd;clip-rule:evenodd;stroke-linecap:round;stroke-linejoin:round;stroke-miterlimit:1.5;"><path d="M3333.15,55.967c0,-30.888 -25.079,-55.967 -55.966,-55.967l-3221.4,0c-30.888,0 -55.967,25.079 -55.967,55.967l-0,1554.73c-0,30.888 25.079,55.967 55.967,55.967l3221.4,-0c30.887,-0 55.966,-25.08 55.966,-55.967l0,-1554.73Z" style="fill:#f3f4f4;"/><path d="M2770.83,833.333l145.834,0" style="fill:none;stroke:#000;stroke-width:8.33px;"/><circle cx="2583.33" cy="837.704" r="187.5" style="fill:#fff;stroke:#000;stroke-width:8.33px;"/><g><text x="1363.91px" y="136.354px" style="font-family:'Helvetica';font-size:83.333px;">1 verdeckte Schicht</text><text x="1382.46px" y="219.688px" style="font-family:'Helvetica';font-size:83.333px;">mit zwei Neuronen</text><g transform="matrix(6.245e-17,-1,1,6.245e-17,-1761.94,808.411)"><g transform="matrix(83.3333,0,0,83.3333,255.086,1951.84)"></g><text x="-310.099px" y="1951.84px" style="font-family:'Helvetica';font-size:83.333px;">Eingabeschicht</text></g><g transform="matrix(83.3333,0,0,83.3333,2878.78,543.913)"></g><text x="2290.45px" y="543.913px" style="font-family:'Helvetica';font-size:83.333px;">Ausgabeschicht</text></g><g><path d="M583.604,1472.22l894.023,-969.009" style="fill:none;stroke:#000;stroke-width:8.34px;"/></g><g><path d="M581.971,1043.1l895.656,-539.892" style="fill:none;stroke:#000;stroke-width:8.34px;"/></g><g><path d="M1852.16,562.346l543.671,275.358" style="fill:none;stroke:#000;stroke-width:8.33px;"/></g><g><path d="M1853.98,1195.09l541.853,-361.759" style="fill:none;stroke:#000;stroke-width:8.33px;"/></g><g><circle cx="462.109" cy="1462.07" r="125" style="fill:#ccdee9;"/></g><g><circle cx="3041.67" cy="833.333" r="125" style="fill:#005a94;"/></g><g><circle cx="458.333" cy="1045.45" r="125" style="fill:#ccdee9;"/></g><g><circle cx="458.333" cy="628.838" r="125" style="fill:#ccdee9;"/></g><g><circle cx="461.45" cy="212.225" r="125" style="fill:#ccdee9;"/></g><g><circle cx="1665.6" cy="523.575" r="187.5" style="fill:#fff;stroke:#000;stroke-width:8.33px;"/></g><g><circle cx="1666.48" cy="1195.09" r="187.5" style="fill:#fff;stroke:#000;stroke-width:8.33px;"/></g><g><path d="M583.333,1500l895.069,-290.908" style="fill:none;stroke:#000;stroke-width:8.31px;"/></g><g><path d="M581.58,234.325l896.822,974.767" style="fill:none;stroke:#000;stroke-width:8.31px;"/></g><g><path d="M577.637,657.217l900.765,551.875" style="fill:none;stroke:#000;stroke-width:8.31px;"/></g><g><path d="M579.455,1065.13l898.947,143.963" style="fill:none;stroke:#000;stroke-width:8.31px;"/></g><g><path d="M589.917,214.283l887.71,288.925" style="fill:none;stroke:#000;stroke-width:8.34px;"/></g><g><path d="M586.257,637.413l891.37,-134.205" style="fill:none;stroke:#000;stroke-width:8.34px;"/></g></svg>