<?xml version="1.0" encoding="UTF-8" standalone="no"?>
<!DOCTYPE svg PUBLIC "-//W3C//DTD SVG 1.1//EN" "http://www.w3.org/Graphics/SVG/1.1/DTD/svg11.dtd">
<svg width="100%" height="100%" viewBox="0 0 800 400" version="1.1" xmlns="http://www.w3.org/2000/svg" xmlns:xlink="http://www.w3.org/1999/xlink" xml:space="preserve" xmlns:serif="http://www.serif.com/" style="fill-rule:evenodd;clip-rule:evenodd;stroke-linecap:round;stroke-linejoin:round;stroke-miterlimit:1.5;">
    <path d="M800,13.432C800,6.019 793.981,0 786.568,0L13.432,0C6.019,0 0,6.019 0,13.432L0,386.568C0,393.981 6.019,400 13.432,400L786.568,400C793.981,400 800,393.981 800,386.568L800,13.432Z" style="fill:rgb(243,244,244);"/>
    <g transform="matrix(1,0,0,1,620.938,73.229)">
        <g transform="matrix(20,0,0,20,139.081,41.4438)">
        </g>
        <text x="79.042px" y="41.444px" style="font-family:'Helvetica';font-size:20px;">Output</text>
    </g>
    <g transform="matrix(1.08111,-0.102455,0.102455,-1.12942,-16.0406,458.156)">
        <path d="M239.907,65.146L315,200" style="fill:none;stroke:black;stroke-width:1.66px;"/>
    </g>
    <g transform="matrix(1,0,0,-1,30,400)">
        <path d="M220,160L315,200" style="fill:none;stroke:black;stroke-width:2px;"/>
    </g>
    <g transform="matrix(1,0,0,-1,30,400)">
        <path d="M220,240L315,200" style="fill:none;stroke:black;stroke-width:2px;"/>
    </g>
    <g transform="matrix(1,0,0,-1,30,400)">
        <path d="M220,320L315,200" style="fill:none;stroke:black;stroke-width:2px;"/>
    </g>
    <g transform="matrix(3.5424,0,0,1,-1105.94,0)">
        <path d="M435,200L510,200" style="fill:none;stroke:black;stroke-width:0.77px;"/>
    </g>
    <g transform="matrix(1,0,0,-1,-40,550)">
        <circle cx="150" cy="190" r="30" style="fill:rgb(204,222,233);"/>
    </g>
    <g transform="matrix(1,0,0,-1,580,390)">
        <circle cx="150" cy="190" r="30" style="fill:rgb(0,90,148);"/>
    </g>
    <g transform="matrix(1,0,0,1,722.097,189.136)">
        <path d="M8.178,8.52C7.891,6.608 7.724,5.842 7.198,4.934L6.839,4.934L3.444,5.197L3.444,5.89C3.444,5.89 3.946,5.842 4.281,5.842C5.739,5.842 5.859,7.014 6.026,8.09L7.437,16.506C6.768,17.535 4.855,20.236 4.4,20.236C3.874,20.236 3.611,18.969 2.703,18.969C2.153,18.969 1.77,19.28 1.77,19.997C1.77,20.882 2.607,21.551 3.611,21.551C5.429,21.551 6.887,18.969 9.087,15.933C10.33,14.211 11.693,12.155 12.984,9.883C13.749,8.592 14.036,7.516 14.036,6.584C14.036,5.555 13.415,4.766 12.53,4.766C11.837,4.766 11.478,5.197 11.478,5.699C11.478,6.608 12.65,7.277 12.65,7.899C12.65,8.473 12.434,9.046 11.86,9.979L9.111,14.402L8.967,14.402L8.752,12.011L8.178,8.52Z" style="fill:rgb(254,254,254);fill-rule:nonzero;"/>
        <path d="M13.198,3.834L10.616,0.176L9.038,0.176L6.456,3.834L7.388,3.834L9.827,1.491L12.29,3.834L13.198,3.834Z" style="fill:rgb(254,254,254);fill-rule:nonzero;"/>
    </g>
    <g transform="matrix(1,0,0,-1,-40,430)">
        <circle cx="150" cy="190" r="30" style="fill:rgb(204,222,233);"/>
    </g>
    <g transform="matrix(1,0,0,-1,-40,350)">
        <circle cx="150" cy="190" r="30" style="fill:rgb(204,222,233);"/>
    </g>
    <g transform="matrix(1,0,0,-1,-40,270)">
        <circle cx="150" cy="190" r="30" style="fill:rgb(204,222,233);"/>
    </g>
    <g transform="matrix(0.8,0,0,-0.8,74,452)">
        <circle cx="195" cy="115" r="25" style="fill:white;stroke:black;stroke-width:2.5px;"/>
    </g>
    <g transform="matrix(0.8,0,0,-0.8,74,332)">
        <circle cx="195" cy="115" r="25" style="fill:white;stroke:black;stroke-width:2.5px;"/>
    </g>
    <g transform="matrix(0.8,0,0,-0.8,74,252)">
        <circle cx="195" cy="115" r="25" style="fill:white;stroke:black;stroke-width:2.5px;"/>
    </g>
    <g transform="matrix(0.8,0,0,-0.8,74,172)">
        <circle cx="195" cy="115" r="25" style="fill:white;stroke:black;stroke-width:2.5px;"/>
    </g>
    <g transform="matrix(1.8,0,0,-1.8,39,407)">
        <circle cx="195" cy="115" r="25" style="fill:white;stroke:black;stroke-width:1.11px;"/>
    </g>
    <g transform="matrix(1.26103,0,0,-1,8.23495,410)">
        <path d="M104.49,50L160,50" style="fill:none;stroke:black;stroke-width:1.76px;"/>
    </g>
    <g transform="matrix(1.26103,0,0,-1,8.23495,290)">
        <path d="M104.49,50L160,50" style="fill:none;stroke:black;stroke-width:1.76px;"/>
    </g>
    <g transform="matrix(1.26103,0,0,-1,7.73495,210)">
        <path d="M104.886,50L160.397,50" style="fill:none;stroke:black;stroke-width:1.76px;"/>
    </g>
    <g transform="matrix(1.26103,0,0,-1,7.73495,130)">
        <path d="M104.886,50L160.397,50" style="fill:none;stroke:black;stroke-width:1.76px;"/>
    </g>
    <g transform="matrix(1,0,0,1,10.9384,0)">
        <g transform="matrix(20,0,0,20,121.303,33.6379)">
        </g>
        <text x="76.82px" y="33.638px" style="font-family:'Helvetica';font-size:20px;">Input</text>
    </g>
    <g transform="matrix(1,0,0,1,106.415,0)">
        <g transform="matrix(20,0,0,20,166.367,33.6379)">
        </g>
        <text x="82.998px" y="33.638px" style="font-family:'Helvetica';font-size:20px;">Gewichte</text>
    </g>
    <g transform="matrix(1,0,0,1,249.472,2.03435)">
        <text x="93.19px" y="47.457px" style="font-family:'Helvetica';font-size:20px;">gewichtete</text>
        <text x="106.544px" y="67.457px" style="font-family:'Helvetica';font-size:20px;">Summe</text>
        <text x="135.157px" y="87.457px" style="font-family:'Helvetica';font-size:20px;">+</text>
        <text x="83.199px" y="107.457px" style="font-family:'Helvetica';font-size:20px;">Aktivierungs-</text>
        <g transform="matrix(20,0,0,20,176.022,127.457)">
        </g>
        <text x="105.973px" y="127.457px" style="font-family:'Helvetica';font-size:20px;">funktion</text>
    </g>
    <g transform="matrix(0.872674,0,0,0.872674,102.467,68.0086)">
        <path d="M14.944,25.2L14.944,24.196C11.644,24.196 10.317,23.55 10.317,21.793L10.317,2.282L9.277,2.282L2.319,4.255L2.319,5.438C3.431,5.079 5.26,4.864 5.978,4.864C6.874,4.864 7.161,5.366 7.161,6.622L7.161,21.793C7.161,23.586 5.906,24.196 2.534,24.196L2.534,25.2L14.944,25.2Z" style="fill-rule:nonzero;"/>
    </g>
    <g transform="matrix(0.809363,0,0,0.809363,97.4958,152.604)">
        <path d="M10.963,6.981L10.855,6.981L10.425,5.152C9.923,3.215 9.241,1.637 8.381,0.633L7.843,0.633L2.857,1.207L2.857,2.282C2.857,2.282 3.395,2.175 3.969,2.175C6.336,2.139 6.946,3.107 7.914,6.12L8.919,9.384L6.336,13.15C4.937,15.158 4.292,15.194 4.148,15.194C3.539,15.194 2.678,14.728 1.889,14.728C1.028,14.728 0.49,15.517 0.49,16.234C0.49,17.131 1.028,17.992 2.57,17.992C4.722,17.992 5.906,16.306 7.053,14.441L9.349,10.711L9.492,10.711L10.389,14.333C10.891,16.665 11.68,18.027 13.33,18.027C15.769,18.027 17.275,15.589 18.315,14.011L17.562,13.437C16.594,14.728 15.912,15.445 14.98,15.445C13.868,15.445 13.151,14.118 12.146,10.818L11.393,8.38L13.581,4.901C14.191,3.896 14.693,3.394 15.518,3.394C15.984,3.394 16.809,3.753 17.383,3.753C18.351,3.753 19.033,2.928 19.033,2.067C19.033,1.063 18.602,0.489 17.239,0.489C15.123,0.489 13.689,2.247 12.72,3.968L10.963,6.981Z" style="fill-rule:nonzero;"/>
        <path d="M30.409,25.2L30.409,24.497C28.099,24.497 27.17,24.045 27.17,22.815L27.17,9.157L26.442,9.157L21.571,10.538L21.571,11.367C22.35,11.116 23.63,10.965 24.132,10.965C24.76,10.965 24.961,11.316 24.961,12.195L24.961,22.815C24.961,24.07 24.082,24.497 21.722,24.497L21.722,25.2L30.409,25.2Z" style="fill-rule:nonzero;"/>
    </g>
    <g transform="matrix(0.809363,0,0,0.809363,97.1097,232.604)">
        <path d="M10.963,6.981L10.855,6.981L10.425,5.152C9.923,3.215 9.241,1.637 8.381,0.633L7.843,0.633L2.857,1.207L2.857,2.282C2.857,2.282 3.395,2.175 3.969,2.175C6.336,2.139 6.946,3.107 7.914,6.12L8.919,9.384L6.336,13.15C4.937,15.158 4.292,15.194 4.148,15.194C3.539,15.194 2.678,14.728 1.889,14.728C1.028,14.728 0.49,15.517 0.49,16.234C0.49,17.131 1.028,17.992 2.57,17.992C4.722,17.992 5.906,16.306 7.053,14.441L9.349,10.711L9.492,10.711L10.389,14.333C10.891,16.665 11.68,18.027 13.33,18.027C15.769,18.027 17.275,15.589 18.315,14.011L17.562,13.437C16.594,14.728 15.912,15.445 14.98,15.445C13.868,15.445 13.151,14.118 12.146,10.818L11.393,8.38L13.581,4.901C14.191,3.896 14.693,3.394 15.518,3.394C15.984,3.394 16.809,3.753 17.383,3.753C18.351,3.753 19.033,2.928 19.033,2.067C19.033,1.063 18.602,0.489 17.239,0.489C15.123,0.489 13.689,2.247 12.72,3.968L10.963,6.981Z" style="fill-rule:nonzero;"/>
        <path d="M31.363,21.183L30.635,21.183C30.057,22.689 29.731,23.217 28.4,23.217L24.911,23.217L23.153,23.292L23.153,23.166L26.467,20.028C29.128,17.342 30.559,15.61 30.559,13.375C30.559,10.739 28.576,9.032 25.739,9.032C23.304,9.032 21.597,10.438 20.818,12.873L21.421,13.124C22.35,11.241 23.454,10.664 25.086,10.664C27.019,10.664 28.224,11.869 28.224,13.752C28.224,16.388 26.969,17.97 24.484,20.53L20.668,24.346L20.668,25.2L30.559,25.2L31.363,21.183Z" style="fill-rule:nonzero;"/>
    </g>
    <g transform="matrix(0.802838,0,0,0.802838,94.6472,352.749)">
        <path d="M10.963,6.804L10.855,6.804L10.425,4.975C9.923,3.039 9.241,1.461 8.381,0.456L7.843,0.456L2.857,1.03L2.857,2.106C2.857,2.106 3.395,1.999 3.969,1.999C6.336,1.963 6.946,2.931 7.914,5.944L8.919,9.207L6.336,12.973C4.937,14.982 4.292,15.018 4.148,15.018C3.539,15.018 2.678,14.551 1.889,14.551C1.028,14.551 0.49,15.34 0.49,16.058C0.49,16.954 1.028,17.815 2.57,17.815C4.722,17.815 5.906,16.13 7.053,14.265L9.349,10.534L9.492,10.534L10.389,14.157C10.891,16.488 11.68,17.851 13.33,17.851C15.769,17.851 17.275,15.412 18.315,13.834L17.562,13.26C16.594,14.551 15.912,15.269 14.98,15.269C13.868,15.269 13.151,13.942 12.146,10.642L11.393,8.203L13.581,4.724C14.191,3.72 14.693,3.218 15.518,3.218C15.984,3.218 16.809,3.577 17.383,3.577C18.351,3.577 19.033,2.752 19.033,1.891C19.033,0.887 18.602,0.313 17.239,0.313C15.123,0.313 13.689,2.07 12.72,3.792L10.963,6.804Z" style="fill-rule:nonzero;"/>
        <path d="M39.371,8.529L33.447,8.529L33.296,9.282C34.35,9.282 34.827,9.408 35.129,9.91C35.355,10.337 35.355,11.015 35.053,12.521L33.321,20.881L33.195,20.881L26.417,8.529L22.475,8.529L22.325,9.282C23.404,9.282 23.831,9.508 24.408,10.437L22.174,21.283C21.672,23.819 21.295,24.27 19.337,24.27L19.186,25.024L24.961,25.024L25.111,24.27C23.228,24.27 22.902,23.793 23.404,21.283L25.362,11.743L25.488,11.743L32.869,25.224L33.698,25.224L36.258,12.646C36.66,10.688 37.062,10.186 37.539,9.784C37.915,9.458 38.317,9.282 39.221,9.282L39.371,8.529Z" style="fill-rule:nonzero;"/>
    </g>
    <g transform="matrix(1,0,0,1,218.225,74.5394)">
        <path d="M7.428,8.213C8.456,6.587 9.341,4.722 9.484,3.479C9.484,3.288 9.03,3.025 8.528,3.025C8.145,3.025 7.691,3.144 7.572,3.336C6.806,4.531 6.424,6.659 6.424,7.663C6.424,7.855 6.424,8.094 6.448,8.309C6.113,8.763 5.3,9.672 3.794,9.672C2.55,9.672 1.57,9.002 1.57,7.018C1.57,4.459 3.268,2.618 5.874,2.14C6.4,2.021 6.759,1.495 6.759,0.945C6.759,0.61 6.639,0.347 6.472,0.156C1.833,0.897 0.518,4.268 0.518,7.4C0.518,10.007 1.211,11.824 3.172,11.824C4.702,11.824 5.802,10.604 6.591,9.265L6.687,9.265C7.093,10.939 7.882,11.824 9.269,11.824C13.071,11.824 14.649,8.285 14.649,5.129C14.649,1.853 12.808,0.371 11.875,0.251L11.66,0.562C12.067,0.945 13.119,2.499 13.119,4.77C13.119,7.64 11.971,9.768 9.245,9.768C7.835,9.768 7.428,9.026 7.428,8.213Z" style="fill-rule:nonzero;"/>
        <path d="M23.032,11.276C23.032,7.828 21.526,5.836 19.367,5.836C16.94,5.836 15.651,8.046 15.651,11.226C15.651,14.188 16.639,16.766 19.333,16.766C21.961,16.766 23.032,14.138 23.032,11.276ZM21.409,11.376C21.409,14.59 20.656,16.163 19.333,16.163C17.994,16.163 17.258,14.556 17.258,11.309C17.258,7.995 17.994,6.405 19.317,6.405C20.689,6.405 21.409,7.979 21.409,11.376Z" style="fill-rule:nonzero;"/>
    </g>
    <g transform="matrix(1,0,0,1,218.576,153.413)">
        <path d="M7.428,8.432C8.456,6.806 9.341,4.941 9.484,3.698C9.484,3.506 9.03,3.243 8.528,3.243C8.145,3.243 7.691,3.363 7.572,3.554C6.806,4.75 6.424,6.878 6.424,7.882C6.424,8.073 6.424,8.312 6.448,8.527C6.113,8.982 5.3,9.89 3.794,9.89C2.55,9.89 1.57,9.221 1.57,7.236C1.57,4.678 3.268,2.837 5.874,2.359C6.4,2.239 6.759,1.713 6.759,1.163C6.759,0.828 6.639,0.565 6.472,0.374C1.833,1.115 0.518,4.487 0.518,7.619C0.518,10.225 1.211,12.042 3.172,12.042C4.702,12.042 5.802,10.823 6.591,9.484L6.687,9.484C7.093,11.158 7.882,12.042 9.269,12.042C13.071,12.042 14.649,8.503 14.649,5.347C14.649,2.072 12.808,0.589 11.875,0.47L11.66,0.78C12.067,1.163 13.119,2.717 13.119,4.989C13.119,7.858 11.971,9.986 9.245,9.986C7.835,9.986 7.428,9.245 7.428,8.432Z" style="fill-rule:nonzero;"/>
        <path d="M22.329,16.8L22.329,16.331C20.789,16.331 20.17,16.03 20.17,15.21L20.17,6.105L19.685,6.105L16.438,7.025L16.438,7.578C16.957,7.41 17.81,7.31 18.145,7.31C18.563,7.31 18.697,7.544 18.697,8.13L18.697,15.21C18.697,16.047 18.111,16.331 16.538,16.331L16.538,16.8L22.329,16.8Z" style="fill-rule:nonzero;"/>
    </g>
    <g transform="matrix(1,0,0,1,218.258,233.413)">
        <path d="M7.428,8.432C8.456,6.806 9.341,4.941 9.484,3.698C9.484,3.506 9.03,3.243 8.528,3.243C8.145,3.243 7.691,3.363 7.572,3.554C6.806,4.75 6.424,6.878 6.424,7.882C6.424,8.073 6.424,8.312 6.448,8.527C6.113,8.982 5.3,9.89 3.794,9.89C2.55,9.89 1.57,9.221 1.57,7.236C1.57,4.678 3.268,2.837 5.874,2.359C6.4,2.239 6.759,1.713 6.759,1.163C6.759,0.828 6.639,0.565 6.472,0.374C1.833,1.115 0.518,4.487 0.518,7.619C0.518,10.225 1.211,12.042 3.172,12.042C4.702,12.042 5.802,10.823 6.591,9.484L6.687,9.484C7.093,11.158 7.882,12.042 9.269,12.042C13.071,12.042 14.649,8.503 14.649,5.347C14.649,2.072 12.808,0.589 11.875,0.47L11.66,0.78C12.067,1.163 13.119,2.717 13.119,4.989C13.119,7.858 11.971,9.986 9.245,9.986C7.835,9.986 7.428,9.245 7.428,8.432Z" style="fill-rule:nonzero;"/>
        <path d="M22.965,14.122L22.48,14.122C22.095,15.126 21.877,15.478 20.99,15.478L18.664,15.478L17.492,15.528L17.492,15.444L19.702,13.352C21.476,11.561 22.43,10.406 22.43,8.917C22.43,7.159 21.107,6.021 19.216,6.021C17.593,6.021 16.454,6.959 15.936,8.582L16.337,8.749C16.957,7.494 17.693,7.109 18.781,7.109C20.07,7.109 20.873,7.913 20.873,9.168C20.873,10.925 20.036,11.98 18.379,13.687L15.835,16.231L15.835,16.8L22.43,16.8L22.965,14.122Z" style="fill-rule:nonzero;"/>
    </g>
    <g transform="matrix(1,0,0,1,215.589,353.464)">
        <path d="M7.428,8.314C8.456,6.688 9.341,4.823 9.484,3.58C9.484,3.389 9.03,3.126 8.528,3.126C8.145,3.126 7.691,3.245 7.572,3.436C6.806,4.632 6.424,6.76 6.424,7.764C6.424,7.955 6.424,8.195 6.448,8.41C6.113,8.864 5.3,9.773 3.794,9.773C2.55,9.773 1.57,9.103 1.57,7.119C1.57,4.56 3.268,2.719 5.874,2.241C6.4,2.121 6.759,1.595 6.759,1.045C6.759,0.711 6.639,0.448 6.472,0.256C1.833,0.998 0.518,4.369 0.518,7.501C0.518,10.107 1.211,11.925 3.172,11.925C4.702,11.925 5.802,10.705 6.591,9.366L6.687,9.366C7.093,11.04 7.882,11.925 9.269,11.925C13.071,11.925 14.649,8.386 14.649,5.23C14.649,1.954 12.808,0.472 11.875,0.352L11.66,0.663C12.067,1.045 13.119,2.6 13.119,4.871C13.119,7.74 11.971,9.868 9.245,9.868C7.835,9.868 7.428,9.127 7.428,8.314Z" style="fill-rule:nonzero;"/>
        <path d="M28.304,5.686L24.354,5.686L24.254,6.188C24.957,6.188 25.275,6.272 25.476,6.607C25.627,6.891 25.627,7.343 25.426,8.347L24.271,13.921L24.187,13.921L19.668,5.686L17.04,5.686L16.94,6.188C17.66,6.188 17.944,6.339 18.329,6.958L16.839,14.189C16.505,15.879 16.254,16.18 14.948,16.18L14.848,16.682L18.697,16.682L18.798,16.18C17.542,16.18 17.325,15.862 17.66,14.189L18.965,7.828L19.049,7.828L23.97,16.816L24.522,16.816L26.229,8.431C26.497,7.125 26.765,6.791 27.083,6.523C27.334,6.305 27.601,6.188 28.204,6.188L28.304,5.686Z" style="fill-rule:nonzero;"/>
    </g>
    <g transform="matrix(0.551373,-0.38616,0.38616,0.551373,85.8694,227.855)">
        <g transform="matrix(1,0,0,1,360,172.014)">
            <path d="M16.955,0.928L13.663,0.928L13.58,1.347C14.166,1.347 14.431,1.417 14.598,1.695C14.723,1.933 14.723,2.309 14.556,3.146L13.594,7.791L13.524,7.791L9.758,0.928L7.568,0.928L7.485,1.347C8.084,1.347 8.321,1.472 8.642,1.988L7.401,8.014C7.122,9.423 6.913,9.674 5.825,9.674L5.741,10.092L8.949,10.092L9.033,9.674C7.987,9.674 7.805,9.409 8.084,8.014L9.172,2.714L9.242,2.714L13.343,10.204L13.803,10.204L15.226,3.216C15.449,2.128 15.672,1.849 15.937,1.626C16.146,1.444 16.369,1.347 16.871,1.347L16.955,0.928Z" style="fill-rule:nonzero;"/>
        </g>
        <g transform="matrix(1,0,0,1,360,172.014)">
            <path d="M18.074,32.985L17.277,32.985C16.48,35.695 15.782,37.369 13.292,37.369L4.823,37.369L4.823,37.269L11.777,28.104L11.777,27.725L5.64,19.934L5.64,19.854L12.196,19.854C14.866,19.854 16.181,20.452 16.639,23.78L17.416,23.78L17.197,18.798L2.293,18.798L2.293,19.277L9.864,28.761L2.153,38.843L2.153,39.321L16.858,39.321L18.074,32.985Z" style="fill-rule:nonzero;"/>
        </g>
        <g transform="matrix(1,0,0,1,360,172.014)">
            <path d="M3.203,47.31C3.203,46.85 2.938,46.543 2.478,46.543C2.018,46.543 1.711,46.836 1.711,47.31C1.711,47.798 2.018,48.063 2.436,48.063C2.855,48.063 3.203,47.784 3.203,47.31ZM2.869,49.179L2.562,49.179L0.609,49.332L0.609,49.709C0.609,49.709 0.846,49.681 1.083,49.681C1.46,49.681 1.53,49.904 1.53,50.085C1.53,50.323 1.488,50.518 1.488,50.518L0.776,53.837C0.595,54.66 0.539,54.967 0.539,55.204C0.539,55.692 0.86,55.944 1.418,55.944C2.339,55.944 2.882,55.162 3.371,54.479L3.092,54.27C2.869,54.521 2.478,54.995 2.004,54.995C1.836,54.995 1.753,54.911 1.753,54.73C1.753,54.535 1.822,54.144 1.822,54.144L2.869,49.179Z" style="fill-rule:nonzero;"/>
            <path d="M13.804,51.257L13.804,50.309L5.491,50.309L5.491,51.257L13.804,51.257ZM13.804,54.102L13.804,53.168L5.491,53.168L5.491,54.102L13.804,54.102Z" style="fill-rule:nonzero;"/>
            <path d="M22.605,51.397C22.605,48.523 21.349,46.864 19.55,46.864C17.528,46.864 16.454,48.705 16.454,51.355C16.454,53.823 17.277,55.971 19.522,55.971C21.712,55.971 22.605,53.782 22.605,51.397ZM21.252,51.48C21.252,54.158 20.624,55.469 19.522,55.469C18.406,55.469 17.793,54.13 17.793,51.424C17.793,48.663 18.406,47.338 19.508,47.338C20.652,47.338 21.252,48.649 21.252,51.48Z" style="fill-rule:nonzero;"/>
        </g>
        <g transform="matrix(1,0,0,1,360,172.014)">
            <path d="M33.876,31.62C34.733,30.266 35.47,28.711 35.59,27.675C35.59,27.516 35.211,27.297 34.793,27.297C34.474,27.297 34.095,27.396 33.996,27.556C33.358,28.552 33.039,30.325 33.039,31.162C33.039,31.322 33.039,31.521 33.059,31.7C32.78,32.079 32.103,32.836 30.847,32.836C29.811,32.836 28.994,32.278 28.994,30.624C28.994,28.492 30.409,26.958 32.581,26.559C33.019,26.46 33.318,26.021 33.318,25.563C33.318,25.284 33.219,25.065 33.079,24.906C29.214,25.523 28.118,28.333 28.118,30.943C28.118,33.115 28.696,34.629 30.329,34.629C31.605,34.629 32.521,33.613 33.179,32.497L33.258,32.497C33.597,33.892 34.255,34.629 35.41,34.629C38.578,34.629 39.894,31.68 39.894,29.05C39.894,26.32 38.359,25.085 37.582,24.985L37.403,25.244C37.742,25.563 38.618,26.858 38.618,28.751C38.618,31.142 37.662,32.916 35.39,32.916C34.215,32.916 33.876,32.298 33.876,31.62Z" style="fill-rule:nonzero;"/>
            <path d="M43.741,30.086C43.741,29.626 43.476,29.319 43.016,29.319C42.556,29.319 42.249,29.612 42.249,30.086C42.249,30.574 42.556,30.839 42.974,30.839C43.393,30.839 43.741,30.56 43.741,30.086ZM43.407,31.955L43.1,31.955L41.147,32.108L41.147,32.485C41.147,32.485 41.384,32.457 41.621,32.457C41.998,32.457 42.068,32.68 42.068,32.861C42.068,33.099 42.026,33.294 42.026,33.294L41.314,36.613C41.133,37.436 41.077,37.743 41.077,37.98C41.077,38.468 41.398,38.72 41.956,38.72C42.877,38.72 43.42,37.938 43.909,37.255L43.63,37.046C43.407,37.297 43.016,37.771 42.542,37.771C42.374,37.771 42.291,37.687 42.291,37.506C42.291,37.311 42.36,36.92 42.36,36.92L43.407,31.955Z" style="fill-rule:nonzero;"/>
            <path d="M51.972,28.472L51.913,28.472L51.674,27.456C51.395,26.38 51.016,25.503 50.538,24.945L50.239,24.945L47.469,25.264L47.469,25.862C47.469,25.862 47.768,25.802 48.087,25.802C49.402,25.782 49.741,26.32 50.279,27.994L50.837,29.807L49.402,31.899C48.625,33.015 48.266,33.035 48.187,33.035C47.848,33.035 47.37,32.776 46.931,32.776C46.453,32.776 46.154,33.214 46.154,33.613C46.154,34.111 46.453,34.589 47.31,34.589C48.505,34.589 49.163,33.653 49.801,32.617L51.076,30.544L51.156,30.544L51.654,32.557C51.933,33.852 52.371,34.609 53.288,34.609C54.642,34.609 55.479,33.254 56.057,32.378L55.639,32.059C55.101,32.776 54.722,33.175 54.204,33.175C53.586,33.175 53.188,32.437 52.63,30.604L52.212,29.249L53.427,27.317C53.766,26.759 54.045,26.48 54.503,26.48C54.762,26.48 55.22,26.679 55.539,26.679C56.077,26.679 56.456,26.221 56.456,25.743C56.456,25.185 56.217,24.866 55.459,24.866C54.284,24.866 53.487,25.842 52.949,26.799L51.972,28.472Z" style="fill-rule:nonzero;"/>
            <path d="M60.223,30.086C60.223,29.626 59.958,29.319 59.498,29.319C59.038,29.319 58.731,29.612 58.731,30.086C58.731,30.574 59.038,30.839 59.456,30.839C59.875,30.839 60.223,30.56 60.223,30.086ZM59.889,31.955L59.582,31.955L57.629,32.108L57.629,32.485C57.629,32.485 57.866,32.457 58.103,32.457C58.48,32.457 58.55,32.68 58.55,32.861C58.55,33.099 58.508,33.294 58.508,33.294L57.796,36.613C57.615,37.436 57.559,37.743 57.559,37.98C57.559,38.468 57.88,38.72 58.438,38.72C59.359,38.72 59.902,37.938 60.391,37.255L60.112,37.046C59.889,37.297 59.498,37.771 59.024,37.771C58.856,37.771 58.773,37.687 58.773,37.506C58.773,37.311 58.842,36.92 58.842,36.92L59.889,31.955Z" style="fill-rule:nonzero;"/>
        </g>
    </g>
    <g transform="matrix(0.823481,0,0,0.768612,-63.2157,56.443)">
        <path d="M520.256,219.909L554.058,219.746L554.285,179.613L590.273,179.615" style="fill:none;stroke:rgb(0,90,148);stroke-width:2.51px;"/>
    </g>
</svg>
