<?xml version="1.0" encoding="UTF-8" standalone="no"?><!DOCTYPE svg PUBLIC "-//W3C//DTD SVG 1.1//EN" "http://www.w3.org/Graphics/SVG/1.1/DTD/svg11.dtd"><svg width="100%" height="100%" viewBox="0 0 1667 1875" version="1.1" xmlns="http://www.w3.org/2000/svg" xmlns:xlink="http://www.w3.org/1999/xlink" xml:space="preserve" xmlns:serif="http://www.serif.com/" style="fill-rule:evenodd;clip-rule:evenodd;"><rect x="334.904" y="177.083" width="666.667" height="283.333" style="fill:#fff;fill-rule:nonzero;stroke:#000;stroke-width:4.17px;"/><rect x="0" y="0" width="1666.67" height="1875" style="fill:none;stroke:#000;stroke-width:8.33px;stroke-linecap:round;stroke-linejoin:round;stroke-miterlimit:1.5;"/><rect x="1174.49" y="1075" width="395.833" height="220.833" style="fill:#fff;fill-rule:nonzero;stroke:#000;stroke-width:4.17px;"/><rect x="253.654" y="1043.75" width="845.833" height="283.333" style="fill:#fff;fill-rule:nonzero;stroke:#000;stroke-width:4.17px;"/><rect x="589.071" y="610.417" width="875" height="283.333" style="fill:#fff;fill-rule:nonzero;stroke:#000;stroke-width:4.17px;"/><g><g transform="matrix(50,0,0,50,1410.56,1146.19)"></g><text x="1381.56px" y="1146.19px" style="font-family:'Lato-Regular', 'Lato', sans-serif;font-size:50px;fill:#ef553b;">4</text><g><g><path d="M1425.06,1157.03c2.341,-0 4.246,1.905 4.246,4.246c-0,2.342 -1.905,4.247 -4.246,4.247c-2.342,-0 -4.247,-1.905 -4.247,-4.247c0,-2.341 1.905,-4.246 4.247,-4.246Z" style="fill:#ef553b;fill-rule:nonzero;"/><path d="M1416.89,1161.28c0,4.51 3.656,8.165 8.165,8.165c4.509,0 8.165,-3.655 8.165,-8.165c0,-4.509 -3.656,-8.165 -8.165,-8.165c-4.509,0 -8.165,3.656 -8.165,8.165Zm2.104,0c-0,-3.342 2.719,-6.061 6.062,-6.061c3.342,0 6.061,2.719 6.061,6.061c-0,3.343 -2.719,6.062 -6.061,6.062c-3.343,-0 -6.062,-2.719 -6.062,-6.062Z" style="fill:#ef553b;fill-rule:nonzero;"/></g><g><path d="M1491.22,1157.03c2.341,-0 4.246,1.905 4.246,4.246c-0,2.342 -1.905,4.247 -4.246,4.247c-2.341,-0 -4.247,-1.905 -4.247,-4.247c0,-2.341 1.906,-4.246 4.247,-4.246Z" style="fill:#ef553b;fill-rule:nonzero;"/><path d="M1483.06,1161.28c-0,4.51 3.656,8.165 8.165,8.165c4.51,0 8.165,-3.655 8.165,-8.165c0,-4.509 -3.655,-8.165 -8.165,-8.165c-4.51,0 -8.165,3.656 -8.165,8.165Zm2.103,0c0,-3.342 2.72,-6.061 6.062,-6.061c3.342,0 6.061,2.719 6.061,6.061c-0,3.343 -2.719,6.062 -6.061,6.062c-3.343,-0 -6.062,-2.719 -6.062,-6.062Z" style="fill:#ef553b;fill-rule:nonzero;"/></g><path d="M1411,1161.28l4.591,0c-0,0 -0.27,-9.92 9.473,-9.92c9.743,0 10.104,9.92 10.104,9.92l46.176,0c0,0 0,-9.785 9.878,-9.785c9.878,0 10.105,9.785 10.105,9.785c8.777,0 10.262,0.612 10.532,-4.246c0.269,-4.858 -2.971,-4.999 -2.971,-4.999c-1.62,-12.287 -25.383,-12.962 -25.383,-12.962c-0,0 -14.312,-10.666 -23.088,-10.936c-8.777,-0.27 -20.118,-1.215 -28.894,1.755c-8.777,2.97 -17.418,18.903 -17.418,18.903c-5.265,3.78 -3.105,12.485 -3.105,12.485Zm90.274,-16.738c0,0 5.726,2.704 5.854,7.618c-0,-0 -4.187,0.769 -5.64,-0.897c-1.453,-1.666 -0.214,-6.721 -0.214,-6.721Zm-53.25,-13.835c2.648,0.016 5.282,-0.03 7.843,-0.035c11.338,-0.017 21.449,8.693 21.449,8.693l-29.291,0.053l-0,-8.711l-0.001,-0Zm-23.905,8.753c5.876,-7.491 13.475,-8.626 21.165,-8.745l0,8.707l-21.165,0.038Z" style="fill:#ef553b;fill-rule:nonzero;stroke:#ef553b;stroke-width:4.17px;stroke-linejoin:round;stroke-miterlimit:2;"/></g></g><rect x="716.154" y="1477.08" width="395.833" height="220.833" style="fill:#fff;fill-rule:nonzero;stroke:#000;stroke-width:4.17px;"/><rect x="245.321" y="1477.08" width="395.833" height="220.833" style="fill:#fff;fill-rule:nonzero;stroke:#000;stroke-width:4.17px;"/><g><g transform="matrix(50,0,0,50,1237.85,1146.19)"></g><text x="1208.86px" y="1146.19px" style="font-family:'Lato-Regular', 'Lato', sans-serif;font-size:50px;fill:#ef553b;">2</text><g><g><path d="M1252.36,1157.03c2.342,-0 4.246,1.905 4.246,4.246c0,2.342 -1.904,4.247 -4.246,4.247c-2.341,-0 -4.246,-1.905 -4.246,-4.247c-0,-2.341 1.905,-4.246 4.246,-4.246Z" style="fill:#ef553b;fill-rule:nonzero;"/><path d="M1244.19,1161.28c-0,4.51 3.656,8.165 8.165,8.165c4.509,0 8.165,-3.655 8.165,-8.165c-0,-4.509 -3.656,-8.165 -8.165,-8.165c-4.509,0 -8.165,3.656 -8.165,8.165Zm2.104,0c-0,-3.342 2.719,-6.061 6.061,-6.061c3.342,0 6.062,2.719 6.062,6.061c-0,3.343 -2.72,6.062 -6.062,6.062c-3.342,-0 -6.061,-2.719 -6.061,-6.062Z" style="fill:#ef553b;fill-rule:nonzero;"/></g><g><path d="M1318.52,1157.03c2.341,-0 4.245,1.905 4.245,4.246c0,2.342 -1.904,4.247 -4.245,4.247c-2.342,-0 -4.247,-1.905 -4.247,-4.247c-0,-2.341 1.905,-4.246 4.247,-4.246Z" style="fill:#ef553b;fill-rule:nonzero;"/><path d="M1310.35,1161.28c-0,4.51 3.655,8.165 8.165,8.165c4.509,0 8.165,-3.655 8.165,-8.165c-0,-4.509 -3.656,-8.165 -8.165,-8.165c-4.51,0 -8.165,3.656 -8.165,8.165Zm2.103,0c-0,-3.342 2.719,-6.061 6.062,-6.061c3.342,0 6.06,2.719 6.06,6.061c0,3.343 -2.719,6.062 -6.06,6.062c-3.343,-0 -6.062,-2.719 -6.062,-6.062Z" style="fill:#ef553b;fill-rule:nonzero;"/></g><path d="M1238.29,1161.28l4.591,0c0,0 -0.27,-9.92 9.473,-9.92c9.743,0 10.105,9.92 10.105,9.92l46.176,0c0,0 0,-9.785 9.878,-9.785c9.878,0 10.105,9.785 10.105,9.785c8.776,0 10.261,0.612 10.532,-4.246c0.269,-4.858 -2.971,-4.999 -2.971,-4.999c-1.621,-12.287 -25.383,-12.962 -25.383,-12.962c-0,0 -14.312,-10.666 -23.089,-10.936c-8.776,-0.27 -20.117,-1.215 -28.894,1.755c-8.776,2.97 -17.417,18.903 -17.417,18.903c-5.266,3.78 -3.106,12.485 -3.106,12.485Zm90.275,-16.738c-0,0 5.726,2.704 5.854,7.618c-0,-0 -4.187,0.769 -5.64,-0.897c-1.453,-1.666 -0.214,-6.721 -0.214,-6.721Zm-53.25,-13.835c2.648,0.016 5.282,-0.03 7.842,-0.035c11.339,-0.017 21.449,8.693 21.449,8.693l-29.291,0.053l0,-8.711l-0,-0Zm-23.906,8.753c5.877,-7.491 13.475,-8.626 21.166,-8.745l-0,8.707l-21.166,0.038Z" style="fill:#ef553b;fill-rule:nonzero;stroke:#ef553b;stroke-width:4.17px;stroke-linejoin:round;stroke-miterlimit:2;"/></g></g><rect x="116.154" y="641.667" width="395.833" height="220.833" style="fill:#fff;fill-rule:nonzero;stroke:#000;stroke-width:4.17px;"/><g transform="matrix(58.3333,0,0,58.3333,932.188,1407.72)"></g><text x="822.288px" y="1407.72px" style="font-family:'Lato-Regular', 'Lato', sans-serif;font-size:58.333px;">nein</text><g transform="matrix(58.3333,0,0,58.3333,1329.4,980.054)"></g><text x="1219.5px" y="980.054px" style="font-family:'Lato-Regular', 'Lato', sans-serif;font-size:58.333px;">nein</text><g transform="matrix(58.3333,0,0,58.3333,480.647,535.756)"></g><text x="437.655px" y="535.756px" style="font-family:'Lato-Regular', 'Lato', sans-serif;font-size:58.333px;">ja</text><g transform="matrix(58.3333,0,0,58.3333,847.029,967.687)"></g><text x="804.038px" y="967.687px" style="font-family:'Lato-Regular', 'Lato', sans-serif;font-size:58.333px;">ja</text><g transform="matrix(58.3333,0,0,58.3333,542.192,1407.72)"></g><text x="499.201px" y="1407.72px" style="font-family:'Lato-Regular', 'Lato', sans-serif;font-size:58.333px;">ja</text><g transform="matrix(58.3333,0,0,58.3333,965.764,535.756)"></g><text x="855.864px" y="535.756px" style="font-family:'Lato-Regular', 'Lato', sans-serif;font-size:58.333px;">nein</text><text x="366.917px" y="240.417px" style="font-family:'Lato-Regular', 'Lato', sans-serif;font-size:58.333px;">P<tspan x="401.392px 421.429px " y="240.417px 240.417px ">re</tspan>is [EUR] &lt;= 16376.5</text><path d="M553.238,460.917c-39.334,47.166 -83.334,100 -122.792,147.333" style="fill:none;fill-rule:nonzero;stroke:#000;stroke-width:4.17px;"/><path d="M440.571,618.917l-37.875,22.666l15.458,-41.333l22.417,18.667Z" style="fill-rule:nonzero;stroke:#000;stroke-width:4.17px;"/><text x="610.625px" y="673.75px" style="font-family:'Lato-Regular', 'Lato', sans-serif;font-size:58.333px;">Kilome<tspan x="788.688px 809.454px 840.254px 861.313px " y="673.75px 673.75px 673.75px 673.75px ">ters</tspan>tand [km<tspan x="1110.37px " y="673.75px ">]</tspan> &lt;= 13500.0</text><path d="M784.571,460.917c31.292,37.083 65.5,77.666 98.125,116.333" style="fill:none;fill-rule:nonzero;stroke:#000;stroke-width:4.17px;"/><path d="M893.863,567.917l15.708,41.25l-38,-22.459l22.292,-18.791Z" style="fill-rule:nonzero;stroke:#000;stroke-width:4.17px;"/><text x="277.542px" y="1107.08px" style="font-family:'Lato-Regular', 'Lato', sans-serif;font-size:58.333px;">Kilome<tspan x="455.604px 476.371px 507.171px 528.229px " y="1107.08px 1107.08px 1107.08px 1107.08px ">ters</tspan>tand [km<tspan x="777.284px " y="1107.08px ">]</tspan> &lt;= 8198.0</text><g id="edge3"><path d="M912.946,894.25c-30.25,36.708 -63.333,76.875 -94.875,115.167" style="fill:none;fill-rule:nonzero;stroke:#000;stroke-width:4.17px;"/><path d="M828.571,1019.62l-37.75,22.875l15.25,-41.417l22.5,18.542Z" style="fill-rule:nonzero;stroke:#000;stroke-width:4.17px;"/></g><g id="edge6"><path d="M1138.86,894.25c38.416,47.167 81.375,100 119.875,147.333" style="fill:none;fill-rule:nonzero;stroke:#000;stroke-width:4.17px;"/><path d="M1270.9,1033.38l14.959,41.542l-37.584,-23.125l22.625,-18.417Z" style="fill-rule:nonzero;stroke:#000;stroke-width:4.17px;"/></g><g id="edge4"><path d="M594.946,1327.29c-21.458,36.208 -44.625,75.375 -66.292,111.916" style="fill:none;fill-rule:nonzero;stroke:#000;stroke-width:4.17px;"/><path d="M540.571,1447.67l-33.792,28.416l8.709,-43.25l25.083,14.834Z" style="fill-rule:nonzero;stroke:#000;stroke-width:4.17px;"/></g><g id="edge5"><path d="M759.654,1327.29c22.042,36.583 45.959,76.208 68.167,113.041" style="fill:none;fill-rule:nonzero;stroke:#000;stroke-width:4.17px;"/><path d="M840.363,1432.88l9.041,43.208l-34.041,-28.125l25,-15.083Z" style="fill-rule:nonzero;stroke:#000;stroke-width:4.17px;"/></g><g><g transform="matrix(50,0,0,50,1242.86,1243.67)"></g><text x="1213.86px" y="1243.67px" style="font-family:'Lato-Regular', 'Lato', sans-serif;font-size:50px;fill:#ef553b;">6</text><g><g><path d="M1257.36,1254.52c2.341,-0 4.246,1.905 4.246,4.246c-0,2.341 -1.905,4.246 -4.246,4.246c-2.342,0 -4.247,-1.905 -4.247,-4.246c0,-2.341 1.905,-4.246 4.247,-4.246Z" style="fill:#ef553b;fill-rule:nonzero;"/><path d="M1249.2,1258.76c0,4.509 3.656,8.165 8.165,8.165c4.51,0 8.165,-3.656 8.165,-8.165c0,-4.509 -3.655,-8.165 -8.165,-8.165c-4.509,0 -8.165,3.656 -8.165,8.165Zm2.104,0c0,-3.342 2.719,-6.061 6.062,-6.061c3.342,-0 6.061,2.719 6.061,6.061c0,3.342 -2.719,6.061 -6.061,6.061c-3.343,0 -6.062,-2.719 -6.062,-6.061Z" style="fill:#ef553b;fill-rule:nonzero;"/></g><g><path d="M1323.52,1254.52c2.341,-0 4.246,1.905 4.246,4.246c-0,2.341 -1.905,4.246 -4.246,4.246c-2.341,0 -4.247,-1.905 -4.247,-4.246c0,-2.341 1.906,-4.246 4.247,-4.246Z" style="fill:#ef553b;fill-rule:nonzero;"/><path d="M1315.36,1258.76c0,4.509 3.656,8.165 8.165,8.165c4.51,0 8.165,-3.656 8.165,-8.165c0,-4.509 -3.655,-8.165 -8.165,-8.165c-4.51,0 -8.165,3.656 -8.165,8.165Zm2.103,0c0,-3.342 2.72,-6.061 6.062,-6.061c3.342,-0 6.061,2.719 6.061,6.061c-0,3.342 -2.719,6.061 -6.061,6.061c-3.343,0 -6.062,-2.719 -6.062,-6.061Z" style="fill:#ef553b;fill-rule:nonzero;"/></g><path d="M1243.3,1258.76l4.591,0c-0,0 -0.27,-9.92 9.473,-9.92c9.743,-0 10.104,9.92 10.104,9.92l46.176,0c0,0 0,-9.785 9.879,-9.785c9.878,-0 10.105,9.785 10.105,9.785c8.776,0 10.261,0.611 10.531,-4.246c0.27,-4.858 -2.971,-4.999 -2.971,-4.999c-1.62,-12.287 -25.383,-12.962 -25.383,-12.962c-0,-0 -14.312,-10.667 -23.088,-10.937c-8.777,-0.27 -20.118,-1.215 -28.894,1.756c-8.777,2.97 -17.418,18.902 -17.418,18.902c-5.265,3.781 -3.105,12.486 -3.105,12.486Zm90.274,-16.738c0,-0 5.726,2.704 5.854,7.618c-0,-0 -4.187,0.769 -5.64,-0.898c-1.453,-1.666 -0.214,-6.72 -0.214,-6.72Zm-53.25,-13.836c2.649,0.017 5.282,-0.03 7.843,-0.034c11.338,-0.018 21.449,8.693 21.449,8.693l-29.291,0.052l-0,-8.711l-0.001,0Zm-23.905,8.753c5.876,-7.491 13.475,-8.625 21.165,-8.744l0,8.707l-21.165,0.037Z" style="fill:#ef553b;fill-rule:nonzero;stroke:#ef553b;stroke-width:4.17px;stroke-linejoin:round;stroke-miterlimit:2;"/></g></g><g><g transform="matrix(50,0,0,50,1410.56,1243.67)"></g><text x="1381.56px" y="1243.67px" style="font-family:'Lato-Regular', 'Lato', sans-serif;font-size:50px;fill:#ef553b;">9</text><g><g><path d="M1425.06,1254.52c2.341,-0 4.246,1.905 4.246,4.246c-0,2.341 -1.905,4.246 -4.246,4.246c-2.342,0 -4.247,-1.905 -4.247,-4.246c0,-2.341 1.905,-4.246 4.247,-4.246Z" style="fill:#ef553b;fill-rule:nonzero;"/><path d="M1416.89,1258.76c0,4.509 3.656,8.165 8.165,8.165c4.509,0 8.165,-3.656 8.165,-8.165c0,-4.509 -3.656,-8.165 -8.165,-8.165c-4.509,0 -8.165,3.656 -8.165,8.165Zm2.104,0c-0,-3.342 2.719,-6.061 6.062,-6.061c3.342,-0 6.061,2.719 6.061,6.061c-0,3.342 -2.719,6.061 -6.061,6.061c-3.343,0 -6.062,-2.719 -6.062,-6.061Z" style="fill:#ef553b;fill-rule:nonzero;"/></g><g><path d="M1491.22,1254.52c2.341,-0 4.246,1.905 4.246,4.246c-0,2.341 -1.905,4.246 -4.246,4.246c-2.341,0 -4.247,-1.905 -4.247,-4.246c0,-2.341 1.906,-4.246 4.247,-4.246Z" style="fill:#ef553b;fill-rule:nonzero;"/><path d="M1483.06,1258.76c-0,4.509 3.656,8.165 8.165,8.165c4.51,0 8.165,-3.656 8.165,-8.165c0,-4.509 -3.655,-8.165 -8.165,-8.165c-4.51,0 -8.165,3.656 -8.165,8.165Zm2.103,0c0,-3.342 2.72,-6.061 6.062,-6.061c3.342,-0 6.061,2.719 6.061,6.061c-0,3.342 -2.719,6.061 -6.061,6.061c-3.343,0 -6.062,-2.719 -6.062,-6.061Z" style="fill:#ef553b;fill-rule:nonzero;"/></g><path d="M1411,1258.76l4.591,0c-0,0 -0.27,-9.92 9.473,-9.92c9.743,-0 10.104,9.92 10.104,9.92l46.176,0c0,0 0,-9.785 9.878,-9.785c9.878,-0 10.105,9.785 10.105,9.785c8.777,0 10.262,0.611 10.532,-4.246c0.269,-4.858 -2.971,-4.999 -2.971,-4.999c-1.62,-12.287 -25.383,-12.962 -25.383,-12.962c-0,-0 -14.312,-10.667 -23.088,-10.937c-8.777,-0.27 -20.118,-1.215 -28.894,1.756c-8.777,2.97 -17.418,18.902 -17.418,18.902c-5.265,3.781 -3.105,12.486 -3.105,12.486Zm90.274,-16.738c0,-0 5.726,2.704 5.854,7.618c-0,-0 -4.187,0.769 -5.64,-0.898c-1.453,-1.666 -0.214,-6.72 -0.214,-6.72Zm-53.25,-13.836c2.648,0.017 5.282,-0.03 7.843,-0.034c11.338,-0.018 21.449,8.693 21.449,8.693l-29.291,0.052l-0,-8.711l-0.001,0Zm-23.905,8.753c5.876,-7.491 13.475,-8.625 21.165,-8.744l0,8.707l-21.165,0.037Z" style="fill:#ef553b;fill-rule:nonzero;stroke:#ef553b;stroke-width:4.17px;stroke-linejoin:round;stroke-miterlimit:2;"/></g></g><g><g transform="matrix(50,0,0,50,411.658,1597.58)"></g><text x="382.658px" y="1597.58px" style="font-family:'Lato-Regular', 'Lato', sans-serif;font-size:50px;fill:#ef553b;">8</text><g><g><path d="M426.16,1608.42c2.342,-0 4.246,1.905 4.246,4.246c0,2.342 -1.904,4.246 -4.246,4.246c-2.341,0 -4.246,-1.904 -4.246,-4.246c-0,-2.341 1.905,-4.246 4.246,-4.246Z" style="fill:#ef553b;fill-rule:nonzero;"/><path d="M417.995,1612.67c-0,4.51 3.656,8.165 8.165,8.165c4.509,0 8.165,-3.655 8.165,-8.165c-0,-4.509 -3.656,-8.165 -8.165,-8.165c-4.509,0 -8.165,3.656 -8.165,8.165Zm2.104,0c-0,-3.342 2.719,-6.061 6.061,-6.061c3.342,0 6.062,2.719 6.062,6.061c-0,3.342 -2.72,6.062 -6.062,6.062c-3.342,-0 -6.061,-2.72 -6.061,-6.062Z" style="fill:#ef553b;fill-rule:nonzero;"/></g><g><path d="M492.32,1608.42c2.341,-0 4.245,1.905 4.245,4.246c0,2.342 -1.904,4.246 -4.245,4.246c-2.342,0 -4.247,-1.904 -4.247,-4.246c-0,-2.341 1.905,-4.246 4.247,-4.246Z" style="fill:#ef553b;fill-rule:nonzero;"/><path d="M484.155,1612.67c-0,4.51 3.655,8.165 8.165,8.165c4.509,0 8.165,-3.655 8.165,-8.165c-0,-4.509 -3.656,-8.165 -8.165,-8.165c-4.51,0 -8.165,3.656 -8.165,8.165Zm2.103,0c-0,-3.342 2.719,-6.061 6.062,-6.061c3.342,0 6.06,2.719 6.06,6.061c0,3.342 -2.719,6.062 -6.06,6.062c-3.343,-0 -6.062,-2.72 -6.062,-6.062Z" style="fill:#ef553b;fill-rule:nonzero;"/></g><path d="M412.096,1612.67l4.591,0c0,0 -0.27,-9.92 9.473,-9.92c9.743,0 10.105,9.92 10.105,9.92l46.176,0c0,0 0,-9.785 9.878,-9.785c9.878,0 10.105,9.785 10.105,9.785c8.776,0 10.261,0.611 10.532,-4.246c0.269,-4.858 -2.971,-4.999 -2.971,-4.999c-1.621,-12.287 -25.383,-12.962 -25.383,-12.962c-0,0 -14.312,-10.666 -23.089,-10.937c-8.776,-0.27 -20.117,-1.215 -28.894,1.756c-8.776,2.97 -17.417,18.902 -17.417,18.902c-5.266,3.781 -3.106,12.486 -3.106,12.486Zm90.275,-16.738c-0,0 5.726,2.704 5.854,7.618c-0,-0 -4.187,0.769 -5.64,-0.898c-1.453,-1.666 -0.214,-6.72 -0.214,-6.72Zm-53.25,-13.835c2.648,0.016 5.282,-0.03 7.842,-0.035c11.339,-0.017 21.449,8.693 21.449,8.693l-29.291,0.052l0,-8.71l-0,-0Zm-23.906,8.753c5.877,-7.491 13.475,-8.626 21.166,-8.745l-0,8.707l-21.166,0.038Z" style="fill:#ef553b;fill-rule:nonzero;stroke:#ef553b;stroke-width:4.17px;stroke-linejoin:round;stroke-miterlimit:2;"/></g></g><g><g><g><g><path d="M916.07,1608.42c2.342,-0 4.247,1.905 4.247,4.246c-0,2.342 -1.905,4.246 -4.247,4.246c-2.341,0 -4.246,-1.904 -4.246,-4.246c-0,-2.341 1.905,-4.246 4.246,-4.246Z" style="fill:#636efa;fill-rule:nonzero;"/><path d="M907.905,1612.67c-0,4.51 3.656,8.165 8.165,8.165c4.509,0 8.165,-3.655 8.165,-8.165c-0,-4.509 -3.656,-8.165 -8.165,-8.165c-4.509,0 -8.165,3.656 -8.165,8.165Zm2.104,0c-0,-3.342 2.719,-6.061 6.061,-6.061c3.343,0 6.062,2.719 6.062,6.061c-0,3.342 -2.719,6.062 -6.062,6.062c-3.342,-0 -6.061,-2.72 -6.061,-6.062Z" style="fill:#636efa;fill-rule:nonzero;"/></g><g><path d="M982.23,1608.42c2.341,-0 4.245,1.905 4.245,4.246c0,2.342 -1.904,4.246 -4.245,4.246c-2.342,0 -4.247,-1.904 -4.247,-4.246c0,-2.341 1.905,-4.246 4.247,-4.246Z" style="fill:#636efa;fill-rule:nonzero;"/><path d="M974.065,1612.67c-0,4.51 3.655,8.165 8.165,8.165c4.509,0 8.165,-3.655 8.165,-8.165c0,-4.509 -3.656,-8.165 -8.165,-8.165c-4.51,0 -8.165,3.656 -8.165,8.165Zm2.103,0c-0,-3.342 2.72,-6.061 6.062,-6.061c3.342,0 6.06,2.719 6.06,6.061c0,3.342 -2.719,6.062 -6.06,6.062c-3.343,-0 -6.062,-2.72 -6.062,-6.062Z" style="fill:#636efa;fill-rule:nonzero;"/></g><path d="M902.006,1612.67l4.592,0c-0,0 -0.271,-9.92 9.472,-9.92c9.743,0 10.105,9.92 10.105,9.92l46.176,0c0,0 0,-9.785 9.878,-9.785c9.878,0 10.105,9.785 10.105,9.785c8.776,0 10.261,0.611 10.532,-4.246c0.269,-4.858 -2.971,-4.999 -2.971,-4.999c-1.62,-12.287 -25.383,-12.962 -25.383,-12.962c-0,0 -14.312,-10.666 -23.088,-10.937c-8.777,-0.27 -20.118,-1.215 -28.895,1.756c-8.776,2.97 -17.417,18.902 -17.417,18.902c-5.266,3.781 -3.106,12.486 -3.106,12.486Zm90.275,-16.738c0,0 5.726,2.704 5.854,7.618c-0,-0 -4.187,0.769 -5.64,-0.898c-1.453,-1.666 -0.214,-6.72 -0.214,-6.72Zm-53.25,-13.835c2.648,0.016 5.282,-0.03 7.842,-0.035c11.339,-0.017 21.449,8.693 21.449,8.693l-29.291,0.052l0,-8.71l-0,-0Zm-23.906,8.753c5.877,-7.491 13.475,-8.626 21.166,-8.745l0,8.707l-21.166,0.038Z" style="fill:#636efa;fill-rule:nonzero;stroke:#636efa;stroke-width:4.17px;stroke-linejoin:round;stroke-miterlimit:2;"/></g></g><g transform="matrix(50,0,0,50,901.568,1597.58)"></g><text x="872.568px" y="1597.58px" style="font-family:'Lato-Regular', 'Lato', sans-serif;font-size:50px;fill:#636efa;">3</text></g><g><g><g><g><path d="M404.881,717.771c2.341,0 4.246,1.906 4.246,4.247c-0,2.341 -1.905,4.246 -4.246,4.246c-2.342,0 -4.247,-1.905 -4.247,-4.246c0,-2.341 1.905,-4.247 4.247,-4.247Z" style="fill:#636efa;fill-rule:nonzero;"/><path d="M396.715,722.018c0,4.509 3.656,8.165 8.165,8.165c4.51,-0 8.165,-3.656 8.165,-8.165c0,-4.509 -3.655,-8.166 -8.165,-8.166c-4.509,0.001 -8.165,3.657 -8.165,8.166Zm2.104,-0c0,-3.342 2.719,-6.061 6.062,-6.061c3.342,-0 6.061,2.719 6.061,6.061c0,3.342 -2.719,6.061 -6.061,6.061c-3.343,0 -6.062,-2.719 -6.062,-6.061Z" style="fill:#636efa;fill-rule:nonzero;"/></g><g><path d="M471.04,717.771c2.341,0 4.246,1.906 4.246,4.247c-0,2.341 -1.905,4.246 -4.246,4.246c-2.341,0 -4.247,-1.905 -4.247,-4.246c0,-2.341 1.906,-4.247 4.247,-4.247Z" style="fill:#636efa;fill-rule:nonzero;"/><path d="M462.875,722.018c0,4.509 3.656,8.165 8.165,8.165c4.51,-0 8.165,-3.656 8.165,-8.165c0,-4.509 -3.655,-8.166 -8.165,-8.166c-4.51,0.001 -8.165,3.657 -8.165,8.166Zm2.103,-0c0,-3.342 2.72,-6.061 6.062,-6.061c3.342,-0 6.061,2.719 6.061,6.061c-0,3.342 -2.719,6.061 -6.061,6.061c-3.343,0 -6.062,-2.719 -6.062,-6.061Z" style="fill:#636efa;fill-rule:nonzero;"/></g><path d="M390.817,722.018l4.591,-0c-0,-0 -0.27,-9.92 9.473,-9.92c9.743,-0 10.104,9.92 10.104,9.92l46.177,-0c-0,-0 -0,-9.785 9.878,-9.785c9.878,-0 10.105,9.785 10.105,9.785c8.776,-0 10.261,0.611 10.531,-4.247c0.27,-4.857 -2.971,-4.999 -2.971,-4.999c-1.62,-12.286 -25.383,-12.961 -25.383,-12.961c0,-0 -14.312,-10.667 -23.088,-10.937c-8.777,-0.27 -20.118,-1.215 -28.894,1.755c-8.777,2.971 -17.418,18.903 -17.418,18.903c-5.265,3.781 -3.105,12.486 -3.105,12.486Zm90.274,-16.738c0,-0 5.726,2.704 5.854,7.617c0,0 -4.187,0.769 -5.64,-0.897c-1.453,-1.666 -0.214,-6.72 -0.214,-6.72Zm-53.25,-13.836c2.649,0.016 5.282,-0.03 7.843,-0.034c11.338,-0.018 21.449,8.693 21.449,8.693l-29.291,0.052l-0,-8.711l-0.001,0Zm-23.905,8.753c5.876,-7.491 13.475,-8.625 21.165,-8.745l0,8.707l-21.165,0.038Z" style="fill:#636efa;fill-rule:nonzero;stroke:#636efa;stroke-width:4.17px;stroke-linejoin:round;stroke-miterlimit:2;"/></g></g><g transform="matrix(50,0,0,50,390.378,706.929)"></g><text x="361.378px" y="706.929px" style="font-family:'Lato-Regular', 'Lato', sans-serif;font-size:50px;fill:#636efa;">5</text></g><g><g><g><g><path d="M184.491,806.338c2.342,0 4.246,1.906 4.246,4.247c0,2.341 -1.904,4.246 -4.246,4.246c-2.341,0 -4.246,-1.905 -4.246,-4.246c-0,-2.341 1.905,-4.247 4.246,-4.247Z" style="fill:#636efa;fill-rule:nonzero;"/><path d="M176.326,810.585c-0,4.509 3.656,8.165 8.165,8.165c4.509,0 8.165,-3.656 8.165,-8.165c-0,-4.509 -3.656,-8.165 -8.165,-8.165c-4.509,0 -8.165,3.656 -8.165,8.165Zm2.104,0c-0,-3.342 2.719,-6.061 6.061,-6.061c3.342,-0 6.061,2.719 6.061,6.061c0,3.342 -2.719,6.061 -6.061,6.061c-3.342,0 -6.061,-2.719 -6.061,-6.061Z" style="fill:#636efa;fill-rule:nonzero;"/></g><g><path d="M250.65,806.338c2.342,0 4.246,1.906 4.246,4.247c0,2.341 -1.904,4.246 -4.246,4.246c-2.341,0 -4.246,-1.905 -4.246,-4.246c-0,-2.341 1.905,-4.247 4.246,-4.247Z" style="fill:#636efa;fill-rule:nonzero;"/><path d="M242.485,810.585c0,4.509 3.656,8.165 8.165,8.165c4.51,0 8.166,-3.656 8.166,-8.165c-0,-4.509 -3.656,-8.165 -8.166,-8.165c-4.509,0 -8.165,3.656 -8.165,8.165Zm2.104,0c-0,-3.342 2.719,-6.061 6.061,-6.061c3.343,-0 6.061,2.719 6.061,6.061c0,3.342 -2.719,6.061 -6.061,6.061c-3.342,0 -6.061,-2.719 -6.061,-6.061Z" style="fill:#636efa;fill-rule:nonzero;"/></g><path d="M170.427,810.585l4.591,0c0,0 -0.27,-9.92 9.473,-9.92c9.743,-0 10.105,9.92 10.105,9.92l46.176,0c-0,0 -0,-9.785 9.878,-9.785c9.878,-0 10.105,9.785 10.105,9.785c8.776,0 10.261,0.611 10.531,-4.247c0.27,-4.857 -2.97,-4.998 -2.97,-4.998c-1.621,-12.287 -25.384,-12.962 -25.384,-12.962c0,-0 -14.312,-10.667 -23.088,-10.937c-8.776,-0.27 -20.117,-1.215 -28.894,1.755c-8.776,2.971 -17.417,18.903 -17.417,18.903c-5.266,3.781 -3.106,12.486 -3.106,12.486Zm90.275,-16.738c-0,-0 5.725,2.704 5.853,7.618c0,-0 -4.186,0.769 -5.639,-0.898c-1.453,-1.666 -0.214,-6.72 -0.214,-6.72Zm-53.25,-13.836c2.648,0.016 5.282,-0.03 7.842,-0.034c11.339,-0.018 21.449,8.693 21.449,8.693l-29.291,0.052l0,-8.711l-0,0Zm-23.906,8.753c5.877,-7.491 13.475,-8.625 21.166,-8.744l-0,8.707l-21.166,0.037Z" style="fill:#636efa;fill-rule:nonzero;stroke:#636efa;stroke-width:4.17px;stroke-linejoin:round;stroke-miterlimit:2;"/></g></g><g transform="matrix(50,0,0,50,169.989,795.496)"></g><text x="140.989px" y="795.496px" style="font-family:'Lato-Regular', 'Lato', sans-serif;font-size:50px;fill:#636efa;">7</text></g><g><g><g><g><path d="M184.491,717.771c2.342,0 4.246,1.906 4.246,4.247c0,2.341 -1.904,4.246 -4.246,4.246c-2.341,0 -4.246,-1.905 -4.246,-4.246c-0,-2.341 1.905,-4.247 4.246,-4.247Z" style="fill:#636efa;fill-rule:nonzero;"/><path d="M176.326,722.018c-0,4.509 3.656,8.165 8.165,8.165c4.509,-0 8.165,-3.656 8.165,-8.165c-0,-4.509 -3.656,-8.166 -8.165,-8.166c-4.509,0.001 -8.165,3.657 -8.165,8.166Zm2.104,-0c-0,-3.342 2.719,-6.061 6.061,-6.061c3.342,-0 6.061,2.719 6.061,6.061c0,3.342 -2.719,6.061 -6.061,6.061c-3.342,0 -6.061,-2.719 -6.061,-6.061Z" style="fill:#636efa;fill-rule:nonzero;"/></g><g><path d="M250.65,717.771c2.342,0 4.246,1.906 4.246,4.247c0,2.341 -1.904,4.246 -4.246,4.246c-2.341,0 -4.246,-1.905 -4.246,-4.246c-0,-2.341 1.905,-4.247 4.246,-4.247Z" style="fill:#636efa;fill-rule:nonzero;"/><path d="M242.485,722.018c0,4.509 3.656,8.165 8.165,8.165c4.51,-0 8.166,-3.656 8.166,-8.165c-0,-4.509 -3.656,-8.166 -8.166,-8.166c-4.509,0.001 -8.165,3.657 -8.165,8.166Zm2.104,-0c-0,-3.342 2.719,-6.061 6.061,-6.061c3.343,-0 6.061,2.719 6.061,6.061c0,3.342 -2.719,6.061 -6.061,6.061c-3.342,0 -6.061,-2.719 -6.061,-6.061Z" style="fill:#636efa;fill-rule:nonzero;"/></g><path d="M170.427,722.018l4.591,-0c0,-0 -0.27,-9.92 9.473,-9.92c9.743,-0 10.105,9.92 10.105,9.92l46.176,-0c-0,-0 -0,-9.785 9.878,-9.785c9.878,-0 10.105,9.785 10.105,9.785c8.776,-0 10.261,0.611 10.531,-4.247c0.27,-4.857 -2.97,-4.999 -2.97,-4.999c-1.621,-12.286 -25.384,-12.961 -25.384,-12.961c0,-0 -14.312,-10.667 -23.088,-10.937c-8.776,-0.27 -20.117,-1.215 -28.894,1.755c-8.776,2.971 -17.417,18.903 -17.417,18.903c-5.266,3.781 -3.106,12.486 -3.106,12.486Zm90.275,-16.738c-0,-0 5.725,2.704 5.853,7.617c0,0 -4.186,0.769 -5.639,-0.897c-1.453,-1.666 -0.214,-6.72 -0.214,-6.72Zm-53.25,-13.836c2.648,0.016 5.282,-0.03 7.842,-0.034c11.339,-0.018 21.449,8.693 21.449,8.693l-29.291,0.052l0,-8.711l-0,0Zm-23.906,8.753c5.877,-7.491 13.475,-8.625 21.166,-8.745l-0,8.707l-21.166,0.038Z" style="fill:#636efa;fill-rule:nonzero;stroke:#636efa;stroke-width:4.17px;stroke-linejoin:round;stroke-miterlimit:2;"/></g></g><g transform="matrix(50,0,0,50,169.989,706.929)"></g><text x="140.989px" y="706.929px" style="font-family:'Lato-Regular', 'Lato', sans-serif;font-size:50px;fill:#636efa;">1</text></g><g><g><g><g><path d="M404.881,806.338c2.341,0 4.246,1.906 4.246,4.247c-0,2.341 -1.905,4.246 -4.246,4.246c-2.342,0 -4.247,-1.905 -4.247,-4.246c0,-2.341 1.905,-4.247 4.247,-4.247Z" style="fill:#636efa;fill-rule:nonzero;"/><path d="M396.715,810.585c0,4.509 3.656,8.165 8.165,8.165c4.51,0 8.165,-3.656 8.165,-8.165c0,-4.509 -3.655,-8.165 -8.165,-8.165c-4.509,0 -8.165,3.656 -8.165,8.165Zm2.104,0c0,-3.342 2.719,-6.061 6.062,-6.061c3.342,-0 6.061,2.719 6.061,6.061c0,3.342 -2.719,6.061 -6.061,6.061c-3.343,0 -6.062,-2.719 -6.062,-6.061Z" style="fill:#636efa;fill-rule:nonzero;"/></g><g><path d="M471.04,806.338c2.341,0 4.246,1.906 4.246,4.247c-0,2.341 -1.905,4.246 -4.246,4.246c-2.341,0 -4.247,-1.905 -4.247,-4.246c0,-2.341 1.906,-4.247 4.247,-4.247Z" style="fill:#636efa;fill-rule:nonzero;"/><path d="M462.875,810.585c0,4.509 3.656,8.165 8.165,8.165c4.51,0 8.165,-3.656 8.165,-8.165c0,-4.509 -3.655,-8.165 -8.165,-8.165c-4.51,0 -8.165,3.656 -8.165,8.165Zm2.103,0c0,-3.342 2.72,-6.061 6.062,-6.061c3.342,-0 6.061,2.719 6.061,6.061c-0,3.342 -2.719,6.061 -6.061,6.061c-3.343,0 -6.062,-2.719 -6.062,-6.061Z" style="fill:#636efa;fill-rule:nonzero;"/></g><path d="M390.817,810.585l4.591,0c-0,0 -0.27,-9.92 9.473,-9.92c9.743,-0 10.104,9.92 10.104,9.92l46.177,0c-0,0 -0,-9.785 9.878,-9.785c9.878,-0 10.105,9.785 10.105,9.785c8.776,0 10.261,0.611 10.531,-4.247c0.27,-4.857 -2.971,-4.998 -2.971,-4.998c-1.62,-12.287 -25.383,-12.962 -25.383,-12.962c0,-0 -14.312,-10.667 -23.088,-10.937c-8.777,-0.27 -20.118,-1.215 -28.894,1.755c-8.777,2.971 -17.418,18.903 -17.418,18.903c-5.265,3.781 -3.105,12.486 -3.105,12.486Zm90.274,-16.738c0,-0 5.726,2.704 5.854,7.618c0,-0 -4.187,0.769 -5.64,-0.898c-1.453,-1.666 -0.214,-6.72 -0.214,-6.72Zm-53.25,-13.836c2.649,0.016 5.282,-0.03 7.843,-0.034c11.338,-0.018 21.449,8.693 21.449,8.693l-29.291,0.052l-0,-8.711l-0.001,0Zm-23.905,8.753c5.876,-7.491 13.475,-8.625 21.165,-8.744l0,8.707l-21.165,0.037Z" style="fill:#636efa;fill-rule:nonzero;stroke:#636efa;stroke-width:4.17px;stroke-linejoin:round;stroke-miterlimit:2;"/></g></g><g transform="matrix(50,0,0,50,390.378,795.496)"></g><text x="332.378px" y="795.496px" style="font-family:'Lato-Regular', 'Lato', sans-serif;font-size:50px;fill:#636efa;">10</text></g></svg>