<?xml version="1.0" encoding="UTF-8" standalone="no"?><!DOCTYPE svg PUBLIC "-//W3C//DTD SVG 1.1//EN" "http://www.w3.org/Graphics/SVG/1.1/DTD/svg11.dtd"><svg width="100%" height="100%" viewBox="0 0 1667 1875" version="1.1" xmlns="http://www.w3.org/2000/svg" xmlns:xlink="http://www.w3.org/1999/xlink" xml:space="preserve" xmlns:serif="http://www.serif.com/" style="fill-rule:evenodd;clip-rule:evenodd;"><rect x="334.904" y="177.083" width="666.667" height="283.333" style="fill:#fff;fill-rule:nonzero;stroke:#000;stroke-width:4.17px;"/><g><g transform="matrix(50,0,0,50,382.504,340.778)"></g><text x="353.504px" y="340.778px" style="font-family:'Lato-Regular', 'Lato', sans-serif;font-size:50px;fill:#ef553b;">6</text><g><g><path d="M397.007,351.621c2.341,0 4.246,1.905 4.246,4.247c-0,2.341 -1.905,4.246 -4.246,4.246c-2.342,-0 -4.247,-1.905 -4.247,-4.246c0,-2.342 1.905,-4.247 4.247,-4.247Z" style="fill:#ef553b;fill-rule:nonzero;"/><path d="M388.841,355.868c0,4.509 3.656,8.165 8.165,8.165c4.51,-0 8.165,-3.656 8.165,-8.165c0,-4.51 -3.655,-8.166 -8.165,-8.166c-4.509,0.001 -8.165,3.656 -8.165,8.166Zm2.104,-0c0,-3.342 2.719,-6.062 6.062,-6.062c3.342,0 6.061,2.72 6.061,6.062c0,3.342 -2.719,6.061 -6.061,6.061c-3.343,-0 -6.062,-2.719 -6.062,-6.061Z" style="fill:#ef553b;fill-rule:nonzero;"/></g><g><path d="M463.166,351.621c2.341,0 4.246,1.905 4.246,4.247c-0,2.341 -1.905,4.246 -4.246,4.246c-2.341,-0 -4.247,-1.905 -4.247,-4.246c0,-2.342 1.906,-4.247 4.247,-4.247Z" style="fill:#ef553b;fill-rule:nonzero;"/><path d="M455.001,355.868c0,4.509 3.656,8.165 8.165,8.165c4.51,-0 8.165,-3.656 8.165,-8.165c0,-4.51 -3.655,-8.166 -8.165,-8.166c-4.51,0.001 -8.165,3.656 -8.165,8.166Zm2.103,-0c0,-3.342 2.72,-6.062 6.062,-6.062c3.342,0 6.061,2.72 6.061,6.062c-0,3.342 -2.719,6.061 -6.061,6.061c-3.343,-0 -6.062,-2.719 -6.062,-6.061Z" style="fill:#ef553b;fill-rule:nonzero;"/></g><path d="M382.943,355.868l4.591,-0c-0,-0 -0.27,-9.921 9.473,-9.921c9.743,0 10.104,9.921 10.104,9.921l46.177,-0c-0,-0 -0,-9.786 9.878,-9.786c9.878,0 10.105,9.786 10.105,9.786c8.776,-0 10.261,0.611 10.531,-4.247c0.27,-4.858 -2.971,-4.999 -2.971,-4.999c-1.62,-12.286 -25.383,-12.962 -25.383,-12.962c-0,0 -14.312,-10.666 -23.088,-10.936c-8.777,-0.27 -20.118,-1.215 -28.894,1.755c-8.777,2.97 -17.418,18.903 -17.418,18.903c-5.265,3.78 -3.105,12.486 -3.105,12.486Zm90.274,-16.739c0,0 5.726,2.705 5.854,7.618c-0,0 -4.187,0.769 -5.64,-0.897c-1.453,-1.666 -0.214,-6.721 -0.214,-6.721Zm-53.25,-13.835c2.649,0.016 5.282,-0.03 7.843,-0.034c11.338,-0.018 21.449,8.692 21.449,8.692l-29.291,0.053l-0,-8.711l-0.001,-0Zm-23.905,8.753c5.876,-7.491 13.475,-8.626 21.165,-8.745l0,8.707l-21.165,0.038Z" style="fill:#ef553b;fill-rule:nonzero;stroke:#ef553b;stroke-width:4.17px;stroke-linejoin:round;stroke-miterlimit:2;"/></g></g><g><g transform="matrix(50,0,0,50,521.971,295.496)"></g><text x="492.971px" y="295.496px" style="font-family:'Lato-Regular', 'Lato', sans-serif;font-size:50px;fill:#ef553b;">4</text><g><g><path d="M536.474,306.338c2.341,0 4.246,1.906 4.246,4.247c0,2.341 -1.905,4.246 -4.246,4.246c-2.342,0 -4.247,-1.905 -4.247,-4.246c0,-2.341 1.905,-4.247 4.247,-4.247Z" style="fill:#ef553b;fill-rule:nonzero;"/><path d="M528.309,310.585c-0,4.509 3.655,8.165 8.165,8.165c4.509,0 8.165,-3.656 8.165,-8.165c-0,-4.509 -3.656,-8.165 -8.165,-8.165c-4.51,0 -8.165,3.656 -8.165,8.165Zm2.103,0c0,-3.342 2.719,-6.061 6.062,-6.061c3.342,-0 6.061,2.719 6.061,6.061c0,3.342 -2.719,6.061 -6.061,6.061c-3.343,0 -6.062,-2.719 -6.062,-6.061Z" style="fill:#ef553b;fill-rule:nonzero;"/></g><g><path d="M602.633,306.338c2.342,0 4.246,1.906 4.246,4.247c-0,2.341 -1.904,4.246 -4.246,4.246c-2.341,0 -4.246,-1.905 -4.246,-4.246c-0,-2.341 1.905,-4.247 4.246,-4.247Z" style="fill:#ef553b;fill-rule:nonzero;"/><path d="M594.468,310.585c0,4.509 3.656,8.165 8.165,8.165c4.51,0 8.166,-3.656 8.166,-8.165c-0,-4.509 -3.656,-8.165 -8.166,-8.165c-4.509,0 -8.165,3.656 -8.165,8.165Zm2.104,0c-0,-3.342 2.719,-6.061 6.061,-6.061c3.342,-0 6.061,2.719 6.061,6.061c0,3.342 -2.719,6.061 -6.061,6.061c-3.342,0 -6.061,-2.719 -6.061,-6.061Z" style="fill:#ef553b;fill-rule:nonzero;"/></g><path d="M522.41,310.585l4.591,0c0,0 -0.27,-9.92 9.473,-9.92c9.743,-0 10.105,9.92 10.105,9.92l46.176,0c-0,0 -0,-9.785 9.878,-9.785c9.878,-0 10.105,9.785 10.105,9.785c8.776,0 10.261,0.611 10.531,-4.247c0.27,-4.857 -2.971,-4.998 -2.971,-4.998c-1.62,-12.287 -25.383,-12.962 -25.383,-12.962c0,-0 -14.312,-10.667 -23.088,-10.937c-8.776,-0.27 -20.118,-1.215 -28.894,1.755c-8.776,2.971 -17.417,18.903 -17.417,18.903c-5.266,3.781 -3.106,12.486 -3.106,12.486Zm90.275,-16.738c-0,-0 5.725,2.704 5.853,7.618c0,-0 -4.186,0.769 -5.64,-0.898c-1.453,-1.666 -0.213,-6.72 -0.213,-6.72Zm-53.25,-13.836c2.648,0.016 5.282,-0.03 7.842,-0.034c11.339,-0.018 21.449,8.693 21.449,8.693l-29.291,0.052l-0,-8.711l-0,0Zm-23.906,8.753c5.877,-7.491 13.475,-8.625 21.166,-8.744l-0,8.707l-21.166,0.037Z" style="fill:#ef553b;fill-rule:nonzero;stroke:#ef553b;stroke-width:4.17px;stroke-linejoin:round;stroke-miterlimit:2;"/></g></g><g><g transform="matrix(50,0,0,50,882.062,385.964)"></g><text x="853.062px" y="385.964px" style="font-family:'Lato-Regular', 'Lato', sans-serif;font-size:50px;fill:#ef553b;">8</text><g><g><path d="M896.565,396.806c2.341,0 4.246,1.905 4.246,4.247c-0,2.341 -1.905,4.246 -4.246,4.246c-2.342,-0 -4.247,-1.905 -4.247,-4.246c-0,-2.342 1.905,-4.247 4.247,-4.247Z" style="fill:#ef553b;fill-rule:nonzero;"/><path d="M888.399,401.053c0,4.509 3.656,8.165 8.165,8.165c4.509,-0 8.165,-3.656 8.165,-8.165c0,-4.51 -3.656,-8.166 -8.165,-8.166c-4.509,0.001 -8.165,3.656 -8.165,8.166Zm2.104,-0c-0,-3.342 2.719,-6.062 6.062,-6.062c3.342,0 6.061,2.72 6.061,6.062c-0,3.342 -2.719,6.061 -6.061,6.061c-3.343,-0 -6.062,-2.719 -6.062,-6.061Z" style="fill:#ef553b;fill-rule:nonzero;"/></g><g><path d="M962.724,396.806c2.341,0 4.246,1.905 4.246,4.247c-0,2.341 -1.905,4.246 -4.246,4.246c-2.341,-0 -4.247,-1.905 -4.247,-4.246c0,-2.342 1.906,-4.247 4.247,-4.247Z" style="fill:#ef553b;fill-rule:nonzero;"/><path d="M954.559,401.053c-0,4.509 3.656,8.165 8.165,8.165c4.509,-0 8.165,-3.656 8.165,-8.165c0,-4.51 -3.656,-8.166 -8.165,-8.166c-4.51,0.001 -8.165,3.656 -8.165,8.166Zm2.103,-0c0,-3.342 2.72,-6.062 6.062,-6.062c3.342,0 6.061,2.72 6.061,6.062c-0,3.342 -2.72,6.061 -6.061,6.061c-3.343,-0 -6.062,-2.719 -6.062,-6.061Z" style="fill:#ef553b;fill-rule:nonzero;"/></g><path d="M882.501,401.053l4.591,-0c-0,-0 -0.27,-9.921 9.473,-9.921c9.743,0 10.104,9.921 10.104,9.921l46.176,-0c0,-0 0,-9.786 9.878,-9.786c9.878,0 10.105,9.786 10.105,9.786c8.776,-0 10.262,0.611 10.532,-4.247c0.269,-4.858 -2.971,-4.999 -2.971,-4.999c-1.62,-12.286 -25.383,-12.962 -25.383,-12.962c-0,0 -14.312,-10.666 -23.088,-10.936c-8.777,-0.27 -20.118,-1.215 -28.894,1.755c-8.777,2.97 -17.418,18.903 -17.418,18.903c-5.265,3.78 -3.105,12.486 -3.105,12.486Zm90.274,-16.739c0,0 5.726,2.705 5.854,7.618c-0,0 -4.187,0.769 -5.64,-0.897c-1.453,-1.666 -0.214,-6.721 -0.214,-6.721Zm-53.25,-13.835c2.648,0.016 5.282,-0.03 7.843,-0.034c11.338,-0.018 21.449,8.692 21.449,8.692l-29.291,0.053l-0,-8.711l-0.001,-0Zm-23.905,8.753c5.876,-7.491 13.474,-8.626 21.165,-8.745l0,8.707l-21.165,0.038Z" style="fill:#ef553b;fill-rule:nonzero;stroke:#ef553b;stroke-width:4.17px;stroke-linejoin:round;stroke-miterlimit:2;"/></g></g><g><g transform="matrix(50,0,0,50,521.971,419.297)"></g><text x="492.971px" y="419.297px" style="font-family:'Lato-Regular', 'Lato', sans-serif;font-size:50px;fill:#ef553b;">9</text><g><g><path d="M536.474,430.139c2.341,0 4.246,1.906 4.246,4.247c0,2.341 -1.905,4.246 -4.246,4.246c-2.342,0 -4.247,-1.905 -4.247,-4.246c0,-2.341 1.905,-4.247 4.247,-4.247Z" style="fill:#ef553b;fill-rule:nonzero;"/><path d="M528.309,434.386c-0,4.509 3.655,8.165 8.165,8.165c4.509,0 8.165,-3.656 8.165,-8.165c-0,-4.509 -3.656,-8.165 -8.165,-8.165c-4.51,0 -8.165,3.656 -8.165,8.165Zm2.103,0c0,-3.342 2.719,-6.061 6.062,-6.061c3.342,-0 6.061,2.719 6.061,6.061c0,3.342 -2.719,6.061 -6.061,6.061c-3.343,0 -6.062,-2.719 -6.062,-6.061Z" style="fill:#ef553b;fill-rule:nonzero;"/></g><g><path d="M602.633,430.139c2.342,0 4.246,1.906 4.246,4.247c-0,2.341 -1.904,4.246 -4.246,4.246c-2.341,0 -4.246,-1.905 -4.246,-4.246c-0,-2.341 1.905,-4.247 4.246,-4.247Z" style="fill:#ef553b;fill-rule:nonzero;"/><path d="M594.468,434.386c0,4.509 3.656,8.165 8.165,8.165c4.51,0 8.166,-3.656 8.166,-8.165c-0,-4.509 -3.656,-8.165 -8.166,-8.165c-4.509,0 -8.165,3.656 -8.165,8.165Zm2.104,0c-0,-3.342 2.719,-6.061 6.061,-6.061c3.342,-0 6.061,2.719 6.061,6.061c0,3.342 -2.719,6.061 -6.061,6.061c-3.342,0 -6.061,-2.719 -6.061,-6.061Z" style="fill:#ef553b;fill-rule:nonzero;"/></g><path d="M522.41,434.386l4.591,0c0,0 -0.27,-9.92 9.473,-9.92c9.743,-0 10.105,9.92 10.105,9.92l46.176,0c-0,0 -0,-9.785 9.878,-9.785c9.878,-0 10.105,9.785 10.105,9.785c8.776,0 10.261,0.611 10.531,-4.247c0.27,-4.857 -2.971,-4.998 -2.971,-4.998c-1.62,-12.287 -25.383,-12.962 -25.383,-12.962c0,-0 -14.312,-10.667 -23.088,-10.937c-8.776,-0.27 -20.118,-1.215 -28.894,1.755c-8.776,2.971 -17.417,18.903 -17.417,18.903c-5.266,3.781 -3.106,12.486 -3.106,12.486Zm90.275,-16.738c-0,-0 5.725,2.704 5.853,7.618c0,-0 -4.186,0.769 -5.64,-0.898c-1.453,-1.666 -0.213,-6.72 -0.213,-6.72Zm-53.25,-13.836c2.648,0.016 5.282,-0.03 7.842,-0.034c11.339,-0.018 21.449,8.693 21.449,8.693l-29.291,0.052l-0,-8.711l-0,0Zm-23.906,8.753c5.877,-7.491 13.475,-8.625 21.166,-8.744l-0,8.707l-21.166,0.037Z" style="fill:#ef553b;fill-rule:nonzero;stroke:#ef553b;stroke-width:4.17px;stroke-linejoin:round;stroke-miterlimit:2;"/></g></g><g><g transform="matrix(50,0,0,50,636.658,240.778)"></g><text x="607.658px" y="240.778px" style="font-family:'Lato-Regular', 'Lato', sans-serif;font-size:50px;fill:#ef553b;">2</text><g><g><path d="M651.16,251.621c2.342,0 4.246,1.905 4.246,4.247c0,2.341 -1.904,4.246 -4.246,4.246c-2.341,-0 -4.246,-1.905 -4.246,-4.246c-0,-2.342 1.905,-4.247 4.246,-4.247Z" style="fill:#ef553b;fill-rule:nonzero;"/><path d="M642.995,255.868c-0,4.509 3.656,8.165 8.165,8.165c4.509,-0 8.165,-3.656 8.165,-8.165c-0,-4.51 -3.656,-8.166 -8.165,-8.166c-4.509,0.001 -8.165,3.656 -8.165,8.166Zm2.104,-0c-0,-3.342 2.719,-6.062 6.061,-6.062c3.342,0 6.062,2.72 6.062,6.062c-0,3.342 -2.72,6.061 -6.062,6.061c-3.342,-0 -6.061,-2.719 -6.061,-6.061Z" style="fill:#ef553b;fill-rule:nonzero;"/></g><g><path d="M717.32,251.621c2.341,0 4.245,1.905 4.245,4.247c0,2.341 -1.904,4.246 -4.245,4.246c-2.342,-0 -4.247,-1.905 -4.247,-4.246c-0,-2.342 1.905,-4.247 4.247,-4.247Z" style="fill:#ef553b;fill-rule:nonzero;"/><path d="M709.155,255.868c-0,4.509 3.655,8.165 8.165,8.165c4.509,-0 8.165,-3.656 8.165,-8.165c-0,-4.51 -3.656,-8.166 -8.165,-8.166c-4.51,0.001 -8.165,3.656 -8.165,8.166Zm2.103,-0c-0,-3.342 2.719,-6.062 6.062,-6.062c3.342,0 6.06,2.72 6.06,6.062c0,3.342 -2.719,6.061 -6.06,6.061c-3.343,-0 -6.062,-2.719 -6.062,-6.061Z" style="fill:#ef553b;fill-rule:nonzero;"/></g><path d="M637.096,255.868l4.591,-0c0,-0 -0.27,-9.921 9.473,-9.921c9.743,0 10.105,9.921 10.105,9.921l46.176,-0c0,-0 0,-9.786 9.878,-9.786c9.878,0 10.105,9.786 10.105,9.786c8.776,-0 10.261,0.611 10.532,-4.247c0.269,-4.858 -2.971,-4.999 -2.971,-4.999c-1.621,-12.286 -25.383,-12.962 -25.383,-12.962c-0,0 -14.312,-10.666 -23.089,-10.936c-8.776,-0.27 -20.117,-1.215 -28.894,1.755c-8.776,2.97 -17.417,18.903 -17.417,18.903c-5.266,3.78 -3.106,12.486 -3.106,12.486Zm90.275,-16.739c-0,0 5.726,2.705 5.854,7.618c-0,0 -4.187,0.769 -5.64,-0.897c-1.453,-1.666 -0.214,-6.721 -0.214,-6.721Zm-53.25,-13.835c2.648,0.016 5.282,-0.03 7.842,-0.034c11.339,-0.018 21.449,8.692 21.449,8.692l-29.291,0.053l0,-8.711l-0,-0Zm-23.906,8.753c5.877,-7.491 13.475,-8.626 21.166,-8.745l-0,8.707l-21.166,0.038Z" style="fill:#ef553b;fill-rule:nonzero;stroke:#ef553b;stroke-width:4.17px;stroke-linejoin:round;stroke-miterlimit:2;"/></g></g><g><g><g><g><path d="M784.169,318.288c2.341,-0 4.246,1.905 4.246,4.246c0,2.342 -1.905,4.246 -4.246,4.246c-2.342,0 -4.246,-1.904 -4.246,-4.246c-0,-2.341 1.904,-4.246 4.246,-4.246Z" style="fill:#636efa;fill-rule:nonzero;"/><path d="M776.004,322.534c-0,4.51 3.656,8.165 8.165,8.165c4.509,0 8.165,-3.655 8.165,-8.165c-0,-4.509 -3.656,-8.165 -8.165,-8.165c-4.509,0 -8.165,3.656 -8.165,8.165Zm2.103,0c0,-3.342 2.72,-6.061 6.062,-6.061c3.342,0 6.061,2.719 6.061,6.061c0,3.342 -2.719,6.062 -6.061,6.062c-3.342,-0 -6.062,-2.72 -6.062,-6.062Z" style="fill:#636efa;fill-rule:nonzero;"/></g><g><path d="M850.328,318.288c2.342,-0 4.246,1.905 4.246,4.246c0,2.342 -1.904,4.246 -4.246,4.246c-2.341,0 -4.246,-1.904 -4.246,-4.246c-0,-2.341 1.905,-4.246 4.246,-4.246Z" style="fill:#636efa;fill-rule:nonzero;"/><path d="M842.163,322.534c0,4.51 3.656,8.165 8.165,8.165c4.51,0 8.166,-3.655 8.166,-8.165c-0,-4.509 -3.656,-8.165 -8.166,-8.165c-4.509,0 -8.165,3.656 -8.165,8.165Zm2.104,0c-0,-3.342 2.719,-6.061 6.061,-6.061c3.343,0 6.061,2.719 6.061,6.061c0,3.342 -2.719,6.062 -6.061,6.062c-3.342,-0 -6.061,-2.72 -6.061,-6.062Z" style="fill:#636efa;fill-rule:nonzero;"/></g><path d="M770.105,322.534l4.591,0c0,0 -0.27,-9.92 9.473,-9.92c9.743,0 10.105,9.92 10.105,9.92l46.176,0c-0,0 -0,-9.785 9.878,-9.785c9.878,0 10.105,9.785 10.105,9.785c8.776,0 10.261,0.611 10.531,-4.246c0.27,-4.858 -2.97,-4.999 -2.97,-4.999c-1.621,-12.287 -25.384,-12.962 -25.384,-12.962c0,-0 -14.312,-10.666 -23.088,-10.937c-8.776,-0.27 -20.117,-1.215 -28.894,1.756c-8.776,2.97 -17.417,18.902 -17.417,18.902c-5.266,3.781 -3.106,12.486 -3.106,12.486Zm90.275,-16.738c-0,0 5.725,2.704 5.853,7.618c0,-0 -4.186,0.769 -5.639,-0.898c-1.453,-1.666 -0.214,-6.72 -0.214,-6.72Zm-53.25,-13.835c2.648,0.016 5.282,-0.03 7.842,-0.035c11.339,-0.017 21.449,8.693 21.449,8.693l-29.291,0.052l0,-8.71l-0,-0Zm-23.906,8.753c5.877,-7.491 13.475,-8.626 21.166,-8.745l-0,8.707l-21.166,0.038Z" style="fill:#636efa;fill-rule:nonzero;stroke:#636efa;stroke-width:4.17px;stroke-linejoin:round;stroke-miterlimit:2;"/></g></g><g transform="matrix(50,0,0,50,769.667,307.445)"></g><text x="740.667px" y="307.445px" style="font-family:'Lato-Regular', 'Lato', sans-serif;font-size:50px;fill:#636efa;">5</text></g><g><g><g><g><path d="M625.284,373.005c2.342,0 4.247,1.905 4.247,4.247c-0,2.341 -1.905,4.246 -4.247,4.246c-2.341,-0 -4.246,-1.905 -4.246,-4.246c-0,-2.342 1.905,-4.247 4.246,-4.247Z" style="fill:#636efa;fill-rule:nonzero;"/><path d="M617.119,377.252c-0,4.509 3.656,8.165 8.165,8.165c4.509,-0 8.165,-3.656 8.165,-8.165c-0,-4.51 -3.656,-8.166 -8.165,-8.166c-4.509,0.001 -8.165,3.656 -8.165,8.166Zm2.104,-0c-0,-3.342 2.719,-6.062 6.061,-6.062c3.343,0 6.062,2.72 6.062,6.062c-0,3.342 -2.719,6.061 -6.062,6.061c-3.342,-0 -6.061,-2.719 -6.061,-6.061Z" style="fill:#636efa;fill-rule:nonzero;"/></g><g><path d="M691.444,373.005c2.341,0 4.245,1.905 4.245,4.247c0,2.341 -1.904,4.246 -4.245,4.246c-2.342,-0 -4.247,-1.905 -4.247,-4.246c0,-2.342 1.905,-4.247 4.247,-4.247Z" style="fill:#636efa;fill-rule:nonzero;"/><path d="M683.279,377.252c-0,4.509 3.655,8.165 8.165,8.165c4.509,-0 8.165,-3.656 8.165,-8.165c0,-4.51 -3.656,-8.166 -8.165,-8.166c-4.51,0.001 -8.165,3.656 -8.165,8.166Zm2.103,-0c-0,-3.342 2.72,-6.062 6.062,-6.062c3.342,0 6.06,2.72 6.06,6.062c0,3.342 -2.719,6.061 -6.06,6.061c-3.343,-0 -6.062,-2.719 -6.062,-6.061Z" style="fill:#636efa;fill-rule:nonzero;"/></g><path d="M611.22,377.252l4.592,-0c-0,-0 -0.271,-9.921 9.472,-9.921c9.743,0 10.105,9.921 10.105,9.921l46.176,-0c0,-0 0,-9.786 9.878,-9.786c9.878,0 10.105,9.786 10.105,9.786c8.776,-0 10.261,0.611 10.532,-4.247c0.269,-4.858 -2.971,-4.999 -2.971,-4.999c-1.62,-12.286 -25.383,-12.962 -25.383,-12.962c-0,0 -14.312,-10.666 -23.088,-10.936c-8.777,-0.27 -20.118,-1.215 -28.895,1.755c-8.776,2.97 -17.417,18.903 -17.417,18.903c-5.266,3.78 -3.106,12.486 -3.106,12.486Zm90.275,-16.739c0,0 5.726,2.705 5.854,7.618c-0,0 -4.187,0.769 -5.64,-0.897c-1.453,-1.666 -0.214,-6.721 -0.214,-6.721Zm-53.25,-13.835c2.648,0.016 5.282,-0.03 7.842,-0.034c11.339,-0.018 21.449,8.692 21.449,8.692l-29.291,0.053l0,-8.711l-0,-0Zm-23.906,8.753c5.877,-7.491 13.475,-8.626 21.166,-8.745l0,8.707l-21.166,0.038Z" style="fill:#636efa;fill-rule:nonzero;stroke:#636efa;stroke-width:4.17px;stroke-linejoin:round;stroke-miterlimit:2;"/></g></g><g transform="matrix(50,0,0,50,610.782,362.163)"></g><text x="581.782px" y="362.163px" style="font-family:'Lato-Regular', 'Lato', sans-serif;font-size:50px;fill:#636efa;">7</text></g><g><g><g><g><path d="M887.39,251.621c2.342,0 4.246,1.905 4.246,4.247c0,2.341 -1.904,4.246 -4.246,4.246c-2.341,-0 -4.246,-1.905 -4.246,-4.246c-0,-2.342 1.905,-4.247 4.246,-4.247Z" style="fill:#636efa;fill-rule:nonzero;"/><path d="M879.225,255.868c-0,4.509 3.656,8.165 8.165,8.165c4.509,-0 8.165,-3.656 8.165,-8.165c-0,-4.51 -3.656,-8.166 -8.165,-8.166c-4.509,0.001 -8.165,3.656 -8.165,8.166Zm2.104,-0c-0,-3.342 2.719,-6.062 6.061,-6.062c3.342,0 6.062,2.72 6.062,6.062c-0,3.342 -2.72,6.061 -6.062,6.061c-3.342,-0 -6.061,-2.719 -6.061,-6.061Z" style="fill:#636efa;fill-rule:nonzero;"/></g><g><path d="M953.55,251.621c2.341,0 4.245,1.905 4.245,4.247c0,2.341 -1.904,4.246 -4.245,4.246c-2.342,-0 -4.247,-1.905 -4.247,-4.246c-0,-2.342 1.905,-4.247 4.247,-4.247Z" style="fill:#636efa;fill-rule:nonzero;"/><path d="M945.385,255.868c-0,4.509 3.655,8.165 8.165,8.165c4.509,-0 8.165,-3.656 8.165,-8.165c-0,-4.51 -3.656,-8.166 -8.165,-8.166c-4.51,0.001 -8.165,3.656 -8.165,8.166Zm2.103,-0c-0,-3.342 2.719,-6.062 6.062,-6.062c3.342,0 6.06,2.72 6.06,6.062c0,3.342 -2.719,6.061 -6.06,6.061c-3.343,-0 -6.062,-2.719 -6.062,-6.061Z" style="fill:#636efa;fill-rule:nonzero;"/></g><path d="M873.326,255.868l4.591,-0c0,-0 -0.27,-9.921 9.473,-9.921c9.743,0 10.105,9.921 10.105,9.921l46.176,-0c0,-0 0,-9.786 9.878,-9.786c9.878,0 10.105,9.786 10.105,9.786c8.776,-0 10.261,0.611 10.532,-4.247c0.269,-4.858 -2.971,-4.999 -2.971,-4.999c-1.621,-12.286 -25.383,-12.962 -25.383,-12.962c-0,0 -14.312,-10.666 -23.089,-10.936c-8.776,-0.27 -20.117,-1.215 -28.894,1.755c-8.776,2.97 -17.417,18.903 -17.417,18.903c-5.266,3.78 -3.106,12.486 -3.106,12.486Zm90.275,-16.739c-0,0 5.726,2.705 5.854,7.618c-0,0 -4.187,0.769 -5.64,-0.897c-1.453,-1.666 -0.214,-6.721 -0.214,-6.721Zm-53.25,-13.835c2.648,0.016 5.282,-0.03 7.842,-0.034c11.339,-0.018 21.449,8.692 21.449,8.692l-29.291,0.053l0,-8.711l-0,-0Zm-23.906,8.753c5.877,-7.491 13.475,-8.626 21.166,-8.745l-0,8.707l-21.166,0.038Z" style="fill:#636efa;fill-rule:nonzero;stroke:#636efa;stroke-width:4.17px;stroke-linejoin:round;stroke-miterlimit:2;"/></g></g><g transform="matrix(50,0,0,50,872.888,240.778)"></g><text x="843.888px" y="240.778px" style="font-family:'Lato-Regular', 'Lato', sans-serif;font-size:50px;fill:#636efa;">3</text></g><g><g><g><g><path d="M412.293,251.621c2.342,0 4.247,1.905 4.247,4.247c-0,2.341 -1.905,4.246 -4.247,4.246c-2.341,-0 -4.246,-1.905 -4.246,-4.246c-0,-2.342 1.905,-4.247 4.246,-4.247Z" style="fill:#636efa;fill-rule:nonzero;"/><path d="M404.128,255.868c0,4.509 3.656,8.165 8.165,8.165c4.509,-0 8.165,-3.656 8.165,-8.165c-0,-4.51 -3.656,-8.166 -8.165,-8.166c-4.509,0.001 -8.165,3.656 -8.165,8.166Zm2.104,-0c-0,-3.342 2.719,-6.062 6.061,-6.062c3.343,0 6.062,2.72 6.062,6.062c-0,3.342 -2.719,6.061 -6.062,6.061c-3.342,-0 -6.061,-2.719 -6.061,-6.061Z" style="fill:#636efa;fill-rule:nonzero;"/></g><g><path d="M478.453,251.621c2.341,0 4.245,1.905 4.245,4.247c0,2.341 -1.904,4.246 -4.245,4.246c-2.342,-0 -4.247,-1.905 -4.247,-4.246c0,-2.342 1.905,-4.247 4.247,-4.247Z" style="fill:#636efa;fill-rule:nonzero;"/><path d="M470.288,255.868c-0,4.509 3.655,8.165 8.165,8.165c4.509,-0 8.165,-3.656 8.165,-8.165c0,-4.51 -3.656,-8.166 -8.165,-8.166c-4.51,0.001 -8.165,3.656 -8.165,8.166Zm2.103,-0c-0,-3.342 2.72,-6.062 6.062,-6.062c3.342,0 6.06,2.72 6.06,6.062c0,3.342 -2.719,6.061 -6.06,6.061c-3.343,-0 -6.062,-2.719 -6.062,-6.061Z" style="fill:#636efa;fill-rule:nonzero;"/></g><path d="M398.23,255.868l4.591,-0c-0,-0 -0.271,-9.921 9.472,-9.921c9.743,0 10.105,9.921 10.105,9.921l46.176,-0c0,-0 0,-9.786 9.878,-9.786c9.878,0 10.105,9.786 10.105,9.786c8.776,-0 10.261,0.611 10.532,-4.247c0.269,-4.858 -2.971,-4.999 -2.971,-4.999c-1.62,-12.286 -25.383,-12.962 -25.383,-12.962c-0,0 -14.312,-10.666 -23.088,-10.936c-8.777,-0.27 -20.118,-1.215 -28.895,1.755c-8.776,2.97 -17.417,18.903 -17.417,18.903c-5.266,3.78 -3.105,12.486 -3.105,12.486Zm90.274,-16.739c0,0 5.726,2.705 5.854,7.618c-0,0 -4.187,0.769 -5.64,-0.897c-1.453,-1.666 -0.214,-6.721 -0.214,-6.721Zm-53.25,-13.835c2.648,0.016 5.282,-0.03 7.842,-0.034c11.339,-0.018 21.449,8.692 21.449,8.692l-29.291,0.053l0,-8.711l-0,-0Zm-23.906,8.753c5.877,-7.491 13.475,-8.626 21.166,-8.745l0,8.707l-21.166,0.038Z" style="fill:#636efa;fill-rule:nonzero;stroke:#636efa;stroke-width:4.17px;stroke-linejoin:round;stroke-miterlimit:2;"/></g></g><g transform="matrix(50,0,0,50,397.791,240.778)"></g><text x="368.791px" y="240.778px" style="font-family:'Lato-Regular', 'Lato', sans-serif;font-size:50px;fill:#636efa;">1</text></g><g><g><g><g><path d="M792.985,439.672c2.342,-0 4.247,1.905 4.247,4.246c-0,2.342 -1.905,4.246 -4.247,4.246c-2.341,0 -4.246,-1.904 -4.246,-4.246c-0,-2.341 1.905,-4.246 4.246,-4.246Z" style="fill:#636efa;fill-rule:nonzero;"/><path d="M784.82,443.918c-0,4.51 3.656,8.165 8.165,8.165c4.509,0 8.165,-3.655 8.165,-8.165c-0,-4.509 -3.656,-8.165 -8.165,-8.165c-4.509,0 -8.165,3.656 -8.165,8.165Zm2.104,0c-0,-3.342 2.719,-6.061 6.061,-6.061c3.342,0 6.062,2.719 6.062,6.061c-0,3.342 -2.72,6.062 -6.062,6.062c-3.342,-0 -6.061,-2.72 -6.061,-6.062Z" style="fill:#636efa;fill-rule:nonzero;"/></g><g><path d="M859.145,439.672c2.341,-0 4.245,1.905 4.245,4.246c0,2.342 -1.904,4.246 -4.245,4.246c-2.342,0 -4.247,-1.904 -4.247,-4.246c0,-2.341 1.905,-4.246 4.247,-4.246Z" style="fill:#636efa;fill-rule:nonzero;"/><path d="M850.98,443.918c-0,4.51 3.655,8.165 8.165,8.165c4.509,0 8.165,-3.655 8.165,-8.165c0,-4.509 -3.656,-8.165 -8.165,-8.165c-4.51,0 -8.165,3.656 -8.165,8.165Zm2.103,0c-0,-3.342 2.72,-6.061 6.062,-6.061c3.342,0 6.06,2.719 6.06,6.061c0,3.342 -2.719,6.062 -6.06,6.062c-3.343,-0 -6.062,-2.72 -6.062,-6.062Z" style="fill:#636efa;fill-rule:nonzero;"/></g><path d="M778.921,443.918l4.592,0c-0,0 -0.271,-9.92 9.472,-9.92c9.743,0 10.105,9.92 10.105,9.92l46.176,0c0,0 0,-9.785 9.878,-9.785c9.878,0 10.105,9.785 10.105,9.785c8.776,0 10.261,0.611 10.532,-4.246c0.269,-4.858 -2.971,-4.999 -2.971,-4.999c-1.62,-12.287 -25.383,-12.962 -25.383,-12.962c-0,0 -14.312,-10.666 -23.088,-10.937c-8.777,-0.27 -20.118,-1.215 -28.895,1.756c-8.776,2.97 -17.417,18.902 -17.417,18.902c-5.266,3.781 -3.106,12.486 -3.106,12.486Zm90.275,-16.738c0,0 5.726,2.704 5.854,7.618c-0,-0 -4.187,0.769 -5.64,-0.898c-1.453,-1.666 -0.214,-6.72 -0.214,-6.72Zm-53.25,-13.835c2.648,0.016 5.282,-0.03 7.842,-0.035c11.339,-0.017 21.449,8.693 21.449,8.693l-29.291,0.052l0,-8.71l-0,-0Zm-23.906,8.753c5.877,-7.491 13.475,-8.626 21.166,-8.745l0,8.707l-21.166,0.038Z" style="fill:#636efa;fill-rule:nonzero;stroke:#636efa;stroke-width:4.17px;stroke-linejoin:round;stroke-miterlimit:2;"/></g></g><g transform="matrix(50,0,0,50,778.483,428.829)"></g><text x="720.483px" y="428.829px" style="font-family:'Lato-Regular', 'Lato', sans-serif;font-size:50px;fill:#636efa;">10</text></g><rect x="0" y="0" width="1666.67" height="1875" style="fill:none;stroke:#000;stroke-width:8.33px;stroke-linecap:round;stroke-linejoin:round;stroke-miterlimit:1.5;"/></svg>