<svg xmlns="http://www.w3.org/2000/svg" xmlns:xlink="http://www.w3.org/1999/xlink" width="100%" height="100%" viewBox="0 0 800 400" fill-rule="evenodd" stroke-linecap="round" stroke-linejoin="round" stroke-miterlimit="1.5" xmlns:v="https://vecta.io/nano"><style><![CDATA[.B{fill:none}.C{stroke:#000}.D{stroke-width:2}.E{fill-rule:nonzero}.F{fill:#ccdee9}]]></style><circle cx="150" cy="190" r="30" fill="#005a94" transform="matrix(1 0 0 -1 597.654 390)"/><path d="M807.148 413.432c0-7.413-6.019-13.432-13.432-13.432H20.58c-7.413 0-13.432 6.019-13.432 13.432v373.136c0 7.413 6.019 13.432 13.432 13.432h773.136c7.413 0 13.432-6.019 13.432-13.432V413.432z" fill="#f3f4f4"/><path d="M98.958 317l6 3-6 3v-6z"/><path d="M74.983 320h25.175" class="B C D"/><path d="M30 19h30a15.01 15.01 0 0 1 15 15v330a15.01 15.01 0 0 1-15 15H30a15.01 15.01 0 0 1-15-15v-330a15.01 15.01 0 0 1 15-15z" class="F"/><g fill="#005a94"><circle cx="150" cy="190" r="30" transform="matrix(1 0 0 -1 343.19 270)"/><circle cx="150" cy="190" r="30" transform="matrix(1 0 0 -1 344.19 390)"/><circle cx="150" cy="190" r="30" transform="matrix(1 0 0 -1 344.19 510)"/></g><g class="E"><path d="M458.51 127.092a3.66 3.66 0 0 0 1.168-.176c.336-.112.624-.288.864-.496.224-.208.4-.464.528-.752.112-.288.176-.608.176-.976 0-.72-.24-1.296-.688-1.712-.448-.4-1.136-.608-2.048-.608h-1.84v4.72h1.84zm0-5.952a6.57 6.57 0 0 1 1.888.256c.544.176.992.416 1.344.72s.608.688.784 1.12.256.928.256 1.456c0 .544-.096 1.024-.272 1.472-.192.448-.464.816-.832 1.136-.352.32-.8.576-1.328.752s-1.152.272-1.84.272h-1.84v4.288h-1.536V121.14h3.376zm7.088 4.992c.256-.56.576-.992.944-1.296.368-.32.832-.48 1.376-.48a2.47 2.47 0 0 1 .48.064c.16.032.304.096.432.176l-.112 1.056c-.032.144-.112.208-.24.208a1.54 1.54 0 0 1-.32-.048 2.37 2.37 0 0 0-.496-.048c-.256 0-.48.032-.688.112-.192.08-.368.192-.528.336a2.16 2.16 0 0 0-.432.544c-.128.208-.24.464-.336.736v5.12h-1.424V124.5h.816c.144 0 .256.032.32.096.048.064.096.16.112.304l.096 1.232z"/><use xlink:href="#B"/><use xlink:href="#C"/><path d="M488.446 125.684a6.02 6.02 0 0 1 .56-.544 4.15 4.15 0 0 1 .624-.4c.224-.112.448-.208.704-.272.24-.064.512-.096.8-.096.448 0 .832.08 1.168.224s.624.352.848.624.4.592.528.976c.112.384.176.8.176 1.248v5.168h-1.44v-5.168c0-.608-.144-1.088-.416-1.424-.288-.336-.704-.512-1.28-.512-.416 0-.816.112-1.184.304-.368.208-.704.48-1.008.832v5.968h-1.424V124.5h.848c.208 0 .336.112.384.304l.112.88z"/><use xlink:href="#B" x="26.28"/><use xlink:href="#D"/><use xlink:href="#E"/><path d="M531.582 131.524v1.088h-6.144v-1.088h2.464V123.7l.016-.704-2.032 1.744c-.08.064-.144.096-.208.112-.08.016-.144.016-.192 0-.064 0-.128-.032-.176-.064s-.08-.064-.112-.096l-.448-.624 3.424-2.944h1.152v10.4h2.256zM458.51 247.092a3.66 3.66 0 0 0 1.168-.176c.336-.112.624-.288.864-.496.224-.208.4-.464.528-.752.112-.288.176-.608.176-.976 0-.72-.24-1.296-.688-1.712-.448-.4-1.136-.608-2.048-.608h-1.84v4.72h1.84zm0-5.952a6.57 6.57 0 0 1 1.888.256c.544.176.992.416 1.344.72s.608.688.784 1.12.256.928.256 1.456c0 .544-.096 1.024-.272 1.472-.192.448-.464.816-.832 1.136-.352.32-.8.576-1.328.752s-1.152.272-1.84.272h-1.84v4.288h-1.536V241.14h3.376zm7.088 4.992c.256-.56.576-.992.944-1.296.368-.32.832-.48 1.376-.48a2.47 2.47 0 0 1 .48.064c.16.032.304.096.432.176l-.112 1.056c-.032.144-.112.208-.24.208a1.54 1.54 0 0 1-.32-.048 2.37 2.37 0 0 0-.496-.048c-.256 0-.48.032-.688.112-.192.08-.368.192-.528.336a2.16 2.16 0 0 0-.432.544c-.128.208-.24.464-.336.736v5.12h-1.424V244.5h.816c.144 0 .256.032.32.096.048.064.096.16.112.304l.096 1.232z"/><use xlink:href="#B" y="120"/><use xlink:href="#C" y="120"/><path d="M488.446 245.684a6.02 6.02 0 0 1 .56-.544 4.15 4.15 0 0 1 .624-.4c.224-.112.448-.208.704-.272.24-.064.512-.096.8-.096.448 0 .832.08 1.168.224s.624.352.848.624.4.592.528.976c.112.384.176.8.176 1.248v5.168h-1.44v-5.168c0-.608-.144-1.088-.416-1.424-.288-.336-.704-.512-1.28-.512-.416 0-.816.112-1.184.304-.368.208-.704.48-1.008.832v5.968h-1.424V244.5h.848c.208 0 .336.112.384.304l.112.88z"/><use xlink:href="#B" x="26.28" y="120"/><use xlink:href="#D" y="120"/><use xlink:href="#E" y="120"/><path d="M531.342 251.252c.144 0 .272.048.368.144.08.096.128.208.128.352v.864h-7.648v-.496a.74.74 0 0 1 .064-.304.94.94 0 0 1 .208-.304l3.664-3.68.832-.896a6 6 0 0 0 .64-.864c.176-.288.32-.576.416-.864.096-.304.144-.608.144-.96 0-.336-.064-.624-.16-.88-.112-.256-.256-.464-.448-.624-.176-.16-.4-.288-.64-.368-.256-.08-.528-.128-.816-.128a2.54 2.54 0 0 0-.8.128c-.256.08-.464.208-.656.352-.192.16-.352.336-.48.544a2 2 0 0 0-.272.688c-.064.192-.144.304-.256.368s-.272.08-.464.048l-.736-.128c.064-.512.208-.976.432-1.376a3.21 3.21 0 0 1 .816-1.024c.32-.272.704-.464 1.12-.608s.88-.224 1.376-.224c.48 0 .928.08 1.36.224.416.144.784.352 1.088.624s.56.608.736 1.008a3.59 3.59 0 0 1 .256 1.344c0 .432-.064.816-.192 1.184s-.304.72-.512 1.04a8.55 8.55 0 0 1-.768.976l-.896.944-3.024 3.088.64-.128.64-.064h3.84zm-72.832 115.84a3.66 3.66 0 0 0 1.168-.176c.336-.112.624-.288.864-.496.224-.208.4-.464.528-.752.112-.288.176-.608.176-.976 0-.72-.24-1.296-.688-1.712-.448-.4-1.136-.608-2.048-.608h-1.84v4.72h1.84zm0-5.952a6.57 6.57 0 0 1 1.888.256c.544.176.992.416 1.344.72s.608.688.784 1.12.256.928.256 1.456c0 .544-.096 1.024-.272 1.472-.192.448-.464.816-.832 1.136-.352.32-.8.576-1.328.752s-1.152.272-1.84.272h-1.84v4.288h-1.536V361.14h3.376zm7.088 4.992c.256-.56.576-.992.944-1.296.368-.32.832-.48 1.376-.48a2.47 2.47 0 0 1 .48.064c.16.032.304.096.432.176l-.112 1.056c-.032.144-.112.208-.24.208a1.54 1.54 0 0 1-.32-.048 2.37 2.37 0 0 0-.496-.048c-.256 0-.48.032-.688.112-.192.08-.368.192-.528.336a2.16 2.16 0 0 0-.432.544c-.128.208-.24.464-.336.736v5.12h-1.424V364.5h.816c.144 0 .256.032.32.096.048.064.096.16.112.304l.096 1.232z"/><use xlink:href="#B" y="240"/><use xlink:href="#C" y="240"/><path d="M488.446 365.684a6.02 6.02 0 0 1 .56-.544 4.15 4.15 0 0 1 .624-.4c.224-.112.448-.208.704-.272.24-.064.512-.096.8-.096.448 0 .832.08 1.168.224s.624.352.848.624.4.592.528.976c.112.384.176.8.176 1.248v5.168h-1.44v-5.168c0-.608-.144-1.088-.416-1.424-.288-.336-.704-.512-1.28-.512-.416 0-.816.112-1.184.304-.368.208-.704.48-1.008.832v5.968h-1.424V364.5h.848c.208 0 .336.112.384.304l.112.88z"/><use xlink:href="#B" x="26.28" y="240"/><use xlink:href="#D" y="240"/><use xlink:href="#E" y="240"/><path d="M524.478 364.244c.08-.512.224-.976.432-1.376a3.21 3.21 0 0 1 .816-1.024c.32-.272.704-.464 1.12-.608.432-.144.88-.224 1.376-.224.48 0 .928.08 1.344.208.416.144.768.336 1.056.592.304.256.528.576.704.928a3 3 0 0 1 .24 1.216c0 .368-.048.688-.144.976s-.224.528-.4.736a2.25 2.25 0 0 1-.624.544c-.24.16-.512.272-.816.368.736.192 1.296.528 1.68.992.368.464.56 1.056.56 1.744 0 .528-.096 1.008-.304 1.424a3.05 3.05 0 0 1-.816 1.088 3.9 3.9 0 0 1-1.216.672c-.464.16-.944.24-1.472.24-.608 0-1.136-.08-1.568-.224-.432-.16-.8-.368-1.088-.64-.304-.256-.544-.576-.736-.944s-.368-.752-.496-1.184l.624-.256c.16-.064.304-.096.464-.064.144.032.256.128.336.272l.256.528c.096.224.24.416.432.608a2.03 2.03 0 0 0 .688.48c.272.144.64.208 1.072.208.4 0 .736-.064 1.04-.192s.56-.304.752-.512c.208-.208.352-.432.464-.704.096-.24.144-.496.144-.752 0-.304-.048-.592-.112-.848-.08-.256-.24-.48-.448-.672-.224-.176-.528-.32-.912-.432s-.864-.16-1.456-.16v-1.04c.48 0 .896-.048 1.248-.16.336-.096.624-.224.832-.416.224-.176.384-.384.48-.624s.144-.512.144-.816c0-.336-.048-.624-.16-.864-.096-.24-.24-.448-.416-.608a2.18 2.18 0 0 0-.656-.368c-.24-.08-.512-.112-.8-.112a2.54 2.54 0 0 0-.8.128c-.256.08-.464.208-.656.352-.192.16-.352.336-.48.544a2 2 0 0 0-.272.688c-.064.192-.16.304-.256.368-.112.064-.256.08-.448.048l-.752-.128z"/><g fill="#fefefe"><use xlink:href="#F"/><use xlink:href="#G"/><path d="M507.578 94.951v-.859c-2.203 0-2.875-.391-2.875-1.594V79.013h-1.031l-4.422 1.219v.953c.625-.156 1.672-.328 2.188-.328.656 0 .875.36.875 1.219v10.422c0 1.203-.547 1.594-2.844 1.594v.859h8.109z"/><use xlink:href="#F" x="0.294" y="120"/><use xlink:href="#F" x="257.01" y="120"/><use xlink:href="#G" x="0.292" y="120"/><path d="M509.232 210.795h-.844c-.625 1.547-.906 2.078-2.266 2.078h-3.109l-1.86.094v-.172l2.985-2.891c2.656-2.594 4.328-4.344 4.328-6.687 0-2.704-2.031-4.297-4.875-4.297-2.469 0-4.156 1.359-4.953 3.578l.656.312c.875-1.547 1.984-2.187 3.703-2.187 1.86 0 2.953 1.219 2.953 2.906 0 2.703-1.265 4.141-3.937 6.813l-3.391 3.437v1.172h9.797l.813-4.156z"/><use xlink:href="#F" x="-1.374" y="240"/><use xlink:href="#G" x="-1.376" y="240"/><path d="M497.876 322.529c.797-1.297 1.844-1.906 3.25-1.906 1.516 0 2.594.781 2.594 2.265 0 2-1.844 3.25-3.547 3.25h-.5v1.125h.531c2.485 0 4.516 1.375 4.516 3.547 0 2.485-1.672 3.141-3.094 3.141-.687 0-.922-.125-2.016-.656-.89-.5-1.109-.641-1.421-.641-.766 0-1.047.672-1.047 1.203 0 .688.531 1.407 2.843 1.407 3.625 0 6.969-1.579 6.969-5.11 0-2.328-1.687-3.609-3.703-4.141v-.109c1.563-1.016 2.75-1.922 2.75-3.641 0-1.953-1.687-3.343-4.25-3.343-1.984 0-3.609 1.093-4.562 3.281l.687.328z"/><use xlink:href="#G" x="258.094" y="120"/></g></g><path d="M548.999 77l6 3-6 3v-6z"/><path d="M524.999 80h25.2" class="B C D"/><path d="M548.999 197l6 3-6 3v-6z"/><path d="M524.999 200h25.2" class="B C D"/><path d="M548.999 317l6 3-6 3v-6z"/><path d="M524.999 320h25.2" class="B C D"/><path d="M98.933 77l6 3-6 3v-6z"/><path d="M74.958 80h25.175" class="B C D"/><path d="M98.958 196.375l6 3-6 3v-6z"/><path d="M74.983 199.375h25.175M556.304 20v360l131.35-180-131.35-180z" class="B C D"/><g class="E"><path d="M565.071 198.68h.74c.24 0 .44-.02.6-.08s.3-.18.42-.34l4.78-5.4a1.19 1.19 0 0 1 .42-.36 1.37 1.37 0 0 1 .54-.1h1.64l-5.46 6.18c-.14.16-.28.3-.4.4s-.26.18-.38.24c.18.06.34.16.48.28s.3.26.44.44l5.7 6.8h-1.68c-.14 0-.24 0-.34-.02-.08-.02-.16-.04-.22-.08-.08-.04-.14-.08-.18-.14-.06-.04-.1-.1-.14-.18l-4.94-5.68c-.14-.16-.28-.28-.44-.36-.16-.06-.38-.1-.7-.1h-.88v6.56h-1.92V192.4h1.92v6.28z"/><use xlink:href="#H"/><path d="M586.561 206.74V196.6h1.06c.26 0 .42.14.48.38l.12 1.04c.38-.46.8-.84 1.26-1.14.46-.28 1-.44 1.62-.44.68 0 1.24.2 1.66.58s.72.9.92 1.54c.14-.36.32-.68.56-.96.22-.26.48-.48.78-.66a3.58 3.58 0 0 1 .9-.38 4.15 4.15 0 0 1 1-.12 3.99 3.99 0 0 1 1.42.26 3.07 3.07 0 0 1 1.06.74c.28.34.5.74.66 1.22s.22 1.02.24 1.62v6.46h-1.8v-6.46c0-.78-.18-1.38-.52-1.8-.34-.4-.84-.62-1.5-.62-.3 0-.58.06-.84.16a1.95 1.95 0 0 0-.68.46c-.2.2-.36.46-.48.76s-.18.66-.18 1.04v6.46h-1.78v-6.46c0-.8-.18-1.42-.5-1.82s-.8-.6-1.42-.6a2.18 2.18 0 0 0-1.22.36c-.38.24-.72.56-1.04.96v7.56h-1.78zm18.23-2.44c.32.44.68.74 1.08.92a3 3 0 0 0 1.28.28c.96 0 1.68-.34 2.2-1.02.5-.66.76-1.66.76-3 0-1.24-.24-2.16-.68-2.74-.46-.58-1.1-.88-1.92-.88-.58 0-1.1.14-1.52.4-.44.28-.84.66-1.2 1.14v4.9zm0-6.24c.42-.48.9-.88 1.44-1.18a3.99 3.99 0 0 1 1.86-.44c.6 0 1.12.12 1.6.34.48.24.88.56 1.22 1 .34.42.58.94.76 1.56a7.33 7.33 0 0 1 .28 2.06c0 .82-.1 1.58-.3 2.24-.2.68-.5 1.26-.88 1.74s-.82.84-1.36 1.1-1.16.4-1.82.4c-.68 0-1.24-.12-1.7-.38-.46-.24-.86-.6-1.18-1.06l-.1.92c-.06.26-.2.38-.46.38h-1.14V192h1.78v6.06zm11.3-1.46v10.14h-1.78V196.6h1.78zm.38-3.18c0 .18-.04.34-.12.5a1.32 1.32 0 0 1-.28.4c-.12.12-.24.2-.4.26-.16.08-.32.1-.5.1s-.34-.02-.48-.1c-.16-.06-.28-.14-.4-.26a1.25 1.25 0 0 1-.26-.4c-.08-.16-.1-.32-.1-.5 0-.16.02-.32.1-.48.06-.16.14-.3.26-.42s.24-.2.4-.28a1.21 1.21 0 0 1 .48-.1c.18 0 .34.04.5.1.16.08.28.16.4.28a1.19 1.19 0 0 1 .28.42c.08.16.12.32.12.48z"/><use xlink:href="#I"/><use xlink:href="#J"/><use xlink:href="#K"/><use xlink:href="#H" x="77.08"/><use xlink:href="#I" x="44.63"/></g><path d="M193.661 39.999h240V120h-240zm0 240h240V360h-240zm0-120h240V240h-240z" stroke-width="2.001" class="B C"/><g transform="matrix(.96 0 0 1 73.7022 0)" class="E"><use xlink:href="#L"/><use xlink:href="#M"/><use xlink:href="#N"/><use xlink:href="#O"/><path d="M273.334 62.625h1.854v14.74h-1.854zm4.917 0h1.854v14.74h-1.854z"/><use xlink:href="#P"/><use xlink:href="#Q"/><use xlink:href="#R"/><use xlink:href="#S"/><use xlink:href="#R" x="18.385"/><use xlink:href="#T"/><use xlink:href="#U"/><use xlink:href="#V"/><use xlink:href="#W"/><use xlink:href="#X"/><use xlink:href="#Y"/><use xlink:href="#O" x="-21.75" y="20"/><use xlink:href="#Z"/><use xlink:href="#N" x="5.916" y="20"/><use xlink:href="#a"/><use xlink:href="#U" x="88.823"/><use xlink:href="#b"/><use xlink:href="#W" x="92.334"/><use xlink:href="#c"/><use xlink:href="#d"/><use xlink:href="#a" x="65.115"/><use xlink:href="#e"/><path d="M363.23 91.065c0-1.42-.208-2.8-.583-4.16-.375-1.34-.917-2.62-1.646-3.84-.063-.1-.104-.18-.104-.26-.021-.08-.021-.14 0-.2s.063-.1.104-.14.083-.08.146-.12l.833-.5c.521.78.958 1.54 1.313 2.3.375.76.667 1.5.896 2.26s.396 1.52.5 2.3.146 1.56.146 2.36c0 .82-.042 1.62-.146 2.38-.104.78-.271 1.54-.5 2.3a14.76 14.76 0 0 1-.896 2.28c-.354.74-.792 1.5-1.313 2.28l-.833-.48c-.063-.04-.104-.08-.146-.12s-.083-.1-.104-.16-.021-.12 0-.2c0-.08.042-.16.104-.26a15.49 15.49 0 0 0 1.646-3.86 15.34 15.34 0 0 0 .583-4.16z"/><use xlink:href="#L" y="120"/><use xlink:href="#M" y="120"/><use xlink:href="#N" y="120"/><use xlink:href="#O" y="120"/><path d="M273.334 182.625h1.854v14.74h-1.854zm4.917 0h1.854v14.74h-1.854z"/><use xlink:href="#P" y="120"/><use xlink:href="#Q" y="120"/><use xlink:href="#R" y="120"/><use xlink:href="#S" y="120"/><use xlink:href="#R" x="18.385" y="120"/><use xlink:href="#T" y="120"/><use xlink:href="#U" y="120"/><use xlink:href="#V" y="120"/><use xlink:href="#W" y="120"/><use xlink:href="#X" y="120"/><use xlink:href="#Y" y="120"/><use xlink:href="#O" x="-21.75" y="140"/><use xlink:href="#Z" y="120"/><use xlink:href="#N" x="5.916" y="140"/><use xlink:href="#a" y="120"/><use xlink:href="#U" x="88.823" y="120"/><use xlink:href="#b" y="120"/><use xlink:href="#W" x="92.334" y="120"/><use xlink:href="#c" y="120"/><use xlink:href="#d" y="120"/><use xlink:href="#a" x="65.115" y="120"/><use xlink:href="#e" y="120"/><use xlink:href="#f"/><use xlink:href="#L" y="240"/><use xlink:href="#M" y="240"/><use xlink:href="#N" y="240"/><use xlink:href="#O" y="240"/><path d="M273.334 302.625h1.854v14.74h-1.854zm4.917 0h1.854v14.74h-1.854z"/><use xlink:href="#P" y="240"/><use xlink:href="#Q" y="240"/><use xlink:href="#R" y="240"/><use xlink:href="#S" y="240"/><use xlink:href="#R" x="18.385" y="240"/><use xlink:href="#T" y="240"/><use xlink:href="#U" y="240"/><use xlink:href="#V" y="240"/><use xlink:href="#W" y="240"/><use xlink:href="#X" y="240"/><use xlink:href="#Y" y="240"/><use xlink:href="#O" x="-21.75" y="260"/><use xlink:href="#Z" y="240"/><use xlink:href="#N" x="5.916" y="260"/><use xlink:href="#a" y="240"/><use xlink:href="#U" x="88.823" y="240"/><use xlink:href="#b" y="240"/><use xlink:href="#W" x="92.334" y="240"/><use xlink:href="#c" y="240"/><use xlink:href="#d" y="240"/><use xlink:href="#a" x="65.115" y="240"/><use xlink:href="#e" y="240"/><use xlink:href="#f" y="120"/></g><g class="E"><path d="M727.649 142.091v-8.62l-1.12-.12c-.16-.04-.28-.08-.36-.16-.08-.06-.12-.16-.12-.3v-.74h1.6v-.56c0-.62.08-1.18.28-1.7s.48-.96.88-1.34c.38-.36.86-.66 1.44-.86s1.24-.32 2-.32c.26 0 .52.02.78.06l.7.14-.08.94c0 .06-.04.12-.08.14s-.1.04-.16.04c-.08.02-.18.02-.28.02-.12 0-.24 0-.38-.02-1.18.02-2.04.26-2.58.74-.54.5-.8 1.24-.8 2.22v.5h6.12v9.94h-1.78v-8.64h-4.28v8.64h-1.78z"/><use xlink:href="#g"/><use xlink:href="#J" x="119.408" y="-64.649"/><path d="M759.579 127.351h1.78v14.74h-1.78z"/><use xlink:href="#h"/><path d="M714.474 155.191c.56 0 1.04-.08 1.46-.22s.78-.36 1.08-.62c.28-.26.5-.58.66-.94.14-.36.22-.76.22-1.22 0-.9-.3-1.62-.86-2.14-.56-.5-1.42-.76-2.56-.76h-2.3v5.9h2.3zm0-7.44c.9 0 1.7.12 2.36.32.68.22 1.24.52 1.68.9a3.63 3.63 0 0 1 .98 1.4c.22.54.32 1.16.32 1.82a4.94 4.94 0 0 1-.34 1.84c-.24.56-.58 1.02-1.04 1.42-.44.4-1 .72-1.66.94s-1.44.34-2.3.34h-2.3v5.36h-1.92v-14.34h4.22z"/><use xlink:href="#i"/><use xlink:href="#H" x="153.303" y="-44.649"/><path d="M743.334 157.131c.36.02.68-.04.96-.14.26-.1.5-.24.68-.42s.32-.4.42-.64c.1-.26.14-.54.14-.84 0-.62-.18-1.1-.56-1.48-.38-.36-.92-.54-1.64-.54s-1.26.18-1.64.54c-.38.38-.56.86-.56 1.48 0 .3.04.58.14.84.1.24.24.46.42.64a1.87 1.87 0 0 0 .7.42c.26.1.58.16.94.14zm3.22 5.52a.9.9 0 0 0-.22-.62c-.14-.14-.32-.26-.56-.36-.24-.08-.52-.14-.82-.18l-1-.08-1.06-.06-1.04-.1c-.38.18-.68.4-.92.66a1.3 1.3 0 0 0-.36.92 1.24 1.24 0 0 0 .18.64c.12.2.28.36.54.5.24.14.54.26.9.34s.78.14 1.28.14c.48 0 .92-.06 1.3-.14s.7-.22.96-.36c.26-.16.46-.36.6-.58s.22-.46.22-.72zm1.8-10.3v.66c0 .22-.14.36-.42.42l-1.14.16c.22.44.32.92.34 1.46-.02.5-.1.94-.3 1.34-.18.4-.44.76-.78 1.04s-.74.5-1.2.66-.98.22-1.52.22c-.48 0-.92-.04-1.34-.16-.22.14-.38.28-.48.42-.12.16-.18.3-.18.46a.59.59 0 0 0 .3.54c.2.12.46.22.78.26a5.84 5.84 0 0 0 1.08.1l1.26.08c.44.02.86.08 1.26.14a4.18 4.18 0 0 1 1.1.36c.32.18.58.4.78.7s.3.68.3 1.14a2.59 2.59 0 0 1-.34 1.26c-.22.4-.52.76-.92 1.08a4.81 4.81 0 0 1-1.5.76c-.6.2-1.26.3-2 .3a7.97 7.97 0 0 1-1.94-.22c-.56-.16-1.02-.36-1.38-.6s-.64-.54-.82-.86-.28-.66-.28-1c0-.5.16-.94.48-1.28.3-.34.74-.62 1.28-.84-.3-.12-.54-.3-.72-.52s-.26-.54-.26-.92a1.21 1.21 0 0 1 .08-.44 2.69 2.69 0 0 1 .24-.48c.12-.16.24-.3.42-.44.16-.14.34-.26.56-.38-.5-.28-.9-.64-1.18-1.1s-.42-1-.42-1.62a3.21 3.21 0 0 1 .28-1.34c.2-.4.46-.76.8-1.04s.74-.5 1.22-.66c.46-.14.98-.22 1.54-.22.44 0 .86.04 1.24.14s.72.24 1.04.42h2.74z"/><use xlink:href="#g" x="11.795" y="20"/><use xlink:href="#H" x="186.153" y="-44.649"/><path d="M778.614 153.631a.43.43 0 0 1-.38.22c-.1 0-.22-.04-.34-.12l-.46-.24a5.98 5.98 0 0 0-.66-.24c-.26-.08-.56-.12-.9-.12a2.49 2.49 0 0 0-.8.12c-.24.08-.46.18-.62.3a1.51 1.51 0 0 0-.4.48 1.34 1.34 0 0 0-.12.56c0 .26.06.48.22.66.14.18.34.32.6.44.24.14.52.24.84.34l.96.32a9.36 9.36 0 0 1 .96.36c.32.14.6.3.84.5a2.44 2.44 0 0 1 .6.74c.14.28.22.64.22 1.04 0 .46-.08.9-.24 1.3-.18.4-.42.74-.74 1.02-.34.3-.74.52-1.2.68-.48.18-1.02.26-1.64.26-.72 0-1.36-.12-1.92-.34-.58-.24-1.06-.52-1.46-.9l.42-.68c.04-.08.1-.14.18-.2a.58.58 0 0 1 .28-.06c.12 0 .24.04.38.14a5.03 5.03 0 0 0 .48.3c.2.12.42.22.7.32s.62.14 1.02.14c.34 0 .66-.04.92-.14a1.67 1.67 0 0 0 .64-.36 1.27 1.27 0 0 0 .38-.54c.08-.18.14-.4.14-.64 0-.28-.08-.5-.24-.68a2.01 2.01 0 0 0-.58-.48c-.26-.12-.54-.24-.86-.34l-.96-.3c-.34-.1-.66-.22-.98-.36a3.51 3.51 0 0 1-.84-.52c-.24-.2-.44-.46-.6-.76-.14-.3-.22-.68-.22-1.12a2.66 2.66 0 0 1 .24-1.1c.16-.36.4-.68.7-.94.3-.28.68-.5 1.14-.66.44-.14.94-.24 1.52-.24.66 0 1.26.12 1.8.32.52.22.98.5 1.38.86l-.4.66z"/><use xlink:href="#h" x="17.135" y="20"/></g><path d="M457.662 77l6 3-6 3v-6z"/><path d="M433.662 80h25.2" class="B C D"/><path d="M457.662 197l6 3-6 3v-6z"/><path d="M433.662 200h25.2" class="B C D"/><path d="M457.662 317l6 3-6 3v-6z"/><path d="M433.662 320h25.2" class="B C D"/><path d="M189 76.375l6 3-6 3v-6z"/><path d="M165 79.375h25.2" class="B C D"/><path d="M189 196.375l6 3-6 3v-6z"/><path d="M165 199.375h25.2" class="B C D"/><path d="M189 316.375l6 3-6 3v-6z"/><path d="M165 319.375h25.2" class="B C D"/><path d="M711.654 197l6 3-6 3v-6z"/><path d="M687.654 200h25.2" class="B C D"/><g transform="matrix(0 -1 1 0 5 407.5)" fill="#fff" class="E"><path d="M113.486 30.397h-8.352v22.86h-3.456v-22.86H93.29v-2.952h20.196v2.952zm2.142 8.28c.576-1.26 1.296-2.232 2.124-2.916.828-.72 1.872-1.08 3.096-1.08.36 0 .72.072 1.08.144a2.91 2.91 0 0 1 .972.396l-.252 2.376c-.072.324-.252.468-.54.468-.18 0-.396-.036-.72-.108s-.72-.108-1.116-.108c-.576 0-1.08.072-1.548.252-.432.18-.828.432-1.188.756a4.86 4.86 0 0 0-.972 1.224c-.288.468-.54 1.044-.756 1.656v11.52h-3.204V35.005h1.836c.324 0 .576.072.72.216a1.36 1.36 0 0 1 .252.684l.216 2.772z"/><use xlink:href="#j"/><use xlink:href="#k"/><use xlink:href="#l"/><use xlink:href="#k" x="28.728"/><use xlink:href="#l" x="28.728"/><path d="M207.104 44.329a4.37 4.37 0 0 0 1.728-.252c.468-.18.9-.432 1.224-.756s.576-.72.756-1.152c.18-.468.252-.972.252-1.512 0-1.116-.324-1.98-1.008-2.664-.684-.648-1.656-.972-2.952-.972s-2.268.324-2.952.972c-.684.684-1.008 1.548-1.008 2.664 0 .54.072 1.044.252 1.512.18.432.432.828.756 1.152s.756.576 1.26.756a4.09 4.09 0 0 0 1.692.252zm5.796 9.936c0-.468-.144-.828-.396-1.116-.252-.252-.576-.468-1.008-.648-.432-.144-.936-.252-1.476-.324l-1.8-.144-1.908-.108-1.872-.18c-.684.324-1.224.72-1.656 1.188a2.34 2.34 0 0 0-.648 1.656c0 .396.108.792.324 1.152s.504.648.972.9c.432.252.972.468 1.62.612a10.47 10.47 0 0 0 2.304.252c.864 0 1.656-.108 2.34-.252a6.42 6.42 0 0 0 1.728-.648 3.34 3.34 0 0 0 1.08-1.044c.252-.396.396-.828.396-1.296zm3.24-18.54v1.188c0 .396-.252.648-.756.756l-2.052.288c.396.792.576 1.656.612 2.628-.036.9-.18 1.692-.54 2.412-.324.72-.792 1.368-1.404 1.872s-1.332.9-2.16 1.188-1.764.396-2.736.396c-.864 0-1.656-.072-2.412-.288-.396.252-.684.504-.864.756-.216.288-.324.54-.324.828a1.06 1.06 0 0 0 .54.972c.36.216.828.396 1.404.468a10.51 10.51 0 0 0 1.944.18l2.268.144c.792.036 1.548.144 2.268.252.756.144 1.404.36 1.98.648.576.324 1.044.72 1.404 1.26s.54 1.224.54 2.052c0 .792-.216 1.548-.612 2.268s-.936 1.368-1.656 1.944c-.756.576-1.656 1.044-2.7 1.368-1.08.36-2.268.54-3.6.54s-2.484-.144-3.492-.396c-1.008-.288-1.836-.648-2.484-1.08s-1.152-.972-1.476-1.548-.504-1.188-.504-1.8c0-.9.288-1.692.864-2.304.54-.612 1.332-1.116 2.304-1.512-.54-.216-.972-.54-1.296-.936s-.468-.972-.468-1.656c0-.252.036-.504.144-.792a4.84 4.84 0 0 1 .432-.864c.216-.288.432-.54.756-.792.288-.252.612-.468 1.008-.684-.9-.504-1.62-1.152-2.124-1.98s-.756-1.8-.756-2.916c0-.9.18-1.692.504-2.412.36-.72.828-1.368 1.44-1.872s1.332-.9 2.196-1.188c.828-.252 1.764-.396 2.772-.396.792 0 1.548.072 2.232.252a7.84 7.84 0 0 1 1.872.756h4.932zm13.968 2.304a.77.77 0 0 1-.684.396c-.18 0-.396-.072-.612-.216l-.828-.432c-.324-.144-.72-.288-1.188-.432s-1.008-.216-1.62-.216c-.54 0-1.008.072-1.44.216s-.828.324-1.116.54c-.324.252-.54.54-.72.864-.144.324-.216.648-.216 1.008 0 .468.108.864.396 1.188.252.324.612.576 1.08.792.432.252.936.432 1.512.612l1.728.576a16.85 16.85 0 0 1 1.728.648c.576.252 1.08.54 1.512.9s.792.792 1.08 1.332c.252.504.396 1.152.396 1.872 0 .828-.144 1.62-.432 2.34-.324.72-.756 1.332-1.332 1.836-.612.54-1.332.936-2.16 1.224-.864.324-1.836.468-2.952.468-1.296 0-2.448-.216-3.456-.612-1.044-.432-1.908-.936-2.628-1.62l.756-1.224c.072-.144.18-.252.324-.36.144-.072.288-.108.504-.108s.432.072.684.252.54.36.864.54c.36.216.756.396 1.26.576s1.116.252 1.836.252c.612 0 1.188-.072 1.656-.252.468-.144.828-.36 1.152-.648s.54-.576.684-.972c.144-.324.252-.72.252-1.152 0-.504-.144-.9-.432-1.224-.252-.324-.612-.612-1.044-.864-.468-.216-.972-.432-1.548-.612l-1.728-.54a14.73 14.73 0 0 1-1.764-.648c-.576-.252-1.08-.576-1.512-.936s-.792-.828-1.08-1.368c-.252-.54-.396-1.224-.396-2.016a4.79 4.79 0 0 1 .432-1.98 4.85 4.85 0 0 1 1.26-1.692c.54-.504 1.224-.9 2.052-1.188a8.9 8.9 0 0 1 2.736-.432c1.188 0 2.268.216 3.24.576.936.396 1.764.9 2.484 1.548l-.72 1.188zm16.848 1.332c-.612-.792-1.26-1.368-1.944-1.692-.72-.324-1.476-.468-2.34-.468-1.692 0-3.024.612-3.924 1.8-.9 1.224-1.368 2.952-1.368 5.184 0 1.188.108 2.232.324 3.06.18.864.504 1.548.9 2.088s.864.936 1.44 1.188 1.224.396 1.98.396c1.044 0 1.944-.252 2.736-.72s1.512-1.152 2.196-2.052v-8.784zm3.204-12.636v26.532h-1.908c-.468 0-.756-.216-.864-.684l-.288-2.196a10.51 10.51 0 0 1-2.664 2.268c-1.008.576-2.16.864-3.456.864-1.044 0-2.016-.216-2.844-.612-.864-.396-1.584-.972-2.196-1.764s-1.044-1.764-1.368-2.916-.504-2.52-.504-4.032c0-1.332.18-2.592.54-3.744s.864-2.16 1.548-3.024c.684-.828 1.512-1.512 2.484-1.98.972-.504 2.088-.756 3.312-.756 1.116 0 2.052.216 2.844.576.792.396 1.512.9 2.16 1.584V26.725h3.204z"/><use xlink:href="#j" x="129.816"/><path d="M278.474 53.545c-1.44 0-2.556-.396-3.312-1.224-.792-.792-1.188-1.944-1.152-3.456v-11.16h-2.196a.78.78 0 0 1-.504-.18c-.144-.108-.18-.288-.18-.54v-1.26l2.988-.396.72-5.616c.036-.18.108-.324.252-.432.108-.108.288-.18.504-.18h1.62v6.264h5.256v2.34h-5.256v10.944c0 .756.18 1.332.54 1.692.36.396.864.576 1.44.576.324 0 .612-.036.864-.144a2.7 2.7 0 0 0 .648-.288l.468-.288a.44.44 0 0 1 .324-.144c.18 0 .324.108.468.288l.936 1.548c-.576.504-1.224.936-2.016 1.224a6.96 6.96 0 0 1-2.412.432zm19.44-11.412c0-.72-.108-1.404-.324-2.016a5.16 5.16 0 0 0-.936-1.62c-.396-.432-.9-.792-1.44-1.044-.576-.252-1.26-.36-1.98-.36-1.548 0-2.736.432-3.636 1.332s-1.44 2.124-1.656 3.708h9.972zm2.592 8.568c-.432.468-.9.9-1.44 1.26s-1.152.648-1.764.864c-.648.216-1.296.396-1.944.504a13.1 13.1 0 0 1-2.016.18 9.27 9.27 0 0 1-3.492-.648c-1.044-.432-1.98-1.044-2.736-1.872-.792-.828-1.404-1.836-1.8-3.06-.432-1.188-.648-2.592-.648-4.176 0-1.26.18-2.448.576-3.564.396-1.08.936-2.052 1.692-2.844.72-.828 1.62-1.44 2.664-1.908s2.232-.72 3.564-.72c1.08 0 2.088.216 3.024.576a6.86 6.86 0 0 1 2.412 1.584c.684.684 1.224 1.548 1.62 2.556.36 1.008.576 2.16.576 3.456 0 .504-.072.828-.18 1.008s-.324.252-.612.252h-12.168c.036 1.152.18 2.16.468 2.988.288.864.684 1.584 1.188 2.16a4.54 4.54 0 0 0 1.8 1.26c.684.288 1.476.432 2.34.432.792 0 1.476-.108 2.052-.288s1.08-.396 1.512-.612l1.044-.576c.288-.18.54-.288.756-.288.252 0 .432.108.612.288l.9 1.188z"/><use xlink:href="#l" x="152.766"/></g><use xlink:href="#m" class="F"/><g transform="matrix(0 -1 1 0 95.2129 219.375)" fill="#fff" class="E"><use xlink:href="#n"/><use xlink:href="#K" x="-513.591" y="-169.375"/><use xlink:href="#o"/><use xlink:href="#p"/><path d="M159.26 30.605h4.94v1.52h-4.94z"/><use xlink:href="#q"/><use xlink:href="#i" x="-602.974" y="-104.726"/><use xlink:href="#H" x="-449.671" y="-149.375"/><use xlink:href="#r"/><use xlink:href="#h" x="-616.149" y="-84.726"/><path d="M172.53 56.005v1.36h-7.68v-1.36h3.08v-9.78l.02-.88-2.54 2.18a.67.67 0 0 1-.26.14.48.48 0 0 1-.24 0 .42.42 0 0 1-.22-.08c-.06-.04-.1-.08-.14-.12l-.56-.78 4.28-3.68h1.44v13h2.82z"/></g><use xlink:href="#m" y="119" class="F"/><g transform="matrix(0 -1 1 0 94.9581 338.375)" fill="#fff" class="E"><use xlink:href="#n"/><use xlink:href="#K" x="-513.591" y="-169.375"/><use xlink:href="#o"/><use xlink:href="#p"/><path d="M159.26 30.605h4.94v1.52h-4.94z"/><use xlink:href="#q"/><use xlink:href="#i" x="-602.974" y="-104.726"/><use xlink:href="#H" x="-449.671" y="-149.375"/><use xlink:href="#r"/><use xlink:href="#h" x="-616.149" y="-84.726"/><path d="M172.23 55.665c.18 0 .34.06.46.18a.66.66 0 0 1 .16.44v1.08h-9.56v-.62c0-.12.02-.24.08-.38s.14-.26.26-.38l4.58-4.6 1.04-1.12a7.5 7.5 0 0 0 .8-1.08c.22-.36.4-.72.52-1.08a3.87 3.87 0 0 0 .18-1.2 3.08 3.08 0 0 0-.2-1.1c-.14-.32-.32-.58-.56-.78-.22-.2-.5-.36-.8-.46-.32-.1-.66-.16-1.02-.16s-.7.06-1 .16c-.32.1-.58.26-.82.44a2.77 2.77 0 0 0-.6.68 2.5 2.5 0 0 0-.34.86c-.08.24-.18.38-.32.46s-.34.1-.58.06l-.92-.16c.08-.64.26-1.22.54-1.72.26-.5.6-.94 1.02-1.28.4-.34.88-.58 1.4-.76s1.1-.28 1.72-.28c.6 0 1.16.1 1.7.28.52.18.98.44 1.36.78a3.67 3.67 0 0 1 .92 1.26 4.49 4.49 0 0 1 .32 1.68c0 .54-.08 1.02-.24 1.48s-.38.9-.64 1.3a10.69 10.69 0 0 1-.96 1.22l-1.12 1.18-3.78 3.86.8-.16.8-.08h4.8z"/></g><use xlink:href="#m" y="240" class="F"/><g transform="matrix(0 -1 1 0 95.2129 459.375)" fill="#fff" class="E"><use xlink:href="#n"/><use xlink:href="#K" x="-513.591" y="-169.375"/><use xlink:href="#o"/><use xlink:href="#p"/><path d="M159.26 30.605h4.94v1.52h-4.94z"/><use xlink:href="#q"/><use xlink:href="#i" x="-602.974" y="-104.726"/><use xlink:href="#H" x="-449.671" y="-149.375"/><use xlink:href="#r"/><use xlink:href="#h" x="-616.149" y="-84.726"/><path d="M163.65 46.905c.1-.64.28-1.22.54-1.72s.6-.94 1.02-1.28c.4-.34.88-.58 1.4-.76.54-.18 1.1-.28 1.72-.28.6 0 1.16.1 1.68.26.52.18.96.42 1.32.74.38.32.66.72.88 1.16.2.46.3.96.3 1.52 0 .46-.06.86-.18 1.22s-.28.66-.5.92c-.22.28-.48.5-.78.68-.3.2-.64.34-1.02.46.92.24 1.62.66 2.1 1.24.46.58.7 1.32.7 2.18 0 .66-.12 1.26-.38 1.78a3.81 3.81 0 0 1-1.02 1.36c-.44.36-.94.64-1.52.84s-1.18.3-1.84.3c-.76 0-1.42-.1-1.96-.28-.54-.2-1-.46-1.36-.8-.38-.32-.68-.72-.92-1.18s-.46-.94-.62-1.48l.78-.32c.2-.08.38-.12.58-.08.18.04.32.16.42.34l.32.66c.12.28.3.52.54.76.22.24.5.44.86.6.34.18.8.26 1.34.26.5 0 .92-.08 1.3-.24s.7-.38.94-.64c.26-.26.44-.54.58-.88.12-.3.18-.62.18-.94 0-.38-.06-.74-.14-1.06-.1-.32-.3-.6-.56-.84-.28-.22-.66-.4-1.14-.54s-1.08-.2-1.82-.2v-1.3c.6 0 1.12-.06 1.56-.2.42-.12.78-.28 1.04-.52a1.87 1.87 0 0 0 .6-.78c.12-.3.18-.64.18-1.02 0-.42-.06-.78-.2-1.08a2.06 2.06 0 0 0-.52-.76c-.24-.2-.5-.34-.82-.46-.3-.1-.64-.14-1-.14s-.7.06-1 .16c-.32.1-.58.26-.82.44a2.77 2.77 0 0 0-.6.68 2.5 2.5 0 0 0-.34.86c-.08.24-.2.38-.32.46-.14.08-.32.1-.56.06l-.94-.16z"/></g><defs ><path id="B" d="M473.158 124.372c.592 0 1.12.112 1.6.304a3.43 3.43 0 0 1 1.216.832c.336.368.592.816.768 1.328s.272 1.088.272 1.712c0 .64-.096 1.216-.272 1.728s-.432.96-.768 1.312c-.336.368-.736.656-1.216.848s-1.008.288-1.6.288-1.136-.096-1.616-.288-.88-.48-1.216-.848c-.336-.352-.592-.8-.768-1.312s-.272-1.088-.272-1.728c0-.624.096-1.2.272-1.712s.432-.96.768-1.328a3.43 3.43 0 0 1 1.216-.832 4.34 4.34 0 0 1 1.616-.304zm0 7.232c.8 0 1.392-.256 1.792-.8.4-.528.592-1.28.592-2.24s-.192-1.712-.592-2.256-.992-.8-1.792-.816c-.4.016-.752.08-1.056.208a2.01 2.01 0 0 0-.752.608c-.208.256-.352.576-.448.96s-.144.816-.144 1.296c0 .96.192 1.712.592 2.24.4.544.992.8 1.808.8z"/><path id="C" d="M481.598 128.644a1.94 1.94 0 0 0 .768-.112c.208-.08.4-.192.544-.336a1.58 1.58 0 0 0 .336-.512c.08-.208.112-.432.112-.672 0-.496-.144-.88-.448-1.184-.304-.288-.736-.432-1.312-.432s-1.008.144-1.312.432c-.304.304-.448.688-.448 1.184 0 .24.032.464.112.672a1.58 1.58 0 0 0 .336.512c.144.144.336.256.56.336.208.08.464.128.752.112zm2.576 4.416a.72.72 0 0 0-.176-.496c-.112-.112-.256-.208-.448-.288a3.62 3.62 0 0 0-.656-.144l-.8-.064-.848-.048-.832-.08a2.35 2.35 0 0 0-.736.528 1.04 1.04 0 0 0-.288.736c0 .176.048.352.144.512s.224.288.432.4c.192.112.432.208.72.272s.624.112 1.024.112a5.05 5.05 0 0 0 1.04-.112c.304-.064.56-.176.768-.288.208-.128.368-.288.48-.464a1.06 1.06 0 0 0 .176-.576zm1.44-8.24v.528c0 .176-.112.288-.336.336l-.912.128c.176.352.256.736.272 1.168-.016.4-.08.752-.24 1.072-.144.32-.352.608-.624.832a3.09 3.09 0 0 1-.96.528c-.368.128-.784.176-1.216.176-.384 0-.736-.032-1.072-.128-.176.112-.304.224-.384.336-.096.128-.144.24-.144.368a.47.47 0 0 0 .24.432 1.59 1.59 0 0 0 .624.208 4.67 4.67 0 0 0 .864.08l1.008.064c.352.016.688.064 1.008.112.336.064.624.16.88.288.256.144.464.32.624.56s.24.544.24.912c0 .352-.096.688-.272 1.008s-.416.608-.736.864a3.85 3.85 0 0 1-1.2.608c-.48.16-1.008.24-1.6.24s-1.104-.064-1.552-.176c-.448-.128-.816-.288-1.104-.48s-.512-.432-.656-.688-.224-.528-.224-.8c0-.4.128-.752.384-1.024.24-.272.592-.496 1.024-.672a1.41 1.41 0 0 1-.576-.416c-.144-.176-.208-.432-.208-.736 0-.112.016-.224.064-.352a2.15 2.15 0 0 1 .192-.384 1.73 1.73 0 0 1 .336-.352c.128-.112.272-.208.448-.304-.4-.224-.72-.512-.944-.88s-.336-.8-.336-1.296c0-.4.08-.752.224-1.072.16-.32.368-.608.64-.832s.592-.4.976-.528c.368-.112.784-.176 1.232-.176.352 0 .688.032.992.112s.576.192.832.336h2.192z"/><path id="D" d="M509.822 125.844c-.064.112-.176.176-.304.176a.51.51 0 0 1-.272-.096l-.368-.192c-.144-.064-.32-.128-.528-.192s-.448-.096-.72-.096c-.24 0-.448.032-.64.096a1.79 1.79 0 0 0-.496.24c-.144.112-.24.24-.32.384-.064.144-.096.288-.096.448 0 .208.048.384.176.528a1.25 1.25 0 0 0 .48.352c.192.112.416.192.672.272l.768.256a7.49 7.49 0 0 1 .768.288c.256.112.48.24.672.4a1.95 1.95 0 0 1 .48.592 1.88 1.88 0 0 1 .176.832c0 .368-.064.72-.192 1.04a2.33 2.33 0 0 1-.592.816 2.83 2.83 0 0 1-.96.544c-.384.144-.816.208-1.312.208-.576 0-1.088-.096-1.536-.272-.464-.192-.848-.416-1.168-.72l.336-.544c.032-.064.08-.112.144-.16.064-.032.128-.048.224-.048s.192.032.304.112.24.16.384.24c.16.096.336.176.56.256s.496.112.816.112c.272 0 .528-.032.736-.112.208-.064.368-.16.512-.288s.24-.256.304-.432a1.27 1.27 0 0 0 .112-.512c0-.224-.064-.4-.192-.544-.112-.144-.272-.272-.464-.384-.208-.096-.432-.192-.688-.272l-.768-.24c-.272-.08-.528-.176-.784-.288s-.48-.256-.672-.416-.352-.368-.48-.608c-.112-.24-.176-.544-.176-.896a2.13 2.13 0 0 1 .192-.88c.128-.288.32-.544.56-.752.24-.224.544-.4.912-.528.352-.112.752-.192 1.216-.192a4.12 4.12 0 0 1 1.44.256c.416.176.784.4 1.104.688l-.32.528z"/><path id="E" d="M517.454 127.668c0-.32-.048-.624-.144-.896s-.24-.512-.416-.72c-.176-.192-.4-.352-.64-.464-.256-.112-.56-.16-.88-.16-.688 0-1.216.192-1.616.592s-.64.944-.736 1.648h4.432zm1.152 3.808c-.192.208-.4.4-.64.56s-.512.288-.784.384c-.288.096-.576.176-.864.224-.304.048-.608.08-.896.08a4.12 4.12 0 0 1-1.552-.288c-.464-.192-.88-.464-1.216-.832-.352-.368-.624-.816-.8-1.36-.192-.528-.288-1.152-.288-1.856 0-.56.08-1.088.256-1.584.176-.48.416-.912.752-1.264.32-.368.72-.64 1.184-.848s.992-.32 1.584-.32a3.72 3.72 0 0 1 1.344.256 3.05 3.05 0 0 1 1.072.704c.304.304.544.688.72 1.136.16.448.256.96.256 1.536 0 .224-.032.368-.08.448s-.144.112-.272.112h-5.408c.016.512.08.96.208 1.328.128.384.304.704.528.96s.48.432.8.56c.304.128.656.192 1.04.192.352 0 .656-.048.912-.128s.48-.176.672-.272l.464-.256c.128-.08.24-.128.336-.128.112 0 .192.048.272.128l.4.528z"/><path id="F" d="M497.464 69.936l-3.688-5.235h-2.265l-3.688 5.235h1.344l3.469-3.36 3.531 3.36h1.297z"/><path id="G" d="M489.943 76.689c-.407-2.734-.641-3.828-1.391-5.125h-.516l-4.843.375v1l1.187-.078c2.094 0 2.25 1.672 2.5 3.219l2.016 12.016c-.953 1.468-3.688 5.328-4.344 5.328-.75 0-1.125-1.813-2.422-1.813-.781 0-1.328.438-1.328 1.469 0 1.266 1.187 2.219 2.625 2.219 2.594 0 4.672-3.688 7.812-8.032 1.782-2.453 3.735-5.39 5.579-8.64 1.093-1.844 1.5-3.375 1.5-4.703 0-1.469-.891-2.594-2.157-2.594-.984 0-1.5.609-1.5 1.328 0 1.297 1.672 2.25 1.672 3.141 0 .828-.312 1.64-1.125 2.968l-3.922 6.313h-.203l-.312-3.406-.828-4.985z"/><path id="H" d="M579.481 196.44c.74 0 1.4.14 2 .38s1.1.6 1.52 1.04c.42.46.74 1.02.96 1.66s.34 1.36.34 2.14c0 .8-.12 1.52-.34 2.16s-.54 1.2-.96 1.64a4.09 4.09 0 0 1-1.52 1.06c-.6.24-1.26.36-2 .36s-1.42-.12-2.02-.36a4.09 4.09 0 0 1-1.52-1.06c-.42-.44-.74-1-.96-1.64s-.34-1.36-.34-2.16c0-.78.12-1.5.34-2.14s.54-1.2.96-1.66c.42-.44.92-.8 1.52-1.04s1.28-.38 2.02-.38zm0 9.04c1 0 1.74-.32 2.24-1 .5-.66.74-1.6.74-2.8s-.24-2.14-.74-2.82-1.24-1-2.24-1.02c-.5.02-.94.1-1.32.26a2.51 2.51 0 0 0-.94.76c-.26.32-.44.72-.56 1.2s-.18 1.02-.18 1.62c0 1.2.24 2.14.74 2.8.5.68 1.24 1 2.26 1z"/><path id="I" d="M620.691 198.08c.22-.24.44-.46.7-.68.24-.18.5-.36.78-.5s.56-.26.88-.34c.3-.08.64-.12 1-.12.56 0 1.04.1 1.46.28s.78.44 1.06.78.5.74.66 1.22c.14.48.22 1 .22 1.56v6.46h-1.8v-6.46c0-.76-.18-1.36-.52-1.78-.36-.42-.88-.64-1.6-.64-.52 0-1.02.14-1.48.38a4.72 4.72 0 0 0-1.26 1.04v7.46h-1.78V196.6h1.06c.26 0 .42.14.48.38l.14 1.1z"/><path id="J" d="M635.651 202.18c-.82.02-1.52.1-2.1.2s-1.04.24-1.4.4-.64.36-.8.58c-.16.24-.24.48-.24.76s.04.5.14.7c.08.2.2.36.34.48a1.69 1.69 0 0 0 .54.26c.2.06.42.08.66.08.3 0 .6-.02.86-.08s.5-.16.72-.28c.24-.12.46-.26.66-.44.22-.16.42-.34.62-.56v-2.1zm-5.74-4.14c.56-.54 1.16-.94 1.8-1.22.64-.26 1.36-.4 2.16-.4.56 0 1.06.1 1.5.28a3.51 3.51 0 0 1 1.12.78c.3.34.52.74.68 1.22.14.48.22 1 .22 1.56v6.48h-.78c-.18 0-.32-.02-.4-.08-.1-.06-.18-.18-.22-.34l-.2-.96-.78.66c-.26.18-.54.34-.8.48-.28.12-.58.22-.9.3-.32.06-.68.1-1.06.1-.4 0-.76-.06-1.1-.16-.36-.12-.66-.28-.92-.5s-.46-.5-.6-.84c-.16-.34-.22-.72-.22-1.2a2.14 2.14 0 0 1 .32-1.14c.22-.38.58-.7 1.08-1 .48-.28 1.12-.52 1.92-.7s1.76-.28 2.92-.32v-.78c0-.78-.16-1.38-.5-1.78s-.84-.62-1.5-.62c-.44 0-.8.06-1.1.18-.3.1-.56.22-.78.36l-.56.38c-.16.1-.3.16-.46.16a.49.49 0 0 1-.3-.1c-.1-.06-.16-.14-.22-.24l-.32-.56z"/><path id="K" d="M649.381 206.74h-1.78v-8.64h-5.22v6.08c0 .42.1.74.3.94.2.22.48.32.8.32a1.21 1.21 0 0 0 .48-.08 1.5 1.5 0 0 0 .36-.16l.26-.16c.06-.06.12-.08.18-.08.1 0 .18.06.26.16l.52.86a3.5 3.5 0 0 1-1.12.68c-.44.16-.88.24-1.34.24-.8 0-1.42-.22-1.84-.68-.44-.44-.66-1.08-.64-1.92v-6.2h-1.22c-.12 0-.2-.04-.28-.1s-.1-.16-.1-.3v-.7l1.66-.22.4-3.12a.37.37 0 0 1 .14-.24c.06-.06.16-.1.28-.1h.9v3.48h7v9.94zm.44-13.38a.95.95 0 0 1-.12.48c-.06.16-.16.28-.28.4s-.24.2-.4.26c-.16.08-.32.1-.48.1-.18 0-.34-.02-.5-.1-.14-.06-.28-.14-.38-.26-.12-.12-.22-.24-.28-.4a1.21 1.21 0 0 1-.1-.48c0-.18.04-.34.1-.5s.16-.28.28-.4c.1-.12.24-.22.38-.28.16-.06.32-.1.5-.1.16 0 .32.04.48.1s.28.16.4.28.22.24.28.4c.08.16.12.32.12.5z"/><path id="L" d="M235.73 63.025v14.34h-1.771v-10.54l.021-.44c0-.16.021-.32.042-.5l-5.125 8.96c-.167.3-.417.46-.729.46h-.292c-.333 0-.583-.16-.729-.46l-5.229-9 .063.98v10.54h-1.771v-14.34h1.479c.188 0 .313.02.417.06s.188.12.292.28l5.146 8.82.25.5.229.52.208-.52.25-.52 5.063-8.8c.083-.16.167-.24.271-.28s.25-.06.438-.06h1.479z"/><path id="M" d="M243.23 67.065a5.74 5.74 0 0 1 2.083.38c.625.24 1.146.6 1.583 1.04.438.46.771 1.02 1 1.66s.354 1.36.354 2.14c0 .8-.125 1.52-.354 2.16s-.563 1.2-1 1.64c-.438.46-.958.82-1.583 1.06s-1.313.36-2.083.36-1.479-.12-2.104-.36-1.146-.6-1.583-1.06c-.438-.44-.771-1-1-1.64s-.354-1.36-.354-2.16c0-.78.125-1.5.354-2.14s.563-1.2 1-1.66c.438-.44.958-.8 1.583-1.04s1.333-.38 2.104-.38zm0 9.04c1.042 0 1.813-.32 2.333-1 .521-.66.771-1.6.771-2.8s-.25-2.14-.771-2.82-1.292-1-2.333-1.02c-.521.02-.979.1-1.375.26-.396.18-.729.44-.979.76-.271.32-.458.72-.583 1.2s-.188 1.02-.188 1.62c0 1.2.25 2.14.771 2.8.521.68 1.292 1 2.354 1z"/><path id="N" d="M257.48 69.645c-.354-.44-.729-.76-1.125-.94-.417-.18-.854-.26-1.354-.26-.979 0-1.75.34-2.271 1-.521.68-.792 1.64-.792 2.88 0 .66.063 1.24.188 1.7.104.48.292.86.521 1.16s.5.52.833.66a2.91 2.91 0 0 0 1.146.22c.604 0 1.125-.14 1.583-.4s.875-.64 1.271-1.14v-4.88zm1.854-7.02v14.74h-1.104c-.271 0-.438-.12-.5-.38l-.167-1.22c-.458.52-.979.94-1.542 1.26-.583.32-1.25.48-2 .48-.604 0-1.167-.12-1.646-.34a3.31 3.31 0 0 1-1.271-.98c-.354-.44-.604-.98-.792-1.62s-.292-1.4-.292-2.24c0-.74.104-1.44.313-2.08s.5-1.2.896-1.68c.396-.46.875-.84 1.438-1.1.563-.28 1.208-.42 1.917-.42.646 0 1.188.12 1.646.32a4.39 4.39 0 0 1 1.25.88v-5.62h1.854z"/><path id="O" d="M269.334 71.185a3.25 3.25 0 0 0-.188-1.12c-.125-.34-.313-.64-.542-.9-.229-.24-.521-.44-.833-.58-.333-.14-.729-.2-1.146-.2-.896 0-1.583.24-2.104.74s-.833 1.18-.958 2.06h5.771zm1.5 4.76a4.6 4.6 0 0 1-.833.7c-.313.2-.667.36-1.021.48-.375.12-.75.22-1.125.28-.396.06-.792.1-1.167.1-.729 0-1.396-.12-2.021-.36-.604-.24-1.146-.58-1.583-1.04-.458-.46-.813-1.02-1.042-1.7-.25-.66-.375-1.44-.375-2.32a5.66 5.66 0 0 1 .333-1.98c.229-.6.542-1.14.979-1.58.417-.46.938-.8 1.542-1.06s1.292-.4 2.063-.4a5.02 5.02 0 0 1 1.75.32c.542.2 1 .5 1.396.88s.708.86.938 1.42c.208.56.333 1.2.333 1.92 0 .28-.042.46-.104.56s-.188.14-.354.14h-7.042c.021.64.104 1.2.271 1.66.167.48.396.88.688 1.2a2.63 2.63 0 0 0 1.042.7c.396.16.854.24 1.354.24.458 0 .854-.06 1.188-.16s.625-.22.875-.34l.604-.32c.167-.1.313-.16.438-.16.146 0 .25.06.354.16l.521.66z"/><path id="P" d="M136.709 91.065c0 1.44.188 2.82.563 4.16.375 1.36.938 2.64 1.667 3.86.104.2.125.36.083.46-.063.12-.146.2-.25.28l-.813.48c-.521-.78-.979-1.54-1.333-2.28a14.76 14.76 0 0 1-.896-2.28c-.229-.76-.396-1.52-.479-2.3-.125-.76-.167-1.56-.167-2.38a14.82 14.82 0 0 1 .167-2.36c.083-.78.25-1.54.479-2.3s.521-1.5.896-2.26c.354-.76.813-1.52 1.333-2.3l.813.5c.104.06.188.16.25.26.042.12.021.26-.083.46-.729 1.22-1.292 2.5-1.667 3.84-.375 1.36-.563 2.74-.563 4.16z"/><path id="Q" d="M148.459 87.985a1.12 1.12 0 0 1-.063.38.75.75 0 0 1-.188.3l-5.708 7.3h5.771v1.4h-7.958v-.74c0-.08.021-.18.063-.3s.104-.24.188-.34l5.75-7.36h-5.667v-1.4h7.813v.76z"/><path id="R" d="M150.292 96.265a1.33 1.33 0 0 1 .083-.5 1.71 1.71 0 0 1 .271-.4c.125-.1.25-.2.417-.26s.333-.1.521-.1c.167 0 .333.04.5.1s.292.16.417.26c.125.12.208.26.292.4.063.16.104.32.104.5s-.042.34-.104.5c-.083.14-.167.28-.292.38-.125.12-.25.22-.417.28s-.333.1-.5.1c-.188 0-.354-.04-.521-.1s-.292-.16-.417-.28a1.28 1.28 0 0 1-.271-.38 1.33 1.33 0 0 1-.083-.5z"/><path id="S" d="M161.188 95.825c.583 0 1.083-.06 1.5-.2.417-.12.75-.3 1.021-.52.271-.24.458-.5.583-.82s.188-.68.188-1.06c0-.74-.271-1.32-.813-1.74-.563-.44-1.375-.66-2.479-.66h-3.229v5h3.229zm-3.229-11.26v4.88h2.667c.563 0 1.063-.06 1.479-.18s.771-.28 1.042-.5c.271-.2.479-.46.625-.76a2.6 2.6 0 0 0 .188-1c0-.84-.271-1.46-.792-1.86-.521-.38-1.354-.58-2.458-.58h-2.75zm2.75-1.54c.917 0 1.708.1 2.375.26.667.18 1.208.42 1.625.74.438.32.75.72.958 1.18a4.1 4.1 0 0 1 .292 1.56 3.28 3.28 0 0 1-.167 1.02 3.29 3.29 0 0 1-.521.9c-.229.28-.521.54-.875.76s-.75.4-1.229.54c1.104.2 1.917.58 2.479 1.14.542.54.833 1.26.833 2.16 0 .6-.125 1.16-.354 1.66s-.583.92-1.021 1.28c-.458.36-1 .64-1.646.84-.667.2-1.396.3-2.229.3h-5.271v-14.34h4.75z"/><path id="T" d="M188.886 95.785l-.021 1.58h-9.188v-14.34h9.188v1.58h-7.167v4.76h5.813v1.52h-5.813v4.9h7.188z"/><path id="U" d="M192.73 88.705c.229-.24.458-.46.729-.68.25-.18.521-.36.813-.5s.583-.26.917-.34a4.24 4.24 0 0 1 1.042-.12c.583 0 1.083.1 1.521.28s.813.44 1.104.78a3.71 3.71 0 0 1 .688 1.22 5.34 5.34 0 0 1 .229 1.56v6.46h-1.875v-6.46c0-.76-.188-1.36-.542-1.78-.375-.42-.917-.64-1.667-.64-.542 0-1.063.14-1.542.38a4.88 4.88 0 0 0-1.313 1.04v7.46h-1.854v-10.14h1.104a.47.47 0 0 1 .5.38l.146 1.1z"/><path id="V" d="M205.688 97.525c-.833 0-1.479-.22-1.917-.68-.458-.44-.688-1.08-.667-1.92v-6.2h-1.271c-.125 0-.208-.04-.292-.1s-.104-.16-.104-.3v-.7l1.729-.22.417-3.12c.021-.1.063-.18.146-.24.063-.06.167-.1.292-.1h.938v3.48H208v1.3h-3.042v6.08c0 .42.104.74.313.94.208.22.5.32.833.32.188 0 .354-.02.5-.08.146-.04.271-.1.375-.16l.271-.16a.26.26 0 0 1 .188-.08c.104 0 .188.06.271.16l.542.86c-.333.28-.708.52-1.167.68s-.917.24-1.396.24z"/><path id="W" d="M216.073 88.905a.45.45 0 0 1-.396.22c-.104 0-.229-.04-.354-.12l-.479-.24a6.4 6.4 0 0 0-.688-.24c-.271-.08-.583-.12-.938-.12-.313 0-.583.04-.833.12s-.479.18-.646.3c-.188.14-.313.3-.417.48-.083.18-.125.36-.125.56 0 .26.063.48.229.66.146.18.354.32.625.44.25.14.542.24.875.34l1 .32a10.01 10.01 0 0 1 1 .36c.333.14.625.3.875.5s.458.44.625.74c.146.28.229.64.229 1.04a3.37 3.37 0 0 1-.25 1.3c-.188.4-.438.74-.771 1.02-.354.3-.771.52-1.25.68-.5.18-1.063.26-1.708.26-.75 0-1.417-.12-2-.34-.604-.24-1.104-.52-1.521-.9l.438-.68c.042-.08.104-.14.188-.2.083-.04.167-.06.292-.06s.25.04.396.14a5.28 5.28 0 0 0 .5.3c.208.12.438.22.729.32s.646.14 1.063.14c.354 0 .688-.04.958-.14a1.76 1.76 0 0 0 .667-.36c.188-.16.313-.32.396-.54.083-.18.146-.4.146-.64a.95.95 0 0 0-.25-.68c-.146-.18-.354-.34-.604-.48-.271-.12-.563-.24-.896-.34l-1-.3c-.354-.1-.688-.22-1.021-.36a3.68 3.68 0 0 1-.875-.52c-.25-.2-.458-.46-.625-.76-.146-.3-.229-.68-.229-1.12a2.57 2.57 0 0 1 .25-1.1c.167-.36.417-.68.729-.94.313-.28.708-.5 1.188-.66.458-.14.979-.24 1.583-.24a5.56 5.56 0 0 1 1.875.32c.542.22 1.021.5 1.438.86l-.417.66z"/><path id="X" d="M226.282 89.025c-.063.08-.104.14-.167.18s-.125.06-.229.06a.62.62 0 0 1-.333-.12l-.479-.28a3.43 3.43 0 0 0-.667-.28c-.271-.08-.604-.12-.979-.12-.521 0-.979.08-1.375.26s-.729.44-1 .76c-.271.34-.479.74-.604 1.22-.146.48-.208 1-.208 1.58 0 .62.083 1.16.229 1.64s.333.88.604 1.2.604.58.979.74c.375.18.792.26 1.271.26.458 0 .833-.06 1.125-.16a3.25 3.25 0 0 0 .708-.34l.479-.34a.67.67 0 0 1 .396-.16c.146 0 .271.06.354.16l.521.66c-.229.28-.5.5-.792.7s-.604.36-.938.48c-.333.14-.688.22-1.063.3-.375.06-.75.08-1.125.08-.667 0-1.271-.12-1.833-.36-.563-.22-1.063-.56-1.479-1s-.75-1-.979-1.64-.354-1.38-.354-2.22c0-.74.104-1.44.333-2.08.208-.64.542-1.2.958-1.66s.938-.82 1.542-1.08c.625-.26 1.333-.4 2.125-.4.75 0 1.396.12 1.958.36.563.22 1.083.54 1.521.96l-.5.64z"/><path id="Y" d="M230.751 88.585c.458-.46.958-.82 1.5-1.1s1.188-.42 1.896-.42c.583 0 1.083.1 1.521.28s.813.44 1.104.78a3.71 3.71 0 0 1 .688 1.22 5.34 5.34 0 0 1 .229 1.56v6.46h-1.875v-6.46c0-.76-.188-1.36-.542-1.78-.375-.42-.917-.64-1.667-.64-.542 0-1.063.14-1.542.38a4.88 4.88 0 0 0-1.313 1.04v7.46h-1.854v-14.74h1.854v5.96z"/><path id="Z" d="M253.48 87.225v10.14h-1.854v-10.14h1.854zm.396-3.18a1.05 1.05 0 0 1-.125.5c-.063.14-.167.28-.292.4s-.25.2-.417.26c-.167.08-.333.1-.521.1s-.354-.02-.5-.1c-.167-.06-.292-.14-.417-.26s-.208-.26-.271-.4c-.083-.16-.104-.32-.104-.5 0-.16.021-.32.104-.48.063-.16.146-.3.271-.42s.25-.2.417-.28c.146-.06.313-.1.5-.1s.354.04.521.1c.167.08.292.16.417.28a1.19 1.19 0 0 1 .292.42 1.03 1.03 0 0 1 .125.48z"/><path id="a" d="M276.855 87.225v10.14h-1.104c-.271 0-.438-.12-.5-.38l-.146-1.08a6.13 6.13 0 0 1-1.542 1.18c-.563.3-1.229.44-1.958.44-.583 0-1.083-.1-1.521-.28s-.813-.44-1.104-.78c-.313-.32-.542-.72-.688-1.2s-.208-1-.208-1.58v-6.46h1.854v6.46c0 .78.167 1.36.542 1.78.354.42.917.64 1.667.64.542 0 1.063-.12 1.542-.38.479-.24.917-.6 1.313-1.04v-7.46h1.854z"/><path id="b" d="M295.094 92.405c.375.02.708-.04 1-.14a2.05 2.05 0 0 0 .708-.42 1.97 1.97 0 0 0 .438-.64c.104-.26.146-.54.146-.84 0-.62-.188-1.1-.583-1.48-.396-.36-.958-.54-1.708-.54s-1.313.18-1.708.54c-.396.38-.583.86-.583 1.48 0 .3.042.58.146.84a1.97 1.97 0 0 0 .438.64c.188.18.438.32.729.42.271.1.604.16.979.14zm3.354 5.52a.88.88 0 0 0-.229-.62c-.146-.14-.333-.26-.583-.36-.25-.08-.542-.14-.854-.18l-1.042-.08-1.104-.06-1.083-.1c-.396.18-.708.4-.958.66a1.27 1.27 0 0 0-.375.92c0 .22.063.44.188.64s.292.36.563.5c.25.14.563.26.938.34a6.3 6.3 0 0 0 1.333.14 6.84 6.84 0 0 0 1.354-.14c.396-.08.729-.22 1-.36a1.9 1.9 0 0 0 .625-.58c.146-.22.229-.46.229-.72zm1.875-10.3v.66c0 .22-.146.36-.438.42l-1.188.16c.229.44.333.92.354 1.46-.021.5-.104.94-.313 1.34-.188.4-.458.76-.813 1.04s-.771.5-1.25.66-1.021.22-1.583.22c-.5 0-.958-.04-1.396-.16-.229.14-.396.28-.5.42-.125.16-.188.3-.188.46 0 .24.104.42.313.54a2.13 2.13 0 0 0 .813.26 6.33 6.33 0 0 0 1.125.1l1.313.08c.458.02.896.08 1.313.14.438.08.813.2 1.146.36.333.18.604.4.813.7s.313.68.313 1.14a2.51 2.51 0 0 1-.354 1.26c-.229.4-.542.76-.958 1.08-.438.32-.958.58-1.563.76-.625.2-1.313.3-2.083.3s-1.438-.08-2.021-.22c-.583-.16-1.063-.36-1.438-.6s-.667-.54-.854-.86-.292-.66-.292-1c0-.5.167-.94.5-1.28.313-.34.771-.62 1.333-.84-.313-.12-.563-.3-.75-.52s-.271-.54-.271-.92c0-.14.021-.28.083-.44s.146-.32.25-.48c.125-.16.25-.3.438-.44a3.18 3.18 0 0 1 .583-.38c-.521-.28-.938-.64-1.229-1.1s-.438-1-.438-1.62a3.1 3.1 0 0 1 .292-1.34 3.17 3.17 0 0 1 .833-1.04c.354-.28.771-.5 1.271-.66.479-.14 1.021-.22 1.604-.22.458 0 .896.04 1.292.14s.75.24 1.083.42h2.854z"/><path id="c" d="M313.136 94.925c.333.44.708.74 1.125.92.396.18.854.28 1.333.28 1 0 1.75-.34 2.292-1.02.521-.66.792-1.66.792-3 0-1.24-.25-2.16-.708-2.74-.479-.58-1.146-.88-2-.88-.604 0-1.146.14-1.583.4-.458.28-.875.66-1.25 1.14v4.9zm0-6.24a5.59 5.59 0 0 1 1.5-1.18c.563-.28 1.208-.44 1.938-.44a4.05 4.05 0 0 1 1.667.34 3.57 3.57 0 0 1 1.271 1c.354.42.604.94.792 1.56s.292 1.3.292 2.06c0 .82-.104 1.58-.313 2.24-.208.68-.521 1.26-.917 1.74s-.854.84-1.417 1.1-1.208.4-1.896.4c-.708 0-1.292-.12-1.771-.38-.479-.24-.896-.6-1.229-1.06l-.104.92c-.063.26-.208.38-.479.38h-1.188v-14.74h1.854v6.06z"/><path id="d" d="M328.657 92.805c-.854.02-1.583.1-2.188.2s-1.083.24-1.458.4-.667.36-.833.58a1.28 1.28 0 0 0-.25.76c0 .28.042.5.146.7a1.23 1.23 0 0 0 .354.48c.167.12.354.2.563.26s.438.08.688.08c.313 0 .625-.02.896-.08a3.03 3.03 0 0 0 .75-.28c.25-.12.479-.26.688-.44a4.14 4.14 0 0 0 .646-.56v-2.1zm-5.979-4.14a6.38 6.38 0 0 1 1.875-1.22c.667-.26 1.417-.4 2.25-.4.583 0 1.104.1 1.563.28.458.2.854.46 1.167.78.313.34.542.74.708 1.22a5.34 5.34 0 0 1 .229 1.56v6.48h-.813c-.188 0-.333-.02-.417-.08-.104-.06-.188-.18-.229-.34l-.208-.96-.813.66a8.9 8.9 0 0 1-.833.48c-.292.12-.604.22-.938.3a6.27 6.27 0 0 1-1.104.1 4.16 4.16 0 0 1-1.146-.16c-.375-.12-.688-.28-.958-.5s-.479-.5-.625-.84c-.167-.34-.229-.72-.229-1.2 0-.4.104-.78.333-1.14.229-.38.604-.7 1.125-1 .5-.28 1.167-.52 2-.7s1.833-.28 3.042-.32v-.78c0-.78-.167-1.38-.521-1.78s-.875-.62-1.563-.62c-.458 0-.833.06-1.146.18-.313.1-.583.22-.813.36l-.583.38c-.167.1-.313.16-.479.16-.125 0-.229-.04-.313-.1-.104-.06-.167-.14-.229-.24l-.333-.56z"/><path id="e" d="M344.918 97.365v-10.14h1.104a.47.47 0 0 1 .5.38l.125 1.04c.396-.46.833-.84 1.313-1.14.479-.28 1.042-.44 1.688-.44.708 0 1.292.2 1.729.58s.75.9.958 1.54c.146-.36.333-.68.583-.96.229-.26.5-.48.813-.66.292-.16.604-.3.938-.38s.688-.12 1.042-.12a4.31 4.31 0 0 1 1.479.26 3.2 3.2 0 0 1 1.104.74 3.71 3.71 0 0 1 .688 1.22c.167.48.229 1.02.25 1.62v6.46h-1.875v-6.46c0-.78-.188-1.38-.542-1.8-.354-.4-.875-.62-1.563-.62a2.51 2.51 0 0 0-.875.16c-.271.1-.5.26-.708.46s-.375.46-.5.76-.188.66-.188 1.04v6.46h-1.854v-6.46c0-.8-.188-1.42-.521-1.82s-.833-.6-1.479-.6a2.34 2.34 0 0 0-1.271.36c-.396.24-.75.56-1.083.96v7.56h-1.854z"/><path id="f" d="M363.23 211.065c0-1.42-.208-2.8-.583-4.16-.375-1.34-.917-2.62-1.646-3.84-.063-.1-.104-.18-.104-.26-.021-.08-.021-.14 0-.2a.36.36 0 0 1 .104-.14c.042-.04.083-.08.146-.12l.833-.5c.521.78.958 1.54 1.313 2.3.375.76.667 1.5.896 2.26s.396 1.52.5 2.3.146 1.56.146 2.36c0 .82-.042 1.62-.146 2.38-.104.78-.271 1.54-.5 2.3a14.76 14.76 0 0 1-.896 2.28c-.354.74-.792 1.5-1.313 2.28l-.833-.48c-.063-.04-.104-.08-.146-.12s-.083-.1-.104-.16-.021-.12 0-.2c0-.08.042-.16.104-.26a15.49 15.49 0 0 0 1.646-3.86 15.34 15.34 0 0 0 .583-4.16z"/><path id="g" d="M740.099 133.431c.22-.24.44-.46.7-.68.24-.18.5-.36.78-.5s.56-.26.88-.34c.3-.08.64-.12 1-.12.56 0 1.04.1 1.46.28s.78.44 1.06.78.5.74.66 1.22c.14.48.22 1 .22 1.56v6.46h-1.8v-6.46c0-.76-.18-1.36-.52-1.78-.36-.42-.88-.64-1.6-.64-.52 0-1.02.14-1.48.38a4.72 4.72 0 0 0-1.26 1.04v7.46h-1.78v-10.14h1.06c.26 0 .42.14.48.38l.14 1.1z"/><path id="h" d="M771.019 135.911c0-.4-.06-.78-.18-1.12s-.3-.64-.52-.9a2.57 2.57 0 0 0-.8-.58c-.32-.14-.7-.2-1.1-.2-.86 0-1.52.24-2.02.74s-.8 1.18-.92 2.06h5.54zm1.44 4.76c-.24.26-.5.5-.8.7s-.64.36-.98.48c-.36.12-.72.22-1.08.28-.38.06-.76.1-1.12.1a5.15 5.15 0 0 1-1.94-.36c-.58-.24-1.1-.58-1.52-1.04-.44-.46-.78-1.02-1-1.7-.24-.66-.36-1.44-.36-2.32 0-.7.1-1.36.32-1.98.22-.6.52-1.14.94-1.58.4-.46.9-.8 1.48-1.06s1.24-.4 1.98-.4a4.65 4.65 0 0 1 1.68.32 3.81 3.81 0 0 1 1.34.88c.38.38.68.86.9 1.42.2.56.32 1.2.32 1.92 0 .28-.04.46-.1.56s-.18.14-.34.14h-6.76c.02.64.1 1.2.26 1.66.16.48.38.88.66 1.2a2.52 2.52 0 0 0 1 .7c.38.16.82.24 1.3.24.44 0 .82-.06 1.14-.16a5.63 5.63 0 0 0 .84-.34l.58-.32c.16-.1.3-.16.42-.16.14 0 .24.06.34.16l.5.66z"/><path id="i" d="M723.334 153.991c.32-.7.72-1.24 1.18-1.62.46-.4 1.04-.6 1.72-.6.2 0 .4.04.6.08s.38.12.54.22l-.14 1.32c-.04.18-.14.26-.3.26-.1 0-.22-.02-.4-.06s-.4-.06-.62-.06c-.32 0-.6.04-.86.14a2.31 2.31 0 0 0-.66.42 2.7 2.7 0 0 0-.54.68c-.16.26-.3.58-.42.92v6.4h-1.78v-10.14h1.02c.18 0 .32.04.4.12.06.08.12.2.14.38l.12 1.54z"/><path id="j" d="M135.284 45.049c-1.476.036-2.736.18-3.78.36s-1.872.432-2.52.72-1.152.648-1.44 1.044a2.37 2.37 0 0 0-.432 1.368c0 .504.072.9.252 1.26a2.21 2.21 0 0 0 .612.864c.288.216.612.36.972.468s.756.144 1.188.144c.54 0 1.08-.036 1.548-.144s.9-.288 1.296-.504a5.26 5.26 0 0 0 1.188-.792c.396-.288.756-.612 1.116-1.008v-3.78zm-10.332-7.452c1.008-.972 2.088-1.692 3.24-2.196 1.152-.468 2.448-.72 3.888-.72 1.008 0 1.908.18 2.7.504.792.36 1.476.828 2.016 1.404.54.612.936 1.332 1.224 2.196.252.864.396 1.8.396 2.808v11.664h-1.404c-.324 0-.576-.036-.72-.144-.18-.108-.324-.324-.396-.612l-.36-1.728-1.404 1.188c-.468.324-.972.612-1.44.864-.504.216-1.044.396-1.62.54a10.41 10.41 0 0 1-1.908.18 6.92 6.92 0 0 1-1.98-.288c-.648-.216-1.188-.504-1.656-.9s-.828-.9-1.08-1.512c-.288-.612-.396-1.296-.396-2.16 0-.72.18-1.404.576-2.052.396-.684 1.044-1.26 1.944-1.8.864-.504 2.016-.936 3.456-1.26s3.168-.504 5.256-.576v-1.404c0-1.404-.288-2.484-.9-3.204s-1.512-1.116-2.7-1.116c-.792 0-1.44.108-1.98.324-.54.18-1.008.396-1.404.648l-1.008.684c-.288.18-.54.288-.828.288-.216 0-.396-.072-.54-.18-.18-.108-.288-.252-.396-.432l-.576-1.008z"/><path id="k" d="M146.696 35.005v18.252h-3.204V35.005h3.204zm.684-5.724a1.95 1.95 0 0 1-.216.9c-.108.252-.288.504-.504.72s-.432.36-.72.468c-.288.144-.576.18-.9.18s-.612-.036-.864-.18c-.288-.108-.504-.252-.72-.468a2.25 2.25 0 0 1-.468-.72c-.144-.288-.18-.576-.18-.9 0-.288.036-.576.18-.864.108-.288.252-.54.468-.756s.432-.36.72-.504c.252-.108.54-.18.864-.18s.612.072.9.18c.288.144.504.288.72.504s.396.468.504.756c.144.288.216.576.216.864z"/><path id="l" d="M154.976 37.669c.396-.432.792-.828 1.26-1.224.432-.324.9-.648 1.404-.9s1.008-.468 1.584-.612a7.05 7.05 0 0 1 1.8-.216c1.008 0 1.872.18 2.628.504s1.404.792 1.908 1.404.9 1.332 1.188 2.196c.252.864.396 1.8.396 2.808v11.628h-3.24V41.629c0-1.368-.324-2.448-.936-3.204-.648-.756-1.584-1.152-2.88-1.152-.936 0-1.836.252-2.664.684a8.5 8.5 0 0 0-2.268 1.872v13.428h-3.204V35.005h1.908c.468 0 .756.252.864.684l.252 1.98z"/><path id="m" d="M119.958 29.375h30a15.01 15.01 0 0 1 15 15v70a15.01 15.01 0 0 1-15 15h-30a15.01 15.01 0 0 1-15-15v-70a15.01 15.01 0 0 1 15-15z"/><path id="n" d="M123.73 25.265a.8.8 0 0 1-.2.24c-.06.04-.16.06-.24.06-.12 0-.26-.04-.4-.16-.16-.12-.36-.24-.58-.38-.24-.14-.52-.26-.84-.38-.32-.1-.7-.16-1.16-.16-.44 0-.82.06-1.16.18-.32.12-.6.26-.82.46s-.4.44-.5.72a2.07 2.07 0 0 0-.18.86c0 .4.1.74.3 1a2.59 2.59 0 0 0 .78.68c.32.18.68.34 1.1.48l1.26.42 1.26.5c.4.18.78.42 1.1.7s.58.62.78 1.02c.2.42.3.92.3 1.5 0 .64-.12 1.22-.32 1.78-.22.54-.54 1.02-.94 1.42a4.11 4.11 0 0 1-1.52.96c-.6.24-1.26.36-2.02.36-.94 0-1.78-.16-2.54-.5-.78-.34-1.42-.8-1.96-1.38l.56-.92c.06-.06.12-.12.2-.18.08-.04.16-.08.26-.08.08 0 .18.04.28.12.12.06.24.16.38.26l.48.34c.18.14.38.26.62.36.22.1.48.2.78.26.3.08.62.1 1 .1.46 0 .86-.06 1.22-.18a2.49 2.49 0 0 0 .92-.54c.24-.22.44-.5.58-.82.12-.32.2-.68.2-1.08 0-.42-.1-.78-.3-1.06s-.46-.5-.78-.7c-.32-.18-.68-.34-1.1-.46l-1.26-.4-1.26-.48a4.13 4.13 0 0 1-1.1-.7 3.13 3.13 0 0 1-.78-1.08c-.2-.42-.28-.96-.28-1.6 0-.5.08-.98.28-1.46s.48-.9.86-1.26.84-.66 1.4-.88c.54-.22 1.18-.34 1.9-.34a6.31 6.31 0 0 1 2.18.38c.66.26 1.22.62 1.74 1.1l-.48.92z"/><path id="o" d="M145.75 29.025c-.06.08-.1.14-.16.18s-.12.06-.22.06a.58.58 0 0 1-.32-.12l-.46-.28a3.22 3.22 0 0 0-.64-.28c-.26-.08-.58-.12-.94-.12-.5 0-.94.08-1.32.26s-.7.44-.96.76a3.29 3.29 0 0 0-.58 1.22c-.14.48-.2 1-.2 1.58 0 .62.08 1.16.22 1.64s.32.88.58 1.2.58.58.94.74c.36.18.76.26 1.22.26.44 0 .8-.06 1.08-.16a3.07 3.07 0 0 0 .68-.34l.46-.34c.12-.1.26-.16.38-.16.14 0 .26.06.34.16l.5.66c-.22.28-.48.5-.76.7s-.58.36-.9.48c-.32.14-.66.22-1.02.3-.36.06-.72.08-1.08.08-.64 0-1.22-.12-1.76-.36a3.91 3.91 0 0 1-1.42-1c-.4-.44-.72-1-.94-1.64s-.34-1.38-.34-2.22c0-.74.1-1.44.32-2.08.2-.64.52-1.2.92-1.66a4.23 4.23 0 0 1 1.48-1.08c.6-.26 1.28-.4 2.04-.4.72 0 1.34.12 1.88.36a4.41 4.41 0 0 1 1.46.96l-.48.64z"/><path id="p" d="M150.04 28.585c.44-.46.92-.82 1.44-1.1s1.14-.42 1.82-.42c.56 0 1.04.1 1.46.28s.78.44 1.06.78.5.74.66 1.22c.14.48.22 1 .22 1.56v6.46h-1.8v-6.46c0-.76-.18-1.36-.52-1.78-.36-.42-.88-.64-1.6-.64-.52 0-1.02.14-1.48.38a4.72 4.72 0 0 0-1.26 1.04v7.46h-1.78v-14.74h1.78v5.96z"/><path id="q" d="M109.25 54.925c.32.44.68.74 1.08.92.38.18.82.28 1.3.28.94 0 1.66-.34 2.18-1.02.5-.66.76-1.62.76-2.88 0-.66-.06-1.22-.18-1.7-.12-.46-.28-.86-.5-1.16s-.5-.52-.82-.66a2.67 2.67 0 0 0-1.08-.22c-.58 0-1.1.14-1.54.4-.44.28-.84.66-1.2 1.14v4.9zm-.08-6.12a5.3 5.3 0 0 1 1.48-1.28c.56-.3 1.2-.48 1.92-.48a3.73 3.73 0 0 1 1.58.34c.48.22.88.56 1.22 1 .32.44.58.98.76 1.62s.28 1.38.28 2.22c0 .76-.1 1.46-.3 2.1s-.5 1.2-.88 1.66c-.38.48-.84.84-1.38 1.12-.54.26-1.14.4-1.82.4-.62 0-1.16-.1-1.6-.32-.44-.2-.84-.5-1.18-.88v4.5h-1.78v-13.58h1.06c.26 0 .42.14.48.38l.16 1.2z"/><path id="r" d="M138.67 54.925c.32.44.68.74 1.08.92a3 3 0 0 0 1.28.28c.96 0 1.68-.34 2.2-1.02.5-.66.76-1.66.76-3 0-1.24-.24-2.16-.68-2.74-.46-.58-1.1-.88-1.92-.88-.58 0-1.1.14-1.52.4-.44.28-.84.66-1.2 1.14v4.9zm0-6.24c.42-.48.9-.88 1.44-1.18a3.99 3.99 0 0 1 1.86-.44c.6 0 1.12.12 1.6.34.48.24.88.56 1.22 1 .34.42.58.94.76 1.56a7.33 7.33 0 0 1 .28 2.06c0 .82-.1 1.58-.3 2.24-.2.68-.5 1.26-.88 1.74s-.82.84-1.36 1.1-1.16.4-1.82.4c-.68 0-1.24-.12-1.7-.38-.46-.24-.86-.6-1.18-1.06l-.1.92c-.06.26-.2.38-.46.38h-1.14v-14.74h1.78v6.06z"/></defs></svg>