<svg viewBox="0 0 800 400" xmlns="http://www.w3.org/2000/svg" xml:space="preserve" style="fill-rule:evenodd;clip-rule:evenodd;stroke-linecap:round;stroke-linejoin:round;stroke-miterlimit:1.5"><path d="M800 13.432C800 6.019 793.981 0 786.568 0H13.432C6.019 0 0 6.019 0 13.432v373.136C0 393.981 6.019 400 13.432 400h773.136c7.413 0 13.432-6.019 13.432-13.432V13.432z" style="fill:#f3f4f4" transform="translate(0 -1)"/><path d="m119 317 6 3-6 3v-6z"/><path d="M75 320h45.2" style="fill:none;stroke:#000;stroke-width:2px"/><path d="M491.939 226.636v53.273c0 14.701-8.811 26.637-19.664 26.637H39.664C28.811 306.546 20 294.61 20 279.909v-53.273C20 211.935 28.811 200 39.664 200h432.611c10.853 0 19.664 11.935 19.664 26.636z" style="fill:#ccdee9" transform="matrix(0 -.76281 .56314 0 -97.628 394.256)"/><circle cx="150" cy="190" r="30" style="fill:#005a94" transform="matrix(1 0 0 -1 303.958 270)"/><circle cx="150" cy="190" r="30" style="fill:#005a94" transform="matrix(1 0 0 -1 595.308 390)"/><circle cx="150" cy="190" r="30" style="fill:#005a94" transform="matrix(1 0 0 -1 304.958 390)"/><path d="m118.958 77 6 3-6 3v-6z"/><path d="M74.958 80h45.2" style="fill:none;stroke:#000;stroke-width:2px"/><path d="m119 196.375 6 3-6 3v-6z"/><path d="M75 199.375h45.2" style="fill:none;stroke:#000;stroke-width:2px"/><path d="M560 20v360l131.35-180L560 20z" style="fill:none;stroke:#000;stroke-width:2px" transform="translate(-26.042)"/><path style="fill:none;stroke:#000;stroke-width:1.43px" d="M285.032 29.598h211.381V80H285.032z" transform="matrix(1.1827 0 0 1.58725 -212.149 -6.98)"/><path style="fill:none;stroke:#000;stroke-width:1.43px" d="M285.032 29.598h211.381V80H285.032z" transform="matrix(1.1827 0 0 1.58725 -212.149 233.02)"/><path style="fill:none;stroke:#000;stroke-width:1.43px" d="M285.032 29.598h211.381V80H285.032z" transform="matrix(1.1827 0 0 1.58725 -212.149 113.02)"/><path d="M.837-.717V0H.752v-.527l.001-.022.002-.025-.246.448c-.008.015-.02.023-.035.023H.46a.037.037 0 0 1-.035-.023l-.251-.45.003.049V0H.092v-.717h.071c.009 0 .015.001.02.003.005.002.009.006.014.014l.247.441a.592.592 0 0 1 .012.025l.011.026a.277.277 0 0 1 .01-.026L.489-.26.732-.7C.736-.708.74-.712.745-.714a.058.058 0 0 1 .021-.003h.071z" style="fill-rule:nonzero" transform="matrix(20 0 0 20 211.198 77.365)"/><path d="M.284-.515c.037 0 .07.007.1.019a.214.214 0 0 1 .124.135.329.329 0 0 1 .017.107.33.33 0 0 1-.017.108.222.222 0 0 1-.124.135.266.266 0 0 1-.1.018.271.271 0 0 1-.101-.018.222.222 0 0 1-.124-.135.33.33 0 0 1-.017-.108c0-.039.006-.075.017-.107a.214.214 0 0 1 .124-.135.271.271 0 0 1 .101-.019zm0 .452c.05 0 .087-.016.112-.05a.229.229 0 0 0 .037-.14.234.234 0 0 0-.037-.141C.371-.428.334-.444.284-.445a.189.189 0 0 0-.066.013.126.126 0 0 0-.047.038.152.152 0 0 0-.028.06.335.335 0 0 0-.009.081c0 .06.012.107.037.14.025.034.062.05.113.05z" style="fill-rule:nonzero" transform="matrix(20 0 0 20 229.458 77.365)"/><path d="M.401-.386a.155.155 0 0 0-.054-.047.154.154 0 0 0-.065-.013.13.13 0 0 0-.109.05.24.24 0 0 0-.038.144c0 .033.003.062.009.085a.148.148 0 0 0 .025.058.098.098 0 0 0 .04.033.146.146 0 0 0 .131-.009.216.216 0 0 0 .061-.057v-.244zM.49-.737V0H.437C.424 0 .416-.006.413-.019L.405-.08a.292.292 0 0 1-.074.063.19.19 0 0 1-.096.024.183.183 0 0 1-.079-.017.16.16 0 0 1-.061-.049.234.234 0 0 1-.038-.081.418.418 0 0 1 .001-.216.257.257 0 0 1 .043-.084.205.205 0 0 1 .24-.06.21.21 0 0 1 .06.044v-.281H.49z" style="fill-rule:nonzero" transform="matrix(20 0 0 20 240.798 77.365)"/><path d="M.41-.309a.169.169 0 0 0-.009-.056.143.143 0 0 0-.026-.045.128.128 0 0 0-.04-.029.138.138 0 0 0-.055-.01.135.135 0 0 0-.101.037.173.173 0 0 0-.046.103H.41zm.072.238a.223.223 0 0 1-.089.059.358.358 0 0 1-.11.019.258.258 0 0 1-.097-.018.218.218 0 0 1-.126-.137.34.34 0 0 1-.002-.215.224.224 0 0 1 .22-.152c.03 0 .058.006.084.016a.19.19 0 0 1 .112.115c.01.028.016.06.016.096a.058.058 0 0 1-.005.028c-.003.005-.009.007-.017.007H.13c.001.032.005.06.013.083a.173.173 0 0 0 .033.06c.014.016.03.027.05.035a.191.191 0 0 0 .122.004.281.281 0 0 0 .071-.033.043.043 0 0 1 .021-.008c.007 0 .012.003.017.008l.025.033z" style="fill-rule:nonzero" transform="matrix(20 0 0 20 251.998 77.365)"/><path style="fill-rule:nonzero" d="M.074-.737h.089V0H.074z" transform="matrix(20 0 0 20 262.558 77.365)"/><path style="fill-rule:nonzero" d="M.074-.737h.089V0H.074z" transform="matrix(20 0 0 20 267.278 77.365)"/><path d="M.509-.068V0H.125v-.068h.154v-.489L.28-.601l-.127.109a.033.033 0 0 1-.013.007.024.024 0 0 1-.012 0 .021.021 0 0 1-.011-.004L.11-.495.082-.534l.214-.184h.072v.65h.141z" style="fill-rule:nonzero" transform="matrix(20 0 0 20 277.118 77.365)"/><path d="M.123-.315A.796.796 0 0 0 .23.086c.005.01.006.018.004.023a.04.04 0 0 1-.012.014L.183.147a.95.95 0 0 1-.107-.228.65.65 0 0 1-.023-.115.767.767 0 0 1 0-.237.65.65 0 0 1 .066-.228.888.888 0 0 1 .064-.115l.039.025a.037.037 0 0 1 .012.013c.002.006.001.013-.004.023a.805.805 0 0 0-.107.4z" style="fill-rule:nonzero" transform="matrix(20 0 0 20 147.218 97.365)"/><path d="M.42-.469a.058.058 0 0 1-.003.019.038.038 0 0 1-.009.015L.134-.07h.277V0H.029v-.037a.05.05 0 0 1 .003-.015.056.056 0 0 1 .009-.017l.276-.368H.045v-.07H.42v.038z" style="fill-rule:nonzero" transform="matrix(20 0 0 20 152.558 97.365)"/><path d="M.056-.055c0-.009.001-.017.004-.025A.086.086 0 0 1 .073-.1c.006-.005.012-.01.02-.013a.07.07 0 0 1 .025-.005c.008 0 .016.002.024.005s.014.008.02.013c.006.006.01.013.014.02a.07.07 0 0 1 .005.025.07.07 0 0 1-.005.025c-.004.007-.008.014-.014.019a.056.056 0 0 1-.02.014.069.069 0 0 1-.024.005.07.07 0 0 1-.025-.005.056.056 0 0 1-.02-.014A.064.064 0 0 1 .06-.03a.069.069 0 0 1-.004-.025z" style="fill-rule:nonzero" transform="matrix(20 0 0 20 161.598 97.365)"/><path d="M.343-.077a.22.22 0 0 0 .072-.01.134.134 0 0 0 .049-.026.104.104 0 0 0 .028-.041.151.151 0 0 0 .009-.053.106.106 0 0 0-.039-.087C.435-.316.396-.327.343-.327H.188v.25h.155zM.188-.64v.244h.128a.25.25 0 0 0 .071-.009.138.138 0 0 0 .05-.025.102.102 0 0 0 .03-.038.135.135 0 0 0 .009-.05c0-.042-.013-.073-.038-.093C.413-.63.373-.64.32-.64H.188zM.32-.717a.47.47 0 0 1 .114.013.218.218 0 0 1 .078.037.146.146 0 0 1 .046.059.213.213 0 0 1 .014.078.17.17 0 0 1-.008.051.166.166 0 0 1-.067.083.23.23 0 0 1-.059.027c.053.01.092.029.119.057a.15.15 0 0 1 .04.108c0 .03-.006.058-.017.083a.18.18 0 0 1-.049.064.238.238 0 0 1-.079.042A.355.355 0 0 1 .345 0H.092v-.717H.32z" style="fill-rule:nonzero" transform="matrix(20 0 0 20 166.318 97.365)"/><path d="M.056-.055c0-.009.001-.017.004-.025A.086.086 0 0 1 .073-.1c.006-.005.012-.01.02-.013a.07.07 0 0 1 .025-.005c.008 0 .016.002.024.005s.014.008.02.013c.006.006.01.013.014.02a.07.07 0 0 1 .005.025.07.07 0 0 1-.005.025c-.004.007-.008.014-.014.019a.056.056 0 0 1-.02.014.069.069 0 0 1-.024.005.07.07 0 0 1-.025-.005.056.056 0 0 1-.02-.014A.064.064 0 0 1 .06-.03a.069.069 0 0 1-.004-.025z" style="fill-rule:nonzero" transform="matrix(20 0 0 20 179.248 97.365)"/><path style="fill-rule:nonzero" d="M.074-.737h.089V0H.074z" transform="matrix(20 0 0 20 189.088 97.365)"/><path d="M.165-.507V0H.076v-.507h.089zm.019-.159a.054.054 0 0 1-.006.025.066.066 0 0 1-.014.02.053.053 0 0 1-.02.013.053.053 0 0 1-.025.005.047.047 0 0 1-.024-.005.053.053 0 0 1-.02-.013.063.063 0 0 1-.013-.02.053.053 0 0 1-.005-.025c0-.008.001-.016.005-.024a.057.057 0 0 1 .013-.021.06.06 0 0 1 .044-.019.07.07 0 0 1 .025.005.072.072 0 0 1 .02.014.06.06 0 0 1 .014.021.053.053 0 0 1 .006.024z" style="fill-rule:nonzero" transform="matrix(20 0 0 20 193.808 97.365)"/><path d="M.155-.433a.26.26 0 0 1 .118-.076.196.196 0 0 1 .123.008.138.138 0 0 1 .053.039.188.188 0 0 1 .033.061c.007.024.011.05.011.078V0h-.09v-.323a.139.139 0 0 0-.026-.089C.359-.433.333-.444.297-.444a.16.16 0 0 0-.074.019.236.236 0 0 0-.063.052V0H.071v-.507h.053c.013 0 .021.007.024.019l.007.055z" style="fill-rule:nonzero" transform="matrix(20 0 0 20 198.608 97.365)"/><path d="M.41-.309a.169.169 0 0 0-.009-.056.143.143 0 0 0-.026-.045.128.128 0 0 0-.04-.029.138.138 0 0 0-.055-.01.135.135 0 0 0-.101.037.173.173 0 0 0-.046.103H.41zm.072.238a.223.223 0 0 1-.089.059.358.358 0 0 1-.11.019.258.258 0 0 1-.097-.018.218.218 0 0 1-.126-.137.34.34 0 0 1-.002-.215.224.224 0 0 1 .22-.152c.03 0 .058.006.084.016a.19.19 0 0 1 .112.115c.01.028.016.06.016.096a.058.058 0 0 1-.005.028c-.003.005-.009.007-.017.007H.13c.001.032.005.06.013.083a.173.173 0 0 0 .033.06c.014.016.03.027.05.035a.191.191 0 0 0 .122.004.281.281 0 0 0 .071-.033.043.043 0 0 1 .021-.008c.007 0 .012.003.017.008l.025.033z" style="fill-rule:nonzero" transform="matrix(20 0 0 20 209.768 97.365)"/><path d="M.345-.228a.72.72 0 0 0-.105.01.297.297 0 0 0-.07.02.099.099 0 0 0-.04.029.066.066 0 0 0-.012.038c0 .014.002.025.007.035.004.01.01.018.017.024.008.006.017.01.027.013a.196.196 0 0 0 .076 0 .142.142 0 0 0 .036-.014.146.146 0 0 0 .033-.022.201.201 0 0 0 .031-.028v-.105zM.058-.435a.305.305 0 0 1 .09-.061.285.285 0 0 1 .108-.02c.028 0 .053.005.075.014.022.01.041.023.056.039a.172.172 0 0 1 .034.061c.007.024.011.05.011.078V0H.393C.384 0 .377-.001.373-.004a.027.027 0 0 1-.011-.017l-.01-.048a3.698 3.698 0 0 1-.039.033.423.423 0 0 1-.04.024.297.297 0 0 1-.045.015.29.29 0 0 1-.053.005A.192.192 0 0 1 .12 0a.136.136 0 0 1-.046-.025.108.108 0 0 1-.03-.042.137.137 0 0 1-.011-.06c0-.02.005-.039.016-.057a.147.147 0 0 1 .054-.05.34.34 0 0 1 .096-.035.802.802 0 0 1 .146-.016v-.039c0-.039-.008-.069-.025-.089a.094.094 0 0 0-.075-.031.176.176 0 0 0-.094.027.443.443 0 0 0-.028.019A.043.043 0 0 1 .1-.39a.025.025 0 0 1-.015-.005.032.032 0 0 1-.011-.012L.058-.435z" style="fill-rule:nonzero" transform="matrix(20 0 0 20 220.328 97.365)"/><path d="M.155-.405a.224.224 0 0 1 .059-.081.127.127 0 0 1 .116-.026.08.08 0 0 1 .027.011L.35-.435c-.002.009-.007.013-.015.013a.096.096 0 0 1-.02-.003.148.148 0 0 0-.074.004.115.115 0 0 0-.033.021.135.135 0 0 0-.027.034.245.245 0 0 0-.021.046V0H.071v-.507h.051c.009 0 .016.002.02.006.003.004.006.01.007.019l.006.077z" style="fill-rule:nonzero" transform="matrix(20 0 0 20 230.268 97.365)"/><path d="M.41-.309a.169.169 0 0 0-.009-.056.143.143 0 0 0-.026-.045.128.128 0 0 0-.04-.029.138.138 0 0 0-.055-.01.135.135 0 0 0-.101.037.173.173 0 0 0-.046.103H.41zm.072.238a.223.223 0 0 1-.089.059.358.358 0 0 1-.11.019.258.258 0 0 1-.097-.018.218.218 0 0 1-.126-.137.34.34 0 0 1-.002-.215.224.224 0 0 1 .22-.152c.03 0 .058.006.084.016a.19.19 0 0 1 .112.115c.01.028.016.06.016.096a.058.058 0 0 1-.005.028c-.003.005-.009.007-.017.007H.13c.001.032.005.06.013.083a.173.173 0 0 0 .033.06c.014.016.03.027.05.035a.191.191 0 0 0 .122.004.281.281 0 0 0 .071-.033.043.043 0 0 1 .021-.008c.007 0 .012.003.017.008l.025.033z" style="fill-rule:nonzero" transform="matrix(20 0 0 20 237.138 97.365)"/><path d="M.29-.37a.237.237 0 0 0 .074-.01.14.14 0 0 0 .054-.029.106.106 0 0 0 .033-.045.148.148 0 0 0 .011-.057c0-.043-.014-.075-.042-.097A.209.209 0 0 0 .294-.64H.188v.27H.29zM.621 0H.535C.517 0 .504-.007.496-.021L.31-.277a.094.094 0 0 0-.018-.017.078.078 0 0 0-.03-.005H.188V0H.092v-.717h.202c.045 0 .085.005.118.014a.22.22 0 0 1 .081.04.148.148 0 0 1 .048.063.214.214 0 0 1 .004.153.191.191 0 0 1-.091.104.27.27 0 0 1-.074.028.1.1 0 0 1 .032.03L.621 0z" style="fill-rule:nonzero" transform="matrix(20 0 0 20 252.818 97.365)"/><path d="M.41-.309a.169.169 0 0 0-.009-.056.143.143 0 0 0-.026-.045.128.128 0 0 0-.04-.029.138.138 0 0 0-.055-.01.135.135 0 0 0-.101.037.173.173 0 0 0-.046.103H.41zm.072.238a.223.223 0 0 1-.089.059.358.358 0 0 1-.11.019.258.258 0 0 1-.097-.018.218.218 0 0 1-.126-.137.34.34 0 0 1-.002-.215.224.224 0 0 1 .22-.152c.03 0 .058.006.084.016a.19.19 0 0 1 .112.115c.01.028.016.06.016.096a.058.058 0 0 1-.005.028c-.003.005-.009.007-.017.007H.13c.001.032.005.06.013.083a.173.173 0 0 0 .033.06c.014.016.03.027.05.035a.191.191 0 0 0 .122.004.281.281 0 0 0 .071-.033.043.043 0 0 1 .021-.008c.007 0 .012.003.017.008l.025.033z" style="fill-rule:nonzero" transform="matrix(20 0 0 20 264.698 97.365)"/><path d="M.247-.248a.121.121 0 0 0 .048-.007.098.098 0 0 0 .034-.021.099.099 0 0 0 .028-.074.099.099 0 0 0-.028-.074C.31-.442.283-.451.247-.451c-.036 0-.063.009-.082.027a.099.099 0 0 0-.028.074.099.099 0 0 0 .028.074.114.114 0 0 0 .082.028zm.161.276a.045.045 0 0 0-.011-.031.085.085 0 0 0-.028-.018.226.226 0 0 0-.041-.009l-.05-.004-.053-.003a.766.766 0 0 1-.052-.005.147.147 0 0 0-.046.033.065.065 0 0 0 .018.103.157.157 0 0 0 .045.017.29.29 0 0 0 .129 0A.178.178 0 0 0 .367.093a.093.093 0 0 0 .03-.029.066.066 0 0 0 .011-.036zm.09-.515v.033c0 .011-.007.018-.021.021L.42-.425a.16.16 0 0 1-.037.192.193.193 0 0 1-.06.033.233.233 0 0 1-.076.011.241.241 0 0 1-.067-.008.086.086 0 0 0-.024.021.037.037 0 0 0-.009.023.03.03 0 0 0 .015.027.1.1 0 0 0 .039.013.292.292 0 0 0 .054.005 1.331 1.331 0 0 1 .126.011c.021.004.039.01.055.018a.11.11 0 0 1 .039.035.1.1 0 0 1 .015.057.13.13 0 0 1-.017.063.18.18 0 0 1-.046.054.24.24 0 0 1-.075.038.399.399 0 0 1-.197.004.247.247 0 0 1-.069-.03.128.128 0 0 1-.041-.043.102.102 0 0 1-.014-.05.09.09 0 0 1 .024-.064.17.17 0 0 1 .064-.042.088.088 0 0 1-.036-.026.072.072 0 0 1-.013-.046.06.06 0 0 1 .004-.022.134.134 0 0 1 .012-.024.152.152 0 0 1 .049-.041.157.157 0 0 1-.059-.055.153.153 0 0 1-.021-.081.16.16 0 0 1 .014-.067.158.158 0 0 1 .04-.052.188.188 0 0 1 .061-.033.265.265 0 0 1 .139-.004.218.218 0 0 1 .052.021h.137z" style="fill-rule:nonzero" transform="matrix(20 0 0 20 275.258 97.365)"/><path d="M.155-.405a.224.224 0 0 1 .059-.081.127.127 0 0 1 .116-.026.08.08 0 0 1 .027.011L.35-.435c-.002.009-.007.013-.015.013a.096.096 0 0 1-.02-.003.148.148 0 0 0-.074.004.115.115 0 0 0-.033.021.135.135 0 0 0-.027.034.245.245 0 0 0-.021.046V0H.071v-.507h.051c.009 0 .016.002.02.006.003.004.006.01.007.019l.006.077z" style="fill-rule:nonzero" transform="matrix(20 0 0 20 285.658 97.365)"/><path d="M.41-.309a.169.169 0 0 0-.009-.056.143.143 0 0 0-.026-.045.128.128 0 0 0-.04-.029.138.138 0 0 0-.055-.01.135.135 0 0 0-.101.037.173.173 0 0 0-.046.103H.41zm.072.238a.223.223 0 0 1-.089.059.358.358 0 0 1-.11.019.258.258 0 0 1-.097-.018.218.218 0 0 1-.126-.137.34.34 0 0 1-.002-.215.224.224 0 0 1 .22-.152c.03 0 .058.006.084.016a.19.19 0 0 1 .112.115c.01.028.016.06.016.096a.058.058 0 0 1-.005.028c-.003.005-.009.007-.017.007H.13c.001.032.005.06.013.083a.173.173 0 0 0 .033.06c.014.016.03.027.05.035a.191.191 0 0 0 .122.004.281.281 0 0 0 .071-.033.043.043 0 0 1 .021-.008c.007 0 .012.003.017.008l.025.033z" style="fill-rule:nonzero" transform="matrix(20 0 0 20 292.528 97.365)"/><path d="M.366-.423a.021.021 0 0 1-.019.011.576.576 0 0 1-.04-.018.299.299 0 0 0-.033-.012.153.153 0 0 0-.085 0 .112.112 0 0 0-.031.015.076.076 0 0 0-.02.024.067.067 0 0 0-.006.028c0 .013.003.024.011.033a.078.078 0 0 0 .03.022.204.204 0 0 0 .042.017l.048.016a.468.468 0 0 1 .048.018c.016.007.03.015.042.025.012.01.022.022.03.037a.117.117 0 0 1 .011.052.146.146 0 0 1-.049.116.177.177 0 0 1-.06.034.231.231 0 0 1-.082.013.26.26 0 0 1-.096-.017.231.231 0 0 1-.073-.045l.021-.034a.028.028 0 0 1 .009-.01.029.029 0 0 1 .014-.003c.006 0 .012.002.019.007a.252.252 0 0 0 .059.031.153.153 0 0 0 .051.007.13.13 0 0 0 .046-.007.083.083 0 0 0 .032-.018.064.064 0 0 0 .019-.027.08.08 0 0 0 .007-.032.049.049 0 0 0-.012-.034.1.1 0 0 0-.029-.024.35.35 0 0 0-.043-.017L.179-.23A.41.41 0 0 1 .13-.248a.175.175 0 0 1-.042-.026.126.126 0 0 1-.03-.038.133.133 0 0 1-.011-.056.133.133 0 0 1 .047-.102.159.159 0 0 1 .057-.033.247.247 0 0 1 .235.047l-.02.033z" style="fill-rule:nonzero" transform="matrix(20 0 0 20 303.088 97.365)"/><path d="M.366-.423a.021.021 0 0 1-.019.011.576.576 0 0 1-.04-.018.299.299 0 0 0-.033-.012.153.153 0 0 0-.085 0 .112.112 0 0 0-.031.015.076.076 0 0 0-.02.024.067.067 0 0 0-.006.028c0 .013.003.024.011.033a.078.078 0 0 0 .03.022.204.204 0 0 0 .042.017l.048.016a.468.468 0 0 1 .048.018c.016.007.03.015.042.025.012.01.022.022.03.037a.117.117 0 0 1 .011.052.146.146 0 0 1-.049.116.177.177 0 0 1-.06.034.231.231 0 0 1-.082.013.26.26 0 0 1-.096-.017.231.231 0 0 1-.073-.045l.021-.034a.028.028 0 0 1 .009-.01.029.029 0 0 1 .014-.003c.006 0 .012.002.019.007a.252.252 0 0 0 .059.031.153.153 0 0 0 .051.007.13.13 0 0 0 .046-.007.083.083 0 0 0 .032-.018.064.064 0 0 0 .019-.027.08.08 0 0 0 .007-.032.049.049 0 0 0-.012-.034.1.1 0 0 0-.029-.024.35.35 0 0 0-.043-.017L.179-.23A.41.41 0 0 1 .13-.248a.175.175 0 0 1-.042-.026.126.126 0 0 1-.03-.038.133.133 0 0 1-.011-.056.133.133 0 0 1 .047-.102.159.159 0 0 1 .057-.033.247.247 0 0 1 .235.047l-.02.033z" style="fill-rule:nonzero" transform="matrix(20 0 0 20 311.748 97.365)"/><path d="M.165-.507V0H.076v-.507h.089zm.019-.159a.054.054 0 0 1-.006.025.066.066 0 0 1-.014.02.053.053 0 0 1-.02.013.053.053 0 0 1-.025.005.047.047 0 0 1-.024-.005.053.053 0 0 1-.02-.013.063.063 0 0 1-.013-.02.053.053 0 0 1-.005-.025c0-.008.001-.016.005-.024a.057.057 0 0 1 .013-.021.06.06 0 0 1 .044-.019.07.07 0 0 1 .025.005.072.072 0 0 1 .02.014.06.06 0 0 1 .014.021.053.053 0 0 1 .006.024z" style="fill-rule:nonzero" transform="matrix(20 0 0 20 320.408 97.365)"/><path d="M.284-.515c.037 0 .07.007.1.019a.214.214 0 0 1 .124.135.329.329 0 0 1 .017.107.33.33 0 0 1-.017.108.222.222 0 0 1-.124.135.266.266 0 0 1-.1.018.271.271 0 0 1-.101-.018.222.222 0 0 1-.124-.135.33.33 0 0 1-.017-.108c0-.039.006-.075.017-.107a.214.214 0 0 1 .124-.135.271.271 0 0 1 .101-.019zm0 .452c.05 0 .087-.016.112-.05a.229.229 0 0 0 .037-.14.234.234 0 0 0-.037-.141C.371-.428.334-.444.284-.445a.189.189 0 0 0-.066.013.126.126 0 0 0-.047.038.152.152 0 0 0-.028.06.335.335 0 0 0-.009.081c0 .06.012.107.037.14.025.034.062.05.113.05z" style="fill-rule:nonzero" transform="matrix(20 0 0 20 325.208 97.365)"/><path d="M.155-.433a.26.26 0 0 1 .118-.076.196.196 0 0 1 .123.008.138.138 0 0 1 .053.039.188.188 0 0 1 .033.061c.007.024.011.05.011.078V0h-.09v-.323a.139.139 0 0 0-.026-.089C.359-.433.333-.444.297-.444a.16.16 0 0 0-.074.019.236.236 0 0 0-.063.052V0H.071v-.507h.053c.013 0 .021.007.024.019l.007.055z" style="fill-rule:nonzero" transform="matrix(20 0 0 20 336.548 97.365)"/><path d="M.145-.315a.808.808 0 0 0-.107-.4C.035-.72.033-.724.033-.728a.017.017 0 0 1 0-.01.018.018 0 0 1 .005-.007.043.043 0 0 1 .007-.006l.04-.025a.878.878 0 0 1 .13.343.923.923 0 0 1-.024.352.937.937 0 0 1-.106.228L.045.123.038.117A.022.022 0 0 1 .033.109a.017.017 0 0 1 0-.01.792.792 0 0 0 .112-.414z" style="fill-rule:nonzero" transform="matrix(20 0 0 20 347.358 97.365)"/><g><path d="M.188-.403h.037a.087.087 0 0 0 .03-.004.048.048 0 0 0 .021-.017l.239-.27a.06.06 0 0 1 .021-.018.068.068 0 0 1 .027-.005h.082l-.273.309a.188.188 0 0 1-.02.02.1.1 0 0 1-.019.012.072.072 0 0 1 .024.014.152.152 0 0 1 .022.022L.664 0H.58L.563-.001.552-.005a.022.022 0 0 1-.009-.007.022.022 0 0 1-.007-.009L.289-.305a.073.073 0 0 0-.022-.018.1.1 0 0 0-.035-.005H.188V0H.092v-.717h.096v.314z" style="fill-rule:nonzero" transform="matrix(20 0 0 20 538.965 206.74)"/><path d="M.284-.515c.037 0 .07.007.1.019a.214.214 0 0 1 .124.135.329.329 0 0 1 .017.107.33.33 0 0 1-.017.108.222.222 0 0 1-.124.135.266.266 0 0 1-.1.018.271.271 0 0 1-.101-.018.222.222 0 0 1-.124-.135.33.33 0 0 1-.017-.108c0-.039.006-.075.017-.107a.214.214 0 0 1 .124-.135.271.271 0 0 1 .101-.019zm0 .452c.05 0 .087-.016.112-.05a.229.229 0 0 0 .037-.14.234.234 0 0 0-.037-.141C.371-.428.334-.444.284-.445a.189.189 0 0 0-.066.013.126.126 0 0 0-.047.038.152.152 0 0 0-.028.06.335.335 0 0 0-.009.081c0 .06.012.107.037.14.025.034.062.05.113.05z" style="fill-rule:nonzero" transform="matrix(20 0 0 20 551.455 206.74)"/><path d="M.071 0v-.507h.053c.013 0 .021.007.024.019l.006.052a.28.28 0 0 1 .063-.057.153.153 0 0 1 .081-.022.12.12 0 0 1 .083.029.17.17 0 0 1 .046.077.164.164 0 0 1 .067-.081.179.179 0 0 1 .095-.025.2.2 0 0 1 .071.013.154.154 0 0 1 .053.037.188.188 0 0 1 .033.061.287.287 0 0 1 .012.081V0h-.09v-.323a.14.14 0 0 0-.026-.09.094.094 0 0 0-.075-.031.116.116 0 0 0-.042.008.098.098 0 0 0-.034.023.112.112 0 0 0-.024.038.142.142 0 0 0-.009.052V0H.369v-.323a.145.145 0 0 0-.025-.091c-.016-.02-.04-.03-.071-.03a.109.109 0 0 0-.061.018.212.212 0 0 0-.052.048V0H.071z" style="fill-rule:nonzero" transform="matrix(20 0 0 20 562.795 206.74)"/><path d="M.16-.122a.136.136 0 0 0 .054.046.15.15 0 0 0 .064.014.13.13 0 0 0 .11-.051.247.247 0 0 0 .038-.15C.426-.325.414-.371.392-.4a.116.116 0 0 0-.096-.044.143.143 0 0 0-.076.02.23.23 0 0 0-.06.057v.245zm0-.312a.27.27 0 0 1 .072-.059.2.2 0 0 1 .173-.005.173.173 0 0 1 .061.05.219.219 0 0 1 .038.078.39.39 0 0 1-.001.215.255.255 0 0 1-.044.087.19.19 0 0 1-.068.055.21.21 0 0 1-.176.001.165.165 0 0 1-.059-.053l-.005.046C.148-.006.141 0 .128 0H.071v-.737H.16v.303z" style="fill-rule:nonzero" transform="matrix(20 0 0 20 579.245 206.74)"/><path d="M.165-.507V0H.076v-.507h.089zm.019-.159a.054.054 0 0 1-.006.025.066.066 0 0 1-.014.02.053.053 0 0 1-.02.013.053.053 0 0 1-.025.005.047.047 0 0 1-.024-.005.053.053 0 0 1-.02-.013.063.063 0 0 1-.013-.02.053.053 0 0 1-.005-.025c0-.008.001-.016.005-.024a.057.057 0 0 1 .013-.021.06.06 0 0 1 .044-.019.07.07 0 0 1 .025.005.072.072 0 0 1 .02.014.06.06 0 0 1 .014.021.053.053 0 0 1 .006.024z" style="fill-rule:nonzero" transform="matrix(20 0 0 20 590.445 206.74)"/><path d="M.155-.433a.26.26 0 0 1 .118-.076.196.196 0 0 1 .123.008.138.138 0 0 1 .053.039.188.188 0 0 1 .033.061c.007.024.011.05.011.078V0h-.09v-.323a.139.139 0 0 0-.026-.089C.359-.433.333-.444.297-.444a.16.16 0 0 0-.074.019.236.236 0 0 0-.063.052V0H.071v-.507h.053c.013 0 .021.007.024.019l.007.055z" style="fill-rule:nonzero" transform="matrix(20 0 0 20 595.245 206.74)"/><path d="M.345-.228a.72.72 0 0 0-.105.01.297.297 0 0 0-.07.02.099.099 0 0 0-.04.029.066.066 0 0 0-.012.038c0 .014.002.025.007.035.004.01.01.018.017.024.008.006.017.01.027.013a.196.196 0 0 0 .076 0 .142.142 0 0 0 .036-.014.146.146 0 0 0 .033-.022.201.201 0 0 0 .031-.028v-.105zM.058-.435a.305.305 0 0 1 .09-.061.285.285 0 0 1 .108-.02c.028 0 .053.005.075.014.022.01.041.023.056.039a.172.172 0 0 1 .034.061c.007.024.011.05.011.078V0H.393C.384 0 .377-.001.373-.004a.027.027 0 0 1-.011-.017l-.01-.048a3.698 3.698 0 0 1-.039.033.423.423 0 0 1-.04.024.297.297 0 0 1-.045.015.29.29 0 0 1-.053.005A.192.192 0 0 1 .12 0a.136.136 0 0 1-.046-.025.108.108 0 0 1-.03-.042.137.137 0 0 1-.011-.06c0-.02.005-.039.016-.057a.147.147 0 0 1 .054-.05.34.34 0 0 1 .096-.035.802.802 0 0 1 .146-.016v-.039c0-.039-.008-.069-.025-.089a.094.094 0 0 0-.075-.031.176.176 0 0 0-.094.027.443.443 0 0 0-.028.019A.043.043 0 0 1 .1-.39a.025.025 0 0 1-.015-.005.032.032 0 0 1-.011-.012L.058-.435z" style="fill-rule:nonzero" transform="matrix(20 0 0 20 606.405 206.74)"/><path d="M.541 0H.452v-.432H.191v.304c0 .021.005.037.015.047.01.011.024.016.04.016A.06.06 0 0 0 .27-.069a.075.075 0 0 0 .018-.008l.013-.008A.012.012 0 0 1 .31-.089c.005 0 .009.003.013.008l.026.043a.175.175 0 0 1-.056.034.193.193 0 0 1-.067.012c-.04 0-.071-.011-.092-.034C.112-.048.101-.08.102-.122v-.31H.041a.022.022 0 0 1-.014-.005C.023-.44.022-.445.022-.452v-.035l.083-.011.02-.156a.019.019 0 0 1 .007-.012.02.02 0 0 1 .014-.005h.045v.174h.35V0zm.022-.669a.048.048 0 0 1-.006.024.056.056 0 0 1-.014.02.053.053 0 0 1-.02.013.052.052 0 0 1-.024.005.053.053 0 0 1-.025-.005.05.05 0 0 1-.019-.013.06.06 0 0 1-.019-.044.07.07 0 0 1 .005-.025.056.056 0 0 1 .014-.02.052.052 0 0 1 .019-.014.07.07 0 0 1 .025-.005c.008 0 .016.002.024.005a.056.056 0 0 1 .02.014.056.056 0 0 1 .014.02.054.054 0 0 1 .006.025z" style="fill-rule:nonzero" transform="matrix(20 0 0 20 616.215 206.74)"/><path d="M.284-.515c.037 0 .07.007.1.019a.214.214 0 0 1 .124.135.329.329 0 0 1 .017.107.33.33 0 0 1-.017.108.222.222 0 0 1-.124.135.266.266 0 0 1-.1.018.271.271 0 0 1-.101-.018.222.222 0 0 1-.124-.135.33.33 0 0 1-.017-.108c0-.039.006-.075.017-.107a.214.214 0 0 1 .124-.135.271.271 0 0 1 .101-.019zm0 .452c.05 0 .087-.016.112-.05a.229.229 0 0 0 .037-.14.234.234 0 0 0-.037-.141C.371-.428.334-.444.284-.445a.189.189 0 0 0-.066.013.126.126 0 0 0-.047.038.152.152 0 0 0-.028.06.335.335 0 0 0-.009.081c0 .06.012.107.037.14.025.034.062.05.113.05z" style="fill-rule:nonzero" transform="matrix(20 0 0 20 628.535 206.74)"/><path d="M.155-.433a.26.26 0 0 1 .118-.076.196.196 0 0 1 .123.008.138.138 0 0 1 .053.039.188.188 0 0 1 .033.061c.007.024.011.05.011.078V0h-.09v-.323a.139.139 0 0 0-.026-.089C.359-.433.333-.444.297-.444a.16.16 0 0 0-.074.019.236.236 0 0 0-.063.052V0H.071v-.507h.053c.013 0 .021.007.024.019l.007.055z" style="fill-rule:nonzero" transform="matrix(20 0 0 20 639.875 206.74)"/></g><g><path d="M.837-.717V0H.752v-.527l.001-.022.002-.025-.246.448c-.008.015-.02.023-.035.023H.46a.037.037 0 0 1-.035-.023l-.251-.45.003.049V0H.092v-.717h.071c.009 0 .015.001.02.003.005.002.009.006.014.014l.247.441a.592.592 0 0 1 .012.025l.011.026a.277.277 0 0 1 .01-.026L.489-.26.732-.7C.736-.708.74-.712.745-.714a.058.058 0 0 1 .021-.003h.071z" style="fill-rule:nonzero" transform="matrix(20 0 0 20 211.198 197.365)"/><path d="M.284-.515c.037 0 .07.007.1.019a.214.214 0 0 1 .124.135.329.329 0 0 1 .017.107.33.33 0 0 1-.017.108.222.222 0 0 1-.124.135.266.266 0 0 1-.1.018.271.271 0 0 1-.101-.018.222.222 0 0 1-.124-.135.33.33 0 0 1-.017-.108c0-.039.006-.075.017-.107a.214.214 0 0 1 .124-.135.271.271 0 0 1 .101-.019zm0 .452c.05 0 .087-.016.112-.05a.229.229 0 0 0 .037-.14.234.234 0 0 0-.037-.141C.371-.428.334-.444.284-.445a.189.189 0 0 0-.066.013.126.126 0 0 0-.047.038.152.152 0 0 0-.028.06.335.335 0 0 0-.009.081c0 .06.012.107.037.14.025.034.062.05.113.05z" style="fill-rule:nonzero" transform="matrix(20 0 0 20 229.458 197.365)"/><path d="M.401-.386a.155.155 0 0 0-.054-.047.154.154 0 0 0-.065-.013.13.13 0 0 0-.109.05.24.24 0 0 0-.038.144c0 .033.003.062.009.085a.148.148 0 0 0 .025.058.098.098 0 0 0 .04.033.146.146 0 0 0 .131-.009.216.216 0 0 0 .061-.057v-.244zM.49-.737V0H.437C.424 0 .416-.006.413-.019L.405-.08a.292.292 0 0 1-.074.063.19.19 0 0 1-.096.024.183.183 0 0 1-.079-.017.16.16 0 0 1-.061-.049.234.234 0 0 1-.038-.081.418.418 0 0 1 .001-.216.257.257 0 0 1 .043-.084.205.205 0 0 1 .24-.06.21.21 0 0 1 .06.044v-.281H.49z" style="fill-rule:nonzero" transform="matrix(20 0 0 20 240.798 197.365)"/><path d="M.41-.309a.169.169 0 0 0-.009-.056.143.143 0 0 0-.026-.045.128.128 0 0 0-.04-.029.138.138 0 0 0-.055-.01.135.135 0 0 0-.101.037.173.173 0 0 0-.046.103H.41zm.072.238a.223.223 0 0 1-.089.059.358.358 0 0 1-.11.019.258.258 0 0 1-.097-.018.218.218 0 0 1-.126-.137.34.34 0 0 1-.002-.215.224.224 0 0 1 .22-.152c.03 0 .058.006.084.016a.19.19 0 0 1 .112.115c.01.028.016.06.016.096a.058.058 0 0 1-.005.028c-.003.005-.009.007-.017.007H.13c.001.032.005.06.013.083a.173.173 0 0 0 .033.06c.014.016.03.027.05.035a.191.191 0 0 0 .122.004.281.281 0 0 0 .071-.033.043.043 0 0 1 .021-.008c.007 0 .012.003.017.008l.025.033z" style="fill-rule:nonzero" transform="matrix(20 0 0 20 251.998 197.365)"/><path style="fill-rule:nonzero" d="M.074-.737h.089V0H.074z" transform="matrix(20 0 0 20 262.558 197.365)"/><path style="fill-rule:nonzero" d="M.074-.737h.089V0H.074z" transform="matrix(20 0 0 20 267.278 197.365)"/><path d="M.494-.085c.009 0 .017.003.023.009a.033.033 0 0 1 .008.022V0H.047v-.031c0-.006.001-.012.004-.019a.059.059 0 0 1 .013-.019l.229-.23.052-.056a.375.375 0 0 0 .066-.108.193.193 0 0 0 .009-.06.154.154 0 0 0-.01-.055.113.113 0 0 0-.068-.062.17.17 0 0 0-.101 0 .134.134 0 0 0-.071.056.125.125 0 0 0-.017.043c-.004.012-.009.019-.016.023a.044.044 0 0 1-.029.003L.062-.523a.235.235 0 0 1 .078-.15.216.216 0 0 1 .07-.038.263.263 0 0 1 .171 0 .183.183 0 0 1 .13.186.22.22 0 0 1-.012.074.302.302 0 0 1-.032.065.534.534 0 0 1-.048.061 1.52 1.52 0 0 1-.056.059l-.189.193.04-.008c.014-.002.027-.004.04-.004h.24z" style="fill-rule:nonzero" transform="matrix(20 0 0 20 277.118 197.365)"/><path d="M.123-.315A.796.796 0 0 0 .23.086c.005.01.006.018.004.023a.04.04 0 0 1-.012.014L.183.147a.95.95 0 0 1-.107-.228.65.65 0 0 1-.023-.115.767.767 0 0 1 0-.237.65.65 0 0 1 .066-.228.888.888 0 0 1 .064-.115l.039.025a.037.037 0 0 1 .012.013c.002.006.001.013-.004.023a.805.805 0 0 0-.107.4z" style="fill-rule:nonzero" transform="matrix(20 0 0 20 138.778 217.365)"/><path d="M.42-.469a.058.058 0 0 1-.003.019.038.038 0 0 1-.009.015L.134-.07h.277V0H.029v-.037a.05.05 0 0 1 .003-.015.056.056 0 0 1 .009-.017l.276-.368H.045v-.07H.42v.038z" style="fill-rule:nonzero" transform="matrix(20 0 0 20 144.118 217.365)"/><path d="M.056-.055c0-.009.001-.017.004-.025A.086.086 0 0 1 .073-.1c.006-.005.012-.01.02-.013a.07.07 0 0 1 .025-.005c.008 0 .016.002.024.005s.014.008.02.013c.006.006.01.013.014.02a.07.07 0 0 1 .005.025.07.07 0 0 1-.005.025c-.004.007-.008.014-.014.019a.056.056 0 0 1-.02.014.069.069 0 0 1-.024.005.07.07 0 0 1-.025-.005.056.056 0 0 1-.02-.014A.064.064 0 0 1 .06-.03a.069.069 0 0 1-.004-.025z" style="fill-rule:nonzero" transform="matrix(20 0 0 20 153.158 217.365)"/><path d="M.343-.077a.22.22 0 0 0 .072-.01.134.134 0 0 0 .049-.026.104.104 0 0 0 .028-.041.151.151 0 0 0 .009-.053.106.106 0 0 0-.039-.087C.435-.316.396-.327.343-.327H.188v.25h.155zM.188-.64v.244h.128a.25.25 0 0 0 .071-.009.138.138 0 0 0 .05-.025.102.102 0 0 0 .03-.038.135.135 0 0 0 .009-.05c0-.042-.013-.073-.038-.093C.413-.63.373-.64.32-.64H.188zM.32-.717a.47.47 0 0 1 .114.013.218.218 0 0 1 .078.037.146.146 0 0 1 .046.059.213.213 0 0 1 .014.078.17.17 0 0 1-.008.051.166.166 0 0 1-.067.083.23.23 0 0 1-.059.027c.053.01.092.029.119.057a.15.15 0 0 1 .04.108c0 .03-.006.058-.017.083a.18.18 0 0 1-.049.064.238.238 0 0 1-.079.042A.355.355 0 0 1 .345 0H.092v-.717H.32z" style="fill-rule:nonzero" transform="matrix(20 0 0 20 157.878 217.365)"/><path d="M.056-.055c0-.009.001-.017.004-.025A.086.086 0 0 1 .073-.1c.006-.005.012-.01.02-.013a.07.07 0 0 1 .025-.005c.008 0 .016.002.024.005s.014.008.02.013c.006.006.01.013.014.02a.07.07 0 0 1 .005.025.07.07 0 0 1-.005.025c-.004.007-.008.014-.014.019a.056.056 0 0 1-.02.014.069.069 0 0 1-.024.005.07.07 0 0 1-.025-.005.056.056 0 0 1-.02-.014A.064.064 0 0 1 .06-.03a.069.069 0 0 1-.004-.025z" style="fill-rule:nonzero" transform="matrix(20 0 0 20 170.808 217.365)"/><path d="M.534-.079.533 0H.092v-.717h.441v.079H.189V-.4h.279v.076H.189v.245h.345z" style="fill-rule:nonzero" transform="matrix(20 0 0 20 180.648 217.365)"/><path d="M.155-.433a.26.26 0 0 1 .118-.076.196.196 0 0 1 .123.008.138.138 0 0 1 .053.039.188.188 0 0 1 .033.061c.007.024.011.05.011.078V0h-.09v-.323a.139.139 0 0 0-.026-.089C.359-.433.333-.444.297-.444a.16.16 0 0 0-.074.019.236.236 0 0 0-.063.052V0H.071v-.507h.053c.013 0 .021.007.024.019l.007.055z" style="fill-rule:nonzero" transform="matrix(20 0 0 20 191.918 217.365)"/><path d="M.226.008c-.04 0-.071-.011-.092-.034C.112-.048.101-.08.102-.122v-.31H.041a.022.022 0 0 1-.014-.005C.023-.44.022-.445.022-.452v-.035l.083-.011.02-.156a.019.019 0 0 1 .007-.012.02.02 0 0 1 .014-.005h.045v.174h.146v.065H.191v.304c0 .021.005.037.015.047.01.011.024.016.04.016A.06.06 0 0 0 .27-.069a.075.075 0 0 0 .018-.008l.013-.008A.012.012 0 0 1 .31-.089c.005 0 .009.003.013.008l.026.043a.175.175 0 0 1-.056.034.193.193 0 0 1-.067.012z" style="fill-rule:nonzero" transform="matrix(20 0 0 20 202.938 217.365)"/><path d="M.366-.423a.021.021 0 0 1-.019.011.576.576 0 0 1-.04-.018.299.299 0 0 0-.033-.012.153.153 0 0 0-.085 0 .112.112 0 0 0-.031.015.076.076 0 0 0-.02.024.067.067 0 0 0-.006.028c0 .013.003.024.011.033a.078.078 0 0 0 .03.022.204.204 0 0 0 .042.017l.048.016a.468.468 0 0 1 .048.018c.016.007.03.015.042.025.012.01.022.022.03.037a.117.117 0 0 1 .011.052.146.146 0 0 1-.049.116.177.177 0 0 1-.06.034.231.231 0 0 1-.082.013.26.26 0 0 1-.096-.017.231.231 0 0 1-.073-.045l.021-.034a.028.028 0 0 1 .009-.01.029.029 0 0 1 .014-.003c.006 0 .012.002.019.007a.252.252 0 0 0 .059.031.153.153 0 0 0 .051.007.13.13 0 0 0 .046-.007.083.083 0 0 0 .032-.018.064.064 0 0 0 .019-.027.08.08 0 0 0 .007-.032.049.049 0 0 0-.012-.034.1.1 0 0 0-.029-.024.35.35 0 0 0-.043-.017L.179-.23A.41.41 0 0 1 .13-.248a.175.175 0 0 1-.042-.026.126.126 0 0 1-.03-.038.133.133 0 0 1-.011-.056.133.133 0 0 1 .047-.102.159.159 0 0 1 .057-.033.247.247 0 0 1 .235.047l-.02.033z" style="fill-rule:nonzero" transform="matrix(20 0 0 20 210.108 217.365)"/><path d="m.423-.417-.008.009a.018.018 0 0 1-.011.003.029.029 0 0 1-.016-.006.34.34 0 0 0-.055-.028.163.163 0 0 0-.047-.006.137.137 0 0 0-.114.051.165.165 0 0 0-.029.061.28.28 0 0 0-.01.079.29.29 0 0 0 .011.082.168.168 0 0 0 .029.06.133.133 0 0 0 .108.05.153.153 0 0 0 .088-.025.277.277 0 0 0 .023-.017.031.031 0 0 1 .019-.008c.007 0 .013.003.017.008l.025.033a.195.195 0 0 1-.083.059.274.274 0 0 1-.105.019.213.213 0 0 1-.206-.15.34.34 0 0 1-.001-.215.212.212 0 0 1 .12-.137.254.254 0 0 1 .102-.02.228.228 0 0 1 .167.066l-.024.032z" style="fill-rule:nonzero" transform="matrix(20 0 0 20 218.768 217.365)"/><path d="M.16-.439a.287.287 0 0 1 .072-.055.19.19 0 0 1 .091-.021c.028 0 .052.005.073.014a.138.138 0 0 1 .053.039.188.188 0 0 1 .033.061c.007.024.011.05.011.078V0h-.09v-.323a.139.139 0 0 0-.026-.089C.359-.433.333-.444.297-.444a.16.16 0 0 0-.074.019.236.236 0 0 0-.063.052V0H.071v-.737H.16v.298z" style="fill-rule:nonzero" transform="matrix(20 0 0 20 228.318 217.365)"/><path d="M.41-.309a.169.169 0 0 0-.009-.056.143.143 0 0 0-.026-.045.128.128 0 0 0-.04-.029.138.138 0 0 0-.055-.01.135.135 0 0 0-.101.037.173.173 0 0 0-.046.103H.41zm.072.238a.223.223 0 0 1-.089.059.358.358 0 0 1-.11.019.258.258 0 0 1-.097-.018.218.218 0 0 1-.126-.137.34.34 0 0 1-.002-.215.224.224 0 0 1 .22-.152c.03 0 .058.006.084.016a.19.19 0 0 1 .112.115c.01.028.016.06.016.096a.058.058 0 0 1-.005.028c-.003.005-.009.007-.017.007H.13c.001.032.005.06.013.083a.173.173 0 0 0 .033.06c.014.016.03.027.05.035a.191.191 0 0 0 .122.004.281.281 0 0 0 .071-.033.043.043 0 0 1 .021-.008c.007 0 .012.003.017.008l.025.033z" style="fill-rule:nonzero" transform="matrix(20 0 0 20 239.478 217.365)"/><path d="M.165-.507V0H.076v-.507h.089zm.019-.159a.054.054 0 0 1-.006.025.066.066 0 0 1-.014.02.053.053 0 0 1-.02.013.053.053 0 0 1-.025.005.047.047 0 0 1-.024-.005.053.053 0 0 1-.02-.013.063.063 0 0 1-.013-.02.053.053 0 0 1-.005-.025c0-.008.001-.016.005-.024a.057.057 0 0 1 .013-.021.06.06 0 0 1 .044-.019.07.07 0 0 1 .025.005.072.072 0 0 1 .02.014.06.06 0 0 1 .014.021.053.053 0 0 1 .006.024z" style="fill-rule:nonzero" transform="matrix(20 0 0 20 250.038 217.365)"/><path d="M.401-.386a.155.155 0 0 0-.054-.047.154.154 0 0 0-.065-.013.13.13 0 0 0-.109.05.24.24 0 0 0-.038.144c0 .033.003.062.009.085a.148.148 0 0 0 .025.058.098.098 0 0 0 .04.033.146.146 0 0 0 .131-.009.216.216 0 0 0 .061-.057v-.244zM.49-.737V0H.437C.424 0 .416-.006.413-.019L.405-.08a.292.292 0 0 1-.074.063.19.19 0 0 1-.096.024.183.183 0 0 1-.079-.017.16.16 0 0 1-.061-.049.234.234 0 0 1-.038-.081.418.418 0 0 1 .001-.216.257.257 0 0 1 .043-.084.205.205 0 0 1 .24-.06.21.21 0 0 1 .06.044v-.281H.49z" style="fill-rule:nonzero" transform="matrix(20 0 0 20 254.838 217.365)"/><path d="M.487-.507V0H.434C.421 0 .413-.006.41-.019L.403-.073a.296.296 0 0 1-.074.059.192.192 0 0 1-.094.022.183.183 0 0 1-.073-.014.138.138 0 0 1-.053-.039.146.146 0 0 1-.033-.06.28.28 0 0 1-.01-.079v-.323h.089v.323c0 .039.008.068.026.089.017.021.044.032.08.032a.148.148 0 0 0 .074-.019.219.219 0 0 0 .063-.052v-.373h.089z" style="fill-rule:nonzero" transform="matrix(20 0 0 20 266.038 217.365)"/><path d="M.155-.433a.26.26 0 0 1 .118-.076.196.196 0 0 1 .123.008.138.138 0 0 1 .053.039.188.188 0 0 1 .033.061c.007.024.011.05.011.078V0h-.09v-.323a.139.139 0 0 0-.026-.089C.359-.433.333-.444.297-.444a.16.16 0 0 0-.074.019.236.236 0 0 0-.063.052V0H.071v-.507h.053c.013 0 .021.007.024.019l.007.055z" style="fill-rule:nonzero" transform="matrix(20 0 0 20 277.188 217.365)"/><path d="M.247-.248a.121.121 0 0 0 .048-.007.098.098 0 0 0 .034-.021.099.099 0 0 0 .028-.074.099.099 0 0 0-.028-.074C.31-.442.283-.451.247-.451c-.036 0-.063.009-.082.027a.099.099 0 0 0-.028.074.099.099 0 0 0 .028.074.114.114 0 0 0 .082.028zm.161.276a.045.045 0 0 0-.011-.031.085.085 0 0 0-.028-.018.226.226 0 0 0-.041-.009l-.05-.004-.053-.003a.766.766 0 0 1-.052-.005.147.147 0 0 0-.046.033.065.065 0 0 0 .018.103.157.157 0 0 0 .045.017.29.29 0 0 0 .129 0A.178.178 0 0 0 .367.093a.093.093 0 0 0 .03-.029.066.066 0 0 0 .011-.036zm.09-.515v.033c0 .011-.007.018-.021.021L.42-.425a.16.16 0 0 1-.037.192.193.193 0 0 1-.06.033.233.233 0 0 1-.076.011.241.241 0 0 1-.067-.008.086.086 0 0 0-.024.021.037.037 0 0 0-.009.023.03.03 0 0 0 .015.027.1.1 0 0 0 .039.013.292.292 0 0 0 .054.005 1.331 1.331 0 0 1 .126.011c.021.004.039.01.055.018a.11.11 0 0 1 .039.035.1.1 0 0 1 .015.057.13.13 0 0 1-.017.063.18.18 0 0 1-.046.054.24.24 0 0 1-.075.038.399.399 0 0 1-.197.004.247.247 0 0 1-.069-.03.128.128 0 0 1-.041-.043.102.102 0 0 1-.014-.05.09.09 0 0 1 .024-.064.17.17 0 0 1 .064-.042.088.088 0 0 1-.036-.026.072.072 0 0 1-.013-.046.06.06 0 0 1 .004-.022.134.134 0 0 1 .012-.024.152.152 0 0 1 .049-.041.157.157 0 0 1-.059-.055.153.153 0 0 1-.021-.081.16.16 0 0 1 .014-.067.158.158 0 0 1 .04-.052.188.188 0 0 1 .061-.033.265.265 0 0 1 .139-.004.218.218 0 0 1 .052.021h.137z" style="fill-rule:nonzero" transform="matrix(20 0 0 20 288.348 217.365)"/><path d="M.366-.423a.021.021 0 0 1-.019.011.576.576 0 0 1-.04-.018.299.299 0 0 0-.033-.012.153.153 0 0 0-.085 0 .112.112 0 0 0-.031.015.076.076 0 0 0-.02.024.067.067 0 0 0-.006.028c0 .013.003.024.011.033a.078.078 0 0 0 .03.022.204.204 0 0 0 .042.017l.048.016a.468.468 0 0 1 .048.018c.016.007.03.015.042.025.012.01.022.022.03.037a.117.117 0 0 1 .011.052.146.146 0 0 1-.049.116.177.177 0 0 1-.06.034.231.231 0 0 1-.082.013.26.26 0 0 1-.096-.017.231.231 0 0 1-.073-.045l.021-.034a.028.028 0 0 1 .009-.01.029.029 0 0 1 .014-.003c.006 0 .012.002.019.007a.252.252 0 0 0 .059.031.153.153 0 0 0 .051.007.13.13 0 0 0 .046-.007.083.083 0 0 0 .032-.018.064.064 0 0 0 .019-.027.08.08 0 0 0 .007-.032.049.049 0 0 0-.012-.034.1.1 0 0 0-.029-.024.35.35 0 0 0-.043-.017L.179-.23A.41.41 0 0 1 .13-.248a.175.175 0 0 1-.042-.026.126.126 0 0 1-.03-.038.133.133 0 0 1-.011-.056.133.133 0 0 1 .047-.102.159.159 0 0 1 .057-.033.247.247 0 0 1 .235.047l-.02.033z" style="fill-rule:nonzero" transform="matrix(20 0 0 20 298.748 217.365)"/><path d="M.16-.122a.136.136 0 0 0 .054.046.15.15 0 0 0 .064.014.13.13 0 0 0 .11-.051.247.247 0 0 0 .038-.15C.426-.325.414-.371.392-.4a.116.116 0 0 0-.096-.044.143.143 0 0 0-.076.02.23.23 0 0 0-.06.057v.245zm0-.312a.27.27 0 0 1 .072-.059.2.2 0 0 1 .173-.005.173.173 0 0 1 .061.05.219.219 0 0 1 .038.078.39.39 0 0 1-.001.215.255.255 0 0 1-.044.087.19.19 0 0 1-.068.055.21.21 0 0 1-.176.001.165.165 0 0 1-.059-.053l-.005.046C.148-.006.141 0 .128 0H.071v-.737H.16v.303z" style="fill-rule:nonzero" transform="matrix(20 0 0 20 307.408 217.365)"/><path d="M.345-.228a.72.72 0 0 0-.105.01.297.297 0 0 0-.07.02.099.099 0 0 0-.04.029.066.066 0 0 0-.012.038c0 .014.002.025.007.035.004.01.01.018.017.024.008.006.017.01.027.013a.196.196 0 0 0 .076 0 .142.142 0 0 0 .036-.014.146.146 0 0 0 .033-.022.201.201 0 0 0 .031-.028v-.105zM.058-.435a.305.305 0 0 1 .09-.061.285.285 0 0 1 .108-.02c.028 0 .053.005.075.014.022.01.041.023.056.039a.172.172 0 0 1 .034.061c.007.024.011.05.011.078V0H.393C.384 0 .377-.001.373-.004a.027.027 0 0 1-.011-.017l-.01-.048a3.698 3.698 0 0 1-.039.033.423.423 0 0 1-.04.024.297.297 0 0 1-.045.015.29.29 0 0 1-.053.005A.192.192 0 0 1 .12 0a.136.136 0 0 1-.046-.025.108.108 0 0 1-.03-.042.137.137 0 0 1-.011-.06c0-.02.005-.039.016-.057a.147.147 0 0 1 .054-.05.34.34 0 0 1 .096-.035.802.802 0 0 1 .146-.016v-.039c0-.039-.008-.069-.025-.089a.094.094 0 0 0-.075-.031.176.176 0 0 0-.094.027.443.443 0 0 0-.028.019A.043.043 0 0 1 .1-.39a.025.025 0 0 1-.015-.005.032.032 0 0 1-.011-.012L.058-.435z" style="fill-rule:nonzero" transform="matrix(20 0 0 20 318.608 217.365)"/><path d="M.487-.507V0H.434C.421 0 .413-.006.41-.019L.403-.073a.296.296 0 0 1-.074.059.192.192 0 0 1-.094.022.183.183 0 0 1-.073-.014.138.138 0 0 1-.053-.039.146.146 0 0 1-.033-.06.28.28 0 0 1-.01-.079v-.323h.089v.323c0 .039.008.068.026.089.017.021.044.032.08.032a.148.148 0 0 0 .074-.019.219.219 0 0 0 .063-.052v-.373h.089z" style="fill-rule:nonzero" transform="matrix(20 0 0 20 328.548 217.365)"/><path d="M.071 0v-.507h.053c.013 0 .021.007.024.019l.006.052a.28.28 0 0 1 .063-.057.153.153 0 0 1 .081-.022.12.12 0 0 1 .083.029.17.17 0 0 1 .046.077.164.164 0 0 1 .067-.081.179.179 0 0 1 .095-.025.2.2 0 0 1 .071.013.154.154 0 0 1 .053.037.188.188 0 0 1 .033.061.287.287 0 0 1 .012.081V0h-.09v-.323a.14.14 0 0 0-.026-.09.094.094 0 0 0-.075-.031.116.116 0 0 0-.042.008.098.098 0 0 0-.034.023.112.112 0 0 0-.024.038.142.142 0 0 0-.009.052V0H.369v-.323a.145.145 0 0 0-.025-.091c-.016-.02-.04-.03-.071-.03a.109.109 0 0 0-.061.018.212.212 0 0 0-.052.048V0H.071z" style="fill-rule:nonzero" transform="matrix(20 0 0 20 339.698 217.365)"/><path d="M.145-.315a.808.808 0 0 0-.107-.4C.035-.72.033-.724.033-.728a.017.017 0 0 1 0-.01.018.018 0 0 1 .005-.007.043.043 0 0 1 .007-.006l.04-.025a.878.878 0 0 1 .13.343.923.923 0 0 1-.024.352.937.937 0 0 1-.106.228L.045.123.038.117A.022.022 0 0 1 .033.109a.017.017 0 0 1 0-.01.792.792 0 0 0 .112-.414z" style="fill-rule:nonzero" transform="matrix(20 0 0 20 355.798 217.365)"/></g><g><path d="M.837-.717V0H.752v-.527l.001-.022.002-.025-.246.448c-.008.015-.02.023-.035.023H.46a.037.037 0 0 1-.035-.023l-.251-.45.003.049V0H.092v-.717h.071c.009 0 .015.001.02.003.005.002.009.006.014.014l.247.441a.592.592 0 0 1 .012.025l.011.026a.277.277 0 0 1 .01-.026L.489-.26.732-.7C.736-.708.74-.712.745-.714a.058.058 0 0 1 .021-.003h.071z" style="fill-rule:nonzero" transform="matrix(20 0 0 20 211.198 317.365)"/><path d="M.284-.515c.037 0 .07.007.1.019a.214.214 0 0 1 .124.135.329.329 0 0 1 .017.107.33.33 0 0 1-.017.108.222.222 0 0 1-.124.135.266.266 0 0 1-.1.018.271.271 0 0 1-.101-.018.222.222 0 0 1-.124-.135.33.33 0 0 1-.017-.108c0-.039.006-.075.017-.107a.214.214 0 0 1 .124-.135.271.271 0 0 1 .101-.019zm0 .452c.05 0 .087-.016.112-.05a.229.229 0 0 0 .037-.14.234.234 0 0 0-.037-.141C.371-.428.334-.444.284-.445a.189.189 0 0 0-.066.013.126.126 0 0 0-.047.038.152.152 0 0 0-.028.06.335.335 0 0 0-.009.081c0 .06.012.107.037.14.025.034.062.05.113.05z" style="fill-rule:nonzero" transform="matrix(20 0 0 20 229.458 317.365)"/><path d="M.401-.386a.155.155 0 0 0-.054-.047.154.154 0 0 0-.065-.013.13.13 0 0 0-.109.05.24.24 0 0 0-.038.144c0 .033.003.062.009.085a.148.148 0 0 0 .025.058.098.098 0 0 0 .04.033.146.146 0 0 0 .131-.009.216.216 0 0 0 .061-.057v-.244zM.49-.737V0H.437C.424 0 .416-.006.413-.019L.405-.08a.292.292 0 0 1-.074.063.19.19 0 0 1-.096.024.183.183 0 0 1-.079-.017.16.16 0 0 1-.061-.049.234.234 0 0 1-.038-.081.418.418 0 0 1 .001-.216.257.257 0 0 1 .043-.084.205.205 0 0 1 .24-.06.21.21 0 0 1 .06.044v-.281H.49z" style="fill-rule:nonzero" transform="matrix(20 0 0 20 240.798 317.365)"/><path d="M.41-.309a.169.169 0 0 0-.009-.056.143.143 0 0 0-.026-.045.128.128 0 0 0-.04-.029.138.138 0 0 0-.055-.01.135.135 0 0 0-.101.037.173.173 0 0 0-.046.103H.41zm.072.238a.223.223 0 0 1-.089.059.358.358 0 0 1-.11.019.258.258 0 0 1-.097-.018.218.218 0 0 1-.126-.137.34.34 0 0 1-.002-.215.224.224 0 0 1 .22-.152c.03 0 .058.006.084.016a.19.19 0 0 1 .112.115c.01.028.016.06.016.096a.058.058 0 0 1-.005.028c-.003.005-.009.007-.017.007H.13c.001.032.005.06.013.083a.173.173 0 0 0 .033.06c.014.016.03.027.05.035a.191.191 0 0 0 .122.004.281.281 0 0 0 .071-.033.043.043 0 0 1 .021-.008c.007 0 .012.003.017.008l.025.033z" style="fill-rule:nonzero" transform="matrix(20 0 0 20 251.998 317.365)"/><path style="fill-rule:nonzero" d="M.074-.737h.089V0H.074z" transform="matrix(20 0 0 20 262.558 317.365)"/><path style="fill-rule:nonzero" d="M.074-.737h.089V0H.074z" transform="matrix(20 0 0 20 267.278 317.365)"/><path d="M.065-.523a.28.28 0 0 1 .027-.086.2.2 0 0 1 .121-.102.267.267 0 0 1 .17-.001.179.179 0 0 1 .11.095c.01.023.015.048.015.076a.19.19 0 0 1-.009.061.136.136 0 0 1-.025.046.14.14 0 0 1-.039.034.198.198 0 0 1-.051.023.196.196 0 0 1 .105.062.172.172 0 0 1 .035.109.197.197 0 0 1-.019.089.19.19 0 0 1-.051.068.244.244 0 0 1-.076.042.312.312 0 0 1-.19.001.197.197 0 0 1-.068-.04.192.192 0 0 1-.046-.059.41.41 0 0 1-.031-.074l.039-.016a.05.05 0 0 1 .029-.004.032.032 0 0 1 .021.017l.016.033a.12.12 0 0 0 .027.038.145.145 0 0 0 .11.043A.164.164 0 0 0 .35-.08a.135.135 0 0 0 .047-.032.13.13 0 0 0 .038-.091.22.22 0 0 0-.007-.053A.097.097 0 0 0 .4-.298a.168.168 0 0 0-.057-.027.332.332 0 0 0-.091-.01V-.4A.26.26 0 0 0 .33-.41a.127.127 0 0 0 .052-.026.094.094 0 0 0 .03-.039.136.136 0 0 0 .009-.051.127.127 0 0 0-.01-.054.103.103 0 0 0-.026-.038.136.136 0 0 0-.041-.023.16.16 0 0 0-.05-.007.159.159 0 0 0-.05.008.134.134 0 0 0-.071.056.125.125 0 0 0-.017.043.042.042 0 0 1-.016.023c-.007.004-.016.005-.028.003L.065-.523z" style="fill-rule:nonzero" transform="matrix(20 0 0 20 277.118 317.365)"/><path d="M.123-.315A.796.796 0 0 0 .23.086c.005.01.006.018.004.023a.04.04 0 0 1-.012.014L.183.147a.95.95 0 0 1-.107-.228.65.65 0 0 1-.023-.115.767.767 0 0 1 0-.237.65.65 0 0 1 .066-.228.888.888 0 0 1 .064-.115l.039.025a.037.037 0 0 1 .012.013c.002.006.001.013-.004.023a.805.805 0 0 0-.107.4z" style="fill-rule:nonzero" transform="matrix(20 0 0 20 154.903 337.365)"/><path d="M.42-.469a.058.058 0 0 1-.003.019.038.038 0 0 1-.009.015L.134-.07h.277V0H.029v-.037a.05.05 0 0 1 .003-.015.056.056 0 0 1 .009-.017l.276-.368H.045v-.07H.42v.038z" style="fill-rule:nonzero" transform="matrix(20 0 0 20 160.243 337.365)"/><path d="M.056-.055c0-.009.001-.017.004-.025A.086.086 0 0 1 .073-.1c.006-.005.012-.01.02-.013a.07.07 0 0 1 .025-.005c.008 0 .016.002.024.005s.014.008.02.013c.006.006.01.013.014.02a.07.07 0 0 1 .005.025.07.07 0 0 1-.005.025c-.004.007-.008.014-.014.019a.056.056 0 0 1-.02.014.069.069 0 0 1-.024.005.07.07 0 0 1-.025-.005.056.056 0 0 1-.02-.014A.064.064 0 0 1 .06-.03a.069.069 0 0 1-.004-.025z" style="fill-rule:nonzero" transform="matrix(20 0 0 20 169.283 337.365)"/><path d="M.343-.077a.22.22 0 0 0 .072-.01.134.134 0 0 0 .049-.026.104.104 0 0 0 .028-.041.151.151 0 0 0 .009-.053.106.106 0 0 0-.039-.087C.435-.316.396-.327.343-.327H.188v.25h.155zM.188-.64v.244h.128a.25.25 0 0 0 .071-.009.138.138 0 0 0 .05-.025.102.102 0 0 0 .03-.038.135.135 0 0 0 .009-.05c0-.042-.013-.073-.038-.093C.413-.63.373-.64.32-.64H.188zM.32-.717a.47.47 0 0 1 .114.013.218.218 0 0 1 .078.037.146.146 0 0 1 .046.059.213.213 0 0 1 .014.078.17.17 0 0 1-.008.051.166.166 0 0 1-.067.083.23.23 0 0 1-.059.027c.053.01.092.029.119.057a.15.15 0 0 1 .04.108c0 .03-.006.058-.017.083a.18.18 0 0 1-.049.064.238.238 0 0 1-.079.042A.355.355 0 0 1 .345 0H.092v-.717H.32z" style="fill-rule:nonzero" transform="matrix(20 0 0 20 174.003 337.365)"/><path d="M.056-.055c0-.009.001-.017.004-.025A.086.086 0 0 1 .073-.1c.006-.005.012-.01.02-.013a.07.07 0 0 1 .025-.005c.008 0 .016.002.024.005s.014.008.02.013c.006.006.01.013.014.02a.07.07 0 0 1 .005.025.07.07 0 0 1-.005.025c-.004.007-.008.014-.014.019a.056.056 0 0 1-.02.014.069.069 0 0 1-.024.005.07.07 0 0 1-.025-.005.056.056 0 0 1-.02-.014A.064.064 0 0 1 .06-.03a.069.069 0 0 1-.004-.025z" style="fill-rule:nonzero" transform="matrix(20 0 0 20 186.933 337.365)"/><path d="M.155-.433a.26.26 0 0 1 .118-.076.196.196 0 0 1 .123.008.138.138 0 0 1 .053.039.188.188 0 0 1 .033.061c.007.024.011.05.011.078V0h-.09v-.323a.139.139 0 0 0-.026-.089C.359-.433.333-.444.297-.444a.16.16 0 0 0-.074.019.236.236 0 0 0-.063.052V0H.071v-.507h.053c.013 0 .021.007.024.019l.007.055z" style="fill-rule:nonzero" transform="matrix(20 0 0 20 196.773 337.365)"/><path d="M.41-.309a.169.169 0 0 0-.009-.056.143.143 0 0 0-.026-.045.128.128 0 0 0-.04-.029.138.138 0 0 0-.055-.01.135.135 0 0 0-.101.037.173.173 0 0 0-.046.103H.41zm.072.238a.223.223 0 0 1-.089.059.358.358 0 0 1-.11.019.258.258 0 0 1-.097-.018.218.218 0 0 1-.126-.137.34.34 0 0 1-.002-.215.224.224 0 0 1 .22-.152c.03 0 .058.006.084.016a.19.19 0 0 1 .112.115c.01.028.016.06.016.096a.058.058 0 0 1-.005.028c-.003.005-.009.007-.017.007H.13c.001.032.005.06.013.083a.173.173 0 0 0 .033.06c.014.016.03.027.05.035a.191.191 0 0 0 .122.004.281.281 0 0 0 .071-.033.043.043 0 0 1 .021-.008c.007 0 .012.003.017.008l.025.033z" style="fill-rule:nonzero" transform="matrix(20 0 0 20 207.933 337.365)"/><path d="M.487-.507V0H.434C.421 0 .413-.006.41-.019L.403-.073a.296.296 0 0 1-.074.059.192.192 0 0 1-.094.022.183.183 0 0 1-.073-.014.138.138 0 0 1-.053-.039.146.146 0 0 1-.033-.06.28.28 0 0 1-.01-.079v-.323h.089v.323c0 .039.008.068.026.089.017.021.044.032.08.032a.148.148 0 0 0 .074-.019.219.219 0 0 0 .063-.052v-.373h.089z" style="fill-rule:nonzero" transform="matrix(20 0 0 20 218.493 337.365)"/><path d="M.155-.405a.224.224 0 0 1 .059-.081.127.127 0 0 1 .116-.026.08.08 0 0 1 .027.011L.35-.435c-.002.009-.007.013-.015.013a.096.096 0 0 1-.02-.003.148.148 0 0 0-.074.004.115.115 0 0 0-.033.021.135.135 0 0 0-.027.034.245.245 0 0 0-.021.046V0H.071v-.507h.051c.009 0 .016.002.02.006.003.004.006.01.007.019l.006.077z" style="fill-rule:nonzero" transform="matrix(20 0 0 20 229.643 337.365)"/><path d="M.284-.515c.037 0 .07.007.1.019a.214.214 0 0 1 .124.135.329.329 0 0 1 .017.107.33.33 0 0 1-.017.108.222.222 0 0 1-.124.135.266.266 0 0 1-.1.018.271.271 0 0 1-.101-.018.222.222 0 0 1-.124-.135.33.33 0 0 1-.017-.108c0-.039.006-.075.017-.107a.214.214 0 0 1 .124-.135.271.271 0 0 1 .101-.019zm0 .452c.05 0 .087-.016.112-.05a.229.229 0 0 0 .037-.14.234.234 0 0 0-.037-.141C.371-.428.334-.444.284-.445a.189.189 0 0 0-.066.013.126.126 0 0 0-.047.038.152.152 0 0 0-.028.06.335.335 0 0 0-.009.081c0 .06.012.107.037.14.025.034.062.05.113.05z" style="fill-rule:nonzero" transform="matrix(20 0 0 20 236.513 337.365)"/><path d="M.155-.433a.26.26 0 0 1 .118-.076.196.196 0 0 1 .123.008.138.138 0 0 1 .053.039.188.188 0 0 1 .033.061c.007.024.011.05.011.078V0h-.09v-.323a.139.139 0 0 0-.026-.089C.359-.433.333-.444.297-.444a.16.16 0 0 0-.074.019.236.236 0 0 0-.063.052V0H.071v-.507h.053c.013 0 .021.007.024.019l.007.055z" style="fill-rule:nonzero" transform="matrix(20 0 0 20 247.853 337.365)"/><path d="M.345-.228a.72.72 0 0 0-.105.01.297.297 0 0 0-.07.02.099.099 0 0 0-.04.029.066.066 0 0 0-.012.038c0 .014.002.025.007.035.004.01.01.018.017.024.008.006.017.01.027.013a.196.196 0 0 0 .076 0 .142.142 0 0 0 .036-.014.146.146 0 0 0 .033-.022.201.201 0 0 0 .031-.028v-.105zM.058-.435a.305.305 0 0 1 .09-.061.285.285 0 0 1 .108-.02c.028 0 .053.005.075.014.022.01.041.023.056.039a.172.172 0 0 1 .034.061c.007.024.011.05.011.078V0H.393C.384 0 .377-.001.373-.004a.027.027 0 0 1-.011-.017l-.01-.048a3.698 3.698 0 0 1-.039.033.423.423 0 0 1-.04.024.297.297 0 0 1-.045.015.29.29 0 0 1-.053.005A.192.192 0 0 1 .12 0a.136.136 0 0 1-.046-.025.108.108 0 0 1-.03-.042.137.137 0 0 1-.011-.06c0-.02.005-.039.016-.057a.147.147 0 0 1 .054-.05.34.34 0 0 1 .096-.035.802.802 0 0 1 .146-.016v-.039c0-.039-.008-.069-.025-.089a.094.094 0 0 0-.075-.031.176.176 0 0 0-.094.027.443.443 0 0 0-.028.019A.043.043 0 0 1 .1-.39a.025.025 0 0 1-.015-.005.032.032 0 0 1-.011-.012L.058-.435z" style="fill-rule:nonzero" transform="matrix(20 0 0 20 259.013 337.365)"/><path style="fill-rule:nonzero" d="M.074-.737h.089V0H.074z" transform="matrix(20 0 0 20 268.953 337.365)"/><path d="M.41-.309a.169.169 0 0 0-.009-.056.143.143 0 0 0-.026-.045.128.128 0 0 0-.04-.029.138.138 0 0 0-.055-.01.135.135 0 0 0-.101.037.173.173 0 0 0-.046.103H.41zm.072.238a.223.223 0 0 1-.089.059.358.358 0 0 1-.11.019.258.258 0 0 1-.097-.018.218.218 0 0 1-.126-.137.34.34 0 0 1-.002-.215.224.224 0 0 1 .22-.152c.03 0 .058.006.084.016a.19.19 0 0 1 .112.115c.01.028.016.06.016.096a.058.058 0 0 1-.005.028c-.003.005-.009.007-.017.007H.13c.001.032.005.06.013.083a.173.173 0 0 0 .033.06c.014.016.03.027.05.035a.191.191 0 0 0 .122.004.281.281 0 0 0 .071-.033.043.043 0 0 1 .021-.008c.007 0 .012.003.017.008l.025.033z" style="fill-rule:nonzero" transform="matrix(20 0 0 20 273.673 337.365)"/><path d="M.366-.423a.021.021 0 0 1-.019.011.576.576 0 0 1-.04-.018.299.299 0 0 0-.033-.012.153.153 0 0 0-.085 0 .112.112 0 0 0-.031.015.076.076 0 0 0-.02.024.067.067 0 0 0-.006.028c0 .013.003.024.011.033a.078.078 0 0 0 .03.022.204.204 0 0 0 .042.017l.048.016a.468.468 0 0 1 .048.018c.016.007.03.015.042.025.012.01.022.022.03.037a.117.117 0 0 1 .011.052.146.146 0 0 1-.049.116.177.177 0 0 1-.06.034.231.231 0 0 1-.082.013.26.26 0 0 1-.096-.017.231.231 0 0 1-.073-.045l.021-.034a.028.028 0 0 1 .009-.01.029.029 0 0 1 .014-.003c.006 0 .012.002.019.007a.252.252 0 0 0 .059.031.153.153 0 0 0 .051.007.13.13 0 0 0 .046-.007.083.083 0 0 0 .032-.018.064.064 0 0 0 .019-.027.08.08 0 0 0 .007-.032.049.049 0 0 0-.012-.034.1.1 0 0 0-.029-.024.35.35 0 0 0-.043-.017L.179-.23A.41.41 0 0 1 .13-.248a.175.175 0 0 1-.042-.026.126.126 0 0 1-.03-.038.133.133 0 0 1-.011-.056.133.133 0 0 1 .047-.102.159.159 0 0 1 .057-.033.247.247 0 0 1 .235.047l-.02.033z" style="fill-rule:nonzero" transform="matrix(20 0 0 20 284.233 337.365)"/><path d="M.672-.717V0H.624a.04.04 0 0 1-.02-.004.048.048 0 0 1-.015-.014l-.414-.54.001.025.001.022V0H.092v-.717h.05l.011.001.008.003.007.005.007.008.415.539a.21.21 0 0 1-.002-.025L.587-.209v-.508h.085z" style="fill-rule:nonzero" transform="matrix(20 0 0 20 298.013 337.365)"/><path d="M.41-.309a.169.169 0 0 0-.009-.056.143.143 0 0 0-.026-.045.128.128 0 0 0-.04-.029.138.138 0 0 0-.055-.01.135.135 0 0 0-.101.037.173.173 0 0 0-.046.103H.41zm.072.238a.223.223 0 0 1-.089.059.358.358 0 0 1-.11.019.258.258 0 0 1-.097-.018.218.218 0 0 1-.126-.137.34.34 0 0 1-.002-.215.224.224 0 0 1 .22-.152c.03 0 .058.006.084.016a.19.19 0 0 1 .112.115c.01.028.016.06.016.096a.058.058 0 0 1-.005.028c-.003.005-.009.007-.017.007H.13c.001.032.005.06.013.083a.173.173 0 0 0 .033.06c.014.016.03.027.05.035a.191.191 0 0 0 .122.004.281.281 0 0 0 .071-.033.043.043 0 0 1 .021-.008c.007 0 .012.003.017.008l.025.033z" style="fill-rule:nonzero" transform="matrix(20 0 0 20 312.973 337.365)"/><path d="M.226.008c-.04 0-.071-.011-.092-.034C.112-.048.101-.08.102-.122v-.31H.041a.022.022 0 0 1-.014-.005C.023-.44.022-.445.022-.452v-.035l.083-.011.02-.156a.019.019 0 0 1 .007-.012.02.02 0 0 1 .014-.005h.045v.174h.146v.065H.191v.304c0 .021.005.037.015.047.01.011.024.016.04.016A.06.06 0 0 0 .27-.069a.075.075 0 0 0 .018-.008l.013-.008A.012.012 0 0 1 .31-.089c.005 0 .009.003.013.008l.026.043a.175.175 0 0 1-.056.034.193.193 0 0 1-.067.012z" style="fill-rule:nonzero" transform="matrix(20 0 0 20 323.463 337.365)"/><path d="M.42-.469a.058.058 0 0 1-.003.019.038.038 0 0 1-.009.015L.134-.07h.277V0H.029v-.037a.05.05 0 0 1 .003-.015.056.056 0 0 1 .009-.017l.276-.368H.045v-.07H.42v.038z" style="fill-rule:nonzero" transform="matrix(20 0 0 20 330.633 337.365)"/><path d="M.145-.315a.808.808 0 0 0-.107-.4C.035-.72.033-.724.033-.728a.017.017 0 0 1 0-.01.018.018 0 0 1 .005-.007.043.043 0 0 1 .007-.006l.04-.025a.878.878 0 0 1 .13.343.923.923 0 0 1-.024.352.937.937 0 0 1-.106.228L.045.123.038.117A.022.022 0 0 1 .033.109a.017.017 0 0 1 0-.01.792.792 0 0 0 .112-.414z" style="fill-rule:nonzero" transform="matrix(20 0 0 20 339.673 337.365)"/></g><g transform="matrix(1 0 0 -1 304.958 510)"><circle cx="150" cy="190" r="30" style="fill:#005a94"/></g><g><path d="M.303-.345a.229.229 0 0 0 .073-.011.16.16 0 0 0 .054-.031.143.143 0 0 0 .033-.047.166.166 0 0 0 .011-.061.14.14 0 0 0-.043-.107C.403-.627.36-.64.303-.64H.188v.295h.115zm0-.372a.41.41 0 0 1 .118.016.24.24 0 0 1 .084.045.182.182 0 0 1 .049.07.242.242 0 0 1 .016.091.247.247 0 0 1-.017.092.192.192 0 0 1-.052.071.231.231 0 0 1-.083.047.366.366 0 0 1-.115.017H.188V0H.092v-.717h.211z" style="fill-rule:nonzero" transform="matrix(16 0 0 16 414.43 132.612)"/><path d="M.155-.405a.224.224 0 0 1 .059-.081.127.127 0 0 1 .116-.026.08.08 0 0 1 .027.011L.35-.435c-.002.009-.007.013-.015.013a.096.096 0 0 1-.02-.003.148.148 0 0 0-.074.004.115.115 0 0 0-.033.021.135.135 0 0 0-.027.034.245.245 0 0 0-.021.046V0H.071v-.507h.051c.009 0 .016.002.02.006.003.004.006.01.007.019l.006.077z" style="fill-rule:nonzero" transform="matrix(16 0 0 16 423.887 132.612)"/><path d="M.284-.515c.037 0 .07.007.1.019a.214.214 0 0 1 .124.135.329.329 0 0 1 .017.107.33.33 0 0 1-.017.108.222.222 0 0 1-.124.135.266.266 0 0 1-.1.018.271.271 0 0 1-.101-.018.222.222 0 0 1-.124-.135.33.33 0 0 1-.017-.108c0-.039.006-.075.017-.107a.214.214 0 0 1 .124-.135.271.271 0 0 1 .101-.019zm0 .452c.05 0 .087-.016.112-.05a.229.229 0 0 0 .037-.14.234.234 0 0 0-.037-.141C.371-.428.334-.444.284-.445a.189.189 0 0 0-.066.013.126.126 0 0 0-.047.038.152.152 0 0 0-.028.06.335.335 0 0 0-.009.081c0 .06.012.107.037.14.025.034.062.05.113.05z" style="fill-rule:nonzero" transform="matrix(16 0 0 16 429.382 132.612)"/><path d="M.247-.248a.121.121 0 0 0 .048-.007.098.098 0 0 0 .034-.021.099.099 0 0 0 .028-.074.099.099 0 0 0-.028-.074C.31-.442.283-.451.247-.451c-.036 0-.063.009-.082.027a.099.099 0 0 0-.028.074.099.099 0 0 0 .028.074.114.114 0 0 0 .082.028zm.161.276a.045.045 0 0 0-.011-.031.085.085 0 0 0-.028-.018.226.226 0 0 0-.041-.009l-.05-.004-.053-.003a.766.766 0 0 1-.052-.005.147.147 0 0 0-.046.033.065.065 0 0 0 .018.103.157.157 0 0 0 .045.017.29.29 0 0 0 .129 0A.178.178 0 0 0 .367.093a.093.093 0 0 0 .03-.029.066.066 0 0 0 .011-.036zm.09-.515v.033c0 .011-.007.018-.021.021L.42-.425a.16.16 0 0 1-.037.192.193.193 0 0 1-.06.033.233.233 0 0 1-.076.011.241.241 0 0 1-.067-.008.086.086 0 0 0-.024.021.037.037 0 0 0-.009.023.03.03 0 0 0 .015.027.1.1 0 0 0 .039.013.292.292 0 0 0 .054.005 1.331 1.331 0 0 1 .126.011c.021.004.039.01.055.018a.11.11 0 0 1 .039.035.1.1 0 0 1 .015.057.13.13 0 0 1-.017.063.18.18 0 0 1-.046.054.24.24 0 0 1-.075.038.399.399 0 0 1-.197.004.247.247 0 0 1-.069-.03.128.128 0 0 1-.041-.043.102.102 0 0 1-.014-.05.09.09 0 0 1 .024-.064.17.17 0 0 1 .064-.042.088.088 0 0 1-.036-.026.072.072 0 0 1-.013-.046.06.06 0 0 1 .004-.022.134.134 0 0 1 .012-.024.152.152 0 0 1 .049-.041.157.157 0 0 1-.059-.055.153.153 0 0 1-.021-.081.16.16 0 0 1 .014-.067.158.158 0 0 1 .04-.052.188.188 0 0 1 .061-.033.265.265 0 0 1 .139-.004.218.218 0 0 1 .052.021h.137z" style="fill-rule:nonzero" transform="matrix(16 0 0 16 438.415 132.612)"/><path d="M.155-.433a.26.26 0 0 1 .118-.076.196.196 0 0 1 .123.008.138.138 0 0 1 .053.039.188.188 0 0 1 .033.061c.007.024.011.05.011.078V0h-.09v-.323a.139.139 0 0 0-.026-.089C.359-.433.333-.444.297-.444a.16.16 0 0 0-.074.019.236.236 0 0 0-.063.052V0H.071v-.507h.053c.013 0 .021.007.024.019l.007.055z" style="fill-rule:nonzero" transform="matrix(16 0 0 16 446.735 132.612)"/><path d="M.284-.515c.037 0 .07.007.1.019a.214.214 0 0 1 .124.135.329.329 0 0 1 .017.107.33.33 0 0 1-.017.108.222.222 0 0 1-.124.135.266.266 0 0 1-.1.018.271.271 0 0 1-.101-.018.222.222 0 0 1-.124-.135.33.33 0 0 1-.017-.108c0-.039.006-.075.017-.107a.214.214 0 0 1 .124-.135.271.271 0 0 1 .101-.019zm0 .452c.05 0 .087-.016.112-.05a.229.229 0 0 0 .037-.14.234.234 0 0 0-.037-.141C.371-.428.334-.444.284-.445a.189.189 0 0 0-.066.013.126.126 0 0 0-.047.038.152.152 0 0 0-.028.06.335.335 0 0 0-.009.081c0 .06.012.107.037.14.025.034.062.05.113.05z" style="fill-rule:nonzero" transform="matrix(16 0 0 16 455.663 132.612)"/><path d="M.366-.423a.021.021 0 0 1-.019.011.576.576 0 0 1-.04-.018.299.299 0 0 0-.033-.012.153.153 0 0 0-.085 0 .112.112 0 0 0-.031.015.076.076 0 0 0-.02.024.067.067 0 0 0-.006.028c0 .013.003.024.011.033a.078.078 0 0 0 .03.022.204.204 0 0 0 .042.017l.048.016a.468.468 0 0 1 .048.018c.016.007.03.015.042.025.012.01.022.022.03.037a.117.117 0 0 1 .011.052.146.146 0 0 1-.049.116.177.177 0 0 1-.06.034.231.231 0 0 1-.082.013.26.26 0 0 1-.096-.017.231.231 0 0 1-.073-.045l.021-.034a.028.028 0 0 1 .009-.01.029.029 0 0 1 .014-.003c.006 0 .012.002.019.007a.252.252 0 0 0 .059.031.153.153 0 0 0 .051.007.13.13 0 0 0 .046-.007.083.083 0 0 0 .032-.018.064.064 0 0 0 .019-.027.08.08 0 0 0 .007-.032.049.049 0 0 0-.012-.034.1.1 0 0 0-.029-.024.35.35 0 0 0-.043-.017L.179-.23A.41.41 0 0 1 .13-.248a.175.175 0 0 1-.042-.026.126.126 0 0 1-.03-.038.133.133 0 0 1-.011-.056.133.133 0 0 1 .047-.102.159.159 0 0 1 .057-.033.247.247 0 0 1 .235.047l-.02.033z" style="fill-rule:nonzero" transform="matrix(16 0 0 16 464.735 132.612)"/><path d="M.41-.309a.169.169 0 0 0-.009-.056.143.143 0 0 0-.026-.045.128.128 0 0 0-.04-.029.138.138 0 0 0-.055-.01.135.135 0 0 0-.101.037.173.173 0 0 0-.046.103H.41zm.072.238a.223.223 0 0 1-.089.059.358.358 0 0 1-.11.019.258.258 0 0 1-.097-.018.218.218 0 0 1-.126-.137.34.34 0 0 1-.002-.215.224.224 0 0 1 .22-.152c.03 0 .058.006.084.016a.19.19 0 0 1 .112.115c.01.028.016.06.016.096a.058.058 0 0 1-.005.028c-.003.005-.009.007-.017.007H.13c.001.032.005.06.013.083a.173.173 0 0 0 .033.06c.014.016.03.027.05.035a.191.191 0 0 0 .122.004.281.281 0 0 0 .071-.033.043.043 0 0 1 .021-.008c.007 0 .012.003.017.008l.025.033z" style="fill-rule:nonzero" transform="matrix(16 0 0 16 471.663 132.612)"/><path d="M.509-.068V0H.125v-.068h.154v-.489L.28-.601l-.127.109a.033.033 0 0 1-.013.007.024.024 0 0 1-.012 0 .021.021 0 0 1-.011-.004L.11-.495.082-.534l.214-.184h.072v.65h.141z" style="fill-rule:nonzero" transform="matrix(16 0 0 16 484.207 132.612)"/></g><g><path d="M.303-.345a.229.229 0 0 0 .073-.011.16.16 0 0 0 .054-.031.143.143 0 0 0 .033-.047.166.166 0 0 0 .011-.061.14.14 0 0 0-.043-.107C.403-.627.36-.64.303-.64H.188v.295h.115zm0-.372a.41.41 0 0 1 .118.016.24.24 0 0 1 .084.045.182.182 0 0 1 .049.07.242.242 0 0 1 .016.091.247.247 0 0 1-.017.092.192.192 0 0 1-.052.071.231.231 0 0 1-.083.047.366.366 0 0 1-.115.017H.188V0H.092v-.717h.211z" style="fill-rule:nonzero" transform="matrix(16 0 0 16 414.43 252.612)"/><path d="M.155-.405a.224.224 0 0 1 .059-.081.127.127 0 0 1 .116-.026.08.08 0 0 1 .027.011L.35-.435c-.002.009-.007.013-.015.013a.096.096 0 0 1-.02-.003.148.148 0 0 0-.074.004.115.115 0 0 0-.033.021.135.135 0 0 0-.027.034.245.245 0 0 0-.021.046V0H.071v-.507h.051c.009 0 .016.002.02.006.003.004.006.01.007.019l.006.077z" style="fill-rule:nonzero" transform="matrix(16 0 0 16 423.887 252.612)"/><path d="M.284-.515c.037 0 .07.007.1.019a.214.214 0 0 1 .124.135.329.329 0 0 1 .017.107.33.33 0 0 1-.017.108.222.222 0 0 1-.124.135.266.266 0 0 1-.1.018.271.271 0 0 1-.101-.018.222.222 0 0 1-.124-.135.33.33 0 0 1-.017-.108c0-.039.006-.075.017-.107a.214.214 0 0 1 .124-.135.271.271 0 0 1 .101-.019zm0 .452c.05 0 .087-.016.112-.05a.229.229 0 0 0 .037-.14.234.234 0 0 0-.037-.141C.371-.428.334-.444.284-.445a.189.189 0 0 0-.066.013.126.126 0 0 0-.047.038.152.152 0 0 0-.028.06.335.335 0 0 0-.009.081c0 .06.012.107.037.14.025.034.062.05.113.05z" style="fill-rule:nonzero" transform="matrix(16 0 0 16 429.382 252.612)"/><path d="M.247-.248a.121.121 0 0 0 .048-.007.098.098 0 0 0 .034-.021.099.099 0 0 0 .028-.074.099.099 0 0 0-.028-.074C.31-.442.283-.451.247-.451c-.036 0-.063.009-.082.027a.099.099 0 0 0-.028.074.099.099 0 0 0 .028.074.114.114 0 0 0 .082.028zm.161.276a.045.045 0 0 0-.011-.031.085.085 0 0 0-.028-.018.226.226 0 0 0-.041-.009l-.05-.004-.053-.003a.766.766 0 0 1-.052-.005.147.147 0 0 0-.046.033.065.065 0 0 0 .018.103.157.157 0 0 0 .045.017.29.29 0 0 0 .129 0A.178.178 0 0 0 .367.093a.093.093 0 0 0 .03-.029.066.066 0 0 0 .011-.036zm.09-.515v.033c0 .011-.007.018-.021.021L.42-.425a.16.16 0 0 1-.037.192.193.193 0 0 1-.06.033.233.233 0 0 1-.076.011.241.241 0 0 1-.067-.008.086.086 0 0 0-.024.021.037.037 0 0 0-.009.023.03.03 0 0 0 .015.027.1.1 0 0 0 .039.013.292.292 0 0 0 .054.005 1.331 1.331 0 0 1 .126.011c.021.004.039.01.055.018a.11.11 0 0 1 .039.035.1.1 0 0 1 .015.057.13.13 0 0 1-.017.063.18.18 0 0 1-.046.054.24.24 0 0 1-.075.038.399.399 0 0 1-.197.004.247.247 0 0 1-.069-.03.128.128 0 0 1-.041-.043.102.102 0 0 1-.014-.05.09.09 0 0 1 .024-.064.17.17 0 0 1 .064-.042.088.088 0 0 1-.036-.026.072.072 0 0 1-.013-.046.06.06 0 0 1 .004-.022.134.134 0 0 1 .012-.024.152.152 0 0 1 .049-.041.157.157 0 0 1-.059-.055.153.153 0 0 1-.021-.081.16.16 0 0 1 .014-.067.158.158 0 0 1 .04-.052.188.188 0 0 1 .061-.033.265.265 0 0 1 .139-.004.218.218 0 0 1 .052.021h.137z" style="fill-rule:nonzero" transform="matrix(16 0 0 16 438.415 252.612)"/><path d="M.155-.433a.26.26 0 0 1 .118-.076.196.196 0 0 1 .123.008.138.138 0 0 1 .053.039.188.188 0 0 1 .033.061c.007.024.011.05.011.078V0h-.09v-.323a.139.139 0 0 0-.026-.089C.359-.433.333-.444.297-.444a.16.16 0 0 0-.074.019.236.236 0 0 0-.063.052V0H.071v-.507h.053c.013 0 .021.007.024.019l.007.055z" style="fill-rule:nonzero" transform="matrix(16 0 0 16 446.735 252.612)"/><path d="M.284-.515c.037 0 .07.007.1.019a.214.214 0 0 1 .124.135.329.329 0 0 1 .017.107.33.33 0 0 1-.017.108.222.222 0 0 1-.124.135.266.266 0 0 1-.1.018.271.271 0 0 1-.101-.018.222.222 0 0 1-.124-.135.33.33 0 0 1-.017-.108c0-.039.006-.075.017-.107a.214.214 0 0 1 .124-.135.271.271 0 0 1 .101-.019zm0 .452c.05 0 .087-.016.112-.05a.229.229 0 0 0 .037-.14.234.234 0 0 0-.037-.141C.371-.428.334-.444.284-.445a.189.189 0 0 0-.066.013.126.126 0 0 0-.047.038.152.152 0 0 0-.028.06.335.335 0 0 0-.009.081c0 .06.012.107.037.14.025.034.062.05.113.05z" style="fill-rule:nonzero" transform="matrix(16 0 0 16 455.663 252.612)"/><path d="M.366-.423a.021.021 0 0 1-.019.011.576.576 0 0 1-.04-.018.299.299 0 0 0-.033-.012.153.153 0 0 0-.085 0 .112.112 0 0 0-.031.015.076.076 0 0 0-.02.024.067.067 0 0 0-.006.028c0 .013.003.024.011.033a.078.078 0 0 0 .03.022.204.204 0 0 0 .042.017l.048.016a.468.468 0 0 1 .048.018c.016.007.03.015.042.025.012.01.022.022.03.037a.117.117 0 0 1 .011.052.146.146 0 0 1-.049.116.177.177 0 0 1-.06.034.231.231 0 0 1-.082.013.26.26 0 0 1-.096-.017.231.231 0 0 1-.073-.045l.021-.034a.028.028 0 0 1 .009-.01.029.029 0 0 1 .014-.003c.006 0 .012.002.019.007a.252.252 0 0 0 .059.031.153.153 0 0 0 .051.007.13.13 0 0 0 .046-.007.083.083 0 0 0 .032-.018.064.064 0 0 0 .019-.027.08.08 0 0 0 .007-.032.049.049 0 0 0-.012-.034.1.1 0 0 0-.029-.024.35.35 0 0 0-.043-.017L.179-.23A.41.41 0 0 1 .13-.248a.175.175 0 0 1-.042-.026.126.126 0 0 1-.03-.038.133.133 0 0 1-.011-.056.133.133 0 0 1 .047-.102.159.159 0 0 1 .057-.033.247.247 0 0 1 .235.047l-.02.033z" style="fill-rule:nonzero" transform="matrix(16 0 0 16 464.735 252.612)"/><path d="M.41-.309a.169.169 0 0 0-.009-.056.143.143 0 0 0-.026-.045.128.128 0 0 0-.04-.029.138.138 0 0 0-.055-.01.135.135 0 0 0-.101.037.173.173 0 0 0-.046.103H.41zm.072.238a.223.223 0 0 1-.089.059.358.358 0 0 1-.11.019.258.258 0 0 1-.097-.018.218.218 0 0 1-.126-.137.34.34 0 0 1-.002-.215.224.224 0 0 1 .22-.152c.03 0 .058.006.084.016a.19.19 0 0 1 .112.115c.01.028.016.06.016.096a.058.058 0 0 1-.005.028c-.003.005-.009.007-.017.007H.13c.001.032.005.06.013.083a.173.173 0 0 0 .033.06c.014.016.03.027.05.035a.191.191 0 0 0 .122.004.281.281 0 0 0 .071-.033.043.043 0 0 1 .021-.008c.007 0 .012.003.017.008l.025.033z" style="fill-rule:nonzero" transform="matrix(16 0 0 16 471.663 252.612)"/><path d="M.494-.085c.009 0 .017.003.023.009a.033.033 0 0 1 .008.022V0H.047v-.031c0-.006.001-.012.004-.019a.059.059 0 0 1 .013-.019l.229-.23.052-.056a.375.375 0 0 0 .066-.108.193.193 0 0 0 .009-.06.154.154 0 0 0-.01-.055.113.113 0 0 0-.068-.062.17.17 0 0 0-.101 0 .134.134 0 0 0-.071.056.125.125 0 0 0-.017.043c-.004.012-.009.019-.016.023a.044.044 0 0 1-.029.003L.062-.523a.235.235 0 0 1 .078-.15.216.216 0 0 1 .07-.038.263.263 0 0 1 .171 0 .183.183 0 0 1 .13.186.22.22 0 0 1-.012.074.302.302 0 0 1-.032.065.534.534 0 0 1-.048.061 1.52 1.52 0 0 1-.056.059l-.189.193.04-.008c.014-.002.027-.004.04-.004h.24z" style="fill-rule:nonzero" transform="matrix(16 0 0 16 484.207 252.612)"/></g><g><path d="M.303-.345a.229.229 0 0 0 .073-.011.16.16 0 0 0 .054-.031.143.143 0 0 0 .033-.047.166.166 0 0 0 .011-.061.14.14 0 0 0-.043-.107C.403-.627.36-.64.303-.64H.188v.295h.115zm0-.372a.41.41 0 0 1 .118.016.24.24 0 0 1 .084.045.182.182 0 0 1 .049.07.242.242 0 0 1 .016.091.247.247 0 0 1-.017.092.192.192 0 0 1-.052.071.231.231 0 0 1-.083.047.366.366 0 0 1-.115.017H.188V0H.092v-.717h.211z" style="fill-rule:nonzero" transform="matrix(16 0 0 16 414.43 372.612)"/><path d="M.155-.405a.224.224 0 0 1 .059-.081.127.127 0 0 1 .116-.026.08.08 0 0 1 .027.011L.35-.435c-.002.009-.007.013-.015.013a.096.096 0 0 1-.02-.003.148.148 0 0 0-.074.004.115.115 0 0 0-.033.021.135.135 0 0 0-.027.034.245.245 0 0 0-.021.046V0H.071v-.507h.051c.009 0 .016.002.02.006.003.004.006.01.007.019l.006.077z" style="fill-rule:nonzero" transform="matrix(16 0 0 16 423.887 372.612)"/><path d="M.284-.515c.037 0 .07.007.1.019a.214.214 0 0 1 .124.135.329.329 0 0 1 .017.107.33.33 0 0 1-.017.108.222.222 0 0 1-.124.135.266.266 0 0 1-.1.018.271.271 0 0 1-.101-.018.222.222 0 0 1-.124-.135.33.33 0 0 1-.017-.108c0-.039.006-.075.017-.107a.214.214 0 0 1 .124-.135.271.271 0 0 1 .101-.019zm0 .452c.05 0 .087-.016.112-.05a.229.229 0 0 0 .037-.14.234.234 0 0 0-.037-.141C.371-.428.334-.444.284-.445a.189.189 0 0 0-.066.013.126.126 0 0 0-.047.038.152.152 0 0 0-.028.06.335.335 0 0 0-.009.081c0 .06.012.107.037.14.025.034.062.05.113.05z" style="fill-rule:nonzero" transform="matrix(16 0 0 16 429.382 372.612)"/><path d="M.247-.248a.121.121 0 0 0 .048-.007.098.098 0 0 0 .034-.021.099.099 0 0 0 .028-.074.099.099 0 0 0-.028-.074C.31-.442.283-.451.247-.451c-.036 0-.063.009-.082.027a.099.099 0 0 0-.028.074.099.099 0 0 0 .028.074.114.114 0 0 0 .082.028zm.161.276a.045.045 0 0 0-.011-.031.085.085 0 0 0-.028-.018.226.226 0 0 0-.041-.009l-.05-.004-.053-.003a.766.766 0 0 1-.052-.005.147.147 0 0 0-.046.033.065.065 0 0 0 .018.103.157.157 0 0 0 .045.017.29.29 0 0 0 .129 0A.178.178 0 0 0 .367.093a.093.093 0 0 0 .03-.029.066.066 0 0 0 .011-.036zm.09-.515v.033c0 .011-.007.018-.021.021L.42-.425a.16.16 0 0 1-.037.192.193.193 0 0 1-.06.033.233.233 0 0 1-.076.011.241.241 0 0 1-.067-.008.086.086 0 0 0-.024.021.037.037 0 0 0-.009.023.03.03 0 0 0 .015.027.1.1 0 0 0 .039.013.292.292 0 0 0 .054.005 1.331 1.331 0 0 1 .126.011c.021.004.039.01.055.018a.11.11 0 0 1 .039.035.1.1 0 0 1 .015.057.13.13 0 0 1-.017.063.18.18 0 0 1-.046.054.24.24 0 0 1-.075.038.399.399 0 0 1-.197.004.247.247 0 0 1-.069-.03.128.128 0 0 1-.041-.043.102.102 0 0 1-.014-.05.09.09 0 0 1 .024-.064.17.17 0 0 1 .064-.042.088.088 0 0 1-.036-.026.072.072 0 0 1-.013-.046.06.06 0 0 1 .004-.022.134.134 0 0 1 .012-.024.152.152 0 0 1 .049-.041.157.157 0 0 1-.059-.055.153.153 0 0 1-.021-.081.16.16 0 0 1 .014-.067.158.158 0 0 1 .04-.052.188.188 0 0 1 .061-.033.265.265 0 0 1 .139-.004.218.218 0 0 1 .052.021h.137z" style="fill-rule:nonzero" transform="matrix(16 0 0 16 438.415 372.612)"/><path d="M.155-.433a.26.26 0 0 1 .118-.076.196.196 0 0 1 .123.008.138.138 0 0 1 .053.039.188.188 0 0 1 .033.061c.007.024.011.05.011.078V0h-.09v-.323a.139.139 0 0 0-.026-.089C.359-.433.333-.444.297-.444a.16.16 0 0 0-.074.019.236.236 0 0 0-.063.052V0H.071v-.507h.053c.013 0 .021.007.024.019l.007.055z" style="fill-rule:nonzero" transform="matrix(16 0 0 16 446.735 372.612)"/><path d="M.284-.515c.037 0 .07.007.1.019a.214.214 0 0 1 .124.135.329.329 0 0 1 .017.107.33.33 0 0 1-.017.108.222.222 0 0 1-.124.135.266.266 0 0 1-.1.018.271.271 0 0 1-.101-.018.222.222 0 0 1-.124-.135.33.33 0 0 1-.017-.108c0-.039.006-.075.017-.107a.214.214 0 0 1 .124-.135.271.271 0 0 1 .101-.019zm0 .452c.05 0 .087-.016.112-.05a.229.229 0 0 0 .037-.14.234.234 0 0 0-.037-.141C.371-.428.334-.444.284-.445a.189.189 0 0 0-.066.013.126.126 0 0 0-.047.038.152.152 0 0 0-.028.06.335.335 0 0 0-.009.081c0 .06.012.107.037.14.025.034.062.05.113.05z" style="fill-rule:nonzero" transform="matrix(16 0 0 16 455.663 372.612)"/><path d="M.366-.423a.021.021 0 0 1-.019.011.576.576 0 0 1-.04-.018.299.299 0 0 0-.033-.012.153.153 0 0 0-.085 0 .112.112 0 0 0-.031.015.076.076 0 0 0-.02.024.067.067 0 0 0-.006.028c0 .013.003.024.011.033a.078.078 0 0 0 .03.022.204.204 0 0 0 .042.017l.048.016a.468.468 0 0 1 .048.018c.016.007.03.015.042.025.012.01.022.022.03.037a.117.117 0 0 1 .011.052.146.146 0 0 1-.049.116.177.177 0 0 1-.06.034.231.231 0 0 1-.082.013.26.26 0 0 1-.096-.017.231.231 0 0 1-.073-.045l.021-.034a.028.028 0 0 1 .009-.01.029.029 0 0 1 .014-.003c.006 0 .012.002.019.007a.252.252 0 0 0 .059.031.153.153 0 0 0 .051.007.13.13 0 0 0 .046-.007.083.083 0 0 0 .032-.018.064.064 0 0 0 .019-.027.08.08 0 0 0 .007-.032.049.049 0 0 0-.012-.034.1.1 0 0 0-.029-.024.35.35 0 0 0-.043-.017L.179-.23A.41.41 0 0 1 .13-.248a.175.175 0 0 1-.042-.026.126.126 0 0 1-.03-.038.133.133 0 0 1-.011-.056.133.133 0 0 1 .047-.102.159.159 0 0 1 .057-.033.247.247 0 0 1 .235.047l-.02.033z" style="fill-rule:nonzero" transform="matrix(16 0 0 16 464.735 372.612)"/><path d="M.41-.309a.169.169 0 0 0-.009-.056.143.143 0 0 0-.026-.045.128.128 0 0 0-.04-.029.138.138 0 0 0-.055-.01.135.135 0 0 0-.101.037.173.173 0 0 0-.046.103H.41zm.072.238a.223.223 0 0 1-.089.059.358.358 0 0 1-.11.019.258.258 0 0 1-.097-.018.218.218 0 0 1-.126-.137.34.34 0 0 1-.002-.215.224.224 0 0 1 .22-.152c.03 0 .058.006.084.016a.19.19 0 0 1 .112.115c.01.028.016.06.016.096a.058.058 0 0 1-.005.028c-.003.005-.009.007-.017.007H.13c.001.032.005.06.013.083a.173.173 0 0 0 .033.06c.014.016.03.027.05.035a.191.191 0 0 0 .122.004.281.281 0 0 0 .071-.033.043.043 0 0 1 .021-.008c.007 0 .012.003.017.008l.025.033z" style="fill-rule:nonzero" transform="matrix(16 0 0 16 471.663 372.612)"/><path d="M.065-.523a.28.28 0 0 1 .027-.086.2.2 0 0 1 .121-.102.267.267 0 0 1 .17-.001.179.179 0 0 1 .11.095c.01.023.015.048.015.076a.19.19 0 0 1-.009.061.136.136 0 0 1-.025.046.14.14 0 0 1-.039.034.198.198 0 0 1-.051.023.196.196 0 0 1 .105.062.172.172 0 0 1 .035.109.197.197 0 0 1-.019.089.19.19 0 0 1-.051.068.244.244 0 0 1-.076.042.312.312 0 0 1-.19.001.197.197 0 0 1-.068-.04.192.192 0 0 1-.046-.059.41.41 0 0 1-.031-.074l.039-.016a.05.05 0 0 1 .029-.004.032.032 0 0 1 .021.017l.016.033a.12.12 0 0 0 .027.038.145.145 0 0 0 .11.043A.164.164 0 0 0 .35-.08a.135.135 0 0 0 .047-.032.13.13 0 0 0 .038-.091.22.22 0 0 0-.007-.053A.097.097 0 0 0 .4-.298a.168.168 0 0 0-.057-.027.332.332 0 0 0-.091-.01V-.4A.26.26 0 0 0 .33-.41a.127.127 0 0 0 .052-.026.094.094 0 0 0 .03-.039.136.136 0 0 0 .009-.051.127.127 0 0 0-.01-.054.103.103 0 0 0-.026-.038.136.136 0 0 0-.041-.023.16.16 0 0 0-.05-.007.159.159 0 0 0-.05.008.134.134 0 0 0-.071.056.125.125 0 0 0-.017.043.042.042 0 0 1-.016.023c-.007.004-.016.005-.028.003L.065-.523z" style="fill-rule:nonzero" transform="matrix(16 0 0 16 484.207 372.612)"/></g><g><path d="M.105 0v-.431L.049-.437C.041-.439.035-.441.031-.445.027-.448.025-.453.025-.46v-.037h.08v-.028c0-.031.004-.059.014-.085a.178.178 0 0 1 .044-.067.197.197 0 0 1 .072-.043.304.304 0 0 1 .174-.006l-.004.047a.008.008 0 0 1-.004.007.019.019 0 0 1-.008.002l-.014.001L.36-.67c-.059.001-.102.013-.129.037-.027.025-.04.062-.04.111v.025h.306V0H.408v-.432H.194V0H.105z" style="fill-rule:nonzero" transform="matrix(20 0 0 20 721.133 142.091)"/><path d="M.155-.433a.26.26 0 0 1 .118-.076.196.196 0 0 1 .123.008.138.138 0 0 1 .053.039.188.188 0 0 1 .033.061c.007.024.011.05.011.078V0h-.09v-.323a.139.139 0 0 0-.026-.089C.359-.433.333-.444.297-.444a.16.16 0 0 0-.074.019.236.236 0 0 0-.063.052V0H.071v-.507h.053c.013 0 .021.007.024.019l.007.055z" style="fill-rule:nonzero" transform="matrix(20 0 0 20 732.583 142.091)"/><path d="M.345-.228a.72.72 0 0 0-.105.01.297.297 0 0 0-.07.02.099.099 0 0 0-.04.029.066.066 0 0 0-.012.038c0 .014.002.025.007.035.004.01.01.018.017.024.008.006.017.01.027.013a.196.196 0 0 0 .076 0 .142.142 0 0 0 .036-.014.146.146 0 0 0 .033-.022.201.201 0 0 0 .031-.028v-.105zM.058-.435a.305.305 0 0 1 .09-.061.285.285 0 0 1 .108-.02c.028 0 .053.005.075.014.022.01.041.023.056.039a.172.172 0 0 1 .034.061c.007.024.011.05.011.078V0H.393C.384 0 .377-.001.373-.004a.027.027 0 0 1-.011-.017l-.01-.048a3.698 3.698 0 0 1-.039.033.423.423 0 0 1-.04.024.297.297 0 0 1-.045.015.29.29 0 0 1-.053.005A.192.192 0 0 1 .12 0a.136.136 0 0 1-.046-.025.108.108 0 0 1-.03-.042.137.137 0 0 1-.011-.06c0-.02.005-.039.016-.057a.147.147 0 0 1 .054-.05.34.34 0 0 1 .096-.035.802.802 0 0 1 .146-.016v-.039c0-.039-.008-.069-.025-.089a.094.094 0 0 0-.075-.031.176.176 0 0 0-.094.027.443.443 0 0 0-.028.019A.043.043 0 0 1 .1-.39a.025.025 0 0 1-.015-.005.032.032 0 0 1-.011-.012L.058-.435z" style="fill-rule:nonzero" transform="matrix(20 0 0 20 743.743 142.091)"/><path style="fill-rule:nonzero" d="M.074-.737h.089V0H.074z" transform="matrix(20 0 0 20 753.683 142.091)"/><path d="M.41-.309a.169.169 0 0 0-.009-.056.143.143 0 0 0-.026-.045.128.128 0 0 0-.04-.029.138.138 0 0 0-.055-.01.135.135 0 0 0-.101.037.173.173 0 0 0-.046.103H.41zm.072.238a.223.223 0 0 1-.089.059.358.358 0 0 1-.11.019.258.258 0 0 1-.097-.018.218.218 0 0 1-.126-.137.34.34 0 0 1-.002-.215.224.224 0 0 1 .22-.152c.03 0 .058.006.084.016a.19.19 0 0 1 .112.115c.01.028.016.06.016.096a.058.058 0 0 1-.005.028c-.003.005-.009.007-.017.007H.13c.001.032.005.06.013.083a.173.173 0 0 0 .033.06c.014.016.03.027.05.035a.191.191 0 0 0 .122.004.281.281 0 0 0 .071-.033.043.043 0 0 1 .021-.008c.007 0 .012.003.017.008l.025.033z" style="fill-rule:nonzero" transform="matrix(20 0 0 20 758.403 142.091)"/><path d="M.303-.345a.229.229 0 0 0 .073-.011.16.16 0 0 0 .054-.031.143.143 0 0 0 .033-.047.166.166 0 0 0 .011-.061.14.14 0 0 0-.043-.107C.403-.627.36-.64.303-.64H.188v.295h.115zm0-.372a.41.41 0 0 1 .118.016.24.24 0 0 1 .084.045.182.182 0 0 1 .049.07.242.242 0 0 1 .016.091.247.247 0 0 1-.017.092.192.192 0 0 1-.052.071.231.231 0 0 1-.083.047.366.366 0 0 1-.115.017H.188V0H.092v-.717h.211z" style="fill-rule:nonzero" transform="matrix(20 0 0 20 703.998 162.091)"/><path d="M.155-.405a.224.224 0 0 1 .059-.081.127.127 0 0 1 .116-.026.08.08 0 0 1 .027.011L.35-.435c-.002.009-.007.013-.015.013a.096.096 0 0 1-.02-.003.148.148 0 0 0-.074.004.115.115 0 0 0-.033.021.135.135 0 0 0-.027.034.245.245 0 0 0-.021.046V0H.071v-.507h.051c.009 0 .016.002.02.006.003.004.006.01.007.019l.006.077z" style="fill-rule:nonzero" transform="matrix(20 0 0 20 715.818 162.091)"/><path d="M.284-.515c.037 0 .07.007.1.019a.214.214 0 0 1 .124.135.329.329 0 0 1 .017.107.33.33 0 0 1-.017.108.222.222 0 0 1-.124.135.266.266 0 0 1-.1.018.271.271 0 0 1-.101-.018.222.222 0 0 1-.124-.135.33.33 0 0 1-.017-.108c0-.039.006-.075.017-.107a.214.214 0 0 1 .124-.135.271.271 0 0 1 .101-.019zm0 .452c.05 0 .087-.016.112-.05a.229.229 0 0 0 .037-.14.234.234 0 0 0-.037-.141C.371-.428.334-.444.284-.445a.189.189 0 0 0-.066.013.126.126 0 0 0-.047.038.152.152 0 0 0-.028.06.335.335 0 0 0-.009.081c0 .06.012.107.037.14.025.034.062.05.113.05z" style="fill-rule:nonzero" transform="matrix(20 0 0 20 722.688 162.091)"/><path d="M.247-.248a.121.121 0 0 0 .048-.007.098.098 0 0 0 .034-.021.099.099 0 0 0 .028-.074.099.099 0 0 0-.028-.074C.31-.442.283-.451.247-.451c-.036 0-.063.009-.082.027a.099.099 0 0 0-.028.074.099.099 0 0 0 .028.074.114.114 0 0 0 .082.028zm.161.276a.045.045 0 0 0-.011-.031.085.085 0 0 0-.028-.018.226.226 0 0 0-.041-.009l-.05-.004-.053-.003a.766.766 0 0 1-.052-.005.147.147 0 0 0-.046.033.065.065 0 0 0 .018.103.157.157 0 0 0 .045.017.29.29 0 0 0 .129 0A.178.178 0 0 0 .367.093a.093.093 0 0 0 .03-.029.066.066 0 0 0 .011-.036zm.09-.515v.033c0 .011-.007.018-.021.021L.42-.425a.16.16 0 0 1-.037.192.193.193 0 0 1-.06.033.233.233 0 0 1-.076.011.241.241 0 0 1-.067-.008.086.086 0 0 0-.024.021.037.037 0 0 0-.009.023.03.03 0 0 0 .015.027.1.1 0 0 0 .039.013.292.292 0 0 0 .054.005 1.331 1.331 0 0 1 .126.011c.021.004.039.01.055.018a.11.11 0 0 1 .039.035.1.1 0 0 1 .015.057.13.13 0 0 1-.017.063.18.18 0 0 1-.046.054.24.24 0 0 1-.075.038.399.399 0 0 1-.197.004.247.247 0 0 1-.069-.03.128.128 0 0 1-.041-.043.102.102 0 0 1-.014-.05.09.09 0 0 1 .024-.064.17.17 0 0 1 .064-.042.088.088 0 0 1-.036-.026.072.072 0 0 1-.013-.046.06.06 0 0 1 .004-.022.134.134 0 0 1 .012-.024.152.152 0 0 1 .049-.041.157.157 0 0 1-.059-.055.153.153 0 0 1-.021-.081.16.16 0 0 1 .014-.067.158.158 0 0 1 .04-.052.188.188 0 0 1 .061-.033.265.265 0 0 1 .139-.004.218.218 0 0 1 .052.021h.137z" style="fill-rule:nonzero" transform="matrix(20 0 0 20 733.978 162.091)"/><path d="M.155-.433a.26.26 0 0 1 .118-.076.196.196 0 0 1 .123.008.138.138 0 0 1 .053.039.188.188 0 0 1 .033.061c.007.024.011.05.011.078V0h-.09v-.323a.139.139 0 0 0-.026-.089C.359-.433.333-.444.297-.444a.16.16 0 0 0-.074.019.236.236 0 0 0-.063.052V0H.071v-.507h.053c.013 0 .021.007.024.019l.007.055z" style="fill-rule:nonzero" transform="matrix(20 0 0 20 744.378 162.091)"/><path d="M.284-.515c.037 0 .07.007.1.019a.214.214 0 0 1 .124.135.329.329 0 0 1 .017.107.33.33 0 0 1-.017.108.222.222 0 0 1-.124.135.266.266 0 0 1-.1.018.271.271 0 0 1-.101-.018.222.222 0 0 1-.124-.135.33.33 0 0 1-.017-.108c0-.039.006-.075.017-.107a.214.214 0 0 1 .124-.135.271.271 0 0 1 .101-.019zm0 .452c.05 0 .087-.016.112-.05a.229.229 0 0 0 .037-.14.234.234 0 0 0-.037-.141C.371-.428.334-.444.284-.445a.189.189 0 0 0-.066.013.126.126 0 0 0-.047.038.152.152 0 0 0-.028.06.335.335 0 0 0-.009.081c0 .06.012.107.037.14.025.034.062.05.113.05z" style="fill-rule:nonzero" transform="matrix(20 0 0 20 755.538 162.091)"/><path d="M.366-.423a.021.021 0 0 1-.019.011.576.576 0 0 1-.04-.018.299.299 0 0 0-.033-.012.153.153 0 0 0-.085 0 .112.112 0 0 0-.031.015.076.076 0 0 0-.02.024.067.067 0 0 0-.006.028c0 .013.003.024.011.033a.078.078 0 0 0 .03.022.204.204 0 0 0 .042.017l.048.016a.468.468 0 0 1 .048.018c.016.007.03.015.042.025.012.01.022.022.03.037a.117.117 0 0 1 .011.052.146.146 0 0 1-.049.116.177.177 0 0 1-.06.034.231.231 0 0 1-.082.013.26.26 0 0 1-.096-.017.231.231 0 0 1-.073-.045l.021-.034a.028.028 0 0 1 .009-.01.029.029 0 0 1 .014-.003c.006 0 .012.002.019.007a.252.252 0 0 0 .059.031.153.153 0 0 0 .051.007.13.13 0 0 0 .046-.007.083.083 0 0 0 .032-.018.064.064 0 0 0 .019-.027.08.08 0 0 0 .007-.032.049.049 0 0 0-.012-.034.1.1 0 0 0-.029-.024.35.35 0 0 0-.043-.017L.179-.23A.41.41 0 0 1 .13-.248a.175.175 0 0 1-.042-.026.126.126 0 0 1-.03-.038.133.133 0 0 1-.011-.056.133.133 0 0 1 .047-.102.159.159 0 0 1 .057-.033.247.247 0 0 1 .235.047l-.02.033z" style="fill-rule:nonzero" transform="matrix(20 0 0 20 766.878 162.091)"/><path d="M.41-.309a.169.169 0 0 0-.009-.056.143.143 0 0 0-.026-.045.128.128 0 0 0-.04-.029.138.138 0 0 0-.055-.01.135.135 0 0 0-.101.037.173.173 0 0 0-.046.103H.41zm.072.238a.223.223 0 0 1-.089.059.358.358 0 0 1-.11.019.258.258 0 0 1-.097-.018.218.218 0 0 1-.126-.137.34.34 0 0 1-.002-.215.224.224 0 0 1 .22-.152c.03 0 .058.006.084.016a.19.19 0 0 1 .112.115c.01.028.016.06.016.096a.058.058 0 0 1-.005.028c-.003.005-.009.007-.017.007H.13c.001.032.005.06.013.083a.173.173 0 0 0 .033.06c.014.016.03.027.05.035a.191.191 0 0 0 .122.004.281.281 0 0 0 .071-.033.043.043 0 0 1 .021-.008c.007 0 .012.003.017.008l.025.033z" style="fill-rule:nonzero" transform="matrix(20 0 0 20 775.538 162.091)"/></g><g><path d="m418.958 77 6 3-6 3v-6z"/><path d="M374.958 80h45.2" style="fill:none;stroke:#000;stroke-width:2px"/></g><g><path d="m418.958 197 6 3-6 3v-6z"/><path d="M374.958 200h45.2" style="fill:none;stroke:#000;stroke-width:2px"/></g><g><path d="m418.958 317 6 3-6 3v-6z"/><path d="M374.958 320h45.2" style="fill:none;stroke:#000;stroke-width:2px"/></g><g><path d="m527.958 77 6 3-6 3v-6z"/><path d="M483.958 80h45.2" style="fill:none;stroke:#000;stroke-width:2px"/></g><g><path d="m527.958 197 6 3-6 3v-6z"/><path d="M483.958 200h45.2" style="fill:none;stroke:#000;stroke-width:2px"/></g><g><path d="m527.958 317 6 3-6 3v-6z"/><path d="M483.958 320h45.2" style="fill:none;stroke:#000;stroke-width:2px"/></g><g><path d="m709.307 197 6 3-6 3v-6z"/><path d="M665.308 200h45.2" style="fill:none;stroke:#000;stroke-width:2px"/></g><g><path d="m-3.031-17.781-3.688-5.235h-2.265l-3.688 5.235h1.344l3.469-3.36 3.531 3.36h1.297z" style="fill:#fefefe;fill-rule:nonzero" transform="translate(755.931 207.717)"/></g><g><path d="M8.563-11.094c-.407-2.734-.641-3.828-1.391-5.125h-.516l-4.843.375v1s.718-.078 1.187-.078c2.094 0 2.25 1.672 2.5 3.219L7.516.313c-.953 1.468-3.688 5.328-4.344 5.328-.75 0-1.125-1.813-2.422-1.813-.781 0-1.328.438-1.328 1.469 0 1.266 1.187 2.219 2.625 2.219 2.594 0 4.672-3.688 7.812-8.032a92.551 92.551 0 0 0 5.579-8.64c1.093-1.844 1.5-3.375 1.5-4.703 0-1.469-.891-2.594-2.157-2.594-.984 0-1.5.609-1.5 1.328 0 1.297 1.672 2.25 1.672 3.141 0 .828-.312 1.64-1.125 2.968L9.906-2.703h-.203l-.312-3.406-.828-4.985z" style="fill:#fefefe;fill-rule:nonzero" transform="translate(736.813 207.783)"/></g><g><path d="m-3.031-17.781-3.688-5.235h-2.265l-3.688 5.235h1.344l3.469-3.36 3.531 3.36h1.297z" style="fill:#fefefe;fill-rule:nonzero" transform="translate(461.263 87.717)"/></g><g><path d="M8.563-11.094c-.407-2.734-.641-3.828-1.391-5.125h-.516l-4.843.375v1s.718-.078 1.187-.078c2.094 0 2.25 1.672 2.5 3.219L7.516.313c-.953 1.468-3.688 5.328-4.344 5.328-.75 0-1.125-1.813-2.422-1.813-.781 0-1.328.438-1.328 1.469 0 1.266 1.187 2.219 2.625 2.219 2.594 0 4.672-3.688 7.812-8.032a92.551 92.551 0 0 0 5.579-8.64c1.093-1.844 1.5-3.375 1.5-4.703 0-1.469-.891-2.594-2.157-2.594-.984 0-1.5.609-1.5 1.328 0 1.297 1.672 2.25 1.672 3.141 0 .828-.312 1.64-1.125 2.968L9.906-2.703h-.203l-.312-3.406-.828-4.985z" style="fill:#fefefe;fill-rule:nonzero" transform="translate(442.148 87.783)"/></g><g><path d="M10.328 0v-.859c-2.203 0-2.875-.391-2.875-1.594v-13.485H6.422L2-14.719v.953c.625-.156 1.672-.328 2.188-.328.656 0 .875.36.875 1.219v10.422c0 1.203-.547 1.594-2.844 1.594V0h8.109z" style="fill:#fefefe;fill-rule:nonzero" transform="translate(458.018 94.951)"/></g><g><path d="m-3.031-17.781-3.688-5.235h-2.265l-3.688 5.235h1.344l3.469-3.36 3.531 3.36h1.297z" style="fill:#fefefe;fill-rule:nonzero" transform="translate(461.557 207.717)"/></g><g><path d="M8.563-11.094c-.407-2.734-.641-3.828-1.391-5.125h-.516l-4.843.375v1s.718-.078 1.187-.078c2.094 0 2.25 1.672 2.5 3.219L7.516.313c-.953 1.468-3.688 5.328-4.344 5.328-.75 0-1.125-1.813-2.422-1.813-.781 0-1.328.438-1.328 1.469 0 1.266 1.187 2.219 2.625 2.219 2.594 0 4.672-3.688 7.812-8.032a92.551 92.551 0 0 0 5.579-8.64c1.093-1.844 1.5-3.375 1.5-4.703 0-1.469-.891-2.594-2.157-2.594-.984 0-1.5.609-1.5 1.328 0 1.297 1.672 2.25 1.672 3.141 0 .828-.312 1.64-1.125 2.968L9.906-2.703h-.203l-.312-3.406-.828-4.985z" style="fill:#fefefe;fill-rule:nonzero" transform="translate(442.44 207.783)"/></g><g><path d="M11.688-4.156h-.844c-.625 1.547-.906 2.078-2.266 2.078H5.469l-1.86.094v-.172l2.985-2.891c2.656-2.594 4.328-4.344 4.328-6.687 0-2.704-2.031-4.297-4.875-4.297-2.469 0-4.156 1.359-4.953 3.578l.656.312c.875-1.547 1.984-2.187 3.703-2.187 1.86 0 2.953 1.219 2.953 2.906 0 2.703-1.265 4.141-3.937 6.813L1.078-1.172V0h9.797l.813-4.156z" style="fill:#fefefe;fill-rule:nonzero" transform="translate(458.312 214.951)"/></g><g><path d="m-3.031-17.781-3.688-5.235h-2.265l-3.688 5.235h1.344l3.469-3.36 3.531 3.36h1.297z" style="fill:#fefefe;fill-rule:nonzero" transform="translate(459.889 327.717)"/></g><g transform="translate(439.258 301.97)"><clipPath id="a"><path d="M.355 9H19v25H.355z"/></clipPath><g clip-path="url(#a)"><path d="M8.563-11.094c-.407-2.734-.641-3.828-1.391-5.125h-.516l-4.843.375v1s.718-.078 1.187-.078c2.094 0 2.25 1.672 2.5 3.219L7.516.313c-.953 1.468-3.688 5.328-4.344 5.328-.75 0-1.125-1.813-2.422-1.813-.781 0-1.328.438-1.328 1.469 0 1.266 1.187 2.219 2.625 2.219 2.594 0 4.672-3.688 7.812-8.032a92.551 92.551 0 0 0 5.579-8.64c1.093-1.844 1.5-3.375 1.5-4.703 0-1.469-.891-2.594-2.157-2.594-.984 0-1.5.609-1.5 1.328 0 1.297 1.672 2.25 1.672 3.141 0 .828-.312 1.64-1.125 2.968L9.906-2.703h-.203l-.312-3.406-.828-4.985z" style="fill:#fefefe;fill-rule:nonzero" transform="translate(4.513 25.813)"/></g></g><g><path d="M2-12.422c.797-1.297 1.844-1.906 3.25-1.906 1.516 0 2.594.781 2.594 2.265 0 2-1.844 3.25-3.547 3.25h-.5v1.125h.531c2.485 0 4.516 1.375 4.516 3.547C8.844-1.656 7.172-1 5.75-1c-.687 0-.922-.125-2.016-.656-.89-.5-1.109-.641-1.421-.641-.766 0-1.047.672-1.047 1.203 0 .688.531 1.407 2.843 1.407 3.625 0 6.969-1.579 6.969-5.11 0-2.328-1.687-3.609-3.703-4.141v-.109c1.563-1.016 2.75-1.922 2.75-3.641 0-1.953-1.687-3.343-4.25-3.343-1.984 0-3.609 1.093-4.562 3.281l.687.328z" style="fill:#fefefe;fill-rule:nonzero" transform="translate(458.645 334.951)"/></g><g><path d="M.576-.635H.344V0H.248v-.635H.015v-.082h.561v.082z" style="fill:#fff;fill-rule:nonzero" transform="matrix(0 -36 36 0 58.257 314.25)"/><path d="M.155-.405a.224.224 0 0 1 .059-.081.127.127 0 0 1 .116-.026.08.08 0 0 1 .027.011L.35-.435c-.002.009-.007.013-.015.013a.096.096 0 0 1-.02-.003.148.148 0 0 0-.074.004.115.115 0 0 0-.033.021.135.135 0 0 0-.027.034.245.245 0 0 0-.021.046V0H.071v-.507h.051c.009 0 .016.002.02.006.003.004.006.01.007.019l.006.077z" style="fill:#fff;fill-rule:nonzero" transform="matrix(0 -36 36 0 58.257 296.952)"/><path d="M.345-.228a.72.72 0 0 0-.105.01.297.297 0 0 0-.07.02.099.099 0 0 0-.04.029.066.066 0 0 0-.012.038c0 .014.002.025.007.035.004.01.01.018.017.024.008.006.017.01.027.013a.196.196 0 0 0 .076 0 .142.142 0 0 0 .036-.014.146.146 0 0 0 .033-.022.201.201 0 0 0 .031-.028v-.105zM.058-.435a.305.305 0 0 1 .09-.061.285.285 0 0 1 .108-.02c.028 0 .053.005.075.014.022.01.041.023.056.039a.172.172 0 0 1 .034.061c.007.024.011.05.011.078V0H.393C.384 0 .377-.001.373-.004a.027.027 0 0 1-.011-.017l-.01-.048a3.698 3.698 0 0 1-.039.033.423.423 0 0 1-.04.024.297.297 0 0 1-.045.015.29.29 0 0 1-.053.005A.192.192 0 0 1 .12 0a.136.136 0 0 1-.046-.025.108.108 0 0 1-.03-.042.137.137 0 0 1-.011-.06c0-.02.005-.039.016-.057a.147.147 0 0 1 .054-.05.34.34 0 0 1 .096-.035.802.802 0 0 1 .146-.016v-.039c0-.039-.008-.069-.025-.089a.094.094 0 0 0-.075-.031.176.176 0 0 0-.094.027.443.443 0 0 0-.028.019A.043.043 0 0 1 .1-.39a.025.025 0 0 1-.015-.005.032.032 0 0 1-.011-.012L.058-.435z" style="fill:#fff;fill-rule:nonzero" transform="matrix(0 -36 36 0 58.257 284.136)"/><path d="M.165-.507V0H.076v-.507h.089zm.019-.159a.054.054 0 0 1-.006.025.066.066 0 0 1-.014.02.053.053 0 0 1-.02.013.053.053 0 0 1-.025.005.047.047 0 0 1-.024-.005.053.053 0 0 1-.02-.013.063.063 0 0 1-.013-.02.053.053 0 0 1-.005-.025c0-.008.001-.016.005-.024a.057.057 0 0 1 .013-.021.06.06 0 0 1 .044-.019.07.07 0 0 1 .025.005.072.072 0 0 1 .02.014.06.06 0 0 1 .014.021.053.053 0 0 1 .006.024z" style="fill:#fff;fill-rule:nonzero" transform="matrix(0 -36 36 0 58.257 266.244)"/><path d="M.155-.433a.26.26 0 0 1 .118-.076.196.196 0 0 1 .123.008.138.138 0 0 1 .053.039.188.188 0 0 1 .033.061c.007.024.011.05.011.078V0h-.09v-.323a.139.139 0 0 0-.026-.089C.359-.433.333-.444.297-.444a.16.16 0 0 0-.074.019.236.236 0 0 0-.063.052V0H.071v-.507h.053c.013 0 .021.007.024.019l.007.055z" style="fill:#fff;fill-rule:nonzero" transform="matrix(0 -36 36 0 58.257 257.604)"/><path d="M.165-.507V0H.076v-.507h.089zm.019-.159a.054.054 0 0 1-.006.025.066.066 0 0 1-.014.02.053.053 0 0 1-.02.013.053.053 0 0 1-.025.005.047.047 0 0 1-.024-.005.053.053 0 0 1-.02-.013.063.063 0 0 1-.013-.02.053.053 0 0 1-.005-.025c0-.008.001-.016.005-.024a.057.057 0 0 1 .013-.021.06.06 0 0 1 .044-.019.07.07 0 0 1 .025.005.072.072 0 0 1 .02.014.06.06 0 0 1 .014.021.053.053 0 0 1 .006.024z" style="fill:#fff;fill-rule:nonzero" transform="matrix(0 -36 36 0 58.257 237.516)"/><path d="M.155-.433a.26.26 0 0 1 .118-.076.196.196 0 0 1 .123.008.138.138 0 0 1 .053.039.188.188 0 0 1 .033.061c.007.024.011.05.011.078V0h-.09v-.323a.139.139 0 0 0-.026-.089C.359-.433.333-.444.297-.444a.16.16 0 0 0-.074.019.236.236 0 0 0-.063.052V0H.071v-.507h.053c.013 0 .021.007.024.019l.007.055z" style="fill:#fff;fill-rule:nonzero" transform="matrix(0 -36 36 0 58.257 228.876)"/><path d="M.247-.248a.121.121 0 0 0 .048-.007.098.098 0 0 0 .034-.021.099.099 0 0 0 .028-.074.099.099 0 0 0-.028-.074C.31-.442.283-.451.247-.451c-.036 0-.063.009-.082.027a.099.099 0 0 0-.028.074.099.099 0 0 0 .028.074.114.114 0 0 0 .082.028zm.161.276a.045.045 0 0 0-.011-.031.085.085 0 0 0-.028-.018.226.226 0 0 0-.041-.009l-.05-.004-.053-.003a.766.766 0 0 1-.052-.005.147.147 0 0 0-.046.033.065.065 0 0 0 .018.103.157.157 0 0 0 .045.017.29.29 0 0 0 .129 0A.178.178 0 0 0 .367.093a.093.093 0 0 0 .03-.029.066.066 0 0 0 .011-.036zm.09-.515v.033c0 .011-.007.018-.021.021L.42-.425a.16.16 0 0 1-.037.192.193.193 0 0 1-.06.033.233.233 0 0 1-.076.011.241.241 0 0 1-.067-.008.086.086 0 0 0-.024.021.037.037 0 0 0-.009.023.03.03 0 0 0 .015.027.1.1 0 0 0 .039.013.292.292 0 0 0 .054.005 1.331 1.331 0 0 1 .126.011c.021.004.039.01.055.018a.11.11 0 0 1 .039.035.1.1 0 0 1 .015.057.13.13 0 0 1-.017.063.18.18 0 0 1-.046.054.24.24 0 0 1-.075.038.399.399 0 0 1-.197.004.247.247 0 0 1-.069-.03.128.128 0 0 1-.041-.043.102.102 0 0 1-.014-.05.09.09 0 0 1 .024-.064.17.17 0 0 1 .064-.042.088.088 0 0 1-.036-.026.072.072 0 0 1-.013-.046.06.06 0 0 1 .004-.022.134.134 0 0 1 .012-.024.152.152 0 0 1 .049-.041.157.157 0 0 1-.059-.055.153.153 0 0 1-.021-.081.16.16 0 0 1 .014-.067.158.158 0 0 1 .04-.052.188.188 0 0 1 .061-.033.265.265 0 0 1 .139-.004.218.218 0 0 1 .052.021h.137z" style="fill:#fff;fill-rule:nonzero" transform="matrix(0 -36 36 0 58.257 208.788)"/><path d="M.366-.423a.021.021 0 0 1-.019.011.576.576 0 0 1-.04-.018.299.299 0 0 0-.033-.012.153.153 0 0 0-.085 0 .112.112 0 0 0-.031.015.076.076 0 0 0-.02.024.067.067 0 0 0-.006.028c0 .013.003.024.011.033a.078.078 0 0 0 .03.022.204.204 0 0 0 .042.017l.048.016a.468.468 0 0 1 .048.018c.016.007.03.015.042.025.012.01.022.022.03.037a.117.117 0 0 1 .011.052.146.146 0 0 1-.049.116.177.177 0 0 1-.06.034.231.231 0 0 1-.082.013.26.26 0 0 1-.096-.017.231.231 0 0 1-.073-.045l.021-.034a.028.028 0 0 1 .009-.01.029.029 0 0 1 .014-.003c.006 0 .012.002.019.007a.252.252 0 0 0 .059.031.153.153 0 0 0 .051.007.13.13 0 0 0 .046-.007.083.083 0 0 0 .032-.018.064.064 0 0 0 .019-.027.08.08 0 0 0 .007-.032.049.049 0 0 0-.012-.034.1.1 0 0 0-.029-.024.35.35 0 0 0-.043-.017L.179-.23A.41.41 0 0 1 .13-.248a.175.175 0 0 1-.042-.026.126.126 0 0 1-.03-.038.133.133 0 0 1-.011-.056.133.133 0 0 1 .047-.102.159.159 0 0 1 .057-.033.247.247 0 0 1 .235.047l-.02.033z" style="fill:#fff;fill-rule:nonzero" transform="matrix(0 -36 36 0 58.257 190.068)"/><path d="M.401-.386a.155.155 0 0 0-.054-.047.154.154 0 0 0-.065-.013.13.13 0 0 0-.109.05.24.24 0 0 0-.038.144c0 .033.003.062.009.085a.148.148 0 0 0 .025.058.098.098 0 0 0 .04.033.146.146 0 0 0 .131-.009.216.216 0 0 0 .061-.057v-.244zM.49-.737V0H.437C.424 0 .416-.006.413-.019L.405-.08a.292.292 0 0 1-.074.063.19.19 0 0 1-.096.024.183.183 0 0 1-.079-.017.16.16 0 0 1-.061-.049.234.234 0 0 1-.038-.081.418.418 0 0 1 .001-.216.257.257 0 0 1 .043-.084.205.205 0 0 1 .24-.06.21.21 0 0 1 .06.044v-.281H.49z" style="fill:#fff;fill-rule:nonzero" transform="matrix(0 -36 36 0 58.257 174.48)"/><path d="M.345-.228a.72.72 0 0 0-.105.01.297.297 0 0 0-.07.02.099.099 0 0 0-.04.029.066.066 0 0 0-.012.038c0 .014.002.025.007.035.004.01.01.018.017.024.008.006.017.01.027.013a.196.196 0 0 0 .076 0 .142.142 0 0 0 .036-.014.146.146 0 0 0 .033-.022.201.201 0 0 0 .031-.028v-.105zM.058-.435a.305.305 0 0 1 .09-.061.285.285 0 0 1 .108-.02c.028 0 .053.005.075.014.022.01.041.023.056.039a.172.172 0 0 1 .034.061c.007.024.011.05.011.078V0H.393C.384 0 .377-.001.373-.004a.027.027 0 0 1-.011-.017l-.01-.048a3.698 3.698 0 0 1-.039.033.423.423 0 0 1-.04.024.297.297 0 0 1-.045.015.29.29 0 0 1-.053.005A.192.192 0 0 1 .12 0a.136.136 0 0 1-.046-.025.108.108 0 0 1-.03-.042.137.137 0 0 1-.011-.06c0-.02.005-.039.016-.057a.147.147 0 0 1 .054-.05.34.34 0 0 1 .096-.035.802.802 0 0 1 .146-.016v-.039c0-.039-.008-.069-.025-.089a.094.094 0 0 0-.075-.031.176.176 0 0 0-.094.027.443.443 0 0 0-.028.019A.043.043 0 0 1 .1-.39a.025.025 0 0 1-.015-.005.032.032 0 0 1-.011-.012L.058-.435z" style="fill:#fff;fill-rule:nonzero" transform="matrix(0 -36 36 0 58.257 154.32)"/><path d="M.226.008c-.04 0-.071-.011-.092-.034C.112-.048.101-.08.102-.122v-.31H.041a.022.022 0 0 1-.014-.005C.023-.44.022-.445.022-.452v-.035l.083-.011.02-.156a.019.019 0 0 1 .007-.012.02.02 0 0 1 .014-.005h.045v.174h.146v.065H.191v.304c0 .021.005.037.015.047.01.011.024.016.04.016A.06.06 0 0 0 .27-.069a.075.075 0 0 0 .018-.008l.013-.008A.012.012 0 0 1 .31-.089c.005 0 .009.003.013.008l.026.043a.175.175 0 0 1-.056.034.193.193 0 0 1-.067.012z" style="fill:#fff;fill-rule:nonzero" transform="matrix(0 -36 36 0 58.257 136.662)"/><path d="M.41-.309a.169.169 0 0 0-.009-.056.143.143 0 0 0-.026-.045.128.128 0 0 0-.04-.029.138.138 0 0 0-.055-.01.135.135 0 0 0-.101.037.173.173 0 0 0-.046.103H.41zm.072.238a.223.223 0 0 1-.089.059.358.358 0 0 1-.11.019.258.258 0 0 1-.097-.018.218.218 0 0 1-.126-.137.34.34 0 0 1-.002-.215.224.224 0 0 1 .22-.152c.03 0 .058.006.084.016a.19.19 0 0 1 .112.115c.01.028.016.06.016.096a.058.058 0 0 1-.005.028c-.003.005-.009.007-.017.007H.13c.001.032.005.06.013.083a.173.173 0 0 0 .033.06c.014.016.03.027.05.035a.191.191 0 0 0 .122.004.281.281 0 0 0 .071-.033.043.043 0 0 1 .021-.008c.007 0 .012.003.017.008l.025.033z" style="fill:#fff;fill-rule:nonzero" transform="matrix(0 -36 36 0 58.257 123.846)"/><path d="M.155-.433a.26.26 0 0 1 .118-.076.196.196 0 0 1 .123.008.138.138 0 0 1 .053.039.188.188 0 0 1 .033.061c.007.024.011.05.011.078V0h-.09v-.323a.139.139 0 0 0-.026-.089C.359-.433.333-.444.297-.444a.16.16 0 0 0-.074.019.236.236 0 0 0-.063.052V0H.071v-.507h.053c.013 0 .021.007.024.019l.007.055z" style="fill:#fff;fill-rule:nonzero" transform="matrix(0 -36 36 0 58.257 104.838)"/></g></svg>