<svg xmlns="http://www.w3.org/2000/svg" xmlns:xlink="http://www.w3.org/1999/xlink" width="100%" height="100%" viewBox="0 0 800 400" fill-rule="evenodd" stroke-linecap="round" stroke-linejoin="round" stroke-miterlimit="1.5" xmlns:v="https://vecta.io/nano"><style><![CDATA[.B{fill-rule:nonzero}.C{fill:none}.D{stroke:#000}.E{stroke-width:2}.F{fill:#ccdee9}.G{fill:#005a94}.H{fill:#fefefe}.I{stroke-width:2.005}]]></style><path d="M800 13.432C800 6.019 793.981 0 786.568 0H13.432C6.019 0 0 6.019 0 13.432v373.136C0 393.981 6.019 400 13.432 400h773.136c7.413 0 13.432-6.019 13.432-13.432V13.432z" fill="#f3f4f4"/><path d="M119 332l6 3-6 3v-6z"/><path d="M75 335h45.2" class="C D E"/><g transform="matrix(1 0 0 1.08333 0 -21.6667)"><use xlink:href="#B" transform="matrix(0 -.25427 .563139 0 -97.6278 145.085)" class="F"/><g transform="matrix(0 -.923077 1 0 5 215.577)" fill="#fff" class="B"><path d="M109.651 21.598h-5.568v15.24h-2.304v-15.24h-5.592V19.63h13.464v1.968zm1.428 5.52c.384-.84.864-1.488 1.416-1.944.552-.48 1.248-.72 2.064-.72.24 0 .48.048.72.096a1.94 1.94 0 0 1 .648.264l-.168 1.584c-.048.216-.168.312-.36.312-.12 0-.264-.024-.48-.072s-.48-.072-.744-.072c-.384 0-.72.048-1.032.168a2.77 2.77 0 0 0-.792.504 3.24 3.24 0 0 0-.648.816c-.192.312-.36.696-.504 1.104v7.68h-2.136V24.67h1.224c.216 0 .384.048.48.144.072.096.144.24.168.456l.144 1.848z"/><use xlink:href="#C"/><use xlink:href="#D"/><use xlink:href="#E"/><use xlink:href="#D" x="19.152"/><use xlink:href="#E" x="19.152"/><use xlink:href="#F"/><path d="M187.399 26.686c-.096.168-.264.264-.456.264-.12 0-.264-.048-.408-.144l-.552-.288c-.216-.096-.48-.192-.792-.288s-.672-.144-1.08-.144c-.36 0-.672.048-.96.144s-.552.216-.744.36c-.216.168-.36.36-.48.576a1.61 1.61 0 0 0-.144.672c0 .312.072.576.264.792.168.216.408.384.72.528.288.168.624.288 1.008.408l1.152.384c.384.12.768.264 1.152.432a4.15 4.15 0 0 1 1.008.6 2.93 2.93 0 0 1 .72.888c.168.336.264.768.264 1.248 0 .552-.096 1.08-.288 1.56-.216.48-.504.888-.888 1.224-.408.36-.888.624-1.44.816-.576.216-1.224.312-1.968.312-.864 0-1.632-.144-2.304-.408-.696-.288-1.272-.624-1.752-1.08l.504-.816a.68.68 0 0 1 .216-.24c.096-.048.192-.072.336-.072s.288.048.456.168a6.04 6.04 0 0 0 .576.36 4.6 4.6 0 0 0 .84.384c.336.12.744.168 1.224.168.408 0 .792-.048 1.104-.168a2 2 0 0 0 .768-.432c.216-.192.36-.384.456-.648.096-.216.168-.48.168-.768 0-.336-.096-.6-.288-.816-.168-.216-.408-.408-.696-.576a8.41 8.41 0 0 0-1.032-.408l-1.152-.36a9.82 9.82 0 0 1-1.176-.432 4.21 4.21 0 0 1-1.008-.624c-.288-.24-.528-.552-.72-.912-.168-.36-.264-.816-.264-1.344 0-.456.096-.888.288-1.32s.48-.816.84-1.128c.36-.336.816-.6 1.368-.792.528-.168 1.128-.288 1.824-.288.792 0 1.512.144 2.16.384.624.264 1.176.6 1.656 1.032l-.48.792zm3.12 2.04h5.928v1.824h-5.928zm-63.93 22.848c-.408-.528-.84-.912-1.296-1.128-.48-.216-.984-.312-1.56-.312-1.128 0-2.016.408-2.616 1.2-.6.816-.912 1.968-.912 3.456 0 .792.072 1.488.216 2.04.12.576.336 1.032.6 1.392s.576.624.96.792.816.264 1.32.264c.696 0 1.296-.168 1.824-.48s1.008-.768 1.464-1.368v-5.856zm2.136-8.424v17.688h-1.272c-.312 0-.504-.144-.576-.456l-.192-1.464c-.528.624-1.128 1.128-1.776 1.512-.672.384-1.44.576-2.304.576-.696 0-1.344-.144-1.896-.408-.576-.264-1.056-.648-1.464-1.176s-.696-1.176-.912-1.944-.336-1.68-.336-2.688c0-.888.12-1.728.36-2.496s.576-1.44 1.032-2.016c.456-.552 1.008-1.008 1.656-1.32.648-.336 1.392-.504 2.208-.504.744 0 1.368.144 1.896.384a5.06 5.06 0 0 1 1.44 1.056V43.15h2.136z"/><use xlink:href="#C" x="14.502" y="24"/><use xlink:href="#G"/><use xlink:href="#H"/><use xlink:href="#I"/></g></g><g transform="matrix(1 0 0 1.08333 0 113.333)"><use xlink:href="#B" transform="matrix(0 -.25427 .563139 0 -97.6278 145.085)" class="F"/><g transform="matrix(0 -.923077 1 0 5 223.077)" fill="#fff" class="B"><use xlink:href="#F" x="-69.377"/><use xlink:href="#H" x="-41.675" y="-24"/><use xlink:href="#J"/><use xlink:href="#D" x="12.619"/><use xlink:href="#K"/><use xlink:href="#L"/><use xlink:href="#G" x="28.717" y="-24"/><use xlink:href="#H" x="28.717" y="-24"/><use xlink:href="#G" x="49.849" y="-24"/><use xlink:href="#H" x="49.849" y="-24"/><use xlink:href="#M"/><use xlink:href="#C" x="24.877" y="24"/><use xlink:href="#G" x="10.375"/><use xlink:href="#H" x="10.375"/><use xlink:href="#I" x="10.375"/></g></g><g transform="matrix(1 0 0 1.08333 0 248.333)"><use xlink:href="#B" transform="matrix(0 -.25427 .563139 0 -97.6278 145.085)" class="F"/><g transform="matrix(0 -.923077 1 0 5 223.077)" fill="#fff" class="B"><use xlink:href="#F" x="-69.377"/><use xlink:href="#H" x="-41.675" y="-24"/><use xlink:href="#J"/><use xlink:href="#D" x="12.619"/><use xlink:href="#K"/><use xlink:href="#L"/><use xlink:href="#G" x="28.717" y="-24"/><use xlink:href="#H" x="28.717" y="-24"/><use xlink:href="#G" x="49.849" y="-24"/><use xlink:href="#H" x="49.849" y="-24"/><use xlink:href="#M"/><use xlink:href="#C" x="24.877" y="24"/><use xlink:href="#G" x="10.375"/><use xlink:href="#H" x="10.375"/><use xlink:href="#I" x="10.375"/></g></g><circle cx="150" cy="190" r="30" transform="matrix(1 0 0 -1 305 260)" class="G"/><g class="B H"><use xlink:href="#N"/><use xlink:href="#O"/><path d="M469.388 84.951v-.859c-2.203 0-2.875-.391-2.875-1.594V69.013h-1.031l-4.422 1.219v.953c.625-.156 1.672-.328 2.188-.328.656 0 .875.36.875 1.219v10.422c0 1.203-.547 1.594-2.844 1.594v.859h8.109z"/></g><g class="G"><circle cx="150" cy="190" r="30" transform="matrix(1 0 0 -1 595.308 390)"/><circle cx="150" cy="190" r="30" transform="matrix(1 0 0 -1 304.958 390)"/></g><path d="M119 67l6 3-6 3v-6z"/><path d="M75 70h45.2" class="C D E"/><path d="M119 196.375l6 3-6 3v-6z"/><g class="C D"><path d="M75 199.375h45.2M533.958 20v360l131.35-180-131.35-180z" class="E"/><path d="M125 40h250V100H125z" class="I"/></g><g class="B"><use xlink:href="#P"/><use xlink:href="#Q"/><use xlink:href="#R"/><use xlink:href="#S"/><path d="M264.08 52.625h1.78v14.74h-1.78zm4.72 0h1.78v14.74h-1.78zm18.54 13.38v1.36h-7.68v-1.36h3.08v-9.78l.02-.88-2.54 2.18a.67.67 0 0 1-.26.14.48.48 0 0 1-.24 0 .42.42 0 0 1-.22-.08.87.87 0 0 1-.14-.12l-.56-.78 4.28-3.68h1.44v13h2.82z"/><use xlink:href="#T"/><use xlink:href="#U"/><use xlink:href="#V"/><use xlink:href="#W"/><use xlink:href="#V" x="17.65"/><path d="M191.37 85.785l-.02 1.58h-8.82v-14.34h8.82v1.58h-6.88v4.76h5.58v1.52h-5.58v4.9h6.9z"/><use xlink:href="#X"/><use xlink:href="#Y"/><use xlink:href="#Z"/><use xlink:href="#a"/><use xlink:href="#b"/><use xlink:href="#S" x="-12.52" y="20"/><use xlink:href="#c"/><use xlink:href="#R" x="14.04" y="20"/><use xlink:href="#d"/><use xlink:href="#X" x="85.27"/><use xlink:href="#e"/><use xlink:href="#Z" x="88.64"/><use xlink:href="#f"/><use xlink:href="#g"/><use xlink:href="#d" x="62.51"/><use xlink:href="#h"/><use xlink:href="#i"/></g><path d="M125 169.375h250v60.001H125z" class="C D I"/><g class="B"><path d="M227.98 182.4v14.34h-1.7V186.2l.02-.44c0-.16.02-.32.04-.5l-4.92 8.96c-.16.3-.4.46-.7.46h-.28c-.32 0-.56-.16-.7-.46l-5.02-9 .06.98v10.54h-1.7V182.4h1.42a1.05 1.05 0 0 1 .4.06c.1.04.18.12.28.28l4.94 8.82.24.5.22.52.2-.52.24-.52 4.86-8.8c.08-.16.16-.24.26-.28s.24-.06.42-.06h1.42z"/><use xlink:href="#Q" y="129.375"/><path d="M248.86 189.02c-.34-.44-.7-.76-1.08-.94-.4-.18-.82-.26-1.3-.26-.94 0-1.68.34-2.18 1-.5.68-.76 1.64-.76 2.88 0 .66.06 1.24.18 1.7a2.95 2.95 0 0 0 .5 1.16 1.95 1.95 0 0 0 .8.66c.32.14.68.22 1.1.22.58 0 1.08-.14 1.52-.4s.84-.64 1.22-1.14v-4.88zm1.78-7.02v14.74h-1.06a.44.44 0 0 1-.48-.38l-.16-1.22a5.84 5.84 0 0 1-1.48 1.26c-.56.32-1.2.48-1.92.48-.58 0-1.12-.12-1.58-.34-.48-.22-.88-.54-1.22-.98s-.58-.98-.76-1.62-.28-1.4-.28-2.24c0-.74.1-1.44.3-2.08s.48-1.2.86-1.68c.38-.46.84-.84 1.38-1.1.54-.28 1.16-.42 1.84-.42.62 0 1.14.12 1.58.32.44.22.84.5 1.2.88V182h1.78z"/><use xlink:href="#S" y="129.375"/><path d="M264.08 182h1.78v14.74h-1.78zm4.72 0h1.78v14.74h-1.78zm18.24 13.04c.18 0 .34.06.46.18a.66.66 0 0 1 .16.44v1.08h-9.56v-.62c0-.12.02-.24.08-.38s.14-.26.26-.38l4.58-4.6 1.04-1.12a7.5 7.5 0 0 0 .8-1.08c.22-.36.4-.72.52-1.08a3.87 3.87 0 0 0 .18-1.2 3.08 3.08 0 0 0-.2-1.1c-.14-.32-.32-.58-.56-.78-.22-.2-.5-.36-.8-.46-.32-.1-.66-.16-1.02-.16s-.7.06-1 .16c-.32.1-.58.26-.82.44a2.77 2.77 0 0 0-.6.68 2.5 2.5 0 0 0-.34.86c-.08.24-.18.38-.32.46s-.34.1-.58.06l-.92-.16c.08-.64.26-1.22.54-1.72.26-.5.6-.94 1.02-1.28.4-.34.88-.58 1.4-.76s1.1-.28 1.72-.28c.6 0 1.16.1 1.7.28.52.18.98.44 1.36.78a3.67 3.67 0 0 1 .92 1.26 4.49 4.49 0 0 1 .32 1.68c0 .54-.08 1.02-.24 1.48s-.38.9-.64 1.3a10.69 10.69 0 0 1-.96 1.22l-1.12 1.18-3.78 3.86.8-.16.8-.08h4.8z"/><use xlink:href="#T" y="129.375"/><path d="M152.56 207.36c0 .14-.02.26-.06.38s-.1.22-.18.3l-5.48 7.3h5.54v1.4h-7.64V216c0-.08.02-.18.06-.3a1.11 1.11 0 0 1 .18-.34l5.52-7.36h-5.44v-1.4h7.5v.76z"/><use xlink:href="#V" y="129.375"/><path d="M164.78 215.2c.56 0 1.04-.06 1.44-.2.4-.12.72-.3.98-.52.26-.24.44-.5.56-.82s.18-.68.18-1.06c0-.74-.26-1.32-.78-1.74-.54-.44-1.32-.66-2.38-.66h-3.1v5h3.1zm-3.1-11.26v4.88h2.56c.54 0 1.02-.06 1.42-.18s.74-.28 1-.5a2.03 2.03 0 0 0 .6-.76c.12-.3.18-.64.18-1 0-.84-.26-1.46-.76-1.86-.5-.38-1.3-.58-2.36-.58h-2.64zm2.64-1.54c.88 0 1.64.1 2.28.26.64.18 1.16.42 1.56.74.42.32.72.72.92 1.18.18.46.28.98.28 1.56 0 .36-.06.7-.16 1.02-.12.32-.28.62-.5.9a3.44 3.44 0 0 1-.84.76 4.59 4.59 0 0 1-1.18.54c1.06.2 1.84.58 2.38 1.14.52.54.8 1.26.8 2.16 0 .6-.12 1.16-.34 1.66s-.56.92-.98 1.28c-.44.36-.96.64-1.58.84-.64.2-1.34.3-2.14.3h-5.06V202.4h4.56z"/><use xlink:href="#V" x="17.65" y="129.375"/><path d="M191.37 215.16l-.02 1.58h-8.82V202.4h8.82v1.58h-6.88v4.76h5.58v1.52h-5.58v4.9h6.9z"/><use xlink:href="#j"/><use xlink:href="#Y" y="129.375"/><use xlink:href="#Z" y="129.375"/><use xlink:href="#a" y="129.375"/><path d="M231.56 207.96c.44-.46.92-.82 1.44-1.1s1.14-.42 1.82-.42c.56 0 1.04.1 1.46.28s.78.44 1.06.78.5.74.66 1.22c.14.48.22 1 .22 1.56v6.46h-1.8v-6.46c0-.76-.18-1.36-.52-1.78-.36-.42-.88-.64-1.6-.64-.52 0-1.02.14-1.48.38a4.72 4.72 0 0 0-1.26 1.04v7.46h-1.78V202h1.78v5.96z"/><use xlink:href="#S" x="-12.52" y="149.375"/><path d="M253.38 206.6v10.14h-1.78V206.6h1.78zm.38-3.18c0 .18-.04.34-.12.5a1.32 1.32 0 0 1-.28.4c-.12.12-.24.2-.4.26-.16.08-.32.1-.5.1s-.34-.02-.48-.1c-.16-.06-.28-.14-.4-.26a1.25 1.25 0 0 1-.26-.4c-.08-.16-.1-.32-.1-.5 0-.16.02-.32.1-.48.06-.16.14-.3.26-.42s.24-.2.4-.28a1.21 1.21 0 0 1 .48-.1c.18 0 .34.04.5.1.16.08.28.16.4.28a1.19 1.19 0 0 1 .28.42c.08.16.12.32.12.48zm9.14 5.6c-.34-.44-.7-.76-1.08-.94-.4-.18-.82-.26-1.3-.26-.94 0-1.68.34-2.18 1-.5.68-.76 1.64-.76 2.88 0 .66.06 1.24.18 1.7a2.95 2.95 0 0 0 .5 1.16 1.95 1.95 0 0 0 .8.66c.32.14.68.22 1.1.22.58 0 1.08-.14 1.52-.4s.84-.64 1.22-1.14v-4.88zm1.78-7.02v14.74h-1.06a.44.44 0 0 1-.48-.38l-.16-1.22a5.84 5.84 0 0 1-1.48 1.26c-.56.32-1.2.48-1.92.48-.58 0-1.12-.12-1.58-.34-.48-.22-.88-.54-1.22-.98s-.58-.98-.76-1.62-.28-1.4-.28-2.24c0-.74.1-1.44.3-2.08s.48-1.2.86-1.68c.38-.46.84-.84 1.38-1.1.54-.28 1.16-.42 1.84-.42.62 0 1.14.12 1.58.32.44.22.84.5 1.2.88V202h1.78z"/><use xlink:href="#d" y="129.375"/><use xlink:href="#j" x="85.27"/><use xlink:href="#e" y="129.375"/><use xlink:href="#Z" x="88.64" y="129.375"/><path d="M310.65 214.3c.32.44.68.74 1.08.92a3 3 0 0 0 1.28.28c.96 0 1.68-.34 2.2-1.02.5-.66.76-1.66.76-3 0-1.24-.24-2.16-.68-2.74-.46-.58-1.1-.88-1.92-.88-.58 0-1.1.14-1.52.4-.44.28-.84.66-1.2 1.14v4.9zm0-6.24c.42-.48.9-.88 1.44-1.18a3.99 3.99 0 0 1 1.86-.44c.6 0 1.12.12 1.6.34.48.24.88.56 1.22 1 .34.42.58.94.76 1.56a7.33 7.33 0 0 1 .28 2.06c0 .82-.1 1.58-.3 2.24-.2.68-.5 1.26-.88 1.74s-.82.84-1.36 1.1-1.16.4-1.82.4c-.68 0-1.24-.12-1.7-.38-.46-.24-.86-.6-1.18-1.06l-.1.92c-.06.26-.2.38-.46.38h-1.14V202h1.78v6.06z"/><use xlink:href="#g" y="129.375"/><use xlink:href="#d" x="62.51" y="129.375"/><path d="M341.16 216.74V206.6h1.06c.26 0 .42.14.48.38l.12 1.04c.38-.46.8-.84 1.26-1.14.46-.28 1-.44 1.62-.44.68 0 1.24.2 1.66.58s.72.9.92 1.54c.14-.36.32-.68.56-.96.22-.26.48-.48.78-.66a3.58 3.58 0 0 1 .9-.38 4.15 4.15 0 0 1 1-.12 3.99 3.99 0 0 1 1.42.26 3.07 3.07 0 0 1 1.06.74c.28.34.5.74.66 1.22s.22 1.02.24 1.62v6.46h-1.8v-6.46c0-.78-.18-1.38-.52-1.8-.34-.4-.84-.62-1.5-.62-.3 0-.58.06-.84.16a1.95 1.95 0 0 0-.68.46c-.2.2-.36.46-.48.76s-.18.66-.18 1.04v6.46h-1.78v-6.46c0-.8-.18-1.42-.5-1.82s-.8-.6-1.42-.6a2.18 2.18 0 0 0-1.22.36c-.38.24-.72.56-1.04.96v7.56h-1.78z"/><use xlink:href="#i" y="129.375"/></g><g transform="matrix(1 0 0 1 -90 173.09)" class="B"><path d="M632.725 25.59h.74c.24 0 .44-.02.6-.08s.3-.18.42-.34l4.78-5.4a1.19 1.19 0 0 1 .42-.36 1.37 1.37 0 0 1 .54-.1h1.64l-5.46 6.18c-.14.16-.28.3-.4.4s-.26.18-.38.24c.18.06.34.16.48.28s.3.26.44.44l5.7 6.8h-1.68c-.14 0-.24 0-.34-.02-.08-.02-.16-.04-.22-.08-.08-.04-.14-.08-.18-.14-.06-.04-.1-.1-.14-.18l-4.94-5.68c-.14-.16-.28-.28-.44-.36-.16-.06-.38-.1-.7-.1h-.88v6.56h-1.92V19.31h1.92v6.28z"/><use xlink:href="#Q" x="411.955" y="-33.715"/><path d="M654.215 33.65V23.51h1.06c.26 0 .42.14.48.38l.12 1.04c.38-.46.8-.84 1.26-1.14.46-.28 1-.44 1.62-.44.68 0 1.24.2 1.66.58s.72.9.92 1.54c.14-.36.32-.68.56-.96.22-.26.48-.48.78-.66a3.58 3.58 0 0 1 .9-.38 4.15 4.15 0 0 1 1-.12 3.99 3.99 0 0 1 1.42.26 3.07 3.07 0 0 1 1.06.74c.28.34.5.74.66 1.22s.22 1.02.24 1.62v6.46h-1.8v-6.46c0-.78-.18-1.38-.52-1.8-.34-.4-.84-.62-1.5-.62-.3 0-.58.06-.84.16a1.95 1.95 0 0 0-.68.46c-.2.2-.36.46-.48.76s-.18.66-.18 1.04v6.46h-1.78v-6.46c0-.8-.18-1.42-.5-1.82s-.8-.6-1.42-.6a2.18 2.18 0 0 0-1.22.36c-.38.24-.72.56-1.04.96v7.56h-1.78zm18.23-2.44c.32.44.68.74 1.08.92a3 3 0 0 0 1.28.28c.96 0 1.68-.34 2.2-1.02.5-.66.76-1.66.76-3 0-1.24-.24-2.16-.68-2.74-.46-.58-1.1-.88-1.92-.88-.58 0-1.1.14-1.52.4-.44.28-.84.66-1.2 1.14v4.9zm0-6.24c.42-.48.9-.88 1.44-1.18a3.99 3.99 0 0 1 1.86-.44c.6 0 1.12.12 1.6.34.48.24.88.56 1.22 1 .34.42.58.94.76 1.56a7.33 7.33 0 0 1 .28 2.06c0 .82-.1 1.58-.3 2.24-.2.68-.5 1.26-.88 1.74s-.82.84-1.36 1.1-1.16.4-1.82.4c-.68 0-1.24-.12-1.7-.38-.46-.24-.86-.6-1.18-1.06l-.1.92c-.06.26-.2.38-.46.38h-1.14V18.91h1.78v6.06zm11.3-1.46v10.14h-1.78V23.51h1.78zm.38-3.18c0 .18-.04.34-.12.5a1.32 1.32 0 0 1-.28.4c-.12.12-.24.2-.4.26-.16.08-.32.1-.5.1s-.34-.02-.48-.1c-.16-.06-.28-.14-.4-.26a1.25 1.25 0 0 1-.26-.4c-.08-.16-.1-.32-.1-.5 0-.16.02-.32.1-.48.06-.16.14-.3.26-.42s.24-.2.4-.28a1.21 1.21 0 0 1 .48-.1c.18 0 .34.04.5.1.16.08.28.16.4.28a1.19 1.19 0 0 1 .28.42c.08.16.12.32.12.48z"/><use xlink:href="#k"/><use xlink:href="#g" x="377.755" y="-53.715"/><path d="M717.035 33.65h-1.78v-8.64h-5.22v6.08c0 .42.1.74.3.94.2.22.48.32.8.32a1.21 1.21 0 0 0 .48-.08 1.5 1.5 0 0 0 .36-.16l.26-.16c.06-.06.12-.08.18-.08.1 0 .18.06.26.16l.52.86a3.5 3.5 0 0 1-1.12.68c-.44.16-.88.24-1.34.24-.8 0-1.42-.22-1.84-.68-.44-.44-.66-1.08-.64-1.92v-6.2h-1.22c-.12 0-.2-.04-.28-.1s-.1-.16-.1-.3v-.7l1.66-.22.4-3.12a.37.37 0 0 1 .14-.24c.06-.06.16-.1.28-.1h.9v3.48h7v9.94zm.44-13.38a.95.95 0 0 1-.12.48c-.06.16-.16.28-.28.4s-.24.2-.4.26c-.16.08-.32.1-.48.1-.18 0-.34-.02-.5-.1-.14-.06-.28-.14-.38-.26-.12-.12-.22-.24-.28-.4a1.21 1.21 0 0 1-.1-.48c0-.18.04-.34.1-.5s.16-.28.28-.4c.1-.12.24-.22.38-.28.16-.06.32-.1.5-.1.16 0 .32.04.48.1s.28.16.4.28.22.24.28.4c.08.16.12.32.12.5z"/><use xlink:href="#Q" x="489.035" y="-33.715"/><use xlink:href="#k" x="44.63"/></g><circle cx="150" cy="190" r="30" transform="matrix(1 0 0 -1 305 530)" class="G"/><g class="B H"><use xlink:href="#N" x="-2.374" y="270"/><use xlink:href="#O" x="-2.376" y="270"/><path d="M458.687 342.529c.797-1.297 1.844-1.906 3.25-1.906 1.516 0 2.594.781 2.594 2.265 0 2-1.844 3.25-3.547 3.25h-.5v1.125h.531c2.485 0 4.516 1.375 4.516 3.547 0 2.485-1.672 3.141-3.094 3.141-.687 0-.922-.125-2.016-.656-.89-.5-1.109-.641-1.421-.641-.766 0-1.047.672-1.047 1.203 0 .688.531 1.407 2.843 1.407 3.625 0 6.969-1.579 6.969-5.11 0-2.328-1.687-3.609-3.703-4.141v-.109c1.563-1.016 2.75-1.922 2.75-3.641 0-1.953-1.687-3.343-4.25-3.343-1.984 0-3.609 1.093-4.562 3.281l.687.328z"/></g><path d="M156.071 137.767v4.016h4.704v1.264h-4.704v4.928h-1.552v-11.472h7.056v1.264h-5.504z" class="B"/><use xlink:href="#l" class="B"/><use xlink:href="#m" class="B"/><path d="M179.959 136.183h1.424v11.792h-1.424z" class="B"/><use xlink:href="#l" x="21.152" class="B"/><use xlink:href="#n" class="B"/><use xlink:href="#o" class="B"/><path d="M215.159 143.383h6.88v1.072h-6.88v-1.072zm0-2.688h6.88v1.088h-6.88v-1.088zm17.024 1.76a3.66 3.66 0 0 0 1.168-.176c.336-.112.624-.288.864-.496.224-.208.4-.464.528-.752.112-.288.176-.608.176-.976 0-.72-.24-1.296-.688-1.712-.448-.4-1.136-.608-2.048-.608h-1.84v4.72h1.84zm0-5.952a6.57 6.57 0 0 1 1.888.256c.544.176.992.416 1.344.72s.608.688.784 1.12.256.928.256 1.456c0 .544-.096 1.024-.272 1.472-.192.448-.464.816-.832 1.136-.352.32-.8.576-1.328.752s-1.152.272-1.84.272h-1.84v4.288h-1.536v-11.472h3.376z" class="B"/><use xlink:href="#n" x="45.792" class="B"/><use xlink:href="#p" class="B"/><use xlink:href="#q" class="B"/><path d="M262.119 141.047a6.02 6.02 0 0 1 .56-.544 4.15 4.15 0 0 1 .624-.4c.224-.112.448-.208.704-.272.24-.064.512-.096.8-.096.448 0 .832.08 1.168.224s.624.352.848.624.4.592.528.976c.112.384.176.8.176 1.248v5.168h-1.44v-5.168c0-.608-.144-1.088-.416-1.424-.288-.336-.704-.512-1.28-.512-.416 0-.816.112-1.184.304-.368.208-.704.48-1.008.832v5.968h-1.424v-8.112h.848c.208 0 .336.112.384.304l.112.88z" class="B"/><use xlink:href="#p" x="26.28" class="B"/><use xlink:href="#r" class="B"/><use xlink:href="#l" x="123.168" class="B"/><use xlink:href="#o" x="96.528" class="B"/><path d="M311.495 142.567h3.952v1.216h-3.952z" class="B"/><use xlink:href="#s" class="B"/><path d="M331.783 144.327c-.656.016-1.216.08-1.68.16s-.832.192-1.12.32-.512.288-.64.464c-.128.192-.192.384-.192.608s.032.4.112.56a.98.98 0 0 0 .272.384c.128.096.272.16.432.208s.336.064.528.064c.24 0 .48-.016.688-.064a2.27 2.27 0 0 0 .576-.224c.192-.096.368-.208.528-.352a3.22 3.22 0 0 0 .496-.448v-1.68zm-4.592-3.312c.448-.432.928-.752 1.44-.976.512-.208 1.088-.32 1.728-.32.448 0 .848.08 1.2.224.352.16.656.368.896.624.24.272.416.592.544.976.112.384.176.8.176 1.248v5.184h-.624c-.144 0-.256-.016-.32-.064-.08-.048-.144-.144-.176-.272l-.16-.768-.624.528a6.77 6.77 0 0 1-.64.384 4.75 4.75 0 0 1-.72.24c-.256.048-.544.08-.848.08-.32 0-.608-.048-.88-.128-.288-.096-.528-.224-.736-.4s-.368-.4-.48-.672c-.128-.272-.176-.576-.176-.96a1.71 1.71 0 0 1 .256-.912c.176-.304.464-.56.864-.8.384-.224.896-.416 1.536-.56s1.408-.224 2.336-.256v-.624c0-.624-.128-1.104-.4-1.424s-.672-.496-1.2-.496c-.352 0-.64.048-.88.144a2.82 2.82 0 0 0-.624.288l-.448.304c-.128.08-.24.128-.368.128-.096 0-.176-.032-.24-.08-.08-.048-.128-.112-.176-.192l-.256-.448z" class="B"/><use xlink:href="#s" x="13.584" class="B"/><use xlink:href="#r" x="62.208" class="B"/><path d="M352.295 144.327c-.656.016-1.216.08-1.68.16s-.832.192-1.12.32-.512.288-.64.464c-.128.192-.192.384-.192.608s.032.4.112.56a.98.98 0 0 0 .272.384c.128.096.272.16.432.208s.336.064.528.064c.24 0 .48-.016.688-.064a2.27 2.27 0 0 0 .576-.224c.192-.096.368-.208.528-.352a3.22 3.22 0 0 0 .496-.448v-1.68zm-4.592-3.312c.448-.432.928-.752 1.44-.976.512-.208 1.088-.32 1.728-.32.448 0 .848.08 1.2.224.352.16.656.368.896.624.24.272.416.592.544.976.112.384.176.8.176 1.248v5.184h-.624c-.144 0-.256-.016-.32-.064-.08-.048-.144-.144-.176-.272l-.16-.768-.624.528a6.77 6.77 0 0 1-.64.384 4.75 4.75 0 0 1-.72.24c-.256.048-.544.08-.848.08-.32 0-.608-.048-.88-.128-.288-.096-.528-.224-.736-.4s-.368-.4-.48-.672c-.128-.272-.176-.576-.176-.96a1.71 1.71 0 0 1 .256-.912c.176-.304.464-.56.864-.8.384-.224.896-.416 1.536-.56s1.408-.224 2.336-.256v-.624c0-.624-.128-1.104-.4-1.424s-.672-.496-1.2-.496c-.352 0-.64.048-.88.144a2.82 2.82 0 0 0-.624.288l-.448.304c-.128.08-.24.128-.368.128-.096 0-.176-.032-.24-.08-.08-.048-.128-.112-.176-.192l-.256-.448zm2.368-3.36c0 .128-.032.24-.08.352s-.112.192-.192.272c-.096.096-.192.16-.304.192a.86.86 0 0 1-.336.08c-.128 0-.24-.032-.336-.08-.112-.032-.208-.096-.288-.192-.08-.08-.16-.16-.192-.272a.67.67 0 0 1-.08-.352c0-.112.016-.24.08-.352.032-.112.112-.208.192-.288a.91.91 0 0 1 .288-.192c.096-.048.208-.064.336-.08.112.016.224.032.336.08s.208.112.304.192a.91.91 0 0 1 .192.288c.048.112.08.24.08.352zm3.04 0a.86.86 0 0 1-.064.352c-.048.112-.128.192-.208.272-.08.096-.176.16-.288.192a.86.86 0 0 1-.336.08c-.128 0-.24-.032-.352-.08-.112-.032-.208-.096-.288-.192-.08-.08-.144-.16-.192-.272a.86.86 0 0 1-.064-.352c0-.112.016-.24.064-.352a.91.91 0 0 1 .48-.48c.112-.048.224-.064.352-.08.112.016.224.032.336.08a.91.91 0 0 1 .288.192.95.95 0 0 1 .208.288c.048.112.064.24.064.352z" class="B"/><use xlink:href="#t" class="B"/><use xlink:href="#m" x="192.52" class="B"/><path d="M372.479 136.183h1.424v11.792h-1.424zm5.232 3.68v8.112h-1.424v-8.112h1.424zm.304-2.544c0 .144-.032.272-.096.4-.048.112-.128.224-.224.32a.85.85 0 0 1-.32.208c-.128.064-.256.08-.4.08s-.272-.016-.384-.08a.85.85 0 0 1-.32-.208 1 1 0 0 1-.208-.32c-.064-.128-.08-.256-.08-.4a.83.83 0 0 1 .08-.384c.048-.128.112-.24.208-.336a1.15 1.15 0 0 1 .32-.224c.112-.048.24-.08.384-.08s.272.032.4.08a1.15 1.15 0 0 1 .32.224c.096.096.176.208.224.336a.85.85 0 0 1 .096.384z" class="B"/><use xlink:href="#t" x="24.184" class="B"/><use xlink:href="#m" x="216.704" class="B"/><use xlink:href="#l" x="234.08" class="B"/><use xlink:href="#n" x="212.928" class="B"/><path d="M429.615 136.503l-3.568 11.472h-1.392l-2.912-8.752c-.032-.08-.048-.176-.08-.272l-.064-.304-.08.304-.08.272-2.928 8.752h-1.392l-3.568-11.472h1.28c.144 0 .256.048.352.112s.144.16.176.256l2.368 7.968.112.464.096.528.112-.528.144-.464 2.688-7.968c.032-.08.096-.16.192-.24s.208-.128.336-.128h.448c.144 0 .256.048.336.112a.77.77 0 0 1 .192.256l2.688 7.968.128.448.128.512a4.9 4.9 0 0 1 .08-.512l.112-.448 2.368-7.968a.53.53 0 0 1 .176-.256c.096-.064.208-.112.352-.112h1.2z" class="B"/><use xlink:href="#l" x="267.56" class="B"/><use xlink:href="#n" x="246.408" class="B"/><use xlink:href="#s" x="122.704" class="B"/><path d="M723.233 142.091v-8.62l-1.12-.12c-.16-.04-.28-.08-.36-.16-.08-.06-.12-.16-.12-.3v-.74h1.6v-.56c0-.62.08-1.18.28-1.7s.48-.96.88-1.34c.38-.36.86-.66 1.44-.86s1.24-.32 2-.32c.26 0 .52.02.78.06l.7.14-.08.94c0 .06-.04.12-.08.14s-.1.04-.16.04c-.08.02-.18.02-.28.02-.12 0-.24 0-.38-.02-1.18.02-2.04.26-2.58.74-.54.5-.8 1.24-.8 2.22v.5h6.12v9.94h-1.78v-8.64h-4.28v8.64h-1.78z" class="B"/><use xlink:href="#X" x="540.623" y="54.726" class="B"/><use xlink:href="#g" x="425.093" y="54.726" class="B"/><path d="M755.163 127.351h1.78v14.74h-1.78z" class="B"/><use xlink:href="#S" x="506.363" y="74.726" class="B"/><path d="M710.058 155.191c.56 0 1.04-.08 1.46-.22s.78-.36 1.08-.62c.28-.26.5-.58.66-.94.14-.36.22-.76.22-1.22 0-.9-.3-1.62-.86-2.14-.56-.5-1.42-.76-2.56-.76h-2.3v5.9h2.3zm0-7.44c.9 0 1.7.12 2.36.32.68.22 1.24.52 1.68.9a3.63 3.63 0 0 1 .98 1.4c.22.54.32 1.16.32 1.82a4.94 4.94 0 0 1-.34 1.84c-.24.56-.58 1.02-1.04 1.42-.44.4-1 .72-1.66.94s-1.44.34-2.3.34h-2.3v5.36h-1.92v-14.34h4.22zm8.86 6.24c.32-.7.72-1.24 1.18-1.62.46-.4 1.04-.6 1.72-.6.2 0 .4.04.6.08s.38.12.54.22l-.14 1.32c-.04.18-.14.26-.3.26-.1 0-.22-.02-.4-.06s-.4-.06-.62-.06c-.32 0-.6.04-.86.14a2.31 2.31 0 0 0-.66.42 2.7 2.7 0 0 0-.54.68c-.16.26-.3.58-.42.92v6.4h-1.78v-10.14h1.02c.18 0 .32.04.4.12.06.08.12.2.14.38l.12 1.54z" class="B"/><use xlink:href="#Q" x="493.188" y="94.726" class="B"/><use xlink:href="#e" x="445.588" y="74.726" class="B"/><use xlink:href="#X" x="552.418" y="74.726" class="B"/><use xlink:href="#Q" x="526.038" y="94.726" class="B"/><use xlink:href="#Z" x="556.728" y="74.726" class="B"/><use xlink:href="#S" x="523.498" y="94.726" class="B"/><path d="M419 67l6 3-6 3v-6z"/><path d="M375 70h45.2" class="C D E"/><path d="M81.006 158.35L75 155.362l5.994-3.012.012 6z"/><path d="M455 100v54.592l-375.2.761" class="C D E"/><g class="B"><path d="M156.071 269.792v4.016h4.704v1.264h-4.704V280h-1.552v-11.472h7.056v1.264h-5.504z"/><use xlink:href="#l" y="132.025"/><use xlink:href="#u"/><path d="M179.959 268.208h1.424V280h-1.424z"/><use xlink:href="#l" x="21.152" y="132.025"/><use xlink:href="#v"/><use xlink:href="#w"/><path d="M215.159 275.408h6.88v1.072h-6.88v-1.072zm0-2.688h6.88v1.088h-6.88v-1.088zm17.024 1.76a3.66 3.66 0 0 0 1.168-.176c.336-.112.624-.288.864-.496.224-.208.4-.464.528-.752.112-.288.176-.608.176-.976 0-.72-.24-1.296-.688-1.712-.448-.4-1.136-.608-2.048-.608h-1.84v4.72h1.84zm0-5.952a6.57 6.57 0 0 1 1.888.256c.544.176.992.416 1.344.72s.608.688.784 1.12.256.928.256 1.456c0 .544-.096 1.024-.272 1.472-.192.448-.464.816-.832 1.136-.352.32-.8.576-1.328.752s-1.152.272-1.84.272h-1.84V280h-1.536v-11.472h3.376z"/><use xlink:href="#x"/><use xlink:href="#p" y="132.025"/><use xlink:href="#q" y="132.025"/><path d="M262.119 273.072a6.02 6.02 0 0 1 .56-.544 4.15 4.15 0 0 1 .624-.4c.224-.112.448-.208.704-.272.24-.064.512-.096.8-.096.448 0 .832.08 1.168.224s.624.352.848.624.4.592.528.976c.112.384.176.8.176 1.248V280h-1.44v-5.168c0-.608-.144-1.088-.416-1.424-.288-.336-.704-.512-1.28-.512-.416 0-.816.112-1.184.304-.368.208-.704.48-1.008.832V280h-1.424v-8.112h.848c.208 0 .336.112.384.304l.112.88z"/><use xlink:href="#p" x="26.28" y="132.025"/><use xlink:href="#r" y="132.025"/><use xlink:href="#l" x="123.168" y="132.025"/><use xlink:href="#w" x="96.528"/><path d="M311.495 274.592h3.952v1.216h-3.952z"/><use xlink:href="#s" y="132.025"/><path d="M331.783 276.352c-.656.016-1.216.08-1.68.16s-.832.192-1.12.32-.512.288-.64.464c-.128.192-.192.384-.192.608s.032.4.112.56a.98.98 0 0 0 .272.384c.128.096.272.16.432.208s.336.064.528.064c.24 0 .48-.016.688-.064a2.27 2.27 0 0 0 .576-.224c.192-.096.368-.208.528-.352a3.22 3.22 0 0 0 .496-.448v-1.68zm-4.592-3.312c.448-.432.928-.752 1.44-.976.512-.208 1.088-.32 1.728-.32.448 0 .848.08 1.2.224.352.16.656.368.896.624.24.272.416.592.544.976.112.384.176.8.176 1.248V280h-.624c-.144 0-.256-.016-.32-.064-.08-.048-.144-.144-.176-.272l-.16-.768-.624.528a6.77 6.77 0 0 1-.64.384 4.75 4.75 0 0 1-.72.24c-.256.048-.544.08-.848.08-.32 0-.608-.048-.88-.128-.288-.096-.528-.224-.736-.4s-.368-.4-.48-.672c-.128-.272-.176-.576-.176-.96a1.71 1.71 0 0 1 .256-.912c.176-.304.464-.56.864-.8.384-.224.896-.416 1.536-.56s1.408-.224 2.336-.256v-.624c0-.624-.128-1.104-.4-1.424s-.672-.496-1.2-.496c-.352 0-.64.048-.88.144a2.82 2.82 0 0 0-.624.288l-.448.304c-.128.08-.24.128-.368.128-.096 0-.176-.032-.24-.08-.08-.048-.128-.112-.176-.192l-.256-.448z"/><use xlink:href="#s" x="13.584" y="132.025"/><use xlink:href="#r" x="62.208" y="132.025"/><path d="M352.295 276.352c-.656.016-1.216.08-1.68.16s-.832.192-1.12.32-.512.288-.64.464c-.128.192-.192.384-.192.608s.032.4.112.56a.98.98 0 0 0 .272.384c.128.096.272.16.432.208s.336.064.528.064c.24 0 .48-.016.688-.064a2.27 2.27 0 0 0 .576-.224c.192-.096.368-.208.528-.352a3.22 3.22 0 0 0 .496-.448v-1.68zm-4.592-3.312c.448-.432.928-.752 1.44-.976.512-.208 1.088-.32 1.728-.32.448 0 .848.08 1.2.224.352.16.656.368.896.624.24.272.416.592.544.976.112.384.176.8.176 1.248V280h-.624c-.144 0-.256-.016-.32-.064-.08-.048-.144-.144-.176-.272l-.16-.768-.624.528a6.77 6.77 0 0 1-.64.384 4.75 4.75 0 0 1-.72.24c-.256.048-.544.08-.848.08-.32 0-.608-.048-.88-.128-.288-.096-.528-.224-.736-.4s-.368-.4-.48-.672c-.128-.272-.176-.576-.176-.96a1.71 1.71 0 0 1 .256-.912c.176-.304.464-.56.864-.8.384-.224.896-.416 1.536-.56s1.408-.224 2.336-.256v-.624c0-.624-.128-1.104-.4-1.424s-.672-.496-1.2-.496c-.352 0-.64.048-.88.144a2.82 2.82 0 0 0-.624.288l-.448.304c-.128.08-.24.128-.368.128-.096 0-.176-.032-.24-.08-.08-.048-.128-.112-.176-.192l-.256-.448zm2.368-3.36c0 .128-.032.24-.08.352s-.112.192-.192.272c-.096.096-.192.16-.304.192a.86.86 0 0 1-.336.08c-.128 0-.24-.032-.336-.08-.112-.032-.208-.096-.288-.192-.08-.08-.16-.16-.192-.272a.67.67 0 0 1-.08-.352c0-.112.016-.24.08-.352.032-.112.112-.208.192-.288a.91.91 0 0 1 .288-.192c.096-.048.208-.064.336-.08.112.016.224.032.336.08s.208.112.304.192a.91.91 0 0 1 .192.288c.048.112.08.24.08.352zm3.04 0a.86.86 0 0 1-.064.352c-.048.112-.128.192-.208.272-.08.096-.176.16-.288.192a.86.86 0 0 1-.336.08c-.128 0-.24-.032-.352-.08-.112-.032-.208-.096-.288-.192-.08-.08-.144-.16-.192-.272a.86.86 0 0 1-.064-.352c0-.112.016-.24.064-.352a.91.91 0 0 1 .48-.48c.112-.048.224-.064.352-.08.112.016.224.032.336.08a.91.91 0 0 1 .288.192.95.95 0 0 1 .208.288c.048.112.064.24.064.352z"/><use xlink:href="#t" y="132.025"/><use xlink:href="#u" x="192.52"/><path d="M372.479 268.208h1.424V280h-1.424zm5.232 3.68V280h-1.424v-8.112h1.424zm.304-2.544c0 .144-.032.272-.096.4-.048.112-.128.224-.224.32a.85.85 0 0 1-.32.208c-.128.064-.256.08-.4.08s-.272-.016-.384-.08a.85.85 0 0 1-.32-.208 1 1 0 0 1-.208-.32c-.064-.128-.08-.256-.08-.4a.83.83 0 0 1 .08-.384c.048-.128.112-.24.208-.336a1.15 1.15 0 0 1 .32-.224c.112-.048.24-.08.384-.08s.272.032.4.08a1.15 1.15 0 0 1 .32.224c.096.096.176.208.224.336a.85.85 0 0 1 .096.384z"/><use xlink:href="#t" x="24.184" y="132.025"/><use xlink:href="#u" x="216.704"/><use xlink:href="#l" x="234.08" y="132.025"/><use xlink:href="#x" x="167.136"/><path d="M429.615 268.528L426.047 280h-1.392l-2.912-8.752c-.032-.08-.048-.176-.08-.272l-.064-.304-.08.304-.08.272-2.928 8.752h-1.392l-3.568-11.472h1.28c.144 0 .256.048.352.112s.144.16.176.256l2.368 7.968.112.464.096.528.112-.528.144-.464 2.688-7.968c.032-.08.096-.16.192-.24s.208-.128.336-.128h.448c.144 0 .256.048.336.112a.77.77 0 0 1 .192.256l2.688 7.968.128.448.128.512a4.9 4.9 0 0 1 .08-.512l.112-.448 2.368-7.968a.53.53 0 0 1 .176-.256c.096-.064.208-.112.352-.112h1.2z"/><use xlink:href="#l" x="267.56" y="132.025"/><use xlink:href="#v" x="246.408"/><use xlink:href="#s" x="122.704" y="132.025"/></g><path d="M81.006 290.376L75 287.388l5.994-3.012.012 6z"/><path d="M455 232.026v54.592l-375.2.76" class="C D E"/><path d="M418.958 197l6 3-6 3v-6z"/><path d="M374.958 200h45.2" class="C D E"/><path d="M419 337l6 3-6 3v-6z"/><path d="M375 340h45.2" class="C D E"/><path d="M528.841 67.589l6 3-6 3v-6z"/><path d="M484.841 70.589h45.2" class="C D E"/><path d="M527.958 197l6 3-6 3v-6z"/><path d="M483.958 200h45.2" class="C D E"/><path d="M529 337l6 3-6 3v-6z"/><path d="M485 340h45.2" class="C D E"/><path d="M709.307 196.999l6 3-6 3v-6z"/><path d="M665.307 199.999h45.2" class="C D E"/><g class="B H"><use xlink:href="#N" x="293.626" y="130"/><use xlink:href="#O" x="293.623" y="130"/><use xlink:href="#N" x="-0.748" y="130"/><use xlink:href="#O" x="-0.751" y="130"/><path d="M470 210.795h-.844c-.625 1.547-.906 2.078-2.266 2.078h-3.109l-1.86.094v-.172l2.985-2.891c2.656-2.594 4.328-4.344 4.328-6.687 0-2.704-2.031-4.297-4.875-4.297-2.469 0-4.156 1.359-4.953 3.578l.656.312c.875-1.547 1.984-2.187 3.703-2.187 1.86 0 2.953 1.219 2.953 2.906 0 2.703-1.265 4.141-3.937 6.813l-3.391 3.437v1.172h9.797l.813-4.156z"/></g><path d="M125 310h250V370H125z" class="C D I"/><g class="B"><use xlink:href="#P" y="270"/><use xlink:href="#Q" y="270"/><use xlink:href="#R" y="270"/><use xlink:href="#S" y="270"/><path d="M264.08 322.625h1.78v14.74h-1.78zm4.72 0h1.78v14.74h-1.78zm9.66 4.28c.1-.64.28-1.22.54-1.72s.6-.94 1.02-1.28c.4-.34.88-.58 1.4-.76.54-.18 1.1-.28 1.72-.28.6 0 1.16.1 1.68.26.52.18.96.42 1.32.74.38.32.66.72.88 1.16.2.46.3.96.3 1.52 0 .46-.06.86-.18 1.22s-.28.66-.5.92c-.22.28-.48.5-.78.68-.3.2-.64.34-1.02.46.92.24 1.62.66 2.1 1.24.46.58.7 1.32.7 2.18 0 .66-.12 1.26-.38 1.78a3.81 3.81 0 0 1-1.02 1.36c-.44.36-.94.64-1.52.84s-1.18.3-1.84.3c-.76 0-1.42-.1-1.96-.28-.54-.2-1-.46-1.36-.8-.38-.32-.68-.72-.92-1.18s-.46-.94-.62-1.48l.78-.32c.2-.08.38-.12.58-.08.18.04.32.16.42.34l.32.66c.12.28.3.52.54.76.22.24.5.44.86.6.34.18.8.26 1.34.26.5 0 .92-.08 1.3-.24s.7-.38.94-.64c.26-.26.44-.54.58-.88.12-.3.18-.62.18-.94 0-.38-.06-.74-.14-1.06-.1-.32-.3-.6-.56-.84-.28-.22-.66-.4-1.14-.54s-1.08-.2-1.82-.2v-1.3c.6 0 1.12-.06 1.56-.2.42-.12.78-.28 1.04-.52a1.87 1.87 0 0 0 .6-.78c.12-.3.18-.64.18-1.02 0-.42-.06-.78-.2-1.08a2.06 2.06 0 0 0-.52-.76c-.24-.2-.5-.34-.82-.46-.3-.1-.64-.14-1-.14s-.7.06-1 .16c-.32.1-.58.26-.82.44a2.77 2.77 0 0 0-.6.68 2.5 2.5 0 0 0-.34.86c-.08.24-.2.38-.32.46-.14.08-.32.1-.56.06l-.94-.16z"/><use xlink:href="#T" y="270"/><use xlink:href="#U" y="270"/><use xlink:href="#V" y="270"/><use xlink:href="#W" y="270"/><use xlink:href="#V" x="17.65" y="270"/><path d="M191.37 355.785l-.02 1.58h-8.82v-14.34h8.82v1.58h-6.88v4.76h5.58v1.52h-5.58v4.9h6.9z"/><use xlink:href="#X" y="270"/><use xlink:href="#Y" y="270"/><use xlink:href="#Z" y="270"/><use xlink:href="#a" y="270"/><use xlink:href="#b" y="270"/><use xlink:href="#S" x="-12.52" y="290"/><use xlink:href="#c" y="270"/><use xlink:href="#R" x="14.04" y="290"/><use xlink:href="#d" y="270"/><use xlink:href="#X" x="85.27" y="270"/><use xlink:href="#e" y="270"/><use xlink:href="#Z" x="88.64" y="270"/><use xlink:href="#f" y="270"/><use xlink:href="#g" y="270"/><use xlink:href="#d" x="62.51" y="270"/><use xlink:href="#h" y="270"/><use xlink:href="#i" y="270"/></g><defs ><path id="B" d="M491.939 226.636v53.273c0 14.701-24.4 26.637-54.455 26.637H74.454C44.4 306.546 20 294.61 20 279.909v-53.273C20 211.935 44.4 200 74.454 200h363.03c30.055 0 54.455 11.935 54.455 26.636z"/><path id="C" d="M124.183 31.366a17.29 17.29 0 0 0-2.52.24c-.696.12-1.248.288-1.68.48s-.768.432-.96.696a1.58 1.58 0 0 0-.288.912c0 .336.048.6.168.84.096.24.24.432.408.576.192.144.408.24.648.312s.504.096.792.096c.36 0 .72-.024 1.032-.096s.6-.192.864-.336c.288-.144.552-.312.792-.528a4.83 4.83 0 0 0 .744-.672v-2.52zm-6.888-4.968c.672-.648 1.392-1.128 2.16-1.464.768-.312 1.632-.48 2.592-.48.672 0 1.272.12 1.8.336.528.24.984.552 1.344.936.36.408.624.888.816 1.464.168.576.264 1.2.264 1.872v7.776h-.936c-.216 0-.384-.024-.48-.096-.12-.072-.216-.216-.264-.408l-.24-1.152-.936.792c-.312.216-.648.408-.96.576-.336.144-.696.264-1.08.36a6.94 6.94 0 0 1-1.272.12c-.48 0-.912-.072-1.32-.192-.432-.144-.792-.336-1.104-.6s-.552-.6-.72-1.008c-.192-.408-.264-.864-.264-1.44a2.57 2.57 0 0 1 .384-1.368c.264-.456.696-.84 1.296-1.2.576-.336 1.344-.624 2.304-.84s2.112-.336 3.504-.384v-.936c0-.936-.192-1.656-.6-2.136s-1.008-.744-1.8-.744c-.528 0-.96.072-1.32.216-.36.12-.672.264-.936.432l-.672.456c-.192.12-.36.192-.552.192a.59.59 0 0 1-.36-.12c-.12-.072-.192-.168-.264-.288l-.384-.672z"/><path id="D" d="M131.791 24.67v12.168h-2.136V24.67h2.136zm.456-3.816a1.3 1.3 0 0 1-.144.6c-.072.168-.192.336-.336.48a1.28 1.28 0 0 1-.48.312c-.192.096-.384.12-.6.12s-.408-.024-.576-.12a1.28 1.28 0 0 1-.48-.312 1.5 1.5 0 0 1-.312-.48c-.096-.192-.12-.384-.12-.6 0-.192.024-.384.12-.576a1.37 1.37 0 0 1 .312-.504c.144-.144.288-.24.48-.336a1.45 1.45 0 0 1 .576-.12 1.67 1.67 0 0 1 .6.12c.192.096.336.192.48.336a1.43 1.43 0 0 1 .336.504c.096.192.144.384.144.576z"/><path id="E" d="M137.311 26.446c.264-.288.528-.552.84-.816.288-.216.6-.432.936-.6s.672-.312 1.056-.408a4.7 4.7 0 0 1 1.2-.144c.672 0 1.248.12 1.752.336s.936.528 1.272.936.6.888.792 1.464c.168.576.264 1.2.264 1.872v7.752h-2.16v-7.752c0-.912-.216-1.632-.624-2.136-.432-.504-1.056-.768-1.92-.768-.624 0-1.224.168-1.776.456-.552.312-1.056.72-1.512 1.248v8.952h-2.136V24.67h1.272c.312 0 .504.168.576.456l.168 1.32z"/><path id="F" d="M172.063 30.886a2.91 2.91 0 0 0 1.152-.168c.312-.12.6-.288.816-.504a2.37 2.37 0 0 0 .504-.768 2.78 2.78 0 0 0 .168-1.008c0-.744-.216-1.32-.672-1.776-.456-.432-1.104-.648-1.968-.648s-1.512.216-1.968.648c-.456.456-.672 1.032-.672 1.776a2.78 2.78 0 0 0 .168 1.008 2.37 2.37 0 0 0 .504.768c.216.216.504.384.84.504.312.12.696.192 1.128.168zm3.864 6.624a1.08 1.08 0 0 0-.264-.744 2.03 2.03 0 0 0-.672-.432 5.43 5.43 0 0 0-.984-.216l-1.2-.096-1.272-.072-1.248-.12c-.456.216-.816.48-1.104.792a1.56 1.56 0 0 0-.432 1.104 1.49 1.49 0 0 0 .216.768c.144.24.336.432.648.6a3.76 3.76 0 0 0 1.08.408 6.98 6.98 0 0 0 1.536.168c.576 0 1.104-.072 1.56-.168a4.28 4.28 0 0 0 1.152-.432c.312-.192.552-.432.72-.696a1.59 1.59 0 0 0 .264-.864zm2.16-12.36v.792c0 .264-.168.432-.504.504l-1.368.192c.264.528.384 1.104.408 1.752-.024.6-.12 1.128-.36 1.608-.216.48-.528.912-.936 1.248s-.888.6-1.44.792-1.176.264-1.824.264c-.576 0-1.104-.048-1.608-.192-.264.168-.456.336-.576.504-.144.192-.216.36-.216.552 0 .288.12.504.36.648s.552.264.936.312c.384.072.816.12 1.296.12l1.512.096c.528.024 1.032.096 1.512.168.504.096.936.24 1.32.432a2.63 2.63 0 0 1 .936.84c.24.36.36.816.36 1.368 0 .528-.144 1.032-.408 1.512a4.3 4.3 0 0 1-1.104 1.296c-.504.384-1.104.696-1.8.912-.72.24-1.512.36-2.4.36s-1.656-.096-2.328-.264c-.672-.192-1.224-.432-1.656-.72s-.768-.648-.984-1.032-.336-.792-.336-1.2c0-.6.192-1.128.576-1.536.36-.408.888-.744 1.536-1.008-.36-.144-.648-.36-.864-.624s-.312-.648-.312-1.104a1.45 1.45 0 0 1 .096-.528c.072-.192.168-.384.288-.576.144-.192.288-.36.504-.528a3.65 3.65 0 0 1 .672-.456c-.6-.336-1.08-.768-1.416-1.32s-.504-1.2-.504-1.944c0-.6.12-1.128.336-1.608.24-.48.552-.912.96-1.248s.888-.6 1.464-.792c.552-.168 1.176-.264 1.848-.264.528 0 1.032.048 1.488.168s.864.288 1.248.504h3.288z"/><path id="G" d="M147.601 61.03c-.96 0-1.704-.264-2.208-.816-.528-.528-.792-1.296-.768-2.304v-7.44h-1.464a.52.52 0 0 1-.336-.12c-.096-.072-.12-.192-.12-.36v-.84l1.992-.264.48-3.744c.024-.12.072-.216.168-.288.072-.072.192-.12.336-.12h1.08v4.176h3.504v1.56h-3.504v7.296c0 .504.12.888.36 1.128.24.264.576.384.96.384.216 0 .408-.024.576-.096a1.8 1.8 0 0 0 .432-.192l.312-.192c.072-.072.144-.096.216-.096.12 0 .216.072.312.192l.624 1.032a4.2 4.2 0 0 1-1.344.816 4.64 4.64 0 0 1-1.608.288z"/><path id="H" d="M160.561 53.422c0-.48-.072-.936-.216-1.344a3.44 3.44 0 0 0-.624-1.08c-.264-.288-.6-.528-.96-.696-.384-.168-.84-.24-1.32-.24-1.032 0-1.824.288-2.424.888s-.96 1.416-1.104 2.472h6.648zm1.728 5.712c-.288.312-.6.6-.96.84s-.768.432-1.176.576c-.432.144-.864.264-1.296.336-.456.072-.912.12-1.344.12a6.18 6.18 0 0 1-2.328-.432c-.696-.288-1.32-.696-1.824-1.248a5.23 5.23 0 0 1-1.2-2.04c-.288-.792-.432-1.728-.432-2.784 0-.84.12-1.632.384-2.376.264-.72.624-1.368 1.128-1.896.48-.552 1.08-.96 1.776-1.272s1.488-.48 2.376-.48a5.58 5.58 0 0 1 2.016.384c.624.24 1.152.6 1.608 1.056s.816 1.032 1.08 1.704c.24.672.384 1.44.384 2.304 0 .336-.048.552-.12.672s-.216.168-.408.168h-8.112c.024.768.12 1.44.312 1.992.192.576.456 1.056.792 1.44s.72.648 1.2.84c.456.192.984.288 1.56.288.528 0 .984-.072 1.368-.192s.72-.264 1.008-.408l.696-.384c.192-.12.36-.192.504-.192.168 0 .288.072.408.192l.6.792z"/><path id="I" d="M167.113 50.446c.264-.288.528-.552.84-.816.288-.216.6-.432.936-.6s.672-.312 1.056-.408a4.7 4.7 0 0 1 1.2-.144c.672 0 1.248.12 1.752.336s.936.528 1.272.936.6.888.792 1.464c.168.576.264 1.2.264 1.872v7.752h-2.16v-7.752c0-.912-.216-1.632-.624-2.136-.432-.504-1.056-.768-1.92-.768-.624 0-1.224.168-1.776.456-.552.312-1.056.72-1.512 1.248v8.952h-2.136V48.67h1.272c.312 0 .504.168.576.456l.168 1.32z"/><path id="J" d="M140.054 24.67l-3.936 12.168h-1.68c-.216 0-.36-.144-.432-.408l-2.688-8.256c-.072-.168-.12-.36-.168-.552l-.12-.552-.12.552-.144.576-2.736 8.232c-.072.264-.24.408-.48.408h-1.608l-3.936-12.168h1.68c.168 0 .288.048.408.144s.192.192.24.312l2.328 7.824.336 1.632.216-.816.24-.816 2.568-7.872c.048-.12.12-.216.216-.312a.59.59 0 0 1 .36-.12h.936c.168 0 .288.048.408.12.096.096.168.192.216.312l2.496 7.872.24.816.216.816a4.58 4.58 0 0 1 .144-.792l.192-.84 2.376-7.824c.048-.12.12-.24.24-.312.096-.096.24-.144.384-.144h1.608z"/><path id="K" d="M156.362 26.83c-.072.096-.12.168-.192.216a.43.43 0 0 1-.264.072c-.12 0-.24-.048-.384-.144l-.552-.336c-.216-.12-.456-.24-.768-.336s-.696-.144-1.128-.144c-.6 0-1.128.096-1.584.312s-.84.528-1.152.912a3.95 3.95 0 0 0-.696 1.464c-.168.576-.24 1.2-.24 1.896 0 .744.096 1.392.264 1.968s.384 1.056.696 1.44.696.696 1.128.888c.432.216.912.312 1.464.312.528 0 .96-.072 1.296-.192s.6-.264.816-.408l.552-.408c.144-.12.312-.192.456-.192.168 0 .312.072.408.192l.6.792c-.264.336-.576.6-.912.84s-.696.432-1.08.576c-.384.168-.792.264-1.224.36-.432.072-.864.096-1.296.096-.768 0-1.464-.144-2.112-.432a4.69 4.69 0 0 1-1.704-1.2c-.48-.528-.864-1.2-1.128-1.968s-.408-1.656-.408-2.664c0-.888.12-1.728.384-2.496a5.55 5.55 0 0 1 1.104-1.992c.48-.552 1.08-.984 1.776-1.296.72-.312 1.536-.48 2.448-.48.864 0 1.608.144 2.256.432.648.264 1.248.648 1.752 1.152l-.576.768z"/><path id="L" d="M161.51 26.302c.528-.552 1.104-.984 1.728-1.32s1.368-.504 2.184-.504c.672 0 1.248.12 1.752.336s.936.528 1.272.936.6.888.792 1.464c.168.576.264 1.2.264 1.872v7.752h-2.16v-7.752c0-.912-.216-1.632-.624-2.136-.432-.504-1.056-.768-1.92-.768-.624 0-1.224.168-1.776.456-.552.312-1.056.72-1.512 1.248v8.952h-2.136V19.15h2.136v7.152z"/><path id="M" d="M139.952 52.246c0 1.296-.216 2.448-.624 3.504-.408 1.08-.984 1.968-1.728 2.712-.744.768-1.632 1.344-2.688 1.752-1.032.408-2.184.624-3.456.624h-6.408V43.63h6.408c1.272 0 2.424.216 3.456.624 1.056.408 1.944 1.008 2.688 1.752.744.768 1.32 1.656 1.728 2.712.408 1.08.624 2.232.624 3.528zm-2.4 0c0-1.056-.144-1.992-.432-2.832s-.696-1.536-1.224-2.112-1.176-1.008-1.92-1.32-1.584-.456-2.52-.456h-4.08v13.416h4.08c.936 0 1.776-.144 2.52-.456.744-.288 1.392-.72 1.92-1.296s.936-1.272 1.224-2.112.432-1.776.432-2.832z"/><path id="N" d="M459.274 59.936l-3.688-5.235h-2.265l-3.688 5.235h1.344l3.469-3.36 3.531 3.36h1.297z"/><path id="O" d="M451.753 66.689c-.407-2.734-.641-3.828-1.391-5.125h-.516l-4.843.375v1l1.187-.078c2.094 0 2.25 1.672 2.5 3.219l2.016 12.016c-.953 1.468-3.688 5.328-4.344 5.328-.75 0-1.125-1.813-2.422-1.813-.781 0-1.328.438-1.328 1.469 0 1.266 1.187 2.219 2.625 2.219 2.594 0 4.672-3.688 7.812-8.032 1.782-2.453 3.735-5.39 5.579-8.64 1.093-1.844 1.5-3.375 1.5-4.703 0-1.469-.891-2.594-2.157-2.594-.984 0-1.5.609-1.5 1.328 0 1.297 1.672 2.25 1.672 3.141 0 .828-.312 1.64-1.125 2.968l-3.922 6.313h-.203l-.312-3.406-.828-4.985z"/><path id="P" d="M227.98 53.025v14.34h-1.7v-10.54l.02-.44c0-.16.02-.32.04-.5l-4.92 8.96c-.16.3-.4.46-.7.46h-.28c-.32 0-.56-.16-.7-.46l-5.02-9 .06.98v10.54h-1.7v-14.34h1.42a1.05 1.05 0 0 1 .4.06c.1.04.18.12.28.28l4.94 8.82.24.5.22.52.2-.52.24-.52 4.86-8.8c.08-.16.16-.24.26-.28s.24-.06.42-.06h1.42z"/><path id="Q" d="M235.18 57.065c.74 0 1.4.14 2 .38s1.1.6 1.52 1.04c.42.46.74 1.02.96 1.66s.34 1.36.34 2.14c0 .8-.12 1.52-.34 2.16s-.54 1.2-.96 1.64a4.09 4.09 0 0 1-1.52 1.06c-.6.24-1.26.36-2 .36s-1.42-.12-2.02-.36a4.09 4.09 0 0 1-1.52-1.06c-.42-.44-.74-1-.96-1.64s-.34-1.36-.34-2.16c0-.78.12-1.5.34-2.14s.54-1.2.96-1.66c.42-.44.92-.8 1.52-1.04s1.28-.38 2.02-.38zm0 9.04c1 0 1.74-.32 2.24-1 .5-.66.74-1.6.74-2.8s-.24-2.14-.74-2.82-1.24-1-2.24-1.02c-.5.02-.94.1-1.32.26a2.51 2.51 0 0 0-.94.76c-.26.32-.44.72-.56 1.2s-.18 1.02-.18 1.62c0 1.2.24 2.14.74 2.8.5.68 1.24 1 2.26 1z"/><path id="R" d="M248.86 59.645c-.34-.44-.7-.76-1.08-.94-.4-.18-.82-.26-1.3-.26-.94 0-1.68.34-2.18 1-.5.68-.76 1.64-.76 2.88 0 .66.06 1.24.18 1.7a2.95 2.95 0 0 0 .5 1.16 1.95 1.95 0 0 0 .8.66c.32.14.68.22 1.1.22.58 0 1.08-.14 1.52-.4s.84-.64 1.22-1.14v-4.88zm1.78-7.02v14.74h-1.06a.44.44 0 0 1-.48-.38l-.16-1.22a5.84 5.84 0 0 1-1.48 1.26c-.56.32-1.2.48-1.92.48-.58 0-1.12-.12-1.58-.34-.48-.22-.88-.54-1.22-.98s-.58-.98-.76-1.62-.28-1.4-.28-2.24c0-.74.1-1.44.3-2.08s.48-1.2.86-1.68c.38-.46.84-.84 1.38-1.1.54-.28 1.16-.42 1.84-.42.62 0 1.14.12 1.58.32.44.22.84.5 1.2.88v-5.62h1.78z"/><path id="S" d="M260.24 61.185c0-.4-.06-.78-.18-1.12s-.3-.64-.52-.9a2.57 2.57 0 0 0-.8-.58c-.32-.14-.7-.2-1.1-.2-.86 0-1.52.24-2.02.74s-.8 1.18-.92 2.06h5.54zm1.44 4.76c-.24.26-.5.5-.8.7s-.64.36-.98.48c-.36.12-.72.22-1.08.28-.38.06-.76.1-1.12.1a5.15 5.15 0 0 1-1.94-.36c-.58-.24-1.1-.58-1.52-1.04-.44-.46-.78-1.02-1-1.7-.24-.66-.36-1.44-.36-2.32 0-.7.1-1.36.32-1.98.22-.6.52-1.14.94-1.58.4-.46.9-.8 1.48-1.06s1.24-.4 1.98-.4a4.65 4.65 0 0 1 1.68.32 3.81 3.81 0 0 1 1.34.88c.38.38.68.86.9 1.42.2.56.32 1.2.32 1.92 0 .28-.04.46-.1.56s-.18.14-.34.14h-6.76c.02.64.1 1.2.26 1.66.16.48.38.88.66 1.2a2.52 2.52 0 0 0 1 .7c.38.16.82.24 1.3.24.44 0 .82-.06 1.14-.16a5.63 5.63 0 0 0 .84-.34l.58-.32c.16-.1.3-.16.42-.16.14 0 .24.06.34.16l.5.66z"/><path id="T" d="M141.28 81.065c0 1.44.18 2.82.54 4.16.36 1.36.9 2.64 1.6 3.86.1.2.12.36.08.46-.06.12-.14.2-.24.28l-.78.48c-.5-.78-.94-1.54-1.28-2.28a15.13 15.13 0 0 1-.86-2.28c-.22-.76-.38-1.52-.46-2.3-.12-.76-.16-1.56-.16-2.38 0-.8.04-1.58.16-2.36.08-.78.24-1.54.46-2.3s.5-1.5.86-2.26c.34-.76.78-1.52 1.28-2.3l.78.5a.75.75 0 0 1 .24.26c.04.12.02.26-.08.46a16.09 16.09 0 0 0-1.6 3.84 16.15 16.15 0 0 0-.54 4.16z"/><path id="U" d="M152.56 77.985c0 .14-.02.26-.06.38s-.1.22-.18.3l-5.48 7.3h5.54v1.4h-7.64v-.74c0-.08.02-.18.06-.3a1.11 1.11 0 0 1 .18-.34l5.52-7.36h-5.44v-1.4h7.5v.76z"/><path id="V" d="M154.32 86.265a1.38 1.38 0 0 1 .08-.5c.06-.14.16-.28.26-.4.12-.1.24-.2.4-.26s.32-.1.5-.1c.16 0 .32.04.48.1s.28.16.4.26c.12.12.2.26.28.4.06.16.1.32.1.5s-.04.34-.1.5c-.08.14-.16.28-.28.38-.12.12-.24.22-.4.28s-.32.1-.48.1c-.18 0-.34-.04-.5-.1s-.28-.16-.4-.28a1.28 1.28 0 0 1-.26-.38 1.38 1.38 0 0 1-.08-.5z"/><path id="W" d="M164.78 85.825c.56 0 1.04-.06 1.44-.2.4-.12.72-.3.98-.52.26-.24.44-.5.56-.82s.18-.68.18-1.06c0-.74-.26-1.32-.78-1.74-.54-.44-1.32-.66-2.38-.66h-3.1v5h3.1zm-3.1-11.26v4.88h2.56c.54 0 1.02-.06 1.42-.18s.74-.28 1-.5a2.03 2.03 0 0 0 .6-.76c.12-.3.18-.64.18-1 0-.84-.26-1.46-.76-1.86-.5-.38-1.3-.58-2.36-.58h-2.64zm2.64-1.54c.88 0 1.64.1 2.28.26.64.18 1.16.42 1.56.74.42.32.72.72.92 1.18.18.46.28.98.28 1.56 0 .36-.06.7-.16 1.02-.12.32-.28.62-.5.9a3.44 3.44 0 0 1-.84.76 4.59 4.59 0 0 1-1.18.54c1.06.2 1.84.58 2.38 1.14.52.54.8 1.26.8 2.16 0 .6-.12 1.16-.34 1.66s-.56.92-.98 1.28c-.44.36-.96.64-1.58.84-.64.2-1.34.3-2.14.3h-5.06v-14.34h4.56z"/><path id="X" d="M195.06 78.705c.22-.24.44-.46.7-.68.24-.18.5-.36.78-.5s.56-.26.88-.34c.3-.08.64-.12 1-.12.56 0 1.04.1 1.46.28s.78.44 1.06.78.5.74.66 1.22c.14.48.22 1 .22 1.56v6.46h-1.8v-6.46c0-.76-.18-1.36-.52-1.78-.36-.42-.88-.64-1.6-.64-.52 0-1.02.14-1.48.38a4.72 4.72 0 0 0-1.26 1.04v7.46h-1.78v-10.14h1.06c.26 0 .42.14.48.38l.14 1.1z"/><path id="Y" d="M207.5 87.525c-.8 0-1.42-.22-1.84-.68-.44-.44-.66-1.08-.64-1.92v-6.2h-1.22c-.12 0-.2-.04-.28-.1s-.1-.16-.1-.3v-.7l1.66-.22.4-3.12a.37.37 0 0 1 .14-.24c.06-.06.16-.1.28-.1h.9v3.48h2.92v1.3h-2.92v6.08c0 .42.1.74.3.94.2.22.48.32.8.32a1.21 1.21 0 0 0 .48-.08 1.5 1.5 0 0 0 .36-.16l.26-.16c.06-.06.12-.08.18-.08.1 0 .18.06.26.16l.52.86a3.5 3.5 0 0 1-1.12.68c-.44.16-.88.24-1.34.24z"/><path id="Z" d="M217.47 78.905a.43.43 0 0 1-.38.22c-.1 0-.22-.04-.34-.12l-.46-.24a5.98 5.98 0 0 0-.66-.24c-.26-.08-.56-.12-.9-.12a2.49 2.49 0 0 0-.8.12c-.24.08-.46.18-.62.3a1.51 1.51 0 0 0-.4.48 1.34 1.34 0 0 0-.12.56c0 .26.06.48.22.66.14.18.34.32.6.44.24.14.52.24.84.34l.96.32a9.36 9.36 0 0 1 .96.36c.32.14.6.3.84.5a2.44 2.44 0 0 1 .6.74c.14.28.22.64.22 1.04 0 .46-.08.9-.24 1.3-.18.4-.42.74-.74 1.02-.34.3-.74.52-1.2.68-.48.18-1.02.26-1.64.26-.72 0-1.36-.12-1.92-.34-.58-.24-1.06-.52-1.46-.9l.42-.68c.04-.08.1-.14.18-.2a.58.58 0 0 1 .28-.06c.12 0 .24.04.38.14a5.03 5.03 0 0 0 .48.3c.2.12.42.22.7.32s.62.14 1.02.14c.34 0 .66-.04.92-.14a1.67 1.67 0 0 0 .64-.36 1.27 1.27 0 0 0 .38-.54c.08-.18.14-.4.14-.64 0-.28-.08-.5-.24-.68a2.01 2.01 0 0 0-.58-.48c-.26-.12-.54-.24-.86-.34l-.96-.3c-.34-.1-.66-.22-.98-.36a3.51 3.51 0 0 1-.84-.52c-.24-.2-.44-.46-.6-.76-.14-.3-.22-.68-.22-1.12a2.66 2.66 0 0 1 .24-1.1c.16-.36.4-.68.7-.94.3-.28.68-.5 1.14-.66.44-.14.94-.24 1.52-.24.66 0 1.26.12 1.8.32.52.22.98.5 1.38.86l-.4.66z"/><path id="a" d="M227.27 79.025c-.06.08-.1.14-.16.18s-.12.06-.22.06a.58.58 0 0 1-.32-.12l-.46-.28a3.22 3.22 0 0 0-.64-.28c-.26-.08-.58-.12-.94-.12-.5 0-.94.08-1.32.26s-.7.44-.96.76a3.29 3.29 0 0 0-.58 1.22c-.14.48-.2 1-.2 1.58 0 .62.08 1.16.22 1.64s.32.88.58 1.2.58.58.94.74c.36.18.76.26 1.22.26.44 0 .8-.06 1.08-.16a3.07 3.07 0 0 0 .68-.34l.46-.34c.12-.1.26-.16.38-.16.14 0 .26.06.34.16l.5.66c-.22.28-.48.5-.76.7s-.58.36-.9.48c-.32.14-.66.22-1.02.3-.36.06-.72.08-1.08.08-.64 0-1.22-.12-1.76-.36a3.91 3.91 0 0 1-1.42-1c-.4-.44-.72-1-.94-1.64s-.34-1.38-.34-2.22c0-.74.1-1.44.32-2.08.2-.64.52-1.2.92-1.66a4.23 4.23 0 0 1 1.48-1.08c.6-.26 1.28-.4 2.04-.4.72 0 1.34.12 1.88.36a4.41 4.41 0 0 1 1.46.96l-.48.64z"/><path id="b" d="M231.56 78.585c.44-.46.92-.82 1.44-1.1s1.14-.42 1.82-.42c.56 0 1.04.1 1.46.28s.78.44 1.06.78.5.74.66 1.22c.14.48.22 1 .22 1.56v6.46h-1.8v-6.46c0-.76-.18-1.36-.52-1.78-.36-.42-.88-.64-1.6-.64-.52 0-1.02.14-1.48.38a4.72 4.72 0 0 0-1.26 1.04v7.46h-1.78v-14.74h1.78v5.96z"/><path id="c" d="M253.38 77.225v10.14h-1.78v-10.14h1.78zm.38-3.18c0 .18-.04.34-.12.5a1.32 1.32 0 0 1-.28.4c-.12.12-.24.2-.4.26-.16.08-.32.1-.5.1s-.34-.02-.48-.1c-.16-.06-.28-.14-.4-.26a1.25 1.25 0 0 1-.26-.4c-.08-.16-.1-.32-.1-.5 0-.16.02-.32.1-.48.06-.16.14-.3.26-.42s.24-.2.4-.28a1.21 1.21 0 0 1 .48-.1c.18 0 .34.04.5.1.16.08.28.16.4.28a1.19 1.19 0 0 1 .28.42c.08.16.12.32.12.48z"/><path id="d" d="M275.82 77.225v10.14h-1.06a.44.44 0 0 1-.48-.38l-.14-1.08c-.44.48-.94.88-1.48 1.18s-1.18.44-1.88.44c-.56 0-1.04-.1-1.46-.28s-.78-.44-1.06-.78c-.3-.32-.52-.72-.66-1.2s-.2-1-.2-1.58v-6.46h1.78v6.46c0 .78.16 1.36.52 1.78.34.42.88.64 1.6.64.52 0 1.02-.12 1.48-.38.46-.24.88-.6 1.26-1.04v-7.46h1.78z"/><path id="e" d="M293.33 82.405c.36.02.68-.04.96-.14.26-.1.5-.24.68-.42s.32-.4.42-.64c.1-.26.14-.54.14-.84 0-.62-.18-1.1-.56-1.48-.38-.36-.92-.54-1.64-.54s-1.26.18-1.64.54c-.38.38-.56.86-.56 1.48 0 .3.04.58.14.84.1.24.24.46.42.64a1.87 1.87 0 0 0 .7.42c.26.1.58.16.94.14zm3.22 5.52a.9.9 0 0 0-.22-.62c-.14-.14-.32-.26-.56-.36-.24-.08-.52-.14-.82-.18l-1-.08-1.06-.06-1.04-.1c-.38.18-.68.4-.92.66a1.3 1.3 0 0 0-.36.92 1.24 1.24 0 0 0 .18.64c.12.2.28.36.54.5.24.14.54.26.9.34s.78.14 1.28.14c.48 0 .92-.06 1.3-.14s.7-.22.96-.36c.26-.16.46-.36.6-.58s.22-.46.22-.72zm1.8-10.3v.66c0 .22-.14.36-.42.42l-1.14.16c.22.44.32.92.34 1.46-.02.5-.1.94-.3 1.34-.18.4-.44.76-.78 1.04s-.74.5-1.2.66-.98.22-1.52.22c-.48 0-.92-.04-1.34-.16-.22.14-.38.28-.48.42-.12.16-.18.3-.18.46a.59.59 0 0 0 .3.54c.2.12.46.22.78.26a5.84 5.84 0 0 0 1.08.1l1.26.08c.44.02.86.08 1.26.14a4.18 4.18 0 0 1 1.1.36c.32.18.58.4.78.7s.3.68.3 1.14a2.59 2.59 0 0 1-.34 1.26c-.22.4-.52.76-.92 1.08a4.81 4.81 0 0 1-1.5.76c-.6.2-1.26.3-2 .3a7.97 7.97 0 0 1-1.94-.22c-.56-.16-1.02-.36-1.38-.6s-.64-.54-.82-.86-.28-.66-.28-1c0-.5.16-.94.48-1.28.3-.34.74-.62 1.28-.84-.3-.12-.54-.3-.72-.52s-.26-.54-.26-.92a1.21 1.21 0 0 1 .08-.44 2.69 2.69 0 0 1 .24-.48c.12-.16.24-.3.42-.44.16-.14.34-.26.56-.38-.5-.28-.9-.64-1.18-1.1s-.42-1-.42-1.62a3.21 3.21 0 0 1 .28-1.34c.2-.4.46-.76.8-1.04s.74-.5 1.22-.66c.46-.14.98-.22 1.54-.22.44 0 .86.04 1.24.14s.72.24 1.04.42h2.74z"/><path id="f" d="M310.65 84.925c.32.44.68.74 1.08.92a3 3 0 0 0 1.28.28c.96 0 1.68-.34 2.2-1.02.5-.66.76-1.66.76-3 0-1.24-.24-2.16-.68-2.74-.46-.58-1.1-.88-1.92-.88-.58 0-1.1.14-1.52.4-.44.28-.84.66-1.2 1.14v4.9zm0-6.24c.42-.48.9-.88 1.44-1.18a3.99 3.99 0 0 1 1.86-.44c.6 0 1.12.12 1.6.34.48.24.88.56 1.22 1 .34.42.58.94.76 1.56a7.33 7.33 0 0 1 .28 2.06c0 .82-.1 1.58-.3 2.24-.2.68-.5 1.26-.88 1.74s-.82.84-1.36 1.1-1.16.4-1.82.4c-.68 0-1.24-.12-1.7-.38-.46-.24-.86-.6-1.18-1.06l-.1.92c-.06.26-.2.38-.46.38h-1.14v-14.74h1.78v6.06z"/><path id="g" d="M325.55 82.805c-.82.02-1.52.1-2.1.2s-1.04.24-1.4.4-.64.36-.8.58c-.16.24-.24.48-.24.76s.04.5.14.7c.08.2.2.36.34.48a1.69 1.69 0 0 0 .54.26c.2.06.42.08.66.08.3 0 .6-.02.86-.08s.5-.16.72-.28c.24-.12.46-.26.66-.44.22-.16.42-.34.62-.56v-2.1zm-5.74-4.14c.56-.54 1.16-.94 1.8-1.22.64-.26 1.36-.4 2.16-.4.56 0 1.06.1 1.5.28a3.51 3.51 0 0 1 1.12.78c.3.34.52.74.68 1.22.14.48.22 1 .22 1.56v6.48h-.78c-.18 0-.32-.02-.4-.08-.1-.06-.18-.18-.22-.34l-.2-.96-.78.66c-.26.18-.54.34-.8.48-.28.12-.58.22-.9.3-.32.06-.68.1-1.06.1-.4 0-.76-.06-1.1-.16-.36-.12-.66-.28-.92-.5s-.46-.5-.6-.84c-.16-.34-.22-.72-.22-1.2a2.14 2.14 0 0 1 .32-1.14c.22-.38.58-.7 1.08-1 .48-.28 1.12-.52 1.92-.7s1.76-.28 2.92-.32v-.78c0-.78-.16-1.38-.5-1.78s-.84-.62-1.5-.62c-.44 0-.8.06-1.1.18-.3.1-.56.22-.78.36l-.56.38c-.16.1-.3.16-.46.16a.49.49 0 0 1-.3-.1c-.1-.06-.16-.14-.22-.24l-.32-.56z"/><path id="h" d="M341.16 87.365v-10.14h1.06c.26 0 .42.14.48.38l.12 1.04c.38-.46.8-.84 1.26-1.14.46-.28 1-.44 1.62-.44.68 0 1.24.2 1.66.58s.72.9.92 1.54c.14-.36.32-.68.56-.96.22-.26.48-.48.78-.66a3.58 3.58 0 0 1 .9-.38 4.15 4.15 0 0 1 1-.12 3.99 3.99 0 0 1 1.42.26 3.07 3.07 0 0 1 1.06.74c.28.34.5.74.66 1.22s.22 1.02.24 1.62v6.46h-1.8v-6.46c0-.78-.18-1.38-.52-1.8-.34-.4-.84-.62-1.5-.62-.3 0-.58.06-.84.16a1.95 1.95 0 0 0-.68.46c-.2.2-.36.46-.48.76s-.18.66-.18 1.04v6.46h-1.78v-6.46c0-.8-.18-1.42-.5-1.82s-.8-.6-1.42-.6a2.18 2.18 0 0 0-1.22.36c-.38.24-.72.56-1.04.96v7.56h-1.78z"/><path id="i" d="M358.74 81.065c0-1.42-.2-2.8-.56-4.16a16.03 16.03 0 0 0-1.58-3.84c-.06-.1-.1-.18-.1-.26-.02-.08-.02-.14 0-.2s.06-.1.1-.14.08-.08.14-.12l.8-.5a17.55 17.55 0 0 1 1.26 2.3c.36.76.64 1.5.86 2.26a15.16 15.16 0 0 1 .48 2.3c.1.78.14 1.56.14 2.36 0 .82-.04 1.62-.14 2.38a15.16 15.16 0 0 1-.48 2.3 15.13 15.13 0 0 1-.86 2.28c-.34.74-.76 1.5-1.26 2.28l-.8-.48c-.06-.04-.1-.08-.14-.12s-.08-.1-.1-.16-.02-.12 0-.2c0-.08.04-.16.1-.26a15.84 15.84 0 0 0 1.58-3.86c.36-1.34.56-2.72.56-4.16z"/><path id="j" d="M195.06 208.08c.22-.24.44-.46.7-.68.24-.18.5-.36.78-.5s.56-.26.88-.34c.3-.08.64-.12 1-.12.56 0 1.04.1 1.46.28s.78.44 1.06.78.5.74.66 1.22c.14.48.22 1 .22 1.56v6.46h-1.8v-6.46c0-.76-.18-1.36-.52-1.78-.36-.42-.88-.64-1.6-.64-.52 0-1.02.14-1.48.38a4.72 4.72 0 0 0-1.26 1.04v7.46h-1.78V206.6h1.06c.26 0 .42.14.48.38l.14 1.1z"/><path id="k" d="M688.345 24.99c.22-.24.44-.46.7-.68.24-.18.5-.36.78-.5s.56-.26.88-.34c.3-.08.64-.12 1-.12.56 0 1.04.1 1.46.28s.78.44 1.06.78.5.74.66 1.22c.14.48.22 1 .22 1.56v6.46h-1.8v-6.46c0-.76-.18-1.36-.52-1.78-.36-.42-.88-.64-1.6-.64-.52 0-1.02.14-1.48.38a4.72 4.72 0 0 0-1.26 1.04v7.46h-1.78V23.51h1.06c.26 0 .42.14.48.38l.14 1.1z"/><path id="l" d="M167.959 143.031c0-.32-.048-.624-.144-.896s-.24-.512-.416-.72c-.176-.192-.4-.352-.64-.464-.256-.112-.56-.16-.88-.16-.688 0-1.216.192-1.616.592s-.64.944-.736 1.648h4.432zm1.152 3.808c-.192.208-.4.4-.64.56s-.512.288-.784.384c-.288.096-.576.176-.864.224-.304.048-.608.08-.896.08a4.12 4.12 0 0 1-1.552-.288c-.464-.192-.88-.464-1.216-.832-.352-.368-.624-.816-.8-1.36-.192-.528-.288-1.152-.288-1.856 0-.56.08-1.088.256-1.584.176-.48.416-.912.752-1.264.32-.368.72-.64 1.184-.848s.992-.32 1.584-.32a3.72 3.72 0 0 1 1.344.256 3.05 3.05 0 0 1 1.072.704c.304.304.544.688.72 1.136.16.448.256.96.256 1.536 0 .224-.032.368-.08.448s-.144.112-.272.112h-5.408c.016.512.08.96.208 1.328.128.384.304.704.528.96s.48.432.8.56c.304.128.656.192 1.04.192.352 0 .656-.048.912-.128s.48-.176.672-.272l.464-.256c.128-.08.24-.128.336-.128.112 0 .192.048.272.128l.4.528z"/><path id="m" d="M172.407 140.951c.352-.368.736-.656 1.152-.88s.912-.336 1.456-.336c.448 0 .832.08 1.168.224s.624.352.848.624.4.592.528.976c.112.384.176.8.176 1.248v5.168h-1.44v-5.168c0-.608-.144-1.088-.416-1.424-.288-.336-.704-.512-1.28-.512-.416 0-.816.112-1.184.304-.368.208-.704.48-1.008.832v5.968h-1.424v-11.792h1.424v4.768z"/><path id="n" d="M193.479 141.495c.256-.56.576-.992.944-1.296.368-.32.832-.48 1.376-.48.16 0 .32.032.48.064s.304.096.432.176l-.112 1.056c-.032.144-.112.208-.24.208a1.54 1.54 0 0 1-.32-.048 2.37 2.37 0 0 0-.496-.048c-.256 0-.48.032-.688.112-.192.08-.368.192-.528.336a2.16 2.16 0 0 0-.432.544c-.128.208-.24.464-.336.736v5.12h-1.424v-8.112h.816c.144 0 .256.032.32.096.048.064.096.16.112.304l.096 1.232z"/><path id="o" d="M208.727 146.887v1.088h-6.144v-1.088h2.464v-7.824l.016-.704-2.032 1.744c-.08.064-.144.096-.208.112-.08.016-.144.016-.192 0-.064 0-.128-.032-.176-.064s-.08-.064-.112-.096l-.448-.624 3.424-2.944h1.152v10.4h2.256z"/><path id="p" d="M246.831 139.735c.592 0 1.12.112 1.6.304a3.43 3.43 0 0 1 1.216.832c.336.368.592.816.768 1.328s.272 1.088.272 1.712c0 .64-.096 1.216-.272 1.728s-.432.96-.768 1.312c-.336.368-.736.656-1.216.848s-1.008.288-1.6.288-1.136-.096-1.616-.288-.88-.48-1.216-.848c-.336-.352-.592-.8-.768-1.312s-.272-1.088-.272-1.728c0-.624.096-1.2.272-1.712s.432-.96.768-1.328a3.43 3.43 0 0 1 1.216-.832 4.34 4.34 0 0 1 1.616-.304zm0 7.232c.8 0 1.392-.256 1.792-.8.4-.528.592-1.28.592-2.24s-.192-1.712-.592-2.256-.992-.8-1.792-.816c-.4.016-.752.08-1.056.208a2.01 2.01 0 0 0-.752.608c-.208.256-.352.576-.448.96s-.144.816-.144 1.296c0 .96.192 1.712.592 2.24.4.544.992.8 1.808.8z"/><path id="q" d="M255.271 144.007a1.94 1.94 0 0 0 .768-.112c.208-.08.4-.192.544-.336a1.58 1.58 0 0 0 .336-.512c.08-.208.112-.432.112-.672 0-.496-.144-.88-.448-1.184-.304-.288-.736-.432-1.312-.432s-1.008.144-1.312.432c-.304.304-.448.688-.448 1.184 0 .24.032.464.112.672a1.58 1.58 0 0 0 .336.512c.144.144.336.256.56.336.208.08.464.128.752.112zm2.576 4.416a.72.72 0 0 0-.176-.496c-.112-.112-.256-.208-.448-.288a3.62 3.62 0 0 0-.656-.144l-.8-.064-.848-.048-.832-.08a2.35 2.35 0 0 0-.736.528 1.04 1.04 0 0 0-.288.736c0 .176.048.352.144.512s.224.288.432.4c.192.112.432.208.72.272s.624.112 1.024.112a5.05 5.05 0 0 0 1.04-.112c.304-.064.56-.176.768-.288.208-.128.368-.288.48-.464a1.06 1.06 0 0 0 .176-.576zm1.44-8.24v.528c0 .176-.112.288-.336.336l-.912.128c.176.352.256.736.272 1.168-.016.4-.08.752-.24 1.072-.144.32-.352.608-.624.832a3.09 3.09 0 0 1-.96.528c-.368.128-.784.176-1.216.176-.384 0-.736-.032-1.072-.128-.176.112-.304.224-.384.336-.096.128-.144.24-.144.368a.47.47 0 0 0 .24.432 1.59 1.59 0 0 0 .624.208 4.67 4.67 0 0 0 .864.08l1.008.064c.352.016.688.064 1.008.112.336.064.624.16.88.288.256.144.464.32.624.56s.24.544.24.912c0 .352-.096.688-.272 1.008s-.416.608-.736.864a3.85 3.85 0 0 1-1.2.608c-.48.16-1.008.24-1.6.24s-1.104-.064-1.552-.176c-.448-.128-.816-.288-1.104-.48s-.512-.432-.656-.688-.224-.528-.224-.8c0-.4.128-.752.384-1.024.24-.272.592-.496 1.024-.672a1.41 1.41 0 0 1-.576-.416c-.144-.176-.208-.432-.208-.736 0-.112.016-.224.064-.352a2.15 2.15 0 0 1 .192-.384 1.73 1.73 0 0 1 .336-.352c.128-.112.272-.208.448-.304-.4-.224-.72-.512-.944-.88s-.336-.8-.336-1.296c0-.4.08-.752.224-1.072.16-.32.368-.608.64-.832s.592-.4.976-.528c.368-.112.784-.176 1.232-.176.352 0 .688.032.992.112s.576.192.832.336h2.192z"/><path id="r" d="M283.495 141.207c-.064.112-.176.176-.304.176a.51.51 0 0 1-.272-.096l-.368-.192c-.144-.064-.32-.128-.528-.192s-.448-.096-.72-.096c-.24 0-.448.032-.64.096a1.79 1.79 0 0 0-.496.24c-.144.112-.24.24-.32.384-.064.144-.096.288-.096.448 0 .208.048.384.176.528a1.25 1.25 0 0 0 .48.352c.192.112.416.192.672.272l.768.256a7.49 7.49 0 0 1 .768.288c.256.112.48.24.672.4a1.95 1.95 0 0 1 .48.592 1.88 1.88 0 0 1 .176.832c0 .368-.064.72-.192 1.04a2.33 2.33 0 0 1-.592.816 2.83 2.83 0 0 1-.96.544c-.384.144-.816.208-1.312.208-.576 0-1.088-.096-1.536-.272-.464-.192-.848-.416-1.168-.72l.336-.544c.032-.064.08-.112.144-.16.064-.032.128-.048.224-.048s.192.032.304.112.24.16.384.24c.16.096.336.176.56.256s.496.112.816.112c.272 0 .528-.032.736-.112.208-.064.368-.16.512-.288s.24-.256.304-.432a1.27 1.27 0 0 0 .112-.512c0-.224-.064-.4-.192-.544-.112-.144-.272-.272-.464-.384-.208-.096-.432-.192-.688-.272l-.768-.24c-.272-.08-.528-.176-.784-.288s-.48-.256-.672-.416-.352-.368-.48-.608c-.112-.24-.176-.544-.176-.896a2.13 2.13 0 0 1 .192-.88c.128-.288.32-.544.56-.752.24-.224.544-.4.912-.528.352-.112.752-.192 1.216-.192a4.12 4.12 0 0 1 1.44.256c.416.176.784.4 1.104.688l-.32.528z"/><path id="s" d="M324.143 148.103c-.64 0-1.136-.176-1.472-.544-.352-.352-.528-.864-.512-1.536v-4.96h-.976c-.096 0-.16-.032-.224-.08s-.08-.128-.08-.24v-.56l1.328-.176.32-2.496c.016-.08.048-.144.112-.192.048-.048.128-.08.224-.08h.72v2.784h2.336v1.04h-2.336v4.864c0 .336.08.592.24.752.16.176.384.256.64.256.144 0 .272-.016.384-.064a1.2 1.2 0 0 0 .288-.128l.208-.128c.048-.048.096-.064.144-.064.08 0 .144.048.208.128l.416.688a2.8 2.8 0 0 1-.896.544c-.352.128-.704.192-1.072.192z"/><path id="t" d="M361.495 141.303c-.048.064-.08.112-.128.144s-.096.048-.176.048-.16-.032-.256-.096l-.368-.224c-.144-.08-.304-.16-.512-.224s-.464-.096-.752-.096c-.4 0-.752.064-1.056.208s-.56.352-.768.608c-.208.272-.368.592-.464.976-.112.384-.16.8-.16 1.264a4.65 4.65 0 0 0 .176 1.312c.112.384.256.704.464.96s.464.464.752.592c.288.144.608.208.976.208.352 0 .64-.048.864-.128s.4-.176.544-.272l.368-.272c.096-.08.208-.128.304-.128.112 0 .208.048.272.128l.4.528c-.176.224-.384.4-.608.56s-.464.288-.72.384c-.256.112-.528.176-.816.24-.288.048-.576.064-.864.064a3.41 3.41 0 0 1-1.408-.288c-.432-.176-.816-.448-1.136-.8s-.576-.8-.752-1.312-.272-1.104-.272-1.776c0-.592.08-1.152.256-1.664a3.7 3.7 0 0 1 .736-1.328c.32-.368.72-.656 1.184-.864.48-.208 1.024-.32 1.632-.32.576 0 1.072.096 1.504.288a3.53 3.53 0 0 1 1.168.768l-.384.512z"/><path id="u" d="M172.407 272.976c.352-.368.736-.656 1.152-.88s.912-.336 1.456-.336c.448 0 .832.08 1.168.224s.624.352.848.624.4.592.528.976c.112.384.176.8.176 1.248V280h-1.44v-5.168c0-.608-.144-1.088-.416-1.424-.288-.336-.704-.512-1.28-.512-.416 0-.816.112-1.184.304-.368.208-.704.48-1.008.832V280h-1.424v-11.792h1.424v4.768z"/><path id="v" d="M193.479 273.52c.256-.56.576-.992.944-1.296.368-.32.832-.48 1.376-.48.16 0 .32.032.48.064s.304.096.432.176l-.112 1.056c-.032.144-.112.208-.24.208a1.54 1.54 0 0 1-.32-.048 2.37 2.37 0 0 0-.496-.048c-.256 0-.48.032-.688.112-.192.08-.368.192-.528.336a2.16 2.16 0 0 0-.432.544c-.128.208-.24.464-.336.736V280h-1.424v-8.112h.816c.144 0 .256.032.32.096.048.064.096.16.112.304l.096 1.232z"/><path id="w" d="M208.487 278.64c.144 0 .272.048.368.144.08.096.128.208.128.352V280h-7.648v-.496a.74.74 0 0 1 .064-.304.94.94 0 0 1 .208-.304l3.664-3.68.832-.896a6 6 0 0 0 .64-.864c.176-.288.32-.576.416-.864.096-.304.144-.608.144-.96 0-.336-.064-.624-.16-.88-.112-.256-.256-.464-.448-.624-.176-.16-.4-.288-.64-.368-.256-.08-.528-.128-.816-.128a2.54 2.54 0 0 0-.8.128c-.256.08-.464.208-.656.352-.192.16-.352.336-.48.544a2 2 0 0 0-.272.688c-.064.192-.144.304-.256.368s-.272.08-.464.048l-.736-.128c.064-.512.208-.976.432-1.376a3.21 3.21 0 0 1 .816-1.024c.32-.272.704-.464 1.12-.608s.88-.224 1.376-.224c.48 0 .928.08 1.36.224.416.144.784.352 1.088.624s.56.608.736 1.008a3.59 3.59 0 0 1 .256 1.344c0 .432-.064.816-.192 1.184s-.304.72-.512 1.04a8.55 8.55 0 0 1-.768.976l-.896.944-3.024 3.088.64-.128.64-.064h3.84z"/><path id="x" d="M239.271 273.52c.256-.56.576-.992.944-1.296.368-.32.832-.48 1.376-.48a2.47 2.47 0 0 1 .48.064c.16.032.304.096.432.176l-.112 1.056c-.032.144-.112.208-.24.208a1.54 1.54 0 0 1-.32-.048 2.37 2.37 0 0 0-.496-.048c-.256 0-.48.032-.688.112-.192.08-.368.192-.528.336a2.16 2.16 0 0 0-.432.544c-.128.208-.24.464-.336.736V280h-1.424v-8.112h.816c.144 0 .256.032.32.096.048.064.096.16.112.304l.096 1.232z"/></defs></svg>