<?xml version="1.0" encoding="UTF-8" standalone="no"?>
<!DOCTYPE svg PUBLIC "-//W3C//DTD SVG 1.1//EN" "http://www.w3.org/Graphics/SVG/1.1/DTD/svg11.dtd">
<svg width="100%" height="100%" viewBox="0 0 400 450" version="1.1" xmlns="http://www.w3.org/2000/svg" xmlns:xlink="http://www.w3.org/1999/xlink" xml:space="preserve" xmlns:serif="http://www.serif.com/" style="fill-rule:evenodd;clip-rule:evenodd;">
    <g transform="matrix(1,0,0,1,27.8771,407.5)">
        <rect x="52.5" y="-365" width="160" height="68" style="fill:white;fill-rule:nonzero;stroke:black;stroke-width:1px;"/>
    </g>
    <rect x="0" y="0" width="400" height="450" style="fill:none;stroke:black;stroke-width:2px;stroke-linecap:round;stroke-linejoin:round;stroke-miterlimit:1.5;"/>
    <g transform="matrix(1,0,0,1,27.8771,407.5)">
        <rect x="254" y="-149.5" width="95" height="53" style="fill:rgb(250,204,196);fill-rule:nonzero;stroke:black;stroke-width:1px;"/>
    </g>
    <g transform="matrix(1,0,0,1,27.8771,407.5)">
        <rect x="33" y="-157" width="203" height="68" style="fill:white;fill-rule:nonzero;stroke:black;stroke-width:1px;"/>
    </g>
    <g transform="matrix(1,0,0,1,27.8771,407.5)">
        <rect x="113.5" y="-261" width="210" height="68" style="fill:white;fill-rule:nonzero;stroke:black;stroke-width:1px;"/>
    </g>
    <g transform="matrix(1,0,0,1,27.8771,407.5)">
        <rect x="144" y="-53" width="95" height="53" style="fill:rgb(208,211,253);fill-rule:nonzero;stroke:black;stroke-width:1px;"/>
    </g>
    <g transform="matrix(1,0,0,1,27.8771,407.5)">
        <rect x="31" y="-53" width="95" height="53" style="fill:rgb(250,204,196);fill-rule:nonzero;stroke:black;stroke-width:1px;"/>
    </g>
    <g transform="matrix(1,0,0,1,27.8771,407.5)">
        <rect x="0" y="-253.5" width="95" height="53" style="fill:rgb(208,211,253);fill-rule:nonzero;stroke:black;stroke-width:1px;"/>
    </g>
    <g transform="matrix(1,0,0,1,178.988,237.814)">
        <g transform="matrix(14,0,0,14,44.7369,100.04)">
        </g>
        <text x="18.361px" y="100.04px" style="font-family:'Lato-Regular', 'Lato', sans-serif;font-size:14px;">nein</text>
    </g>
    <g transform="matrix(1,0,0,1,274.32,135.173)">
        <g transform="matrix(14,0,0,14,44.7369,100.04)">
        </g>
        <text x="18.361px" y="100.04px" style="font-family:'Lato-Regular', 'Lato', sans-serif;font-size:14px;">nein</text>
    </g>
    <g transform="matrix(1,0,0,1,86.6764,28.5415)">
        <g transform="matrix(14,0,0,14,28.6789,100.04)">
        </g>
        <text x="18.361px" y="100.04px" style="font-family:'Lato-Regular', 'Lato', sans-serif;font-size:14px;">ja</text>
    </g>
    <g transform="matrix(1,0,0,1,174.608,132.205)">
        <g transform="matrix(14,0,0,14,28.6789,100.04)">
        </g>
        <text x="18.361px" y="100.04px" style="font-family:'Lato-Regular', 'Lato', sans-serif;font-size:14px;">ja</text>
    </g>
    <g transform="matrix(1,0,0,1,101.447,237.814)">
        <g transform="matrix(14,0,0,14,28.6789,100.04)">
        </g>
        <text x="18.361px" y="100.04px" style="font-family:'Lato-Regular', 'Lato', sans-serif;font-size:14px;">ja</text>
    </g>
    <g transform="matrix(1,0,0,1,187.046,28.5415)">
        <g transform="matrix(14,0,0,14,44.7369,100.04)">
        </g>
        <text x="18.361px" y="100.04px" style="font-family:'Lato-Regular', 'Lato', sans-serif;font-size:14px;">nein</text>
    </g>
    <g transform="matrix(1,0,0,1,160.377,57.7)">
        <text x="-72.317px" y="0px" style="font-family:'Lato-Regular', 'Lato', sans-serif;font-size:14px;">P<tspan x="-64.043px -59.234px " y="0px 0px ">re</tspan>is [EUR] &lt;= 16376.5</text>
    </g>
    <g transform="matrix(1,0,0,1,27.8771,407.5)">
        <path d="M104.9,-296.88C95.46,-285.56 84.9,-272.88 75.43,-261.52" style="fill:none;fill-rule:nonzero;stroke:black;stroke-width:1px;"/>
    </g>
    <g transform="matrix(1,0,0,1,27.8771,407.5)">
        <path d="M77.86,-258.96L68.77,-253.52L72.48,-263.44L77.86,-258.96Z" style="fill-rule:nonzero;stroke:black;stroke-width:1px;"/>
    </g>
    <g transform="matrix(1,0,0,1,246.377,161.7)">
        <text x="-99.827px" y="0px" style="font-family:'Lato-Regular', 'Lato', sans-serif;font-size:14px;">Kilometer<tspan x="-39.662px " y="0px ">s</tspan>tand [km<tspan x="20.111px " y="0px ">]</tspan> &lt;= 13500.0</text>
    </g>
    <g transform="matrix(1,0,0,1,27.8771,407.5)">
        <path d="M160.42,-296.88C167.93,-287.98 176.14,-278.24 183.97,-268.96" style="fill:none;fill-rule:nonzero;stroke:black;stroke-width:1px;"/>
    </g>
    <g transform="matrix(1,0,0,1,27.8771,407.5)">
        <path d="M186.65,-271.2L190.42,-261.3L181.3,-266.69L186.65,-271.2Z" style="fill-rule:nonzero;stroke:black;stroke-width:1px;"/>
    </g>
    <g transform="matrix(1,0,0,1,162.377,265.7)">
        <text x="-95.767px" y="0px" style="font-family:'Lato-Regular', 'Lato', sans-serif;font-size:14px;">Kilometer<tspan x="-35.602px " y="0px ">s</tspan>tand [km<tspan x="24.171px " y="0px ">]</tspan> &lt;= 8198.0</text>
    </g>
    <g id="edge3" transform="matrix(1,0,0,1,27.8771,407.5)">
        <path d="M191.23,-192.88C183.97,-184.07 176.03,-174.43 168.46,-165.24" style="fill:none;fill-rule:nonzero;stroke:black;stroke-width:1px;"/>
        <path d="M170.98,-162.79L161.92,-157.3L165.58,-167.24L170.98,-162.79Z" style="fill-rule:nonzero;stroke:black;stroke-width:1px;"/>
    </g>
    <g id="edge6" transform="matrix(1,0,0,1,27.8771,407.5)">
        <path d="M245.45,-192.88C254.67,-181.56 264.98,-168.88 274.22,-157.52" style="fill:none;fill-rule:nonzero;stroke:black;stroke-width:1px;"/>
        <path d="M277.14,-159.49L280.73,-149.52L271.71,-155.07L277.14,-159.49Z" style="fill-rule:nonzero;stroke:black;stroke-width:1px;"/>
    </g>
    <g id="edge4" transform="matrix(1,0,0,1,27.8771,407.5)">
        <path d="M114.91,-88.95C109.76,-80.26 104.2,-70.86 99,-62.09" style="fill:none;fill-rule:nonzero;stroke:black;stroke-width:1px;"/>
        <path d="M101.86,-60.06L93.75,-53.24L95.84,-63.62L101.86,-60.06Z" style="fill-rule:nonzero;stroke:black;stroke-width:1px;"/>
    </g>
    <g id="edge5" transform="matrix(1,0,0,1,27.8771,407.5)">
        <path d="M154.44,-88.95C159.73,-80.17 165.47,-70.66 170.8,-61.82" style="fill:none;fill-rule:nonzero;stroke:black;stroke-width:1px;"/>
        <path d="M173.81,-63.61L175.98,-53.24L167.81,-59.99L173.81,-63.61Z" style="fill-rule:nonzero;stroke:black;stroke-width:1px;"/>
    </g>
    <g transform="matrix(1,0,0,1,-394.607,123.424)">
        <g transform="matrix(0.105582,0,0,0.105582,440.797,55.0762)">
            <g>
                <g transform="matrix(1,0,0,1,-254.349,-210.586)">
                    <path d="M287.315,277.086C292.637,277.086 296.967,281.417 296.967,286.739C296.967,292.061 292.637,296.391 287.315,296.391C281.992,296.391 277.662,292.061 277.662,286.739C277.662,281.417 281.992,277.086 287.315,277.086Z" style="fill-rule:nonzero;"/>
                    <path d="M268.754,286.739C268.754,296.989 277.064,305.299 287.314,305.299C297.564,305.299 305.874,296.989 305.874,286.739C305.874,276.489 297.564,268.178 287.314,268.178C277.064,268.179 268.754,276.489 268.754,286.739ZM273.536,286.739C273.536,279.142 279.717,272.961 287.315,272.961C294.912,272.961 301.093,279.142 301.093,286.739C301.093,294.336 294.912,300.517 287.315,300.517C279.717,300.517 273.536,294.336 273.536,286.739Z" style="fill-rule:nonzero;"/>
                </g>
                <g transform="matrix(1,0,0,1,-254.349,-210.586)">
                    <path d="M437.703,277.086C443.025,277.086 447.354,281.417 447.354,286.739C447.354,292.061 443.025,296.391 437.703,296.391C432.381,296.391 428.05,292.061 428.05,286.739C428.05,281.417 432.381,277.086 437.703,277.086Z" style="fill-rule:nonzero;"/>
                    <path d="M419.143,286.739C419.143,296.989 427.453,305.299 437.703,305.299C447.954,305.299 456.264,296.989 456.264,286.739C456.264,276.489 447.954,268.178 437.703,268.178C427.452,268.179 419.143,276.489 419.143,286.739ZM423.924,286.739C423.924,279.142 430.106,272.961 437.703,272.961C445.3,272.961 451.48,279.142 451.48,286.739C451.48,294.336 445.299,300.517 437.703,300.517C430.105,300.517 423.924,294.336 423.924,286.739Z" style="fill-rule:nonzero;"/>
                </g>
                <g transform="matrix(1,0,0,1,-254.349,-210.586)">
                    <path d="M255.346,286.739L265.782,286.739C265.782,286.739 265.168,264.189 287.315,264.189C309.462,264.189 310.284,286.739 310.284,286.739L415.248,286.739C415.248,286.739 415.248,264.496 437.702,264.496C460.156,264.496 460.672,286.739 460.672,286.739C480.621,286.739 483.997,288.128 484.611,277.086C485.224,266.044 477.858,265.723 477.858,265.723C474.175,237.794 420.159,236.259 420.159,236.259C420.159,236.259 387.626,212.013 367.677,211.399C347.727,210.785 321.947,208.637 301.997,215.389C282.047,222.141 262.405,258.357 262.405,258.357C250.436,266.951 255.346,286.739 255.346,286.739ZM460.551,248.691C460.551,248.691 473.566,254.838 473.857,266.007C473.857,266.007 464.34,267.755 461.037,263.967C457.734,260.18 460.551,248.691 460.551,248.691ZM339.507,217.241C345.527,217.278 351.514,217.173 357.334,217.163C383.108,217.123 406.09,236.923 406.09,236.923L339.508,237.042L339.508,217.241L339.507,217.241ZM285.167,237.138C298.525,220.11 315.797,217.531 333.279,217.26L333.279,237.052L285.167,237.138Z" style="fill-rule:nonzero;stroke:black;stroke-width:9.47px;stroke-linejoin:round;stroke-miterlimit:2;"/>
                </g>
            </g>
        </g>
        <g transform="matrix(1,0,0,1,404.842,-17.9238)">
            <g transform="matrix(12,0,0,12,35.9557,77.419)">
            </g>
            <text x="22.036px" y="77.419px" style="font-family:'Lato-Regular', 'Lato', sans-serif;font-size:12px;">11</text>
        </g>
    </g>
    <g transform="matrix(1,0,0,1,-347.107,123.424)">
        <g transform="matrix(0.105582,0,0,0.105582,440.797,55.0762)">
            <g>
                <g transform="matrix(1,0,0,1,-254.349,-210.586)">
                    <path d="M287.315,277.086C292.637,277.086 296.967,281.417 296.967,286.739C296.967,292.061 292.637,296.391 287.315,296.391C281.992,296.391 277.662,292.061 277.662,286.739C277.662,281.417 281.992,277.086 287.315,277.086Z" style="fill-rule:nonzero;"/>
                    <path d="M268.754,286.739C268.754,296.989 277.064,305.299 287.314,305.299C297.564,305.299 305.874,296.989 305.874,286.739C305.874,276.489 297.564,268.178 287.314,268.178C277.064,268.179 268.754,276.489 268.754,286.739ZM273.536,286.739C273.536,279.142 279.717,272.961 287.315,272.961C294.912,272.961 301.093,279.142 301.093,286.739C301.093,294.336 294.912,300.517 287.315,300.517C279.717,300.517 273.536,294.336 273.536,286.739Z" style="fill-rule:nonzero;"/>
                </g>
                <g transform="matrix(1,0,0,1,-254.349,-210.586)">
                    <path d="M437.703,277.086C443.025,277.086 447.354,281.417 447.354,286.739C447.354,292.061 443.025,296.391 437.703,296.391C432.381,296.391 428.05,292.061 428.05,286.739C428.05,281.417 432.381,277.086 437.703,277.086Z" style="fill-rule:nonzero;"/>
                    <path d="M419.143,286.739C419.143,296.989 427.453,305.299 437.703,305.299C447.954,305.299 456.264,296.989 456.264,286.739C456.264,276.489 447.954,268.178 437.703,268.178C427.452,268.179 419.143,276.489 419.143,286.739ZM423.924,286.739C423.924,279.142 430.106,272.961 437.703,272.961C445.3,272.961 451.48,279.142 451.48,286.739C451.48,294.336 445.299,300.517 437.703,300.517C430.105,300.517 423.924,294.336 423.924,286.739Z" style="fill-rule:nonzero;"/>
                </g>
                <g transform="matrix(1,0,0,1,-254.349,-210.586)">
                    <path d="M255.346,286.739L265.782,286.739C265.782,286.739 265.168,264.189 287.315,264.189C309.462,264.189 310.284,286.739 310.284,286.739L415.248,286.739C415.248,286.739 415.248,264.496 437.702,264.496C460.156,264.496 460.672,286.739 460.672,286.739C480.621,286.739 483.997,288.128 484.611,277.086C485.224,266.044 477.858,265.723 477.858,265.723C474.175,237.794 420.159,236.259 420.159,236.259C420.159,236.259 387.626,212.013 367.677,211.399C347.727,210.785 321.947,208.637 301.997,215.389C282.047,222.141 262.405,258.357 262.405,258.357C250.436,266.951 255.346,286.739 255.346,286.739ZM460.551,248.691C460.551,248.691 473.566,254.838 473.857,266.007C473.857,266.007 464.34,267.755 461.037,263.967C457.734,260.18 460.551,248.691 460.551,248.691ZM339.507,217.241C345.527,217.278 351.514,217.173 357.334,217.163C383.108,217.123 406.09,236.923 406.09,236.923L339.508,237.042L339.508,217.241L339.507,217.241ZM285.167,237.138C298.525,220.11 315.797,217.531 333.279,217.26L333.279,237.052L285.167,237.138Z" style="fill-rule:nonzero;stroke:black;stroke-width:9.47px;stroke-linejoin:round;stroke-miterlimit:2;"/>
                </g>
            </g>
        </g>
        <g transform="matrix(1,0,0,1,404.842,-17.9238)">
            <g transform="matrix(12,0,0,12,35.9557,77.419)">
            </g>
            <text x="22.036px" y="77.419px" style="font-family:'Lato-Regular', 'Lato', sans-serif;font-size:12px;">12</text>
        </g>
    </g>
    <g transform="matrix(1,0,0,1,-337.421,323.924)">
        <g transform="matrix(0.105582,0,0,0.105582,440.797,55.0762)">
            <g>
                <g transform="matrix(1,0,0,1,-254.349,-210.586)">
                    <path d="M287.315,277.086C292.637,277.086 296.967,281.417 296.967,286.739C296.967,292.061 292.637,296.391 287.315,296.391C281.992,296.391 277.662,292.061 277.662,286.739C277.662,281.417 281.992,277.086 287.315,277.086Z" style="fill-rule:nonzero;"/>
                    <path d="M268.754,286.739C268.754,296.989 277.064,305.299 287.314,305.299C297.564,305.299 305.874,296.989 305.874,286.739C305.874,276.489 297.564,268.178 287.314,268.178C277.064,268.179 268.754,276.489 268.754,286.739ZM273.536,286.739C273.536,279.142 279.717,272.961 287.315,272.961C294.912,272.961 301.093,279.142 301.093,286.739C301.093,294.336 294.912,300.517 287.315,300.517C279.717,300.517 273.536,294.336 273.536,286.739Z" style="fill-rule:nonzero;"/>
                </g>
                <g transform="matrix(1,0,0,1,-254.349,-210.586)">
                    <path d="M437.703,277.086C443.025,277.086 447.354,281.417 447.354,286.739C447.354,292.061 443.025,296.391 437.703,296.391C432.381,296.391 428.05,292.061 428.05,286.739C428.05,281.417 432.381,277.086 437.703,277.086Z" style="fill-rule:nonzero;"/>
                    <path d="M419.143,286.739C419.143,296.989 427.453,305.299 437.703,305.299C447.954,305.299 456.264,296.989 456.264,286.739C456.264,276.489 447.954,268.178 437.703,268.178C427.452,268.179 419.143,276.489 419.143,286.739ZM423.924,286.739C423.924,279.142 430.106,272.961 437.703,272.961C445.3,272.961 451.48,279.142 451.48,286.739C451.48,294.336 445.299,300.517 437.703,300.517C430.105,300.517 423.924,294.336 423.924,286.739Z" style="fill-rule:nonzero;"/>
                </g>
                <g transform="matrix(1,0,0,1,-254.349,-210.586)">
                    <path d="M255.346,286.739L265.782,286.739C265.782,286.739 265.168,264.189 287.315,264.189C309.462,264.189 310.284,286.739 310.284,286.739L415.248,286.739C415.248,286.739 415.248,264.496 437.702,264.496C460.156,264.496 460.672,286.739 460.672,286.739C480.621,286.739 483.997,288.128 484.611,277.086C485.224,266.044 477.858,265.723 477.858,265.723C474.175,237.794 420.159,236.259 420.159,236.259C420.159,236.259 387.626,212.013 367.677,211.399C347.727,210.785 321.947,208.637 301.997,215.389C282.047,222.141 262.405,258.357 262.405,258.357C250.436,266.951 255.346,286.739 255.346,286.739ZM460.551,248.691C460.551,248.691 473.566,254.838 473.857,266.007C473.857,266.007 464.34,267.755 461.037,263.967C457.734,260.18 460.551,248.691 460.551,248.691ZM339.507,217.241C345.527,217.278 351.514,217.173 357.334,217.163C383.108,217.123 406.09,236.923 406.09,236.923L339.508,237.042L339.508,217.241L339.507,217.241ZM285.167,237.138C298.525,220.11 315.797,217.531 333.279,217.26L333.279,237.052L285.167,237.138Z" style="fill-rule:nonzero;stroke:black;stroke-width:9.47px;stroke-linejoin:round;stroke-miterlimit:2;"/>
                </g>
            </g>
        </g>
        <g transform="matrix(1,0,0,1,404.842,-17.9238)">
            <g transform="matrix(12,0,0,12,35.9557,77.419)">
            </g>
            <text x="22.036px" y="77.419px" style="font-family:'Lato-Regular', 'Lato', sans-serif;font-size:12px;">13</text>
        </g>
    </g>
</svg>
