<?xml version="1.0" encoding="UTF-8" standalone="no"?><!DOCTYPE svg PUBLIC "-//W3C//DTD SVG 1.1//EN" "http://www.w3.org/Graphics/SVG/1.1/DTD/svg11.dtd"><svg width="100%" height="100%" viewBox="0 0 1667 1875" version="1.1" xmlns="http://www.w3.org/2000/svg" xmlns:xlink="http://www.w3.org/1999/xlink" xml:space="preserve" xmlns:serif="http://www.serif.com/" style="fill-rule:evenodd;clip-rule:evenodd;"><rect x="334.904" y="177.083" width="666.667" height="283.333" style="fill:#fff;fill-rule:nonzero;stroke:#000;stroke-width:4.17px;"/><rect x="589.071" y="610.417" width="875" height="283.333" style="fill:#fff;fill-rule:nonzero;stroke:#000;stroke-width:4.17px;"/><g><g transform="matrix(50,0,0,50,808.257,832.957)"></g><text x="779.257px" y="832.957px" style="font-family:'Lato-Regular', 'Lato', sans-serif;font-size:50px;fill:#ef553b;">6</text><g><g><path d="M822.76,843.8c2.341,-0 4.246,1.905 4.246,4.246c0,2.341 -1.905,4.246 -4.246,4.246c-2.342,0 -4.247,-1.905 -4.247,-4.246c0,-2.341 1.905,-4.246 4.247,-4.246Z" style="fill:#ef553b;fill-rule:nonzero;"/><path d="M814.595,848.046c-0,4.509 3.655,8.165 8.165,8.165c4.509,0 8.165,-3.656 8.165,-8.165c-0,-4.509 -3.656,-8.165 -8.165,-8.165c-4.51,0 -8.165,3.656 -8.165,8.165Zm2.103,0c0,-3.342 2.719,-6.061 6.062,-6.061c3.342,-0 6.061,2.719 6.061,6.061c0,3.342 -2.719,6.061 -6.061,6.061c-3.343,0 -6.062,-2.719 -6.062,-6.061Z" style="fill:#ef553b;fill-rule:nonzero;"/></g><g><path d="M888.919,843.8c2.342,-0 4.246,1.905 4.246,4.246c-0,2.341 -1.904,4.246 -4.246,4.246c-2.341,0 -4.246,-1.905 -4.246,-4.246c-0,-2.341 1.905,-4.246 4.246,-4.246Z" style="fill:#ef553b;fill-rule:nonzero;"/><path d="M880.754,848.046c0,4.509 3.656,8.165 8.165,8.165c4.51,0 8.166,-3.656 8.166,-8.165c-0,-4.509 -3.656,-8.165 -8.166,-8.165c-4.509,0 -8.165,3.656 -8.165,8.165Zm2.104,0c-0,-3.342 2.719,-6.061 6.061,-6.061c3.342,-0 6.061,2.719 6.061,6.061c0,3.342 -2.719,6.061 -6.061,6.061c-3.342,0 -6.061,-2.719 -6.061,-6.061Z" style="fill:#ef553b;fill-rule:nonzero;"/></g><path d="M808.696,848.046l4.591,0c0,0 -0.27,-9.92 9.473,-9.92c9.743,-0 10.105,9.92 10.105,9.92l46.176,0c-0,0 -0,-9.785 9.878,-9.785c9.878,-0 10.105,9.785 10.105,9.785c8.776,0 10.261,0.611 10.531,-4.246c0.27,-4.858 -2.971,-4.999 -2.971,-4.999c-1.62,-12.287 -25.383,-12.962 -25.383,-12.962c0,-0 -14.312,-10.667 -23.088,-10.937c-8.776,-0.27 -20.118,-1.215 -28.894,1.756c-8.777,2.97 -17.417,18.902 -17.417,18.902c-5.266,3.781 -3.106,12.486 -3.106,12.486Zm90.275,-16.738c-0,-0 5.725,2.704 5.853,7.618c0,-0 -4.186,0.769 -5.64,-0.898c-1.453,-1.666 -0.213,-6.72 -0.213,-6.72Zm-53.25,-13.836c2.648,0.017 5.282,-0.03 7.842,-0.034c11.339,-0.018 21.449,8.693 21.449,8.693l-29.291,0.052l-0,-8.711l-0,0Zm-23.906,8.753c5.877,-7.491 13.475,-8.625 21.166,-8.744l-0,8.707l-21.166,0.037Z" style="fill:#ef553b;fill-rule:nonzero;stroke:#ef553b;stroke-width:4.17px;stroke-linejoin:round;stroke-miterlimit:2;"/></g></g><g><g transform="matrix(50,0,0,50,1237.03,728.829)"></g><text x="1208.03px" y="728.829px" style="font-family:'Lato-Regular', 'Lato', sans-serif;font-size:50px;fill:#ef553b;">4</text><g><g><path d="M1251.54,739.672c2.341,-0 4.246,1.905 4.246,4.246c-0,2.342 -1.905,4.246 -4.246,4.246c-2.342,0 -4.247,-1.904 -4.247,-4.246c-0,-2.341 1.905,-4.246 4.247,-4.246Z" style="fill:#ef553b;fill-rule:nonzero;"/><path d="M1243.37,743.918c0,4.51 3.656,8.165 8.165,8.165c4.509,0 8.165,-3.655 8.165,-8.165c0,-4.509 -3.656,-8.165 -8.165,-8.165c-4.509,0 -8.165,3.656 -8.165,8.165Zm2.104,0c-0,-3.342 2.719,-6.061 6.062,-6.061c3.342,0 6.061,2.719 6.061,6.061c-0,3.342 -2.719,6.062 -6.061,6.062c-3.343,-0 -6.062,-2.72 -6.062,-6.062Z" style="fill:#ef553b;fill-rule:nonzero;"/></g><g><path d="M1317.69,739.672c2.341,-0 4.245,1.905 4.245,4.246c0,2.342 -1.904,4.246 -4.245,4.246c-2.342,0 -4.247,-1.904 -4.247,-4.246c0,-2.341 1.905,-4.246 4.247,-4.246Z" style="fill:#ef553b;fill-rule:nonzero;"/><path d="M1309.53,743.918c-0,4.51 3.656,8.165 8.165,8.165c4.509,0 8.165,-3.655 8.165,-8.165c0,-4.509 -3.656,-8.165 -8.165,-8.165c-4.51,0 -8.165,3.656 -8.165,8.165Zm2.103,0c0,-3.342 2.72,-6.061 6.062,-6.061c3.342,0 6.061,2.719 6.061,6.061c-0,3.342 -2.72,6.062 -6.061,6.062c-3.343,-0 -6.062,-2.72 -6.062,-6.062Z" style="fill:#ef553b;fill-rule:nonzero;"/></g><path d="M1237.47,743.918l4.591,0c-0,0 -0.27,-9.92 9.473,-9.92c9.743,0 10.104,9.92 10.104,9.92l46.176,0c0,0 0,-9.785 9.878,-9.785c9.878,0 10.105,9.785 10.105,9.785c8.776,0 10.262,0.611 10.532,-4.246c0.269,-4.858 -2.971,-4.999 -2.971,-4.999c-1.62,-12.287 -25.383,-12.962 -25.383,-12.962c-0,0 -14.312,-10.666 -23.088,-10.937c-8.777,-0.27 -20.118,-1.215 -28.895,1.756c-8.776,2.97 -17.417,18.902 -17.417,18.902c-5.265,3.781 -3.105,12.486 -3.105,12.486Zm90.274,-16.738c0,0 5.726,2.704 5.854,7.618c-0,-0 -4.187,0.769 -5.64,-0.898c-1.453,-1.666 -0.214,-6.72 -0.214,-6.72Zm-53.25,-13.835c2.648,0.016 5.282,-0.03 7.843,-0.035c11.338,-0.017 21.448,8.693 21.448,8.693l-29.291,0.052l0,-8.71l0,-0Zm-23.905,8.753c5.876,-7.491 13.474,-8.626 21.165,-8.745l0,8.707l-21.165,0.038Z" style="fill:#ef553b;fill-rule:nonzero;stroke:#ef553b;stroke-width:4.17px;stroke-linejoin:round;stroke-miterlimit:2;"/></g></g><g><g transform="matrix(50,0,0,50,1064.72,832.957)"></g><text x="1035.72px" y="832.957px" style="font-family:'Lato-Regular', 'Lato', sans-serif;font-size:50px;fill:#ef553b;">8</text><g><g><path d="M1079.23,843.8c2.342,-0 4.246,1.905 4.246,4.246c0,2.341 -1.904,4.246 -4.246,4.246c-2.341,0 -4.246,-1.905 -4.246,-4.246c-0,-2.341 1.905,-4.246 4.246,-4.246Z" style="fill:#ef553b;fill-rule:nonzero;"/><path d="M1071.06,848.046c-0,4.509 3.656,8.165 8.165,8.165c4.509,0 8.165,-3.656 8.165,-8.165c-0,-4.509 -3.656,-8.165 -8.165,-8.165c-4.509,0 -8.165,3.656 -8.165,8.165Zm2.104,0c-0,-3.342 2.719,-6.061 6.061,-6.061c3.342,-0 6.062,2.719 6.062,6.061c-0,3.342 -2.72,6.061 -6.062,6.061c-3.342,0 -6.061,-2.719 -6.061,-6.061Z" style="fill:#ef553b;fill-rule:nonzero;"/></g><g><path d="M1145.39,843.8c2.341,-0 4.245,1.905 4.245,4.246c0,2.341 -1.904,4.246 -4.245,4.246c-2.342,0 -4.247,-1.905 -4.247,-4.246c-0,-2.341 1.905,-4.246 4.247,-4.246Z" style="fill:#ef553b;fill-rule:nonzero;"/><path d="M1137.22,848.046c-0,4.509 3.655,8.165 8.165,8.165c4.509,0 8.165,-3.656 8.165,-8.165c-0,-4.509 -3.656,-8.165 -8.165,-8.165c-4.51,0 -8.165,3.656 -8.165,8.165Zm2.103,0c-0,-3.342 2.719,-6.061 6.062,-6.061c3.342,-0 6.06,2.719 6.06,6.061c0,3.342 -2.719,6.061 -6.06,6.061c-3.343,0 -6.062,-2.719 -6.062,-6.061Z" style="fill:#ef553b;fill-rule:nonzero;"/></g><path d="M1065.16,848.046l4.591,0c0,0 -0.27,-9.92 9.473,-9.92c9.743,-0 10.105,9.92 10.105,9.92l46.176,0c0,0 0,-9.785 9.878,-9.785c9.878,-0 10.105,9.785 10.105,9.785c8.776,0 10.261,0.611 10.531,-4.246c0.27,-4.858 -2.97,-4.999 -2.97,-4.999c-1.621,-12.287 -25.383,-12.962 -25.383,-12.962c-0,-0 -14.313,-10.667 -23.089,-10.937c-8.776,-0.27 -20.117,-1.215 -28.894,1.756c-8.776,2.97 -17.417,18.902 -17.417,18.902c-5.266,3.781 -3.106,12.486 -3.106,12.486Zm90.275,-16.738c-0,-0 5.726,2.704 5.854,7.618c-0,-0 -4.187,0.769 -5.64,-0.898c-1.453,-1.666 -0.214,-6.72 -0.214,-6.72Zm-53.25,-13.836c2.648,0.017 5.282,-0.03 7.842,-0.034c11.339,-0.018 21.449,8.693 21.449,8.693l-29.291,0.052l0,-8.711l-0,0Zm-23.906,8.753c5.877,-7.491 13.475,-8.625 21.166,-8.744l-0,8.707l-21.166,0.037Z" style="fill:#ef553b;fill-rule:nonzero;stroke:#ef553b;stroke-width:4.17px;stroke-linejoin:round;stroke-miterlimit:2;"/></g></g><g><g transform="matrix(50,0,0,50,1326.56,832.957)"></g><text x="1297.56px" y="832.957px" style="font-family:'Lato-Regular', 'Lato', sans-serif;font-size:50px;fill:#ef553b;">9</text><g><g><path d="M1341.06,843.8c2.341,-0 4.246,1.905 4.246,4.246c0,2.341 -1.905,4.246 -4.246,4.246c-2.342,0 -4.247,-1.905 -4.247,-4.246c0,-2.341 1.905,-4.246 4.247,-4.246Z" style="fill:#ef553b;fill-rule:nonzero;"/><path d="M1332.89,848.046c-0,4.509 3.655,8.165 8.165,8.165c4.509,0 8.165,-3.656 8.165,-8.165c-0,-4.509 -3.656,-8.165 -8.165,-8.165c-4.51,0 -8.165,3.656 -8.165,8.165Zm2.103,0c0,-3.342 2.719,-6.061 6.062,-6.061c3.342,-0 6.061,2.719 6.061,6.061c0,3.342 -2.719,6.061 -6.061,6.061c-3.343,0 -6.062,-2.719 -6.062,-6.061Z" style="fill:#ef553b;fill-rule:nonzero;"/></g><g><path d="M1407.22,843.8c2.342,-0 4.246,1.905 4.246,4.246c-0,2.341 -1.904,4.246 -4.246,4.246c-2.341,0 -4.246,-1.905 -4.246,-4.246c-0,-2.341 1.905,-4.246 4.246,-4.246Z" style="fill:#ef553b;fill-rule:nonzero;"/><path d="M1399.05,848.046c0,4.509 3.656,8.165 8.165,8.165c4.51,0 8.166,-3.656 8.166,-8.165c-0,-4.509 -3.656,-8.165 -8.166,-8.165c-4.509,0 -8.165,3.656 -8.165,8.165Zm2.104,0c-0,-3.342 2.719,-6.061 6.061,-6.061c3.342,-0 6.061,2.719 6.061,6.061c0,3.342 -2.719,6.061 -6.061,6.061c-3.342,0 -6.061,-2.719 -6.061,-6.061Z" style="fill:#ef553b;fill-rule:nonzero;"/></g><path d="M1326.99,848.046l4.591,0c0,0 -0.27,-9.92 9.473,-9.92c9.743,-0 10.105,9.92 10.105,9.92l46.176,0c-0,0 -0,-9.785 9.878,-9.785c9.878,-0 10.105,9.785 10.105,9.785c8.776,0 10.261,0.611 10.531,-4.246c0.27,-4.858 -2.971,-4.999 -2.971,-4.999c-1.62,-12.287 -25.383,-12.962 -25.383,-12.962c0,-0 -14.312,-10.667 -23.088,-10.937c-8.776,-0.27 -20.118,-1.215 -28.894,1.756c-8.777,2.97 -17.418,18.902 -17.418,18.902c-5.265,3.781 -3.105,12.486 -3.105,12.486Zm90.275,-16.738c-0,-0 5.725,2.704 5.853,7.618c0,-0 -4.187,0.769 -5.64,-0.898c-1.453,-1.666 -0.213,-6.72 -0.213,-6.72Zm-53.251,-13.836c2.649,0.017 5.283,-0.03 7.843,-0.034c11.339,-0.018 21.449,8.693 21.449,8.693l-29.291,0.052l-0,-8.711l-0.001,0Zm-23.905,8.753c5.877,-7.491 13.475,-8.625 21.166,-8.744l-0,8.707l-21.166,0.037Z" style="fill:#ef553b;fill-rule:nonzero;stroke:#ef553b;stroke-width:4.17px;stroke-linejoin:round;stroke-miterlimit:2;"/></g></g><g><g transform="matrix(50,0,0,50,710.184,728.829)"></g><text x="681.184px" y="728.829px" style="font-family:'Lato-Regular', 'Lato', sans-serif;font-size:50px;fill:#ef553b;">2</text><g><g><path d="M724.687,739.672c2.341,-0 4.246,1.905 4.246,4.246c-0,2.342 -1.905,4.246 -4.246,4.246c-2.342,0 -4.247,-1.904 -4.247,-4.246c0,-2.341 1.905,-4.246 4.247,-4.246Z" style="fill:#ef553b;fill-rule:nonzero;"/><path d="M716.521,743.918c0,4.51 3.656,8.165 8.165,8.165c4.51,0 8.165,-3.655 8.165,-8.165c0,-4.509 -3.655,-8.165 -8.165,-8.165c-4.509,0 -8.165,3.656 -8.165,8.165Zm2.104,0c0,-3.342 2.719,-6.061 6.062,-6.061c3.342,0 6.061,2.719 6.061,6.061c0,3.342 -2.719,6.062 -6.061,6.062c-3.343,-0 -6.062,-2.72 -6.062,-6.062Z" style="fill:#ef553b;fill-rule:nonzero;"/></g><g><path d="M790.846,739.672c2.341,-0 4.246,1.905 4.246,4.246c-0,2.342 -1.905,4.246 -4.246,4.246c-2.341,0 -4.247,-1.904 -4.247,-4.246c0,-2.341 1.906,-4.246 4.247,-4.246Z" style="fill:#ef553b;fill-rule:nonzero;"/><path d="M782.681,743.918c0,4.51 3.656,8.165 8.165,8.165c4.51,0 8.165,-3.655 8.165,-8.165c0,-4.509 -3.655,-8.165 -8.165,-8.165c-4.51,0 -8.165,3.656 -8.165,8.165Zm2.103,0c0,-3.342 2.72,-6.061 6.062,-6.061c3.342,0 6.061,2.719 6.061,6.061c-0,3.342 -2.719,6.062 -6.061,6.062c-3.342,-0 -6.062,-2.72 -6.062,-6.062Z" style="fill:#ef553b;fill-rule:nonzero;"/></g><path d="M710.623,743.918l4.591,0c-0,0 -0.27,-9.92 9.473,-9.92c9.743,0 10.104,9.92 10.104,9.92l46.177,0c-0,0 -0,-9.785 9.878,-9.785c9.878,0 10.105,9.785 10.105,9.785c8.776,0 10.261,0.611 10.531,-4.246c0.27,-4.858 -2.971,-4.999 -2.971,-4.999c-1.62,-12.287 -25.383,-12.962 -25.383,-12.962c0,0 -14.312,-10.666 -23.088,-10.937c-8.777,-0.27 -20.118,-1.215 -28.894,1.756c-8.777,2.97 -17.418,18.902 -17.418,18.902c-5.265,3.781 -3.105,12.486 -3.105,12.486Zm90.274,-16.738c0,0 5.726,2.704 5.854,7.618c0,-0 -4.187,0.769 -5.64,-0.898c-1.453,-1.666 -0.214,-6.72 -0.214,-6.72Zm-53.25,-13.835c2.649,0.016 5.282,-0.03 7.843,-0.035c11.338,-0.017 21.449,8.693 21.449,8.693l-29.291,0.052l-0,-8.71l-0.001,-0Zm-23.905,8.753c5.876,-7.491 13.475,-8.626 21.165,-8.745l0,8.707l-21.165,0.038Z" style="fill:#ef553b;fill-rule:nonzero;stroke:#ef553b;stroke-width:4.17px;stroke-linejoin:round;stroke-miterlimit:2;"/></g></g><rect x="116.154" y="641.667" width="395.833" height="220.833" style="fill:#fff;fill-rule:nonzero;stroke:#000;stroke-width:4.17px;"/><g><g><g><g><path d="M404.881,717.771c2.341,0 4.246,1.906 4.246,4.247c-0,2.341 -1.905,4.246 -4.246,4.246c-2.342,0 -4.247,-1.905 -4.247,-4.246c0,-2.341 1.905,-4.247 4.247,-4.247Z" style="fill:#636efa;fill-rule:nonzero;"/><path d="M396.715,722.018c0,4.509 3.656,8.165 8.165,8.165c4.51,-0 8.165,-3.656 8.165,-8.165c0,-4.509 -3.655,-8.166 -8.165,-8.166c-4.509,0.001 -8.165,3.657 -8.165,8.166Zm2.104,-0c0,-3.342 2.719,-6.061 6.062,-6.061c3.342,-0 6.061,2.719 6.061,6.061c0,3.342 -2.719,6.061 -6.061,6.061c-3.343,0 -6.062,-2.719 -6.062,-6.061Z" style="fill:#636efa;fill-rule:nonzero;"/></g><g><path d="M471.04,717.771c2.341,0 4.246,1.906 4.246,4.247c-0,2.341 -1.905,4.246 -4.246,4.246c-2.341,0 -4.247,-1.905 -4.247,-4.246c0,-2.341 1.906,-4.247 4.247,-4.247Z" style="fill:#636efa;fill-rule:nonzero;"/><path d="M462.875,722.018c0,4.509 3.656,8.165 8.165,8.165c4.51,-0 8.165,-3.656 8.165,-8.165c0,-4.509 -3.655,-8.166 -8.165,-8.166c-4.51,0.001 -8.165,3.657 -8.165,8.166Zm2.103,-0c0,-3.342 2.72,-6.061 6.062,-6.061c3.342,-0 6.061,2.719 6.061,6.061c-0,3.342 -2.719,6.061 -6.061,6.061c-3.343,0 -6.062,-2.719 -6.062,-6.061Z" style="fill:#636efa;fill-rule:nonzero;"/></g><path d="M390.817,722.018l4.591,-0c-0,-0 -0.27,-9.92 9.473,-9.92c9.743,-0 10.104,9.92 10.104,9.92l46.177,-0c-0,-0 -0,-9.785 9.878,-9.785c9.878,-0 10.105,9.785 10.105,9.785c8.776,-0 10.261,0.611 10.531,-4.247c0.27,-4.857 -2.971,-4.999 -2.971,-4.999c-1.62,-12.286 -25.383,-12.961 -25.383,-12.961c0,-0 -14.312,-10.667 -23.088,-10.937c-8.777,-0.27 -20.118,-1.215 -28.894,1.755c-8.777,2.971 -17.418,18.903 -17.418,18.903c-5.265,3.781 -3.105,12.486 -3.105,12.486Zm90.274,-16.738c0,-0 5.726,2.704 5.854,7.617c0,0 -4.187,0.769 -5.64,-0.897c-1.453,-1.666 -0.214,-6.72 -0.214,-6.72Zm-53.25,-13.836c2.649,0.016 5.282,-0.03 7.843,-0.034c11.338,-0.018 21.449,8.693 21.449,8.693l-29.291,0.052l-0,-8.711l-0.001,0Zm-23.905,8.753c5.876,-7.491 13.475,-8.625 21.165,-8.745l0,8.707l-21.165,0.038Z" style="fill:#636efa;fill-rule:nonzero;stroke:#636efa;stroke-width:4.17px;stroke-linejoin:round;stroke-miterlimit:2;"/></g></g><g transform="matrix(50,0,0,50,390.378,706.929)"></g><text x="361.378px" y="706.929px" style="font-family:'Lato-Regular', 'Lato', sans-serif;font-size:50px;fill:#636efa;">5</text></g><g><g><g><g><path d="M184.491,806.338c2.342,0 4.246,1.906 4.246,4.247c0,2.341 -1.904,4.246 -4.246,4.246c-2.341,0 -4.246,-1.905 -4.246,-4.246c-0,-2.341 1.905,-4.247 4.246,-4.247Z" style="fill:#636efa;fill-rule:nonzero;"/><path d="M176.326,810.585c-0,4.509 3.656,8.165 8.165,8.165c4.509,0 8.165,-3.656 8.165,-8.165c-0,-4.509 -3.656,-8.165 -8.165,-8.165c-4.509,0 -8.165,3.656 -8.165,8.165Zm2.104,0c-0,-3.342 2.719,-6.061 6.061,-6.061c3.342,-0 6.061,2.719 6.061,6.061c0,3.342 -2.719,6.061 -6.061,6.061c-3.342,0 -6.061,-2.719 -6.061,-6.061Z" style="fill:#636efa;fill-rule:nonzero;"/></g><g><path d="M250.65,806.338c2.342,0 4.246,1.906 4.246,4.247c0,2.341 -1.904,4.246 -4.246,4.246c-2.341,0 -4.246,-1.905 -4.246,-4.246c-0,-2.341 1.905,-4.247 4.246,-4.247Z" style="fill:#636efa;fill-rule:nonzero;"/><path d="M242.485,810.585c0,4.509 3.656,8.165 8.165,8.165c4.51,0 8.166,-3.656 8.166,-8.165c-0,-4.509 -3.656,-8.165 -8.166,-8.165c-4.509,0 -8.165,3.656 -8.165,8.165Zm2.104,0c-0,-3.342 2.719,-6.061 6.061,-6.061c3.343,-0 6.061,2.719 6.061,6.061c0,3.342 -2.719,6.061 -6.061,6.061c-3.342,0 -6.061,-2.719 -6.061,-6.061Z" style="fill:#636efa;fill-rule:nonzero;"/></g><path d="M170.427,810.585l4.591,0c0,0 -0.27,-9.92 9.473,-9.92c9.743,-0 10.105,9.92 10.105,9.92l46.176,0c-0,0 -0,-9.785 9.878,-9.785c9.878,-0 10.105,9.785 10.105,9.785c8.776,0 10.261,0.611 10.531,-4.247c0.27,-4.857 -2.97,-4.998 -2.97,-4.998c-1.621,-12.287 -25.384,-12.962 -25.384,-12.962c0,-0 -14.312,-10.667 -23.088,-10.937c-8.776,-0.27 -20.117,-1.215 -28.894,1.755c-8.776,2.971 -17.417,18.903 -17.417,18.903c-5.266,3.781 -3.106,12.486 -3.106,12.486Zm90.275,-16.738c-0,-0 5.725,2.704 5.853,7.618c0,-0 -4.186,0.769 -5.639,-0.898c-1.453,-1.666 -0.214,-6.72 -0.214,-6.72Zm-53.25,-13.836c2.648,0.016 5.282,-0.03 7.842,-0.034c11.339,-0.018 21.449,8.693 21.449,8.693l-29.291,0.052l0,-8.711l-0,0Zm-23.906,8.753c5.877,-7.491 13.475,-8.625 21.166,-8.744l-0,8.707l-21.166,0.037Z" style="fill:#636efa;fill-rule:nonzero;stroke:#636efa;stroke-width:4.17px;stroke-linejoin:round;stroke-miterlimit:2;"/></g></g><g transform="matrix(50,0,0,50,169.989,795.496)"></g><text x="140.989px" y="795.496px" style="font-family:'Lato-Regular', 'Lato', sans-serif;font-size:50px;fill:#636efa;">7</text></g><g><g><g><g><path d="M981.381,739.672c2.341,-0 4.246,1.905 4.246,4.246c-0,2.342 -1.905,4.246 -4.246,4.246c-2.342,0 -4.247,-1.904 -4.247,-4.246c0,-2.341 1.905,-4.246 4.247,-4.246Z" style="fill:#636efa;fill-rule:nonzero;"/><path d="M973.215,743.918c0,4.51 3.656,8.165 8.165,8.165c4.51,0 8.165,-3.655 8.165,-8.165c0,-4.509 -3.655,-8.165 -8.165,-8.165c-4.509,0 -8.165,3.656 -8.165,8.165Zm2.104,0c0,-3.342 2.719,-6.061 6.062,-6.061c3.342,0 6.061,2.719 6.061,6.061c0,3.342 -2.719,6.062 -6.061,6.062c-3.343,-0 -6.062,-2.72 -6.062,-6.062Z" style="fill:#636efa;fill-rule:nonzero;"/></g><g><path d="M1047.54,739.672c2.341,-0 4.246,1.905 4.246,4.246c-0,2.342 -1.905,4.246 -4.246,4.246c-2.341,0 -4.247,-1.904 -4.247,-4.246c0,-2.341 1.906,-4.246 4.247,-4.246Z" style="fill:#636efa;fill-rule:nonzero;"/><path d="M1039.38,743.918c0,4.51 3.656,8.165 8.165,8.165c4.51,0 8.165,-3.655 8.165,-8.165c0,-4.509 -3.655,-8.165 -8.165,-8.165c-4.51,0 -8.165,3.656 -8.165,8.165Zm2.103,0c0,-3.342 2.72,-6.061 6.062,-6.061c3.342,0 6.061,2.719 6.061,6.061c-0,3.342 -2.719,6.062 -6.061,6.062c-3.343,-0 -6.062,-2.72 -6.062,-6.062Z" style="fill:#636efa;fill-rule:nonzero;"/></g><path d="M967.317,743.918l4.591,0c-0,0 -0.27,-9.92 9.473,-9.92c9.743,0 10.104,9.92 10.104,9.92l46.177,0c-0,0 -0,-9.785 9.878,-9.785c9.878,0 10.105,9.785 10.105,9.785c8.776,0 10.261,0.611 10.531,-4.246c0.27,-4.858 -2.971,-4.999 -2.971,-4.999c-1.62,-12.287 -25.383,-12.962 -25.383,-12.962c0,0 -14.312,-10.666 -23.088,-10.937c-8.777,-0.27 -20.118,-1.215 -28.894,1.756c-8.777,2.97 -17.418,18.902 -17.418,18.902c-5.265,3.781 -3.105,12.486 -3.105,12.486Zm90.274,-16.738c0,0 5.726,2.704 5.854,7.618c0,-0 -4.187,0.769 -5.64,-0.898c-1.453,-1.666 -0.214,-6.72 -0.214,-6.72Zm-53.25,-13.835c2.649,0.016 5.282,-0.03 7.843,-0.035c11.338,-0.017 21.449,8.693 21.449,8.693l-29.291,0.052l-0,-8.71l-0.001,-0Zm-23.905,8.753c5.876,-7.491 13.475,-8.626 21.165,-8.745l0,8.707l-21.165,0.038Z" style="fill:#636efa;fill-rule:nonzero;stroke:#636efa;stroke-width:4.17px;stroke-linejoin:round;stroke-miterlimit:2;"/></g></g><g transform="matrix(50,0,0,50,966.878,728.829)"></g><text x="937.878px" y="728.829px" style="font-family:'Lato-Regular', 'Lato', sans-serif;font-size:50px;fill:#636efa;">3</text></g><g><g><g><g><path d="M184.491,717.771c2.342,0 4.246,1.906 4.246,4.247c0,2.341 -1.904,4.246 -4.246,4.246c-2.341,0 -4.246,-1.905 -4.246,-4.246c-0,-2.341 1.905,-4.247 4.246,-4.247Z" style="fill:#636efa;fill-rule:nonzero;"/><path d="M176.326,722.018c-0,4.509 3.656,8.165 8.165,8.165c4.509,-0 8.165,-3.656 8.165,-8.165c-0,-4.509 -3.656,-8.166 -8.165,-8.166c-4.509,0.001 -8.165,3.657 -8.165,8.166Zm2.104,-0c-0,-3.342 2.719,-6.061 6.061,-6.061c3.342,-0 6.061,2.719 6.061,6.061c0,3.342 -2.719,6.061 -6.061,6.061c-3.342,0 -6.061,-2.719 -6.061,-6.061Z" style="fill:#636efa;fill-rule:nonzero;"/></g><g><path d="M250.65,717.771c2.342,0 4.246,1.906 4.246,4.247c0,2.341 -1.904,4.246 -4.246,4.246c-2.341,0 -4.246,-1.905 -4.246,-4.246c-0,-2.341 1.905,-4.247 4.246,-4.247Z" style="fill:#636efa;fill-rule:nonzero;"/><path d="M242.485,722.018c0,4.509 3.656,8.165 8.165,8.165c4.51,-0 8.166,-3.656 8.166,-8.165c-0,-4.509 -3.656,-8.166 -8.166,-8.166c-4.509,0.001 -8.165,3.657 -8.165,8.166Zm2.104,-0c-0,-3.342 2.719,-6.061 6.061,-6.061c3.343,-0 6.061,2.719 6.061,6.061c0,3.342 -2.719,6.061 -6.061,6.061c-3.342,0 -6.061,-2.719 -6.061,-6.061Z" style="fill:#636efa;fill-rule:nonzero;"/></g><path d="M170.427,722.018l4.591,-0c0,-0 -0.27,-9.92 9.473,-9.92c9.743,-0 10.105,9.92 10.105,9.92l46.176,-0c-0,-0 -0,-9.785 9.878,-9.785c9.878,-0 10.105,9.785 10.105,9.785c8.776,-0 10.261,0.611 10.531,-4.247c0.27,-4.857 -2.97,-4.999 -2.97,-4.999c-1.621,-12.286 -25.384,-12.961 -25.384,-12.961c0,-0 -14.312,-10.667 -23.088,-10.937c-8.776,-0.27 -20.117,-1.215 -28.894,1.755c-8.776,2.971 -17.417,18.903 -17.417,18.903c-5.266,3.781 -3.106,12.486 -3.106,12.486Zm90.275,-16.738c-0,-0 5.725,2.704 5.853,7.617c0,0 -4.186,0.769 -5.639,-0.897c-1.453,-1.666 -0.214,-6.72 -0.214,-6.72Zm-53.25,-13.836c2.648,0.016 5.282,-0.03 7.842,-0.034c11.339,-0.018 21.449,8.693 21.449,8.693l-29.291,0.052l0,-8.711l-0,0Zm-23.906,8.753c5.877,-7.491 13.475,-8.625 21.166,-8.745l-0,8.707l-21.166,0.038Z" style="fill:#636efa;fill-rule:nonzero;stroke:#636efa;stroke-width:4.17px;stroke-linejoin:round;stroke-miterlimit:2;"/></g></g><g transform="matrix(50,0,0,50,169.989,706.929)"></g><text x="140.989px" y="706.929px" style="font-family:'Lato-Regular', 'Lato', sans-serif;font-size:50px;fill:#636efa;">1</text></g><g><g><g><g><path d="M404.881,806.338c2.341,0 4.246,1.906 4.246,4.247c-0,2.341 -1.905,4.246 -4.246,4.246c-2.342,0 -4.247,-1.905 -4.247,-4.246c0,-2.341 1.905,-4.247 4.247,-4.247Z" style="fill:#636efa;fill-rule:nonzero;"/><path d="M396.715,810.585c0,4.509 3.656,8.165 8.165,8.165c4.51,0 8.165,-3.656 8.165,-8.165c0,-4.509 -3.655,-8.165 -8.165,-8.165c-4.509,0 -8.165,3.656 -8.165,8.165Zm2.104,0c0,-3.342 2.719,-6.061 6.062,-6.061c3.342,-0 6.061,2.719 6.061,6.061c0,3.342 -2.719,6.061 -6.061,6.061c-3.343,0 -6.062,-2.719 -6.062,-6.061Z" style="fill:#636efa;fill-rule:nonzero;"/></g><g><path d="M471.04,806.338c2.341,0 4.246,1.906 4.246,4.247c-0,2.341 -1.905,4.246 -4.246,4.246c-2.341,0 -4.247,-1.905 -4.247,-4.246c0,-2.341 1.906,-4.247 4.247,-4.247Z" style="fill:#636efa;fill-rule:nonzero;"/><path d="M462.875,810.585c0,4.509 3.656,8.165 8.165,8.165c4.51,0 8.165,-3.656 8.165,-8.165c0,-4.509 -3.655,-8.165 -8.165,-8.165c-4.51,0 -8.165,3.656 -8.165,8.165Zm2.103,0c0,-3.342 2.72,-6.061 6.062,-6.061c3.342,-0 6.061,2.719 6.061,6.061c-0,3.342 -2.719,6.061 -6.061,6.061c-3.343,0 -6.062,-2.719 -6.062,-6.061Z" style="fill:#636efa;fill-rule:nonzero;"/></g><path d="M390.817,810.585l4.591,0c-0,0 -0.27,-9.92 9.473,-9.92c9.743,-0 10.104,9.92 10.104,9.92l46.177,0c-0,0 -0,-9.785 9.878,-9.785c9.878,-0 10.105,9.785 10.105,9.785c8.776,0 10.261,0.611 10.531,-4.247c0.27,-4.857 -2.971,-4.998 -2.971,-4.998c-1.62,-12.287 -25.383,-12.962 -25.383,-12.962c0,-0 -14.312,-10.667 -23.088,-10.937c-8.777,-0.27 -20.118,-1.215 -28.894,1.755c-8.777,2.971 -17.418,18.903 -17.418,18.903c-5.265,3.781 -3.105,12.486 -3.105,12.486Zm90.274,-16.738c0,-0 5.726,2.704 5.854,7.618c0,-0 -4.187,0.769 -5.64,-0.898c-1.453,-1.666 -0.214,-6.72 -0.214,-6.72Zm-53.25,-13.836c2.649,0.016 5.282,-0.03 7.843,-0.034c11.338,-0.018 21.449,8.693 21.449,8.693l-29.291,0.052l-0,-8.711l-0.001,0Zm-23.905,8.753c5.876,-7.491 13.475,-8.625 21.165,-8.744l0,8.707l-21.165,0.037Z" style="fill:#636efa;fill-rule:nonzero;stroke:#636efa;stroke-width:4.17px;stroke-linejoin:round;stroke-miterlimit:2;"/></g></g><g transform="matrix(50,0,0,50,390.378,795.496)"></g><text x="332.378px" y="795.496px" style="font-family:'Lato-Regular', 'Lato', sans-serif;font-size:50px;fill:#636efa;">10</text></g><g transform="matrix(58.3333,0,0,58.3333,480.647,535.756)"></g><text x="437.655px" y="535.756px" style="font-family:'Lato-Regular', 'Lato', sans-serif;font-size:58.333px;">ja</text><g transform="matrix(58.3333,0,0,58.3333,965.764,535.756)"></g><text x="855.864px" y="535.756px" style="font-family:'Lato-Regular', 'Lato', sans-serif;font-size:58.333px;">nein</text><text x="366.917px" y="240.417px" style="font-family:'Lato-Regular', 'Lato', sans-serif;font-size:58.333px;">P<tspan x="401.392px 421.429px " y="240.417px 240.417px ">re</tspan>is [EUR] &lt;= 16376.5</text><path d="M553.238,460.917c-39.334,47.166 -83.334,100 -122.792,147.333" style="fill:none;fill-rule:nonzero;stroke:#000;stroke-width:4.17px;"/><path d="M440.571,618.917l-37.875,22.666l15.458,-41.333l22.417,18.667Z" style="fill-rule:nonzero;stroke:#000;stroke-width:4.17px;"/><path d="M784.571,460.917c31.292,37.083 65.5,77.666 98.125,116.333" style="fill:none;fill-rule:nonzero;stroke:#000;stroke-width:4.17px;"/><path d="M893.863,567.917l15.708,41.25l-38,-22.459l22.292,-18.791Z" style="fill-rule:nonzero;stroke:#000;stroke-width:4.17px;"/><rect x="0" y="0" width="1666.67" height="1875" style="fill:none;stroke:#000;stroke-width:8.33px;stroke-linecap:round;stroke-linejoin:round;stroke-miterlimit:1.5;"/></svg>