<?xml version="1.0" encoding="UTF-8" standalone="no"?>
<!DOCTYPE svg PUBLIC "-//W3C//DTD SVG 1.1//EN" "http://www.w3.org/Graphics/SVG/1.1/DTD/svg11.dtd">
<svg width="100%" height="100%" viewBox="0 0 320 135" version="1.1" xmlns="http://www.w3.org/2000/svg" xmlns:xlink="http://www.w3.org/1999/xlink" xml:space="preserve" xmlns:serif="http://www.serif.com/" style="fill-rule:evenodd;clip-rule:evenodd;stroke-miterlimit:10;">
    <g>
        <clipPath id="_clip1">
            <rect x="0" y="0" width="320" height="134.23"/>
        </clipPath>
        <g clip-path="url(#_clip1)">
            <path d="M0,129.938L0,4.293C0,1.922 1.922,0 4.293,0L315.117,0C317.488,0 319.41,1.922 319.41,4.293L319.41,129.938C319.41,132.309 317.488,134.231 315.117,134.231L4.293,134.231C1.922,134.231 0,132.309 0,129.938Z" style="fill:rgb(248,248,248);fill-rule:nonzero;"/>
        </g>
    </g>
    <g>
        <path d="M13.98,129.738L13.98,4.492M63.203,129.738L63.203,4.492M112.422,129.738L112.422,4.492M210.863,129.738L210.863,4.492M260.086,129.738L260.086,4.492M309.309,129.738L309.309,4.492" style="fill:none;fill-rule:nonzero;stroke:rgb(216,216,216);stroke-width:0.4px;stroke-dasharray:2.99,2.99;"/>
        <path d="M13.98,108.863L309.308,108.863M13.98,25.367L309.308,25.367" style="fill:none;fill-rule:nonzero;stroke:rgb(216,216,216);stroke-width:0.4px;stroke-dasharray:2.99,2.99;"/>
    </g>
    <path d="M13.98,69.242L13.98,64.988M63.203,69.242L63.203,64.988M112.422,69.242L112.422,64.988M210.863,69.242L210.863,64.988M260.086,69.242L260.086,64.988M309.309,69.242L309.309,64.988M159.52,108.863L163.77,108.863M159.52,25.367L163.77,25.367" style="fill:none;fill-rule:nonzero;stroke:rgb(127,127,127);stroke-width:0.2px;"/>
    <path d="M13.98,67.113L307.312,67.113" style="fill:none;fill-rule:nonzero;stroke:black;stroke-width:0.4px;"/>
    <path d="M309.309,67.113L306.118,65.519L307.313,67.113L306.118,68.711" style="fill-rule:nonzero;"/>
    <path d="M161.645,129.738L161.645,6.484" style="fill:none;fill-rule:nonzero;stroke:black;stroke-width:0.4px;"/>
    <path d="M161.645,4.492L160.051,7.68L161.645,6.485L163.239,7.68" style="fill-rule:nonzero;"/>
    <g id="A" transform="matrix(1,0,0,1,7.614,79.397)">
        <path d="M7.203,-2.5C7.203,-2.609 7.109,-2.687 7,-2.687L0.743,-2.687C0.644,-2.687 0.563,-2.606 0.563,-2.507L0.563,-2.499C0.563,-2.374 0.641,-2.296 0.751,-2.296L7,-2.296C7.109,-2.296 7.203,-2.374 7.203,-2.499L7.203,-2.5Z" style="fill-rule:nonzero;"/>
    </g>
    <g id="B" transform="matrix(1,0,0,1,15.365,79.397)">
        <path d="M4.563,-1.703C4.563,-2.515 3.922,-3.297 2.891,-3.515C3.704,-3.781 4.282,-4.468 4.282,-5.265C4.282,-6.077 3.407,-6.64 2.454,-6.64C1.454,-6.64 0.688,-6.046 0.688,-5.281C0.687,-5.269 0.687,-5.256 0.687,-5.244C0.687,-4.98 0.903,-4.764 1.167,-4.764C1.179,-4.764 1.192,-4.764 1.204,-4.765C1.501,-4.765 1.704,-4.984 1.704,-5.281C1.704,-5.765 1.235,-5.765 1.095,-5.765C1.392,-6.265 2.048,-6.39 2.408,-6.39C2.83,-6.39 3.377,-6.171 3.377,-5.281C3.377,-5.156 3.346,-4.578 3.096,-4.14C2.93,-3.805 2.578,-3.601 2.205,-3.624C2.075,-3.606 1.945,-3.596 1.814,-3.593C1.736,-3.577 1.673,-3.562 1.673,-3.468C1.673,-3.359 1.736,-3.359 1.907,-3.359L2.345,-3.359C3.158,-3.359 3.533,-2.687 3.533,-1.703C3.533,-0.344 2.846,-0.062 2.408,-0.062C1.97,-0.062 1.219,-0.234 0.875,-0.812C1.219,-0.765 1.531,-0.984 1.531,-1.359C1.531,-1.718 1.265,-1.921 0.984,-1.921C0.973,-1.922 0.961,-1.922 0.95,-1.922C0.659,-1.922 0.42,-1.683 0.42,-1.392C0.42,-1.376 0.42,-1.359 0.422,-1.343C0.422,-0.437 1.344,0.22 2.438,0.22C3.657,0.22 4.563,-0.686 4.563,-1.702L4.563,-1.703Z" style="fill-rule:nonzero;"/>
    </g>
    <g id="A1" serif:id="A" transform="matrix(1,0,0,1,56.835,79.397)">
        <path d="M7.203,-2.5C7.203,-2.609 7.109,-2.687 7,-2.687L0.743,-2.687C0.644,-2.687 0.563,-2.606 0.563,-2.507L0.563,-2.499C0.563,-2.374 0.641,-2.296 0.751,-2.296L7,-2.296C7.109,-2.296 7.203,-2.374 7.203,-2.499L7.203,-2.5Z" style="fill-rule:nonzero;"/>
    </g>
    <g id="C" transform="matrix(1,0,0,1,64.586,79.397)">
        <path d="M4.469,-1.734L4.235,-1.734C4.172,-1.437 4.109,-1 4,-0.844C3.938,-0.766 3.281,-0.766 3.063,-0.766L1.266,-0.766L2.329,-1.797C3.876,-3.172 4.47,-3.703 4.47,-4.703C4.47,-5.844 3.579,-6.64 2.361,-6.64C1.234,-6.641 0.5,-5.719 0.5,-4.828C0.5,-4.281 1,-4.281 1.031,-4.281C1.203,-4.281 1.547,-4.39 1.547,-4.812L1.547,-4.818C1.547,-5.098 1.317,-5.328 1.037,-5.328L1.016,-5.328C0.938,-5.328 0.922,-5.328 0.891,-5.312C1.11,-5.968 1.657,-6.328 2.235,-6.328C3.141,-6.328 3.563,-5.515 3.563,-4.703C3.563,-3.906 3.079,-3.125 2.516,-2.5L0.609,-0.375C0.5,-0.266 0.5,-0.234 0.5,0L4.203,0L4.469,-1.734Z" style="fill-rule:nonzero;"/>
    </g>
    <g id="A2" serif:id="A" transform="matrix(1,0,0,1,106.055,79.397)">
        <path d="M7.203,-2.5C7.203,-2.609 7.109,-2.687 7,-2.687L0.743,-2.687C0.644,-2.687 0.563,-2.606 0.563,-2.507L0.563,-2.499C0.563,-2.374 0.641,-2.296 0.751,-2.296L7,-2.296C7.109,-2.296 7.203,-2.374 7.203,-2.499L7.203,-2.5Z" style="fill-rule:nonzero;"/>
    </g>
    <g id="D" transform="matrix(1,0,0,1,113.806,79.397)">
        <path d="M4.172,0L4.172,-0.312L3.86,-0.312C2.954,-0.312 2.938,-0.421 2.938,-0.781L2.938,-6.375C2.938,-6.625 2.938,-6.641 2.704,-6.641C2.078,-6 1.203,-6 0.891,-6L0.891,-5.687C1.094,-5.687 1.672,-5.687 2.188,-5.953L2.188,-0.781C2.188,-0.422 2.157,-0.312 1.266,-0.312L0.953,-0.312L0.953,0C1.297,-0.031 2.156,-0.031 2.562,-0.031L4.172,0Z" style="fill-rule:nonzero;"/>
    </g>
    <g id="D1" serif:id="D" transform="matrix(1,0,0,1,208.371,79.397)">
        <path d="M4.172,0L4.172,-0.312L3.86,-0.312C2.954,-0.312 2.938,-0.421 2.938,-0.781L2.938,-6.375C2.938,-6.625 2.938,-6.641 2.704,-6.641C2.078,-6 1.203,-6 0.891,-6L0.891,-5.687C1.094,-5.687 1.672,-5.687 2.188,-5.953L2.188,-0.781C2.188,-0.422 2.157,-0.312 1.266,-0.312L0.953,-0.312L0.953,0C1.297,-0.031 2.156,-0.031 2.562,-0.031L4.172,0Z" style="fill-rule:nonzero;"/>
    </g>
    <g id="C1" serif:id="C" transform="matrix(1,0,0,1,257.592,79.397)">
        <path d="M4.469,-1.734L4.235,-1.734C4.172,-1.437 4.109,-1 4,-0.844C3.938,-0.766 3.281,-0.766 3.063,-0.766L1.266,-0.766L2.329,-1.797C3.876,-3.172 4.47,-3.703 4.47,-4.703C4.47,-5.844 3.579,-6.64 2.361,-6.64C1.234,-6.641 0.5,-5.719 0.5,-4.828C0.5,-4.281 1,-4.281 1.031,-4.281C1.203,-4.281 1.547,-4.39 1.547,-4.812L1.547,-4.818C1.547,-5.098 1.317,-5.328 1.037,-5.328L1.016,-5.328C0.938,-5.328 0.922,-5.328 0.891,-5.312C1.11,-5.968 1.657,-6.328 2.235,-6.328C3.141,-6.328 3.563,-5.515 3.563,-4.703C3.563,-3.906 3.079,-3.125 2.516,-2.5L0.609,-0.375C0.5,-0.266 0.5,-0.234 0.5,0L4.203,0L4.469,-1.734Z" style="fill-rule:nonzero;"/>
    </g>
    <g id="B1" serif:id="B" transform="matrix(1,0,0,1,306.812,79.397)">
        <path d="M4.563,-1.703C4.563,-2.515 3.922,-3.297 2.891,-3.515C3.704,-3.781 4.282,-4.468 4.282,-5.265C4.282,-6.077 3.407,-6.64 2.454,-6.64C1.454,-6.64 0.688,-6.046 0.688,-5.281C0.687,-5.269 0.687,-5.256 0.687,-5.244C0.687,-4.98 0.903,-4.764 1.167,-4.764C1.179,-4.764 1.192,-4.764 1.204,-4.765C1.501,-4.765 1.704,-4.984 1.704,-5.281C1.704,-5.765 1.235,-5.765 1.095,-5.765C1.392,-6.265 2.048,-6.39 2.408,-6.39C2.83,-6.39 3.377,-6.171 3.377,-5.281C3.377,-5.156 3.346,-4.578 3.096,-4.14C2.93,-3.805 2.578,-3.601 2.205,-3.624C2.075,-3.606 1.945,-3.596 1.814,-3.593C1.736,-3.577 1.673,-3.562 1.673,-3.468C1.673,-3.359 1.736,-3.359 1.907,-3.359L2.345,-3.359C3.158,-3.359 3.533,-2.687 3.533,-1.703C3.533,-0.344 2.846,-0.062 2.408,-0.062C1.97,-0.062 1.219,-0.234 0.875,-0.812C1.219,-0.765 1.531,-0.984 1.531,-1.359C1.531,-1.718 1.265,-1.921 0.984,-1.921C0.973,-1.922 0.961,-1.922 0.95,-1.922C0.659,-1.922 0.42,-1.683 0.42,-1.392C0.42,-1.376 0.42,-1.359 0.422,-1.343C0.422,-0.437 1.344,0.22 2.438,0.22C3.657,0.22 4.563,-0.686 4.563,-1.702L4.563,-1.703Z" style="fill-rule:nonzero;"/>
    </g>
    <g id="A3" serif:id="A" transform="matrix(1,0,0,1,143.264,112.182)">
        <path d="M7.203,-2.5C7.203,-2.609 7.109,-2.687 7,-2.687L0.743,-2.687C0.644,-2.687 0.563,-2.606 0.563,-2.507L0.563,-2.499C0.563,-2.374 0.641,-2.296 0.751,-2.296L7,-2.296C7.109,-2.296 7.203,-2.374 7.203,-2.499L7.203,-2.5Z" style="fill-rule:nonzero;"/>
    </g>
    <g id="D2" serif:id="D" transform="matrix(1,0,0,1,151.015,112.182)">
        <path d="M4.172,0L4.172,-0.312L3.86,-0.312C2.954,-0.312 2.938,-0.421 2.938,-0.781L2.938,-6.375C2.938,-6.625 2.938,-6.641 2.704,-6.641C2.078,-6 1.203,-6 0.891,-6L0.891,-5.687C1.094,-5.687 1.672,-5.687 2.188,-5.953L2.188,-0.781C2.188,-0.422 2.157,-0.312 1.266,-0.312L0.953,-0.312L0.953,0C1.297,-0.031 2.156,-0.031 2.562,-0.031L4.172,0Z" style="fill-rule:nonzero;"/>
    </g>
    <g id="D3" serif:id="D" transform="matrix(1,0,0,1,151.015,28.685)">
        <path d="M4.172,0L4.172,-0.312L3.86,-0.312C2.954,-0.312 2.938,-0.421 2.938,-0.781L2.938,-6.375C2.938,-6.625 2.938,-6.641 2.704,-6.641C2.078,-6 1.203,-6 0.891,-6L0.891,-5.687C1.094,-5.687 1.672,-5.687 2.188,-5.953L2.188,-0.781C2.188,-0.422 2.157,-0.312 1.266,-0.312L0.953,-0.312L0.953,0C1.297,-0.031 2.156,-0.031 2.562,-0.031L4.172,0Z" style="fill-rule:nonzero;"/>
    </g>
    <g>
        <clipPath id="_clip2">
            <rect x="13.98" y="14" width="295.328" height="106"/>
        </clipPath>
        <g clip-path="url(#_clip2)">
            <path d="M13.98,108.656L26.285,108.523L38.59,108.304L50.899,107.945L63.204,107.363C66.618,107.152 72.095,106.758 75.509,106.418C78.923,106.078 84.4,105.445 87.814,104.906C91.228,104.367 96.705,103.363 100.119,102.531C103.533,101.699 109.01,100.144 112.424,98.91C115.838,97.676 121.315,95.367 124.729,93.633C128.143,91.899 133.62,88.668 137.038,86.41C140.456,84.152 145.929,80.015 149.343,77.34C152.757,74.665 158.234,69.953 161.648,67.117L173.953,56.89C177.367,54.214 182.844,50.081 186.258,47.824C189.672,45.567 195.149,42.332 198.563,40.597C201.977,38.862 207.454,36.554 210.868,35.32C214.282,34.086 219.759,32.531 223.177,31.699C226.595,30.867 232.068,29.867 235.482,29.328C238.896,28.789 244.373,28.156 247.787,27.812C251.201,27.468 256.678,27.082 260.092,26.867C263.506,26.652 268.983,26.414 272.397,26.285L284.702,25.926L297.011,25.707L309.316,25.574" style="fill:none;fill-rule:nonzero;stroke:rgb(0,89,147);stroke-width:0.8px;"/>
        </g>
    </g>
    <g id="J" transform="matrix(1,0,0,1,165.161,79.397)">
        <path d="M4.578,-3.187C4.578,-3.984 4.531,-4.781 4.187,-5.515C3.734,-6.484 2.906,-6.64 2.5,-6.64C1.891,-6.64 1.172,-6.374 0.75,-5.452C0.438,-4.764 0.391,-3.983 0.391,-3.186C0.391,-2.436 0.422,-1.545 0.844,-0.78C1.157,-0.164 1.794,0.224 2.485,0.22C3.016,0.22 3.782,0.017 4.219,-0.936C4.532,-1.623 4.578,-2.405 4.578,-3.186L4.578,-3.187ZM3.766,-3.312C3.766,-2.562 3.766,-1.89 3.657,-1.249C3.5,-0.297 2.938,0 2.484,0C2.094,0 1.5,-0.25 1.328,-1.203C1.219,-1.797 1.219,-2.719 1.219,-3.312L1.297,-5.14C1.485,-6.327 2.235,-6.421 2.485,-6.421C2.813,-6.421 3.469,-6.233 3.657,-5.249C3.766,-4.686 3.766,-3.936 3.766,-3.311L3.766,-3.312Z" style="fill-rule:nonzero;"/>
    </g>
    <g id="J1" serif:id="J" transform="matrix(1,0,0,1,151.015,63.377)">
        <path d="M4.578,-3.187C4.578,-3.984 4.531,-4.781 4.187,-5.515C3.734,-6.484 2.906,-6.64 2.5,-6.64C1.891,-6.64 1.172,-6.374 0.75,-5.452C0.438,-4.764 0.391,-3.983 0.391,-3.186C0.391,-2.436 0.422,-1.545 0.844,-0.78C1.157,-0.164 1.794,0.224 2.485,0.22C3.016,0.22 3.782,0.017 4.219,-0.936C4.532,-1.623 4.578,-2.405 4.578,-3.186L4.578,-3.187ZM3.766,-3.312C3.766,-2.562 3.766,-1.89 3.657,-1.249C3.5,-0.297 2.938,0 2.484,0C2.094,0 1.5,-0.25 1.328,-1.203C1.219,-1.797 1.219,-2.719 1.219,-3.312L1.297,-5.14C1.485,-6.327 2.235,-6.421 2.485,-6.421C2.813,-6.421 3.469,-6.233 3.657,-5.249C3.766,-4.686 3.766,-3.936 3.766,-3.311L3.766,-3.312Z" style="fill-rule:nonzero;"/>
    </g>
    <g id="E" transform="matrix(1,0,0,1,301.15,63.487)">
        <path d="M4.656,-4.312C4.656,-4.406 4.547,-4.406 4.547,-4.406C4.469,-4.406 4.453,-4.39 4.391,-4.297C4.094,-3.813 3.891,-3.656 3.657,-3.656C3.407,-3.656 3.298,-3.812 3.141,-3.984C2.954,-4.203 2.782,-4.406 2.454,-4.406C1.704,-4.406 1.251,-3.484 1.251,-3.265C1.251,-3.218 1.282,-3.156 1.36,-3.156C1.454,-3.156 1.469,-3.203 1.501,-3.265C1.689,-3.734 2.267,-3.734 2.345,-3.734C2.548,-3.734 2.736,-3.671 2.97,-3.593C3.376,-3.437 3.486,-3.437 3.736,-3.437C3.377,-3.015 2.549,-2.296 2.361,-2.14L1.455,-1.296C0.781,-0.625 0.422,-0.062 0.422,0.016C0.422,0.11 0.547,0.11 0.547,0.11C0.625,0.11 0.641,0.094 0.703,-0.015C0.937,-0.374 1.234,-0.64 1.562,-0.64C1.781,-0.64 1.89,-0.546 2.14,-0.265C2.296,-0.046 2.484,0.11 2.765,0.11C3.765,0.11 4.343,-1.156 4.343,-1.421C4.343,-1.468 4.296,-1.53 4.218,-1.53C4.124,-1.53 4.109,-1.467 4.077,-1.389C3.843,-0.748 3.202,-0.561 2.874,-0.561C2.687,-0.561 2.499,-0.623 2.296,-0.686C1.952,-0.811 1.796,-0.858 1.593,-0.858C1.593,-0.858 1.421,-0.858 1.327,-0.827C1.858,-1.405 2.155,-1.655 2.515,-1.968L3.484,-2.859C4.437,-3.781 4.656,-4.265 4.656,-4.312Z" style="fill-rule:nonzero;"/>
    </g>
    <g id="F" transform="matrix(1,0,0,1,165.161,15.465)">
        <path d="M5.656,-4.062C5.656,-4.296 5.437,-4.296 5.265,-4.296L2.984,-4.296C1.484,-4.296 0.375,-2.655 0.375,-1.468C0.375,-0.593 0.969,0.11 1.875,0.11C3.047,0.11 4.375,-1.093 4.375,-2.624C4.375,-2.796 4.375,-3.28 4.063,-3.718L5.157,-3.718C5.298,-3.718 5.657,-3.718 5.657,-4.062L5.656,-4.062ZM3.734,-2.75C3.704,-2.117 3.522,-1.5 3.203,-0.953C2.812,-0.375 2.266,-0.109 1.891,-0.109C1.391,-0.109 1,-0.468 1,-1.187C1,-1.484 1.109,-2.296 1.469,-2.89C1.891,-3.577 2.485,-3.718 2.828,-3.718C3.656,-3.718 3.734,-3.062 3.734,-2.749L3.734,-2.75Z" style="fill-rule:nonzero;"/>
    </g>
    <g id="G" transform="matrix(1,0,0,1,171.089,15.465)">
        <path d="M3.313,2.375C3.313,2.344 3.297,2.313 3.266,2.297C2.235,1.516 1.547,-0.484 1.547,-2.078L1.547,-2.906C1.547,-4.5 2.235,-6.5 3.266,-7.281C3.297,-7.297 3.313,-7.328 3.313,-7.359C3.313,-7.406 3.266,-7.453 3.204,-7.453C3.188,-7.453 3.173,-7.453 3.157,-7.437C2.047,-6.609 1,-4.609 1,-2.906L1,-2.078C1,-0.375 2.047,1.625 3.156,2.453C3.172,2.469 3.187,2.469 3.203,2.469C3.266,2.469 3.312,2.422 3.312,2.375L3.313,2.375Z" style="fill-rule:nonzero;"/>
    </g>
    <g id="E1" serif:id="E" transform="matrix(1,0,0,1,174.964,15.465)">
        <path d="M4.656,-4.312C4.656,-4.406 4.547,-4.406 4.547,-4.406C4.469,-4.406 4.453,-4.39 4.391,-4.297C4.094,-3.813 3.891,-3.656 3.657,-3.656C3.407,-3.656 3.298,-3.812 3.141,-3.984C2.954,-4.203 2.782,-4.406 2.454,-4.406C1.704,-4.406 1.251,-3.484 1.251,-3.265C1.251,-3.218 1.282,-3.156 1.36,-3.156C1.454,-3.156 1.469,-3.203 1.501,-3.265C1.689,-3.734 2.267,-3.734 2.345,-3.734C2.548,-3.734 2.736,-3.671 2.97,-3.593C3.376,-3.437 3.486,-3.437 3.736,-3.437C3.377,-3.015 2.549,-2.296 2.361,-2.14L1.455,-1.296C0.781,-0.625 0.422,-0.062 0.422,0.016C0.422,0.11 0.547,0.11 0.547,0.11C0.625,0.11 0.641,0.094 0.703,-0.015C0.937,-0.374 1.234,-0.64 1.562,-0.64C1.781,-0.64 1.89,-0.546 2.14,-0.265C2.296,-0.046 2.484,0.11 2.765,0.11C3.765,0.11 4.343,-1.156 4.343,-1.421C4.343,-1.468 4.296,-1.53 4.218,-1.53C4.124,-1.53 4.109,-1.467 4.077,-1.389C3.843,-0.748 3.202,-0.561 2.874,-0.561C2.687,-0.561 2.499,-0.623 2.296,-0.686C1.952,-0.811 1.796,-0.858 1.593,-0.858C1.593,-0.858 1.421,-0.858 1.327,-0.827C1.858,-1.405 2.155,-1.655 2.515,-1.968L3.484,-2.859C4.437,-3.781 4.656,-4.265 4.656,-4.312Z" style="fill-rule:nonzero;"/>
    </g>
    <g id="H" transform="matrix(1,0,0,1,179.896,15.465)">
        <path d="M2.875,-2.078L2.875,-2.906C2.875,-4.609 1.828,-6.609 0.734,-7.437C0.703,-7.453 0.687,-7.453 0.672,-7.453C0.625,-7.453 0.563,-7.406 0.563,-7.359C0.563,-7.328 0.594,-7.296 0.61,-7.281C1.641,-6.5 2.328,-4.5 2.328,-2.906L2.328,-2.078C2.328,-0.484 1.641,1.516 0.609,2.297C0.593,2.313 0.562,2.344 0.562,2.375C0.562,2.422 0.625,2.469 0.671,2.469C0.687,2.469 0.702,2.469 0.734,2.453C1.828,1.625 2.875,-0.375 2.875,-2.078Z" style="fill-rule:nonzero;"/>
    </g>
    <g id="F1" serif:id="F" transform="matrix(1,0,0,1,24.587,44.355)">
        <path d="M5.656,-4.062C5.656,-4.296 5.437,-4.296 5.265,-4.296L2.984,-4.296C1.484,-4.296 0.375,-2.655 0.375,-1.468C0.375,-0.593 0.969,0.11 1.875,0.11C3.047,0.11 4.375,-1.093 4.375,-2.624C4.375,-2.796 4.375,-3.28 4.063,-3.718L5.157,-3.718C5.298,-3.718 5.657,-3.718 5.657,-4.062L5.656,-4.062ZM3.734,-2.75C3.704,-2.117 3.522,-1.5 3.203,-0.953C2.812,-0.375 2.266,-0.109 1.891,-0.109C1.391,-0.109 1,-0.468 1,-1.187C1,-1.484 1.109,-2.296 1.469,-2.89C1.891,-3.577 2.485,-3.718 2.828,-3.718C3.656,-3.718 3.734,-3.062 3.734,-2.749L3.734,-2.75Z" style="fill-rule:nonzero;"/>
    </g>
    <g id="G1" serif:id="G" transform="matrix(1,0,0,1,30.515,44.355)">
        <path d="M3.313,2.375C3.313,2.344 3.297,2.313 3.266,2.297C2.235,1.516 1.547,-0.484 1.547,-2.078L1.547,-2.906C1.547,-4.5 2.235,-6.5 3.266,-7.281C3.297,-7.297 3.313,-7.328 3.313,-7.359C3.313,-7.406 3.266,-7.453 3.204,-7.453C3.188,-7.453 3.173,-7.453 3.157,-7.437C2.047,-6.609 1,-4.609 1,-2.906L1,-2.078C1,-0.375 2.047,1.625 3.156,2.453C3.172,2.469 3.187,2.469 3.203,2.469C3.266,2.469 3.312,2.422 3.312,2.375L3.313,2.375Z" style="fill-rule:nonzero;"/>
    </g>
    <g id="E2" serif:id="E" transform="matrix(1,0,0,1,34.39,44.355)">
        <path d="M4.656,-4.312C4.656,-4.406 4.547,-4.406 4.547,-4.406C4.469,-4.406 4.453,-4.39 4.391,-4.297C4.094,-3.813 3.891,-3.656 3.657,-3.656C3.407,-3.656 3.298,-3.812 3.141,-3.984C2.954,-4.203 2.782,-4.406 2.454,-4.406C1.704,-4.406 1.251,-3.484 1.251,-3.265C1.251,-3.218 1.282,-3.156 1.36,-3.156C1.454,-3.156 1.469,-3.203 1.501,-3.265C1.689,-3.734 2.267,-3.734 2.345,-3.734C2.548,-3.734 2.736,-3.671 2.97,-3.593C3.376,-3.437 3.486,-3.437 3.736,-3.437C3.377,-3.015 2.549,-2.296 2.361,-2.14L1.455,-1.296C0.781,-0.625 0.422,-0.062 0.422,0.016C0.422,0.11 0.547,0.11 0.547,0.11C0.625,0.11 0.641,0.094 0.703,-0.015C0.937,-0.374 1.234,-0.64 1.562,-0.64C1.781,-0.64 1.89,-0.546 2.14,-0.265C2.296,-0.046 2.484,0.11 2.765,0.11C3.765,0.11 4.343,-1.156 4.343,-1.421C4.343,-1.468 4.296,-1.53 4.218,-1.53C4.124,-1.53 4.109,-1.467 4.077,-1.389C3.843,-0.748 3.202,-0.561 2.874,-0.561C2.687,-0.561 2.499,-0.623 2.296,-0.686C1.952,-0.811 1.796,-0.858 1.593,-0.858C1.593,-0.858 1.421,-0.858 1.327,-0.827C1.858,-1.405 2.155,-1.655 2.515,-1.968L3.484,-2.859C4.437,-3.781 4.656,-4.265 4.656,-4.312Z" style="fill-rule:nonzero;"/>
    </g>
    <g id="H1" serif:id="H" transform="matrix(1,0,0,1,39.322,44.355)">
        <path d="M2.875,-2.078L2.875,-2.906C2.875,-4.609 1.828,-6.609 0.734,-7.437C0.703,-7.453 0.687,-7.453 0.672,-7.453C0.625,-7.453 0.563,-7.406 0.563,-7.359C0.563,-7.328 0.594,-7.296 0.61,-7.281C1.641,-6.5 2.328,-4.5 2.328,-2.906L2.328,-2.078C2.328,-0.484 1.641,1.516 0.609,2.297C0.593,2.313 0.562,2.344 0.562,2.375C0.562,2.422 0.625,2.469 0.671,2.469C0.687,2.469 0.702,2.469 0.734,2.453C1.828,1.625 2.875,-0.375 2.875,-2.078Z" style="fill-rule:nonzero;"/>
    </g>
    <g id="I" transform="matrix(1,0,0,1,45.957,44.355)">
        <path d="M7.203,-3.453C7.203,-3.562 7.109,-3.656 7,-3.656L0.75,-3.656C0.641,-3.656 0.563,-3.562 0.563,-3.453L0.563,-3.445C0.563,-3.346 0.644,-3.265 0.743,-3.265L7,-3.265C7.109,-3.265 7.203,-3.343 7.203,-3.452L7.203,-3.453ZM7.203,-1.531C7.203,-1.64 7.109,-1.718 7,-1.718L0.743,-1.718C0.644,-1.718 0.563,-1.637 0.563,-1.538L0.563,-1.53C0.563,-1.421 0.641,-1.327 0.751,-1.327L7,-1.327C7.109,-1.327 7.203,-1.421 7.203,-1.53L7.203,-1.531Z" style="fill-rule:nonzero;"/>
    </g>
    <g id="K" transform="matrix(1,0,0,1,56.482,44.355)">
        <path d="M3.313,-1.233L3.313,-1.796L3.063,-1.796L3.063,-1.249C3.063,-0.515 2.766,-0.14 2.391,-0.14C1.719,-0.14 1.719,-1.046 1.719,-1.218L1.719,-3.984L3.157,-3.984L3.157,-4.296L1.719,-4.296L1.719,-6.124L1.469,-6.124C1.469,-5.311 1.172,-4.249 0.188,-4.202L0.188,-3.983L1.032,-3.983L1.032,-1.233C1.032,-0.014 1.97,0.111 2.329,0.111C3.032,0.111 3.313,-0.592 3.313,-1.233Z" style="fill-rule:nonzero;"/>
    </g>
    <g id="L" transform="matrix(1,0,0,1,60.357,44.355)">
        <path d="M4.813,-0.891L4.813,-1.453L4.563,-1.453L4.563,-0.89C4.563,-0.312 4.313,-0.249 4.204,-0.249C3.876,-0.249 3.845,-0.702 3.845,-0.749L3.845,-2.733C3.845,-3.155 3.845,-3.545 3.486,-3.92C3.095,-4.311 2.595,-4.467 2.111,-4.467C1.299,-4.467 0.611,-3.998 0.611,-3.342C0.611,-3.045 0.814,-2.873 1.064,-2.873C1.345,-2.873 1.533,-3.076 1.533,-3.326C1.533,-3.451 1.471,-3.779 1.017,-3.779C1.283,-4.138 1.783,-4.248 2.095,-4.248C2.579,-4.248 3.158,-3.857 3.158,-2.967L3.158,-2.608C2.642,-2.577 1.939,-2.545 1.314,-2.249C0.564,-1.905 0.314,-1.39 0.314,-0.952C0.314,-0.139 1.283,0.111 1.908,0.111C2.58,0.111 3.033,-0.295 3.221,-0.748C3.268,-0.357 3.534,0.065 4.002,0.065C4.205,0.065 4.815,-0.076 4.815,-0.888L4.813,-0.891ZM3.157,-1.391C3.157,-0.453 2.438,-0.11 1.985,-0.11C1.501,-0.11 1.094,-0.454 1.094,-0.954C1.094,-1.501 1.5,-2.329 3.157,-2.391L3.157,-1.391Z" style="fill-rule:nonzero;"/>
    </g>
    <g id="M" transform="matrix(1,0,0,1,65.339,44.355)">
        <path d="M5.328,0L5.328,-0.312C4.812,-0.312 4.562,-0.312 4.562,-0.609L4.562,-2.515C4.562,-3.374 4.562,-3.671 4.25,-4.031C4.109,-4.203 3.781,-4.406 3.203,-4.406C2.469,-4.406 2,-3.984 1.719,-3.359L1.719,-4.406L0.313,-4.297L0.313,-3.984C1.016,-3.984 1.094,-3.921 1.094,-3.421L1.094,-0.75C1.094,-0.312 0.985,-0.312 0.313,-0.312L0.313,0L1.454,-0.031L2.563,0L2.563,-0.312C1.891,-0.312 1.782,-0.312 1.782,-0.749L1.782,-2.593C1.782,-3.624 2.501,-4.187 3.126,-4.187C3.767,-4.187 3.876,-3.656 3.876,-3.078L3.876,-0.75C3.876,-0.312 3.767,-0.312 3.095,-0.312L3.095,0L4.22,-0.031L5.328,0Z" style="fill-rule:nonzero;"/>
    </g>
    <g id="N" transform="matrix(1,0,0,1,70.878,44.355)">
        <path d="M5.328,0L5.328,-0.312C4.812,-0.312 4.562,-0.312 4.562,-0.609L4.562,-2.515C4.562,-3.374 4.562,-3.671 4.25,-4.031C4.109,-4.203 3.781,-4.406 3.203,-4.406C2.359,-4.406 1.922,-3.812 1.766,-3.453L1.75,-3.453L1.75,-6.922L0.313,-6.813L0.313,-6.5C1.016,-6.5 1.094,-6.437 1.094,-5.937L1.094,-0.75C1.094,-0.312 0.985,-0.312 0.313,-0.312L0.313,0L1.454,-0.031L2.563,0L2.563,-0.312C1.891,-0.312 1.782,-0.312 1.782,-0.749L1.782,-2.593C1.782,-3.624 2.501,-4.187 3.126,-4.187C3.767,-4.187 3.876,-3.656 3.876,-3.078L3.876,-0.75C3.876,-0.312 3.767,-0.312 3.095,-0.312L3.095,0L4.22,-0.031L5.328,0Z" style="fill-rule:nonzero;"/>
    </g>
    <g id="G2" serif:id="G" transform="matrix(1,0,0,1,76.418,44.355)">
        <path d="M3.313,2.375C3.313,2.344 3.297,2.313 3.266,2.297C2.235,1.516 1.547,-0.484 1.547,-2.078L1.547,-2.906C1.547,-4.5 2.235,-6.5 3.266,-7.281C3.297,-7.297 3.313,-7.328 3.313,-7.359C3.313,-7.406 3.266,-7.453 3.204,-7.453C3.188,-7.453 3.173,-7.453 3.157,-7.437C2.047,-6.609 1,-4.609 1,-2.906L1,-2.078C1,-0.375 2.047,1.625 3.156,2.453C3.172,2.469 3.187,2.469 3.203,2.469C3.266,2.469 3.312,2.422 3.312,2.375L3.313,2.375Z" style="fill-rule:nonzero;"/>
    </g>
    <g id="E3" serif:id="E" transform="matrix(1,0,0,1,80.293,44.355)">
        <path d="M4.656,-4.312C4.656,-4.406 4.547,-4.406 4.547,-4.406C4.469,-4.406 4.453,-4.39 4.391,-4.297C4.094,-3.813 3.891,-3.656 3.657,-3.656C3.407,-3.656 3.298,-3.812 3.141,-3.984C2.954,-4.203 2.782,-4.406 2.454,-4.406C1.704,-4.406 1.251,-3.484 1.251,-3.265C1.251,-3.218 1.282,-3.156 1.36,-3.156C1.454,-3.156 1.469,-3.203 1.501,-3.265C1.689,-3.734 2.267,-3.734 2.345,-3.734C2.548,-3.734 2.736,-3.671 2.97,-3.593C3.376,-3.437 3.486,-3.437 3.736,-3.437C3.377,-3.015 2.549,-2.296 2.361,-2.14L1.455,-1.296C0.781,-0.625 0.422,-0.062 0.422,0.016C0.422,0.11 0.547,0.11 0.547,0.11C0.625,0.11 0.641,0.094 0.703,-0.015C0.937,-0.374 1.234,-0.64 1.562,-0.64C1.781,-0.64 1.89,-0.546 2.14,-0.265C2.296,-0.046 2.484,0.11 2.765,0.11C3.765,0.11 4.343,-1.156 4.343,-1.421C4.343,-1.468 4.296,-1.53 4.218,-1.53C4.124,-1.53 4.109,-1.467 4.077,-1.389C3.843,-0.748 3.202,-0.561 2.874,-0.561C2.687,-0.561 2.499,-0.623 2.296,-0.686C1.952,-0.811 1.796,-0.858 1.593,-0.858C1.593,-0.858 1.421,-0.858 1.327,-0.827C1.858,-1.405 2.155,-1.655 2.515,-1.968L3.484,-2.859C4.437,-3.781 4.656,-4.265 4.656,-4.312Z" style="fill-rule:nonzero;"/>
    </g>
    <g id="H2" serif:id="H" transform="matrix(1,0,0,1,85.225,44.355)">
        <path d="M2.875,-2.078L2.875,-2.906C2.875,-4.609 1.828,-6.609 0.734,-7.437C0.703,-7.453 0.687,-7.453 0.672,-7.453C0.625,-7.453 0.563,-7.406 0.563,-7.359C0.563,-7.328 0.594,-7.296 0.61,-7.281C1.641,-6.5 2.328,-4.5 2.328,-2.906L2.328,-2.078C2.328,-0.484 1.641,1.516 0.609,2.297C0.593,2.313 0.562,2.344 0.562,2.375C0.562,2.422 0.625,2.469 0.671,2.469C0.687,2.469 0.702,2.469 0.734,2.453C1.828,1.625 2.875,-0.375 2.875,-2.078Z" style="fill-rule:nonzero;"/>
    </g>
</svg>
